G04 #@! TF.FileFunction,Copper,L2,Bot,Signal*
%FSLAX46Y46*%
G04 Gerber Fmt 4.6, Leading zero omitted, Abs format (unit mm)*
G04 Created by KiCad (PCBNEW 4.0.7) date Wednesday, February 06, 2019 'PMt' 10:52:11 PM*
%MOMM*%
%LPD*%
G01*
G04 APERTURE LIST*
%ADD10C,0.100000*%
%ADD11C,0.950000*%
%ADD12C,1.000000*%
%ADD13R,1.700000X1.700000*%
%ADD14O,1.700000X1.700000*%
%ADD15C,3.400000*%
%ADD16C,1.900000*%
%ADD17C,1.500000*%
%ADD18C,0.600000*%
%ADD19C,0.250000*%
G04 APERTURE END LIST*
D10*
D11*
X165187717Y-59076917D02*
X164892275Y-59024823D01*
X160263679Y-58208676D02*
X159968237Y-58156582D01*
D12*
X166541407Y-56294715D02*
X166445901Y-56836359D01*
X159647753Y-55079178D02*
X159552247Y-55620822D01*
D13*
X170000000Y-98030000D03*
D14*
X170000000Y-95490000D03*
X170000000Y-92950000D03*
X170000000Y-90410000D03*
D15*
X48750000Y-65100000D03*
D16*
X54250000Y-65100000D03*
X43250000Y-65100000D03*
D17*
X48750000Y-59200000D03*
X43800000Y-61300000D03*
D15*
X48750000Y-84100000D03*
D16*
X54250000Y-84100000D03*
X43250000Y-84100000D03*
D17*
X48750000Y-78200000D03*
X43800000Y-80300000D03*
D15*
X48750000Y-103100000D03*
D16*
X54250000Y-103100000D03*
X43250000Y-103100000D03*
D17*
X48750000Y-97200000D03*
X43800000Y-99300000D03*
D15*
X48750000Y-122100000D03*
D16*
X54250000Y-122100000D03*
X43250000Y-122100000D03*
D17*
X48750000Y-116200000D03*
X43800000Y-118300000D03*
D15*
X48750000Y-141100000D03*
D16*
X54250000Y-141100000D03*
X43250000Y-141100000D03*
D17*
X48750000Y-135200000D03*
X43800000Y-137300000D03*
D15*
X67750000Y-65100000D03*
D16*
X73250000Y-65100000D03*
X62250000Y-65100000D03*
D17*
X67750000Y-59200000D03*
X62800000Y-61300000D03*
D15*
X67750000Y-84100000D03*
D16*
X73250000Y-84100000D03*
X62250000Y-84100000D03*
D17*
X67750000Y-78200000D03*
X62800000Y-80300000D03*
D15*
X67750000Y-103100000D03*
D16*
X73250000Y-103100000D03*
X62250000Y-103100000D03*
D17*
X67750000Y-97200000D03*
X62800000Y-99300000D03*
D15*
X67750000Y-122100000D03*
D16*
X73250000Y-122100000D03*
X62250000Y-122100000D03*
D17*
X67750000Y-116200000D03*
X62800000Y-118300000D03*
D15*
X67750000Y-141100000D03*
D16*
X73250000Y-141100000D03*
X62250000Y-141100000D03*
D17*
X67750000Y-135200000D03*
X62800000Y-137300000D03*
D15*
X87050000Y-60100000D03*
D16*
X92550000Y-60100000D03*
X81550000Y-60100000D03*
D17*
X87050000Y-54200000D03*
X82100000Y-56300000D03*
D15*
X87050000Y-79100000D03*
D16*
X92550000Y-79100000D03*
X81550000Y-79100000D03*
D17*
X87050000Y-73200000D03*
X82100000Y-75300000D03*
D15*
X87050000Y-98100000D03*
D16*
X92550000Y-98100000D03*
X81550000Y-98100000D03*
D17*
X87050000Y-92200000D03*
X82100000Y-94300000D03*
D15*
X87050000Y-117100000D03*
D16*
X92550000Y-117100000D03*
X81550000Y-117100000D03*
D17*
X87050000Y-111200000D03*
X82100000Y-113300000D03*
D15*
X87050000Y-136100000D03*
D16*
X92550000Y-136100000D03*
X81550000Y-136100000D03*
D17*
X87050000Y-130200000D03*
X82100000Y-132300000D03*
D15*
X106050000Y-55100000D03*
D16*
X111550000Y-55100000D03*
X100550000Y-55100000D03*
D17*
X106050000Y-49200000D03*
X101100000Y-51300000D03*
D15*
X106150000Y-74100000D03*
D16*
X111650000Y-74100000D03*
X100650000Y-74100000D03*
D17*
X106150000Y-68200000D03*
X101200000Y-70300000D03*
D15*
X106050000Y-93100000D03*
D16*
X111550000Y-93100000D03*
X100550000Y-93100000D03*
D17*
X106050000Y-87200000D03*
X101100000Y-89300000D03*
D15*
X106050000Y-112100000D03*
D16*
X111550000Y-112100000D03*
X100550000Y-112100000D03*
D17*
X106050000Y-106200000D03*
X101100000Y-108300000D03*
D15*
X106050000Y-131100000D03*
D16*
X111550000Y-131100000D03*
X100550000Y-131100000D03*
D17*
X106050000Y-125200000D03*
X101100000Y-127300000D03*
D15*
X125050000Y-60100000D03*
D16*
X130550000Y-60100000D03*
X119550000Y-60100000D03*
D17*
X125050000Y-54200000D03*
X120100000Y-56300000D03*
D15*
X125050000Y-79100000D03*
D16*
X130550000Y-79100000D03*
X119550000Y-79100000D03*
D17*
X125050000Y-73200000D03*
X120100000Y-75300000D03*
D15*
X125050000Y-98100000D03*
D16*
X130550000Y-98100000D03*
X119550000Y-98100000D03*
D17*
X125050000Y-92200000D03*
X120100000Y-94300000D03*
D15*
X125050000Y-117100000D03*
D16*
X130550000Y-117100000D03*
X119550000Y-117100000D03*
D17*
X125050000Y-111200000D03*
X120100000Y-113300000D03*
D15*
X125050000Y-136100000D03*
D16*
X130550000Y-136100000D03*
X119550000Y-136100000D03*
D17*
X125050000Y-130200000D03*
X120100000Y-132300000D03*
D15*
X144050000Y-65100000D03*
D16*
X149550000Y-65100000D03*
X138550000Y-65100000D03*
D17*
X144050000Y-59200000D03*
X139100000Y-61300000D03*
D15*
X144050000Y-84100000D03*
D16*
X149550000Y-84100000D03*
X138550000Y-84100000D03*
D17*
X144050000Y-78200000D03*
X139100000Y-80300000D03*
D15*
X144050000Y-103100000D03*
D16*
X149550000Y-103100000D03*
X138550000Y-103100000D03*
D17*
X144050000Y-97200000D03*
X139100000Y-99300000D03*
D15*
X144050000Y-122100000D03*
D16*
X149550000Y-122100000D03*
X138550000Y-122100000D03*
D17*
X144050000Y-116200000D03*
X139100000Y-118300000D03*
D15*
X144050000Y-141100000D03*
D16*
X149550000Y-141100000D03*
X138550000Y-141100000D03*
D17*
X144050000Y-135200000D03*
X139100000Y-137300000D03*
D15*
X163050000Y-149100000D03*
D16*
X168550000Y-149100000D03*
X157550000Y-149100000D03*
D17*
X163050000Y-143200000D03*
X158100000Y-145300000D03*
D15*
X163050000Y-130100000D03*
D16*
X168550000Y-130100000D03*
X157550000Y-130100000D03*
D17*
X163050000Y-124200000D03*
X158100000Y-126300000D03*
D18*
X150727566Y-66577566D03*
X57650000Y-63900000D03*
X72700000Y-67450000D03*
X150650000Y-67700000D03*
X156575010Y-69200000D03*
X102650000Y-68550000D03*
X156679454Y-70945556D03*
X120650000Y-70700000D03*
X157304454Y-71570556D03*
X131150000Y-72400000D03*
X148300000Y-74700000D03*
X161000000Y-75574990D03*
X160500000Y-76400000D03*
X160500000Y-73700000D03*
X167150000Y-68700000D03*
X170200000Y-79800000D03*
X163100000Y-79850000D03*
X165925021Y-70678206D03*
X161725033Y-78221460D03*
X164150000Y-80400000D03*
X164200000Y-81350000D03*
X164250000Y-82550000D03*
X164250000Y-83750000D03*
D19*
X150427567Y-66877565D02*
X150727566Y-66577566D01*
X150180131Y-67125001D02*
X150427567Y-66877565D01*
X68722001Y-67125001D02*
X69247002Y-66600000D01*
X60875001Y-67125001D02*
X68722001Y-67125001D01*
X57650000Y-63900000D02*
X60875001Y-67125001D01*
X143077999Y-67125001D02*
X150180131Y-67125001D01*
X142552998Y-66600000D02*
X143077999Y-67125001D01*
X69247002Y-66600000D02*
X142552998Y-66600000D01*
X72700000Y-67450000D02*
X73025001Y-67124999D01*
X106666001Y-67124999D02*
X107241002Y-67700000D01*
X73025001Y-67124999D02*
X106666001Y-67124999D01*
X107241002Y-67700000D02*
X150650000Y-67700000D01*
X102650000Y-68550000D02*
X103599999Y-69499999D01*
X103599999Y-69499999D02*
X156275011Y-69499999D01*
X156275011Y-69499999D02*
X156575010Y-69200000D01*
X156433898Y-70700000D02*
X156679454Y-70945556D01*
X120650000Y-70700000D02*
X156433898Y-70700000D01*
X131150000Y-72400000D02*
X156475010Y-72400000D01*
X156475010Y-72400000D02*
X157304454Y-71570556D01*
X148300000Y-74700000D02*
X149174990Y-75574990D01*
X149174990Y-75574990D02*
X161000000Y-75574990D01*
X165925021Y-70678206D02*
X163521794Y-70678206D01*
X163521794Y-70678206D02*
X160500000Y-73700000D01*
X167150000Y-68700000D02*
X167150000Y-69453227D01*
X167600000Y-77200000D02*
X170200000Y-79800000D01*
X165750000Y-77200000D02*
X165925021Y-77024979D01*
X165750000Y-77200000D02*
X167600000Y-77200000D01*
X165750000Y-77200000D02*
X163100000Y-79850000D01*
X165925021Y-77024979D02*
X165925021Y-70678206D01*
X167150000Y-69453227D02*
X165925021Y-70678206D01*
X162025032Y-74400028D02*
X162025032Y-77921461D01*
X162025032Y-77921461D02*
X161725033Y-78221460D01*
X161950006Y-74325002D02*
X162025032Y-74400028D01*
X159449998Y-74325002D02*
X161950006Y-74325002D01*
X159124998Y-74000002D02*
X159449998Y-74325002D01*
X159124998Y-71499994D02*
X159124998Y-74000002D01*
X157200012Y-69575008D02*
X159124998Y-71499994D01*
X139100000Y-61300000D02*
X149600014Y-61300000D01*
X149600014Y-61300000D02*
X157200012Y-68899998D01*
X157200012Y-68899998D02*
X157200012Y-69575008D01*
X134100000Y-56300000D02*
X139100000Y-61300000D01*
X120100000Y-56300000D02*
X134100000Y-56300000D01*
X101100000Y-51300000D02*
X115100000Y-51300000D01*
X115100000Y-51300000D02*
X120100000Y-56300000D01*
X82100000Y-56300000D02*
X96100000Y-56300000D01*
X96100000Y-56300000D02*
X101100000Y-51300000D01*
X62800000Y-61300000D02*
X77100000Y-61300000D01*
X77100000Y-61300000D02*
X82100000Y-56300000D01*
X43800000Y-61300000D02*
X62800000Y-61300000D01*
X162624996Y-80300000D02*
X139100000Y-80300000D01*
X120100000Y-75300000D02*
X134100000Y-75300000D01*
X134100000Y-75300000D02*
X139100000Y-80300000D01*
X101200000Y-70300000D02*
X115100000Y-70300000D01*
X115100000Y-70300000D02*
X120100000Y-75300000D01*
X82100000Y-75300000D02*
X96200000Y-75300000D01*
X96200000Y-75300000D02*
X101200000Y-70300000D01*
X62800000Y-80300000D02*
X77100000Y-80300000D01*
X77100000Y-80300000D02*
X82100000Y-75300000D01*
X43800000Y-80300000D02*
X62800000Y-80300000D01*
X164150000Y-80400000D02*
X163850001Y-80699999D01*
X163850001Y-80699999D02*
X163024995Y-80699999D01*
X163024995Y-80699999D02*
X162624996Y-80300000D01*
X120100000Y-94300000D02*
X134100000Y-94300000D01*
X134100000Y-94300000D02*
X139100000Y-99300000D01*
X101100000Y-89300000D02*
X101849999Y-90049999D01*
X101849999Y-90049999D02*
X115849999Y-90049999D01*
X115849999Y-90049999D02*
X120100000Y-94300000D01*
X82100000Y-94300000D02*
X96100000Y-94300000D01*
X96100000Y-94300000D02*
X101100000Y-89300000D01*
X62800000Y-99300000D02*
X77100000Y-99300000D01*
X77100000Y-99300000D02*
X82100000Y-94300000D01*
X43800000Y-99300000D02*
X62800000Y-99300000D01*
X146250000Y-99300000D02*
X139100000Y-99300000D01*
X164200000Y-81350000D02*
X146250000Y-99300000D01*
X120100000Y-113300000D02*
X134100000Y-113300000D01*
X134100000Y-113300000D02*
X139100000Y-118300000D01*
X101100000Y-108300000D02*
X115100000Y-108300000D01*
X115100000Y-108300000D02*
X120100000Y-113300000D01*
X82100000Y-113300000D02*
X87100000Y-108300000D01*
X87100000Y-108300000D02*
X101100000Y-108300000D01*
X62800000Y-118300000D02*
X77100000Y-118300000D01*
X77100000Y-118300000D02*
X82100000Y-113300000D01*
X43800000Y-118300000D02*
X62800000Y-118300000D01*
X158100000Y-126300000D02*
X158100000Y-118775001D01*
X148274999Y-109125001D02*
X139100000Y-118300000D01*
X164250000Y-82550000D02*
X148274999Y-98525001D01*
X148274999Y-98525001D02*
X148274999Y-108950000D01*
X158100000Y-118775001D02*
X148274999Y-108950000D01*
X148274999Y-108950000D02*
X148274999Y-109125001D01*
X139100000Y-137300000D02*
X150100000Y-137300000D01*
X150100000Y-137300000D02*
X158100000Y-145300000D01*
X120100000Y-132300000D02*
X134100000Y-132300000D01*
X134100000Y-132300000D02*
X139100000Y-137300000D01*
X101100000Y-127300000D02*
X115100000Y-127300000D01*
X115100000Y-127300000D02*
X120100000Y-132300000D01*
X82100000Y-132300000D02*
X96100000Y-132300000D01*
X96100000Y-132300000D02*
X101100000Y-127300000D01*
X62800000Y-137300000D02*
X67800000Y-132300000D01*
X67800000Y-132300000D02*
X82100000Y-132300000D01*
X43800000Y-137300000D02*
X62800000Y-137300000D01*
X165075001Y-138324999D02*
X158100000Y-145300000D01*
X164250000Y-83750000D02*
X165075001Y-84575001D01*
X165075001Y-84575001D02*
X165075001Y-138324999D01*
M02*
