G04 #@! TF.GenerationSoftware,KiCad,Pcbnew,(5.0.1-3-g963ef8bb5)*
G04 #@! TF.CreationDate,2019-02-26T10:41:44-08:00*
G04 #@! TF.ProjectId,atreus-butterfly-62,6174726575732D627574746572666C79,rev?*
G04 #@! TF.SameCoordinates,Original*
G04 #@! TF.FileFunction,Legend,Top*
G04 #@! TF.FilePolarity,Positive*
%FSLAX46Y46*%
G04 Gerber Fmt 4.6, Leading zero omitted, Abs format (unit mm)*
G04 Created by KiCad (PCBNEW (5.0.1-3-g963ef8bb5)) date Tuesday, February 26, 2019 at 10:41:44 AM*
%MOMM*%
%LPD*%
G01*
G04 APERTURE LIST*
%ADD10C,0.150000*%
%ADD11C,0.120000*%
G04 APERTURE END LIST*
D10*
G04 #@! TO.C,SW26*
X145063015Y-69900000D02*
G75*
G03X145063015Y-69900000I-1063015J0D01*
G01*
X136550000Y-72600000D02*
X136550000Y-57600000D01*
X151550000Y-72600000D02*
X136550000Y-72600000D01*
X151550000Y-57600000D02*
X151550000Y-72600000D01*
X136550000Y-57600000D02*
X151550000Y-57600000D01*
D11*
G04 #@! TO.C,C1*
X115250000Y-150500000D02*
X115250000Y-149500000D01*
X113550000Y-149500000D02*
X113550000Y-150500000D01*
G04 #@! TO.C,C2*
X110150000Y-149600000D02*
X110150000Y-150600000D01*
X111850000Y-150600000D02*
X111850000Y-149600000D01*
G04 #@! TO.C,C3*
X109350000Y-141100000D02*
X109350000Y-142100000D01*
X111050000Y-142100000D02*
X111050000Y-141100000D01*
G04 #@! TO.C,C4*
X95150000Y-140200000D02*
X95150000Y-141200000D01*
X96850000Y-141200000D02*
X96850000Y-140200000D01*
G04 #@! TO.C,D1*
X52050000Y-56900000D02*
X52050000Y-54900000D01*
X52050000Y-54900000D02*
X48150000Y-54900000D01*
X52050000Y-56900000D02*
X48150000Y-56900000D01*
G04 #@! TO.C,D2*
X51850000Y-75900000D02*
X51850000Y-73900000D01*
X51850000Y-73900000D02*
X47950000Y-73900000D01*
X51850000Y-75900000D02*
X47950000Y-75900000D01*
G04 #@! TO.C,D3*
X51700000Y-94750000D02*
X51700000Y-92750000D01*
X51700000Y-92750000D02*
X47800000Y-92750000D01*
X51700000Y-94750000D02*
X47800000Y-94750000D01*
G04 #@! TO.C,D4*
X51700000Y-113450000D02*
X51700000Y-111450000D01*
X51700000Y-111450000D02*
X47800000Y-111450000D01*
X51700000Y-113450000D02*
X47800000Y-113450000D01*
G04 #@! TO.C,D5*
X51850000Y-132450000D02*
X51850000Y-130450000D01*
X51850000Y-130450000D02*
X47950000Y-130450000D01*
X51850000Y-132450000D02*
X47950000Y-132450000D01*
G04 #@! TO.C,D6*
X70600000Y-56550000D02*
X70600000Y-54550000D01*
X70600000Y-54550000D02*
X66700000Y-54550000D01*
X70600000Y-56550000D02*
X66700000Y-56550000D01*
G04 #@! TO.C,D7*
X70400000Y-75750000D02*
X70400000Y-73750000D01*
X70400000Y-73750000D02*
X66500000Y-73750000D01*
X70400000Y-75750000D02*
X66500000Y-75750000D01*
G04 #@! TO.C,D8*
X70650000Y-94850000D02*
X70650000Y-92850000D01*
X70650000Y-92850000D02*
X66750000Y-92850000D01*
X70650000Y-94850000D02*
X66750000Y-94850000D01*
G04 #@! TO.C,D9*
X70700000Y-113950000D02*
X70700000Y-111950000D01*
X70700000Y-111950000D02*
X66800000Y-111950000D01*
X70700000Y-113950000D02*
X66800000Y-113950000D01*
G04 #@! TO.C,D10*
X70000000Y-132650000D02*
X70000000Y-130650000D01*
X70000000Y-130650000D02*
X66100000Y-130650000D01*
X70000000Y-132650000D02*
X66100000Y-132650000D01*
G04 #@! TO.C,D11*
X89450000Y-51750000D02*
X89450000Y-49750000D01*
X89450000Y-49750000D02*
X85550000Y-49750000D01*
X89450000Y-51750000D02*
X85550000Y-51750000D01*
G04 #@! TO.C,D12*
X89250000Y-70900000D02*
X89250000Y-68900000D01*
X89250000Y-68900000D02*
X85350000Y-68900000D01*
X89250000Y-70900000D02*
X85350000Y-70900000D01*
G04 #@! TO.C,D13*
X89400000Y-89650000D02*
X89400000Y-87650000D01*
X89400000Y-87650000D02*
X85500000Y-87650000D01*
X89400000Y-89650000D02*
X85500000Y-89650000D01*
G04 #@! TO.C,D14*
X89250000Y-108550000D02*
X89250000Y-106550000D01*
X89250000Y-106550000D02*
X85350000Y-106550000D01*
X89250000Y-108550000D02*
X85350000Y-108550000D01*
G04 #@! TO.C,D15*
X89550000Y-127800000D02*
X89550000Y-125800000D01*
X89550000Y-125800000D02*
X85650000Y-125800000D01*
X89550000Y-127800000D02*
X85650000Y-127800000D01*
G04 #@! TO.C,D16*
X114600000Y-52650000D02*
X116600000Y-52650000D01*
X116600000Y-52650000D02*
X116600000Y-48750000D01*
X114600000Y-52650000D02*
X114600000Y-48750000D01*
G04 #@! TO.C,D17*
X108550000Y-65700000D02*
X108550000Y-63700000D01*
X108550000Y-63700000D02*
X104650000Y-63700000D01*
X108550000Y-65700000D02*
X104650000Y-65700000D01*
G04 #@! TO.C,D18*
X109200000Y-84750000D02*
X109200000Y-82750000D01*
X109200000Y-82750000D02*
X105300000Y-82750000D01*
X109200000Y-84750000D02*
X105300000Y-84750000D01*
G04 #@! TO.C,D19*
X108900000Y-103650000D02*
X108900000Y-101650000D01*
X108900000Y-101650000D02*
X105000000Y-101650000D01*
X108900000Y-103650000D02*
X105000000Y-103650000D01*
G04 #@! TO.C,D20*
X108550000Y-122500000D02*
X108550000Y-120500000D01*
X108550000Y-120500000D02*
X104650000Y-120500000D01*
X108550000Y-122500000D02*
X104650000Y-122500000D01*
G04 #@! TO.C,D21*
X127750000Y-51900000D02*
X127750000Y-49900000D01*
X127750000Y-49900000D02*
X123850000Y-49900000D01*
X127750000Y-51900000D02*
X123850000Y-51900000D01*
G04 #@! TO.C,D22*
X127400000Y-70750000D02*
X127400000Y-68750000D01*
X127400000Y-68750000D02*
X123500000Y-68750000D01*
X127400000Y-70750000D02*
X123500000Y-70750000D01*
G04 #@! TO.C,D23*
X127750000Y-89750000D02*
X127750000Y-87750000D01*
X127750000Y-87750000D02*
X123850000Y-87750000D01*
X127750000Y-89750000D02*
X123850000Y-89750000D01*
G04 #@! TO.C,D24*
X127250000Y-108750000D02*
X127250000Y-106750000D01*
X127250000Y-106750000D02*
X123350000Y-106750000D01*
X127250000Y-108750000D02*
X123350000Y-108750000D01*
G04 #@! TO.C,D25*
X127450000Y-127750000D02*
X127450000Y-125750000D01*
X127450000Y-125750000D02*
X123550000Y-125750000D01*
X127450000Y-127750000D02*
X123550000Y-127750000D01*
G04 #@! TO.C,D26*
X148550000Y-56200000D02*
X148550000Y-54200000D01*
X148550000Y-54200000D02*
X144650000Y-54200000D01*
X148550000Y-56200000D02*
X144650000Y-56200000D01*
G04 #@! TO.C,D27*
X146600000Y-75700000D02*
X146600000Y-73700000D01*
X146600000Y-73700000D02*
X142700000Y-73700000D01*
X146600000Y-75700000D02*
X142700000Y-75700000D01*
G04 #@! TO.C,D28*
X146350000Y-94850000D02*
X146350000Y-92850000D01*
X146350000Y-92850000D02*
X142450000Y-92850000D01*
X146350000Y-94850000D02*
X142450000Y-94850000D01*
G04 #@! TO.C,D29*
X146700000Y-114000000D02*
X146700000Y-112000000D01*
X146700000Y-112000000D02*
X142800000Y-112000000D01*
X146700000Y-114000000D02*
X142800000Y-114000000D01*
G04 #@! TO.C,D30*
X145900000Y-132600000D02*
X145900000Y-130600000D01*
X145900000Y-130600000D02*
X142000000Y-130600000D01*
X145900000Y-132600000D02*
X142000000Y-132600000D01*
G04 #@! TO.C,J1*
X145750000Y-45570000D02*
X137050000Y-45570000D01*
X145750000Y-51980000D02*
X137050000Y-51980000D01*
X137050000Y-51980000D02*
X137050000Y-45570000D01*
X137050000Y-46800000D02*
X145750000Y-46800000D01*
X145750000Y-45570000D02*
X145750000Y-51980000D01*
G04 #@! TO.C,J2*
X152830000Y-45850000D02*
X150170000Y-45850000D01*
X152830000Y-53530000D02*
X152830000Y-45850000D01*
X150170000Y-53530000D02*
X150170000Y-45850000D01*
X152830000Y-53530000D02*
X150170000Y-53530000D01*
X152830000Y-54800000D02*
X152830000Y-56130000D01*
X152830000Y-56130000D02*
X151500000Y-56130000D01*
G04 #@! TO.C,R1*
X138280000Y-54200000D02*
X138280000Y-55200000D01*
X136920000Y-55200000D02*
X136920000Y-54200000D01*
G04 #@! TO.C,R2*
X140680000Y-54200000D02*
X140680000Y-55200000D01*
X139320000Y-55200000D02*
X139320000Y-54200000D01*
G04 #@! TO.C,R3*
X96100000Y-148820000D02*
X97100000Y-148820000D01*
X97100000Y-150180000D02*
X96100000Y-150180000D01*
D10*
G04 #@! TO.C,SW1*
X49763015Y-69900000D02*
G75*
G03X49763015Y-69900000I-1063015J0D01*
G01*
X41250000Y-72600000D02*
X41250000Y-57600000D01*
X56250000Y-72600000D02*
X41250000Y-72600000D01*
X56250000Y-57600000D02*
X56250000Y-72600000D01*
X41250000Y-57600000D02*
X56250000Y-57600000D01*
G04 #@! TO.C,SW2*
X49763015Y-88900000D02*
G75*
G03X49763015Y-88900000I-1063015J0D01*
G01*
X41250000Y-91600000D02*
X41250000Y-76600000D01*
X56250000Y-91600000D02*
X41250000Y-91600000D01*
X56250000Y-76600000D02*
X56250000Y-91600000D01*
X41250000Y-76600000D02*
X56250000Y-76600000D01*
G04 #@! TO.C,SW3*
X49763015Y-107900000D02*
G75*
G03X49763015Y-107900000I-1063015J0D01*
G01*
X41250000Y-110600000D02*
X41250000Y-95600000D01*
X56250000Y-110600000D02*
X41250000Y-110600000D01*
X56250000Y-95600000D02*
X56250000Y-110600000D01*
X41250000Y-95600000D02*
X56250000Y-95600000D01*
G04 #@! TO.C,SW4*
X49763015Y-126900000D02*
G75*
G03X49763015Y-126900000I-1063015J0D01*
G01*
X41250000Y-129600000D02*
X41250000Y-114600000D01*
X56250000Y-129600000D02*
X41250000Y-129600000D01*
X56250000Y-114600000D02*
X56250000Y-129600000D01*
X41250000Y-114600000D02*
X56250000Y-114600000D01*
G04 #@! TO.C,SW5*
X49763015Y-145900000D02*
G75*
G03X49763015Y-145900000I-1063015J0D01*
G01*
X41250000Y-148600000D02*
X41250000Y-133600000D01*
X56250000Y-148600000D02*
X41250000Y-148600000D01*
X56250000Y-133600000D02*
X56250000Y-148600000D01*
X41250000Y-133600000D02*
X56250000Y-133600000D01*
G04 #@! TO.C,SW6*
X68763015Y-69900000D02*
G75*
G03X68763015Y-69900000I-1063015J0D01*
G01*
X60250000Y-72600000D02*
X60250000Y-57600000D01*
X75250000Y-72600000D02*
X60250000Y-72600000D01*
X75250000Y-57600000D02*
X75250000Y-72600000D01*
X60250000Y-57600000D02*
X75250000Y-57600000D01*
G04 #@! TO.C,SW7*
X68763015Y-88900000D02*
G75*
G03X68763015Y-88900000I-1063015J0D01*
G01*
X60250000Y-91600000D02*
X60250000Y-76600000D01*
X75250000Y-91600000D02*
X60250000Y-91600000D01*
X75250000Y-76600000D02*
X75250000Y-91600000D01*
X60250000Y-76600000D02*
X75250000Y-76600000D01*
G04 #@! TO.C,SW8*
X68763015Y-107900000D02*
G75*
G03X68763015Y-107900000I-1063015J0D01*
G01*
X60250000Y-110600000D02*
X60250000Y-95600000D01*
X75250000Y-110600000D02*
X60250000Y-110600000D01*
X75250000Y-95600000D02*
X75250000Y-110600000D01*
X60250000Y-95600000D02*
X75250000Y-95600000D01*
G04 #@! TO.C,SW9*
X68763015Y-126900000D02*
G75*
G03X68763015Y-126900000I-1063015J0D01*
G01*
X60250000Y-129600000D02*
X60250000Y-114600000D01*
X75250000Y-129600000D02*
X60250000Y-129600000D01*
X75250000Y-114600000D02*
X75250000Y-129600000D01*
X60250000Y-114600000D02*
X75250000Y-114600000D01*
G04 #@! TO.C,SW10*
X68763015Y-145900000D02*
G75*
G03X68763015Y-145900000I-1063015J0D01*
G01*
X60250000Y-148600000D02*
X60250000Y-133600000D01*
X75250000Y-148600000D02*
X60250000Y-148600000D01*
X75250000Y-133600000D02*
X75250000Y-148600000D01*
X60250000Y-133600000D02*
X75250000Y-133600000D01*
G04 #@! TO.C,SW11*
X88063015Y-64900000D02*
G75*
G03X88063015Y-64900000I-1063015J0D01*
G01*
X79550000Y-67600000D02*
X79550000Y-52600000D01*
X94550000Y-67600000D02*
X79550000Y-67600000D01*
X94550000Y-52600000D02*
X94550000Y-67600000D01*
X79550000Y-52600000D02*
X94550000Y-52600000D01*
G04 #@! TO.C,SW12*
X88063015Y-83900000D02*
G75*
G03X88063015Y-83900000I-1063015J0D01*
G01*
X79550000Y-86600000D02*
X79550000Y-71600000D01*
X94550000Y-86600000D02*
X79550000Y-86600000D01*
X94550000Y-71600000D02*
X94550000Y-86600000D01*
X79550000Y-71600000D02*
X94550000Y-71600000D01*
G04 #@! TO.C,SW13*
X88063015Y-102900000D02*
G75*
G03X88063015Y-102900000I-1063015J0D01*
G01*
X79550000Y-105600000D02*
X79550000Y-90600000D01*
X94550000Y-105600000D02*
X79550000Y-105600000D01*
X94550000Y-90600000D02*
X94550000Y-105600000D01*
X79550000Y-90600000D02*
X94550000Y-90600000D01*
G04 #@! TO.C,SW14*
X88063015Y-121900000D02*
G75*
G03X88063015Y-121900000I-1063015J0D01*
G01*
X79550000Y-124600000D02*
X79550000Y-109600000D01*
X94550000Y-124600000D02*
X79550000Y-124600000D01*
X94550000Y-109600000D02*
X94550000Y-124600000D01*
X79550000Y-109600000D02*
X94550000Y-109600000D01*
G04 #@! TO.C,SW15*
X88063015Y-140900000D02*
G75*
G03X88063015Y-140900000I-1063015J0D01*
G01*
X79550000Y-143600000D02*
X79550000Y-128600000D01*
X94550000Y-143600000D02*
X79550000Y-143600000D01*
X94550000Y-128600000D02*
X94550000Y-143600000D01*
X79550000Y-128600000D02*
X94550000Y-128600000D01*
G04 #@! TO.C,SW16*
X107063015Y-59900000D02*
G75*
G03X107063015Y-59900000I-1063015J0D01*
G01*
X98550000Y-62600000D02*
X98550000Y-47600000D01*
X113550000Y-62600000D02*
X98550000Y-62600000D01*
X113550000Y-47600000D02*
X113550000Y-62600000D01*
X98550000Y-47600000D02*
X113550000Y-47600000D01*
G04 #@! TO.C,SW17*
X107163015Y-78900000D02*
G75*
G03X107163015Y-78900000I-1063015J0D01*
G01*
X98650000Y-81600000D02*
X98650000Y-66600000D01*
X113650000Y-81600000D02*
X98650000Y-81600000D01*
X113650000Y-66600000D02*
X113650000Y-81600000D01*
X98650000Y-66600000D02*
X113650000Y-66600000D01*
G04 #@! TO.C,SW18*
X107063015Y-97900000D02*
G75*
G03X107063015Y-97900000I-1063015J0D01*
G01*
X98550000Y-100600000D02*
X98550000Y-85600000D01*
X113550000Y-100600000D02*
X98550000Y-100600000D01*
X113550000Y-85600000D02*
X113550000Y-100600000D01*
X98550000Y-85600000D02*
X113550000Y-85600000D01*
G04 #@! TO.C,SW19*
X107063015Y-116900000D02*
G75*
G03X107063015Y-116900000I-1063015J0D01*
G01*
X98550000Y-119600000D02*
X98550000Y-104600000D01*
X113550000Y-119600000D02*
X98550000Y-119600000D01*
X113550000Y-104600000D02*
X113550000Y-119600000D01*
X98550000Y-104600000D02*
X113550000Y-104600000D01*
G04 #@! TO.C,SW20*
X107063015Y-135900000D02*
G75*
G03X107063015Y-135900000I-1063015J0D01*
G01*
X98550000Y-138600000D02*
X98550000Y-123600000D01*
X113550000Y-138600000D02*
X98550000Y-138600000D01*
X113550000Y-123600000D02*
X113550000Y-138600000D01*
X98550000Y-123600000D02*
X113550000Y-123600000D01*
G04 #@! TO.C,SW21*
X126063015Y-64900000D02*
G75*
G03X126063015Y-64900000I-1063015J0D01*
G01*
X117550000Y-67600000D02*
X117550000Y-52600000D01*
X132550000Y-67600000D02*
X117550000Y-67600000D01*
X132550000Y-52600000D02*
X132550000Y-67600000D01*
X117550000Y-52600000D02*
X132550000Y-52600000D01*
G04 #@! TO.C,SW22*
X126063015Y-83900000D02*
G75*
G03X126063015Y-83900000I-1063015J0D01*
G01*
X117550000Y-86600000D02*
X117550000Y-71600000D01*
X132550000Y-86600000D02*
X117550000Y-86600000D01*
X132550000Y-71600000D02*
X132550000Y-86600000D01*
X117550000Y-71600000D02*
X132550000Y-71600000D01*
G04 #@! TO.C,SW23*
X126063015Y-102900000D02*
G75*
G03X126063015Y-102900000I-1063015J0D01*
G01*
X117550000Y-105600000D02*
X117550000Y-90600000D01*
X132550000Y-105600000D02*
X117550000Y-105600000D01*
X132550000Y-90600000D02*
X132550000Y-105600000D01*
X117550000Y-90600000D02*
X132550000Y-90600000D01*
G04 #@! TO.C,SW24*
X126063015Y-121900000D02*
G75*
G03X126063015Y-121900000I-1063015J0D01*
G01*
X117550000Y-124600000D02*
X117550000Y-109600000D01*
X132550000Y-124600000D02*
X117550000Y-124600000D01*
X132550000Y-109600000D02*
X132550000Y-124600000D01*
X117550000Y-109600000D02*
X132550000Y-109600000D01*
G04 #@! TO.C,SW25*
X126063015Y-140900000D02*
G75*
G03X126063015Y-140900000I-1063015J0D01*
G01*
X117550000Y-143600000D02*
X117550000Y-128600000D01*
X132550000Y-143600000D02*
X117550000Y-143600000D01*
X132550000Y-128600000D02*
X132550000Y-143600000D01*
X117550000Y-128600000D02*
X132550000Y-128600000D01*
G04 #@! TO.C,SW27*
X145063015Y-88900000D02*
G75*
G03X145063015Y-88900000I-1063015J0D01*
G01*
X136550000Y-91600000D02*
X136550000Y-76600000D01*
X151550000Y-91600000D02*
X136550000Y-91600000D01*
X151550000Y-76600000D02*
X151550000Y-91600000D01*
X136550000Y-76600000D02*
X151550000Y-76600000D01*
G04 #@! TO.C,SW28*
X145063015Y-107900000D02*
G75*
G03X145063015Y-107900000I-1063015J0D01*
G01*
X136550000Y-110600000D02*
X136550000Y-95600000D01*
X151550000Y-110600000D02*
X136550000Y-110600000D01*
X151550000Y-95600000D02*
X151550000Y-110600000D01*
X136550000Y-95600000D02*
X151550000Y-95600000D01*
G04 #@! TO.C,SW29*
X145063015Y-126900000D02*
G75*
G03X145063015Y-126900000I-1063015J0D01*
G01*
X136550000Y-129600000D02*
X136550000Y-114600000D01*
X151550000Y-129600000D02*
X136550000Y-129600000D01*
X151550000Y-114600000D02*
X151550000Y-129600000D01*
X136550000Y-114600000D02*
X151550000Y-114600000D01*
G04 #@! TO.C,SW30*
X145063015Y-145900000D02*
G75*
G03X145063015Y-145900000I-1063015J0D01*
G01*
X136550000Y-148600000D02*
X136550000Y-133600000D01*
X151550000Y-148600000D02*
X136550000Y-148600000D01*
X151550000Y-133600000D02*
X151550000Y-148600000D01*
X136550000Y-133600000D02*
X151550000Y-133600000D01*
G04 #@! TO.C,Y1*
X131600000Y-145150000D02*
X131600000Y-150150000D01*
X118000000Y-145200000D02*
X131600000Y-145150000D01*
X118000000Y-150200000D02*
X118000000Y-145200000D01*
X131500000Y-150200000D02*
X118000000Y-150200000D01*
D11*
G04 #@! TO.C,R4*
X97480000Y-136000000D02*
X97480000Y-137000000D01*
X96120000Y-137000000D02*
X96120000Y-136000000D01*
D10*
G04 #@! TO.C,U1*
X107025000Y-140975000D02*
X106250000Y-140975000D01*
X107025000Y-148225000D02*
X106250000Y-148225000D01*
X99775000Y-148225000D02*
X100550000Y-148225000D01*
X99775000Y-140975000D02*
X100550000Y-140975000D01*
X107025000Y-148225000D02*
X107025000Y-147450000D01*
X99775000Y-148225000D02*
X99775000Y-147450000D01*
X107025000Y-140975000D02*
X107025000Y-141750000D01*
G04 #@! TO.C,SW26*
X147590476Y-57204761D02*
X147733333Y-57252380D01*
X147971428Y-57252380D01*
X148066666Y-57204761D01*
X148114285Y-57157142D01*
X148161904Y-57061904D01*
X148161904Y-56966666D01*
X148114285Y-56871428D01*
X148066666Y-56823809D01*
X147971428Y-56776190D01*
X147780952Y-56728571D01*
X147685714Y-56680952D01*
X147638095Y-56633333D01*
X147590476Y-56538095D01*
X147590476Y-56442857D01*
X147638095Y-56347619D01*
X147685714Y-56300000D01*
X147780952Y-56252380D01*
X148019047Y-56252380D01*
X148161904Y-56300000D01*
X148495238Y-56252380D02*
X148733333Y-57252380D01*
X148923809Y-56538095D01*
X149114285Y-57252380D01*
X149352380Y-56252380D01*
X149685714Y-56347619D02*
X149733333Y-56300000D01*
X149828571Y-56252380D01*
X150066666Y-56252380D01*
X150161904Y-56300000D01*
X150209523Y-56347619D01*
X150257142Y-56442857D01*
X150257142Y-56538095D01*
X150209523Y-56680952D01*
X149638095Y-57252380D01*
X150257142Y-57252380D01*
X151114285Y-56252380D02*
X150923809Y-56252380D01*
X150828571Y-56300000D01*
X150780952Y-56347619D01*
X150685714Y-56490476D01*
X150638095Y-56680952D01*
X150638095Y-57061904D01*
X150685714Y-57157142D01*
X150733333Y-57204761D01*
X150828571Y-57252380D01*
X151019047Y-57252380D01*
X151114285Y-57204761D01*
X151161904Y-57157142D01*
X151209523Y-57061904D01*
X151209523Y-56823809D01*
X151161904Y-56728571D01*
X151114285Y-56680952D01*
X151019047Y-56633333D01*
X150828571Y-56633333D01*
X150733333Y-56680952D01*
X150685714Y-56728571D01*
X150638095Y-56823809D01*
G04 #@! TO.C,C1*
X116257142Y-150166666D02*
X116304761Y-150214285D01*
X116352380Y-150357142D01*
X116352380Y-150452380D01*
X116304761Y-150595238D01*
X116209523Y-150690476D01*
X116114285Y-150738095D01*
X115923809Y-150785714D01*
X115780952Y-150785714D01*
X115590476Y-150738095D01*
X115495238Y-150690476D01*
X115400000Y-150595238D01*
X115352380Y-150452380D01*
X115352380Y-150357142D01*
X115400000Y-150214285D01*
X115447619Y-150166666D01*
X116352380Y-149214285D02*
X116352380Y-149785714D01*
X116352380Y-149500000D02*
X115352380Y-149500000D01*
X115495238Y-149595238D01*
X115590476Y-149690476D01*
X115638095Y-149785714D01*
G04 #@! TO.C,C2*
X109857142Y-150266666D02*
X109904761Y-150314285D01*
X109952380Y-150457142D01*
X109952380Y-150552380D01*
X109904761Y-150695238D01*
X109809523Y-150790476D01*
X109714285Y-150838095D01*
X109523809Y-150885714D01*
X109380952Y-150885714D01*
X109190476Y-150838095D01*
X109095238Y-150790476D01*
X109000000Y-150695238D01*
X108952380Y-150552380D01*
X108952380Y-150457142D01*
X109000000Y-150314285D01*
X109047619Y-150266666D01*
X109047619Y-149885714D02*
X109000000Y-149838095D01*
X108952380Y-149742857D01*
X108952380Y-149504761D01*
X109000000Y-149409523D01*
X109047619Y-149361904D01*
X109142857Y-149314285D01*
X109238095Y-149314285D01*
X109380952Y-149361904D01*
X109952380Y-149933333D01*
X109952380Y-149314285D01*
G04 #@! TO.C,C3*
X109057142Y-141766666D02*
X109104761Y-141814285D01*
X109152380Y-141957142D01*
X109152380Y-142052380D01*
X109104761Y-142195238D01*
X109009523Y-142290476D01*
X108914285Y-142338095D01*
X108723809Y-142385714D01*
X108580952Y-142385714D01*
X108390476Y-142338095D01*
X108295238Y-142290476D01*
X108200000Y-142195238D01*
X108152380Y-142052380D01*
X108152380Y-141957142D01*
X108200000Y-141814285D01*
X108247619Y-141766666D01*
X108152380Y-141433333D02*
X108152380Y-140814285D01*
X108533333Y-141147619D01*
X108533333Y-141004761D01*
X108580952Y-140909523D01*
X108628571Y-140861904D01*
X108723809Y-140814285D01*
X108961904Y-140814285D01*
X109057142Y-140861904D01*
X109104761Y-140909523D01*
X109152380Y-141004761D01*
X109152380Y-141290476D01*
X109104761Y-141385714D01*
X109057142Y-141433333D01*
G04 #@! TO.C,C4*
X94857142Y-140866666D02*
X94904761Y-140914285D01*
X94952380Y-141057142D01*
X94952380Y-141152380D01*
X94904761Y-141295238D01*
X94809523Y-141390476D01*
X94714285Y-141438095D01*
X94523809Y-141485714D01*
X94380952Y-141485714D01*
X94190476Y-141438095D01*
X94095238Y-141390476D01*
X94000000Y-141295238D01*
X93952380Y-141152380D01*
X93952380Y-141057142D01*
X94000000Y-140914285D01*
X94047619Y-140866666D01*
X94285714Y-140009523D02*
X94952380Y-140009523D01*
X93904761Y-140247619D02*
X94619047Y-140485714D01*
X94619047Y-139866666D01*
G04 #@! TO.C,D1*
X49061904Y-58352380D02*
X49061904Y-57352380D01*
X49300000Y-57352380D01*
X49442857Y-57400000D01*
X49538095Y-57495238D01*
X49585714Y-57590476D01*
X49633333Y-57780952D01*
X49633333Y-57923809D01*
X49585714Y-58114285D01*
X49538095Y-58209523D01*
X49442857Y-58304761D01*
X49300000Y-58352380D01*
X49061904Y-58352380D01*
X50585714Y-58352380D02*
X50014285Y-58352380D01*
X50300000Y-58352380D02*
X50300000Y-57352380D01*
X50204761Y-57495238D01*
X50109523Y-57590476D01*
X50014285Y-57638095D01*
G04 #@! TO.C,D2*
X48861904Y-77352380D02*
X48861904Y-76352380D01*
X49100000Y-76352380D01*
X49242857Y-76400000D01*
X49338095Y-76495238D01*
X49385714Y-76590476D01*
X49433333Y-76780952D01*
X49433333Y-76923809D01*
X49385714Y-77114285D01*
X49338095Y-77209523D01*
X49242857Y-77304761D01*
X49100000Y-77352380D01*
X48861904Y-77352380D01*
X49814285Y-76447619D02*
X49861904Y-76400000D01*
X49957142Y-76352380D01*
X50195238Y-76352380D01*
X50290476Y-76400000D01*
X50338095Y-76447619D01*
X50385714Y-76542857D01*
X50385714Y-76638095D01*
X50338095Y-76780952D01*
X49766666Y-77352380D01*
X50385714Y-77352380D01*
G04 #@! TO.C,D3*
X48711904Y-96202380D02*
X48711904Y-95202380D01*
X48950000Y-95202380D01*
X49092857Y-95250000D01*
X49188095Y-95345238D01*
X49235714Y-95440476D01*
X49283333Y-95630952D01*
X49283333Y-95773809D01*
X49235714Y-95964285D01*
X49188095Y-96059523D01*
X49092857Y-96154761D01*
X48950000Y-96202380D01*
X48711904Y-96202380D01*
X49616666Y-95202380D02*
X50235714Y-95202380D01*
X49902380Y-95583333D01*
X50045238Y-95583333D01*
X50140476Y-95630952D01*
X50188095Y-95678571D01*
X50235714Y-95773809D01*
X50235714Y-96011904D01*
X50188095Y-96107142D01*
X50140476Y-96154761D01*
X50045238Y-96202380D01*
X49759523Y-96202380D01*
X49664285Y-96154761D01*
X49616666Y-96107142D01*
G04 #@! TO.C,D4*
X48711904Y-114902380D02*
X48711904Y-113902380D01*
X48950000Y-113902380D01*
X49092857Y-113950000D01*
X49188095Y-114045238D01*
X49235714Y-114140476D01*
X49283333Y-114330952D01*
X49283333Y-114473809D01*
X49235714Y-114664285D01*
X49188095Y-114759523D01*
X49092857Y-114854761D01*
X48950000Y-114902380D01*
X48711904Y-114902380D01*
X50140476Y-114235714D02*
X50140476Y-114902380D01*
X49902380Y-113854761D02*
X49664285Y-114569047D01*
X50283333Y-114569047D01*
G04 #@! TO.C,D5*
X48861904Y-133902380D02*
X48861904Y-132902380D01*
X49100000Y-132902380D01*
X49242857Y-132950000D01*
X49338095Y-133045238D01*
X49385714Y-133140476D01*
X49433333Y-133330952D01*
X49433333Y-133473809D01*
X49385714Y-133664285D01*
X49338095Y-133759523D01*
X49242857Y-133854761D01*
X49100000Y-133902380D01*
X48861904Y-133902380D01*
X50338095Y-132902380D02*
X49861904Y-132902380D01*
X49814285Y-133378571D01*
X49861904Y-133330952D01*
X49957142Y-133283333D01*
X50195238Y-133283333D01*
X50290476Y-133330952D01*
X50338095Y-133378571D01*
X50385714Y-133473809D01*
X50385714Y-133711904D01*
X50338095Y-133807142D01*
X50290476Y-133854761D01*
X50195238Y-133902380D01*
X49957142Y-133902380D01*
X49861904Y-133854761D01*
X49814285Y-133807142D01*
G04 #@! TO.C,D6*
X67611904Y-58002380D02*
X67611904Y-57002380D01*
X67850000Y-57002380D01*
X67992857Y-57050000D01*
X68088095Y-57145238D01*
X68135714Y-57240476D01*
X68183333Y-57430952D01*
X68183333Y-57573809D01*
X68135714Y-57764285D01*
X68088095Y-57859523D01*
X67992857Y-57954761D01*
X67850000Y-58002380D01*
X67611904Y-58002380D01*
X69040476Y-57002380D02*
X68850000Y-57002380D01*
X68754761Y-57050000D01*
X68707142Y-57097619D01*
X68611904Y-57240476D01*
X68564285Y-57430952D01*
X68564285Y-57811904D01*
X68611904Y-57907142D01*
X68659523Y-57954761D01*
X68754761Y-58002380D01*
X68945238Y-58002380D01*
X69040476Y-57954761D01*
X69088095Y-57907142D01*
X69135714Y-57811904D01*
X69135714Y-57573809D01*
X69088095Y-57478571D01*
X69040476Y-57430952D01*
X68945238Y-57383333D01*
X68754761Y-57383333D01*
X68659523Y-57430952D01*
X68611904Y-57478571D01*
X68564285Y-57573809D01*
G04 #@! TO.C,D7*
X67411904Y-77202380D02*
X67411904Y-76202380D01*
X67650000Y-76202380D01*
X67792857Y-76250000D01*
X67888095Y-76345238D01*
X67935714Y-76440476D01*
X67983333Y-76630952D01*
X67983333Y-76773809D01*
X67935714Y-76964285D01*
X67888095Y-77059523D01*
X67792857Y-77154761D01*
X67650000Y-77202380D01*
X67411904Y-77202380D01*
X68316666Y-76202380D02*
X68983333Y-76202380D01*
X68554761Y-77202380D01*
G04 #@! TO.C,D8*
X67661904Y-96302380D02*
X67661904Y-95302380D01*
X67900000Y-95302380D01*
X68042857Y-95350000D01*
X68138095Y-95445238D01*
X68185714Y-95540476D01*
X68233333Y-95730952D01*
X68233333Y-95873809D01*
X68185714Y-96064285D01*
X68138095Y-96159523D01*
X68042857Y-96254761D01*
X67900000Y-96302380D01*
X67661904Y-96302380D01*
X68804761Y-95730952D02*
X68709523Y-95683333D01*
X68661904Y-95635714D01*
X68614285Y-95540476D01*
X68614285Y-95492857D01*
X68661904Y-95397619D01*
X68709523Y-95350000D01*
X68804761Y-95302380D01*
X68995238Y-95302380D01*
X69090476Y-95350000D01*
X69138095Y-95397619D01*
X69185714Y-95492857D01*
X69185714Y-95540476D01*
X69138095Y-95635714D01*
X69090476Y-95683333D01*
X68995238Y-95730952D01*
X68804761Y-95730952D01*
X68709523Y-95778571D01*
X68661904Y-95826190D01*
X68614285Y-95921428D01*
X68614285Y-96111904D01*
X68661904Y-96207142D01*
X68709523Y-96254761D01*
X68804761Y-96302380D01*
X68995238Y-96302380D01*
X69090476Y-96254761D01*
X69138095Y-96207142D01*
X69185714Y-96111904D01*
X69185714Y-95921428D01*
X69138095Y-95826190D01*
X69090476Y-95778571D01*
X68995238Y-95730952D01*
G04 #@! TO.C,D9*
X67711904Y-115402380D02*
X67711904Y-114402380D01*
X67950000Y-114402380D01*
X68092857Y-114450000D01*
X68188095Y-114545238D01*
X68235714Y-114640476D01*
X68283333Y-114830952D01*
X68283333Y-114973809D01*
X68235714Y-115164285D01*
X68188095Y-115259523D01*
X68092857Y-115354761D01*
X67950000Y-115402380D01*
X67711904Y-115402380D01*
X68759523Y-115402380D02*
X68950000Y-115402380D01*
X69045238Y-115354761D01*
X69092857Y-115307142D01*
X69188095Y-115164285D01*
X69235714Y-114973809D01*
X69235714Y-114592857D01*
X69188095Y-114497619D01*
X69140476Y-114450000D01*
X69045238Y-114402380D01*
X68854761Y-114402380D01*
X68759523Y-114450000D01*
X68711904Y-114497619D01*
X68664285Y-114592857D01*
X68664285Y-114830952D01*
X68711904Y-114926190D01*
X68759523Y-114973809D01*
X68854761Y-115021428D01*
X69045238Y-115021428D01*
X69140476Y-114973809D01*
X69188095Y-114926190D01*
X69235714Y-114830952D01*
G04 #@! TO.C,D10*
X66535714Y-134102380D02*
X66535714Y-133102380D01*
X66773809Y-133102380D01*
X66916666Y-133150000D01*
X67011904Y-133245238D01*
X67059523Y-133340476D01*
X67107142Y-133530952D01*
X67107142Y-133673809D01*
X67059523Y-133864285D01*
X67011904Y-133959523D01*
X66916666Y-134054761D01*
X66773809Y-134102380D01*
X66535714Y-134102380D01*
X68059523Y-134102380D02*
X67488095Y-134102380D01*
X67773809Y-134102380D02*
X67773809Y-133102380D01*
X67678571Y-133245238D01*
X67583333Y-133340476D01*
X67488095Y-133388095D01*
X68678571Y-133102380D02*
X68773809Y-133102380D01*
X68869047Y-133150000D01*
X68916666Y-133197619D01*
X68964285Y-133292857D01*
X69011904Y-133483333D01*
X69011904Y-133721428D01*
X68964285Y-133911904D01*
X68916666Y-134007142D01*
X68869047Y-134054761D01*
X68773809Y-134102380D01*
X68678571Y-134102380D01*
X68583333Y-134054761D01*
X68535714Y-134007142D01*
X68488095Y-133911904D01*
X68440476Y-133721428D01*
X68440476Y-133483333D01*
X68488095Y-133292857D01*
X68535714Y-133197619D01*
X68583333Y-133150000D01*
X68678571Y-133102380D01*
G04 #@! TO.C,D11*
X85985714Y-53202380D02*
X85985714Y-52202380D01*
X86223809Y-52202380D01*
X86366666Y-52250000D01*
X86461904Y-52345238D01*
X86509523Y-52440476D01*
X86557142Y-52630952D01*
X86557142Y-52773809D01*
X86509523Y-52964285D01*
X86461904Y-53059523D01*
X86366666Y-53154761D01*
X86223809Y-53202380D01*
X85985714Y-53202380D01*
X87509523Y-53202380D02*
X86938095Y-53202380D01*
X87223809Y-53202380D02*
X87223809Y-52202380D01*
X87128571Y-52345238D01*
X87033333Y-52440476D01*
X86938095Y-52488095D01*
X88461904Y-53202380D02*
X87890476Y-53202380D01*
X88176190Y-53202380D02*
X88176190Y-52202380D01*
X88080952Y-52345238D01*
X87985714Y-52440476D01*
X87890476Y-52488095D01*
G04 #@! TO.C,D12*
X85785714Y-72352380D02*
X85785714Y-71352380D01*
X86023809Y-71352380D01*
X86166666Y-71400000D01*
X86261904Y-71495238D01*
X86309523Y-71590476D01*
X86357142Y-71780952D01*
X86357142Y-71923809D01*
X86309523Y-72114285D01*
X86261904Y-72209523D01*
X86166666Y-72304761D01*
X86023809Y-72352380D01*
X85785714Y-72352380D01*
X87309523Y-72352380D02*
X86738095Y-72352380D01*
X87023809Y-72352380D02*
X87023809Y-71352380D01*
X86928571Y-71495238D01*
X86833333Y-71590476D01*
X86738095Y-71638095D01*
X87690476Y-71447619D02*
X87738095Y-71400000D01*
X87833333Y-71352380D01*
X88071428Y-71352380D01*
X88166666Y-71400000D01*
X88214285Y-71447619D01*
X88261904Y-71542857D01*
X88261904Y-71638095D01*
X88214285Y-71780952D01*
X87642857Y-72352380D01*
X88261904Y-72352380D01*
G04 #@! TO.C,D13*
X85935714Y-91102380D02*
X85935714Y-90102380D01*
X86173809Y-90102380D01*
X86316666Y-90150000D01*
X86411904Y-90245238D01*
X86459523Y-90340476D01*
X86507142Y-90530952D01*
X86507142Y-90673809D01*
X86459523Y-90864285D01*
X86411904Y-90959523D01*
X86316666Y-91054761D01*
X86173809Y-91102380D01*
X85935714Y-91102380D01*
X87459523Y-91102380D02*
X86888095Y-91102380D01*
X87173809Y-91102380D02*
X87173809Y-90102380D01*
X87078571Y-90245238D01*
X86983333Y-90340476D01*
X86888095Y-90388095D01*
X87792857Y-90102380D02*
X88411904Y-90102380D01*
X88078571Y-90483333D01*
X88221428Y-90483333D01*
X88316666Y-90530952D01*
X88364285Y-90578571D01*
X88411904Y-90673809D01*
X88411904Y-90911904D01*
X88364285Y-91007142D01*
X88316666Y-91054761D01*
X88221428Y-91102380D01*
X87935714Y-91102380D01*
X87840476Y-91054761D01*
X87792857Y-91007142D01*
G04 #@! TO.C,D14*
X85785714Y-110002380D02*
X85785714Y-109002380D01*
X86023809Y-109002380D01*
X86166666Y-109050000D01*
X86261904Y-109145238D01*
X86309523Y-109240476D01*
X86357142Y-109430952D01*
X86357142Y-109573809D01*
X86309523Y-109764285D01*
X86261904Y-109859523D01*
X86166666Y-109954761D01*
X86023809Y-110002380D01*
X85785714Y-110002380D01*
X87309523Y-110002380D02*
X86738095Y-110002380D01*
X87023809Y-110002380D02*
X87023809Y-109002380D01*
X86928571Y-109145238D01*
X86833333Y-109240476D01*
X86738095Y-109288095D01*
X88166666Y-109335714D02*
X88166666Y-110002380D01*
X87928571Y-108954761D02*
X87690476Y-109669047D01*
X88309523Y-109669047D01*
G04 #@! TO.C,D15*
X86085714Y-129252380D02*
X86085714Y-128252380D01*
X86323809Y-128252380D01*
X86466666Y-128300000D01*
X86561904Y-128395238D01*
X86609523Y-128490476D01*
X86657142Y-128680952D01*
X86657142Y-128823809D01*
X86609523Y-129014285D01*
X86561904Y-129109523D01*
X86466666Y-129204761D01*
X86323809Y-129252380D01*
X86085714Y-129252380D01*
X87609523Y-129252380D02*
X87038095Y-129252380D01*
X87323809Y-129252380D02*
X87323809Y-128252380D01*
X87228571Y-128395238D01*
X87133333Y-128490476D01*
X87038095Y-128538095D01*
X88514285Y-128252380D02*
X88038095Y-128252380D01*
X87990476Y-128728571D01*
X88038095Y-128680952D01*
X88133333Y-128633333D01*
X88371428Y-128633333D01*
X88466666Y-128680952D01*
X88514285Y-128728571D01*
X88561904Y-128823809D01*
X88561904Y-129061904D01*
X88514285Y-129157142D01*
X88466666Y-129204761D01*
X88371428Y-129252380D01*
X88133333Y-129252380D01*
X88038095Y-129204761D01*
X87990476Y-129157142D01*
G04 #@! TO.C,D16*
X114052380Y-51614285D02*
X113052380Y-51614285D01*
X113052380Y-51376190D01*
X113100000Y-51233333D01*
X113195238Y-51138095D01*
X113290476Y-51090476D01*
X113480952Y-51042857D01*
X113623809Y-51042857D01*
X113814285Y-51090476D01*
X113909523Y-51138095D01*
X114004761Y-51233333D01*
X114052380Y-51376190D01*
X114052380Y-51614285D01*
X114052380Y-50090476D02*
X114052380Y-50661904D01*
X114052380Y-50376190D02*
X113052380Y-50376190D01*
X113195238Y-50471428D01*
X113290476Y-50566666D01*
X113338095Y-50661904D01*
X113052380Y-49233333D02*
X113052380Y-49423809D01*
X113100000Y-49519047D01*
X113147619Y-49566666D01*
X113290476Y-49661904D01*
X113480952Y-49709523D01*
X113861904Y-49709523D01*
X113957142Y-49661904D01*
X114004761Y-49614285D01*
X114052380Y-49519047D01*
X114052380Y-49328571D01*
X114004761Y-49233333D01*
X113957142Y-49185714D01*
X113861904Y-49138095D01*
X113623809Y-49138095D01*
X113528571Y-49185714D01*
X113480952Y-49233333D01*
X113433333Y-49328571D01*
X113433333Y-49519047D01*
X113480952Y-49614285D01*
X113528571Y-49661904D01*
X113623809Y-49709523D01*
G04 #@! TO.C,D17*
X105085714Y-67152380D02*
X105085714Y-66152380D01*
X105323809Y-66152380D01*
X105466666Y-66200000D01*
X105561904Y-66295238D01*
X105609523Y-66390476D01*
X105657142Y-66580952D01*
X105657142Y-66723809D01*
X105609523Y-66914285D01*
X105561904Y-67009523D01*
X105466666Y-67104761D01*
X105323809Y-67152380D01*
X105085714Y-67152380D01*
X106609523Y-67152380D02*
X106038095Y-67152380D01*
X106323809Y-67152380D02*
X106323809Y-66152380D01*
X106228571Y-66295238D01*
X106133333Y-66390476D01*
X106038095Y-66438095D01*
X106942857Y-66152380D02*
X107609523Y-66152380D01*
X107180952Y-67152380D01*
G04 #@! TO.C,D18*
X105735714Y-86202380D02*
X105735714Y-85202380D01*
X105973809Y-85202380D01*
X106116666Y-85250000D01*
X106211904Y-85345238D01*
X106259523Y-85440476D01*
X106307142Y-85630952D01*
X106307142Y-85773809D01*
X106259523Y-85964285D01*
X106211904Y-86059523D01*
X106116666Y-86154761D01*
X105973809Y-86202380D01*
X105735714Y-86202380D01*
X107259523Y-86202380D02*
X106688095Y-86202380D01*
X106973809Y-86202380D02*
X106973809Y-85202380D01*
X106878571Y-85345238D01*
X106783333Y-85440476D01*
X106688095Y-85488095D01*
X107830952Y-85630952D02*
X107735714Y-85583333D01*
X107688095Y-85535714D01*
X107640476Y-85440476D01*
X107640476Y-85392857D01*
X107688095Y-85297619D01*
X107735714Y-85250000D01*
X107830952Y-85202380D01*
X108021428Y-85202380D01*
X108116666Y-85250000D01*
X108164285Y-85297619D01*
X108211904Y-85392857D01*
X108211904Y-85440476D01*
X108164285Y-85535714D01*
X108116666Y-85583333D01*
X108021428Y-85630952D01*
X107830952Y-85630952D01*
X107735714Y-85678571D01*
X107688095Y-85726190D01*
X107640476Y-85821428D01*
X107640476Y-86011904D01*
X107688095Y-86107142D01*
X107735714Y-86154761D01*
X107830952Y-86202380D01*
X108021428Y-86202380D01*
X108116666Y-86154761D01*
X108164285Y-86107142D01*
X108211904Y-86011904D01*
X108211904Y-85821428D01*
X108164285Y-85726190D01*
X108116666Y-85678571D01*
X108021428Y-85630952D01*
G04 #@! TO.C,D19*
X105435714Y-105102380D02*
X105435714Y-104102380D01*
X105673809Y-104102380D01*
X105816666Y-104150000D01*
X105911904Y-104245238D01*
X105959523Y-104340476D01*
X106007142Y-104530952D01*
X106007142Y-104673809D01*
X105959523Y-104864285D01*
X105911904Y-104959523D01*
X105816666Y-105054761D01*
X105673809Y-105102380D01*
X105435714Y-105102380D01*
X106959523Y-105102380D02*
X106388095Y-105102380D01*
X106673809Y-105102380D02*
X106673809Y-104102380D01*
X106578571Y-104245238D01*
X106483333Y-104340476D01*
X106388095Y-104388095D01*
X107435714Y-105102380D02*
X107626190Y-105102380D01*
X107721428Y-105054761D01*
X107769047Y-105007142D01*
X107864285Y-104864285D01*
X107911904Y-104673809D01*
X107911904Y-104292857D01*
X107864285Y-104197619D01*
X107816666Y-104150000D01*
X107721428Y-104102380D01*
X107530952Y-104102380D01*
X107435714Y-104150000D01*
X107388095Y-104197619D01*
X107340476Y-104292857D01*
X107340476Y-104530952D01*
X107388095Y-104626190D01*
X107435714Y-104673809D01*
X107530952Y-104721428D01*
X107721428Y-104721428D01*
X107816666Y-104673809D01*
X107864285Y-104626190D01*
X107911904Y-104530952D01*
G04 #@! TO.C,D20*
X105085714Y-123952380D02*
X105085714Y-122952380D01*
X105323809Y-122952380D01*
X105466666Y-123000000D01*
X105561904Y-123095238D01*
X105609523Y-123190476D01*
X105657142Y-123380952D01*
X105657142Y-123523809D01*
X105609523Y-123714285D01*
X105561904Y-123809523D01*
X105466666Y-123904761D01*
X105323809Y-123952380D01*
X105085714Y-123952380D01*
X106038095Y-123047619D02*
X106085714Y-123000000D01*
X106180952Y-122952380D01*
X106419047Y-122952380D01*
X106514285Y-123000000D01*
X106561904Y-123047619D01*
X106609523Y-123142857D01*
X106609523Y-123238095D01*
X106561904Y-123380952D01*
X105990476Y-123952380D01*
X106609523Y-123952380D01*
X107228571Y-122952380D02*
X107323809Y-122952380D01*
X107419047Y-123000000D01*
X107466666Y-123047619D01*
X107514285Y-123142857D01*
X107561904Y-123333333D01*
X107561904Y-123571428D01*
X107514285Y-123761904D01*
X107466666Y-123857142D01*
X107419047Y-123904761D01*
X107323809Y-123952380D01*
X107228571Y-123952380D01*
X107133333Y-123904761D01*
X107085714Y-123857142D01*
X107038095Y-123761904D01*
X106990476Y-123571428D01*
X106990476Y-123333333D01*
X107038095Y-123142857D01*
X107085714Y-123047619D01*
X107133333Y-123000000D01*
X107228571Y-122952380D01*
G04 #@! TO.C,D21*
X124285714Y-53352380D02*
X124285714Y-52352380D01*
X124523809Y-52352380D01*
X124666666Y-52400000D01*
X124761904Y-52495238D01*
X124809523Y-52590476D01*
X124857142Y-52780952D01*
X124857142Y-52923809D01*
X124809523Y-53114285D01*
X124761904Y-53209523D01*
X124666666Y-53304761D01*
X124523809Y-53352380D01*
X124285714Y-53352380D01*
X125238095Y-52447619D02*
X125285714Y-52400000D01*
X125380952Y-52352380D01*
X125619047Y-52352380D01*
X125714285Y-52400000D01*
X125761904Y-52447619D01*
X125809523Y-52542857D01*
X125809523Y-52638095D01*
X125761904Y-52780952D01*
X125190476Y-53352380D01*
X125809523Y-53352380D01*
X126761904Y-53352380D02*
X126190476Y-53352380D01*
X126476190Y-53352380D02*
X126476190Y-52352380D01*
X126380952Y-52495238D01*
X126285714Y-52590476D01*
X126190476Y-52638095D01*
G04 #@! TO.C,D22*
X123935714Y-72202380D02*
X123935714Y-71202380D01*
X124173809Y-71202380D01*
X124316666Y-71250000D01*
X124411904Y-71345238D01*
X124459523Y-71440476D01*
X124507142Y-71630952D01*
X124507142Y-71773809D01*
X124459523Y-71964285D01*
X124411904Y-72059523D01*
X124316666Y-72154761D01*
X124173809Y-72202380D01*
X123935714Y-72202380D01*
X124888095Y-71297619D02*
X124935714Y-71250000D01*
X125030952Y-71202380D01*
X125269047Y-71202380D01*
X125364285Y-71250000D01*
X125411904Y-71297619D01*
X125459523Y-71392857D01*
X125459523Y-71488095D01*
X125411904Y-71630952D01*
X124840476Y-72202380D01*
X125459523Y-72202380D01*
X125840476Y-71297619D02*
X125888095Y-71250000D01*
X125983333Y-71202380D01*
X126221428Y-71202380D01*
X126316666Y-71250000D01*
X126364285Y-71297619D01*
X126411904Y-71392857D01*
X126411904Y-71488095D01*
X126364285Y-71630952D01*
X125792857Y-72202380D01*
X126411904Y-72202380D01*
G04 #@! TO.C,D23*
X124285714Y-91202380D02*
X124285714Y-90202380D01*
X124523809Y-90202380D01*
X124666666Y-90250000D01*
X124761904Y-90345238D01*
X124809523Y-90440476D01*
X124857142Y-90630952D01*
X124857142Y-90773809D01*
X124809523Y-90964285D01*
X124761904Y-91059523D01*
X124666666Y-91154761D01*
X124523809Y-91202380D01*
X124285714Y-91202380D01*
X125238095Y-90297619D02*
X125285714Y-90250000D01*
X125380952Y-90202380D01*
X125619047Y-90202380D01*
X125714285Y-90250000D01*
X125761904Y-90297619D01*
X125809523Y-90392857D01*
X125809523Y-90488095D01*
X125761904Y-90630952D01*
X125190476Y-91202380D01*
X125809523Y-91202380D01*
X126142857Y-90202380D02*
X126761904Y-90202380D01*
X126428571Y-90583333D01*
X126571428Y-90583333D01*
X126666666Y-90630952D01*
X126714285Y-90678571D01*
X126761904Y-90773809D01*
X126761904Y-91011904D01*
X126714285Y-91107142D01*
X126666666Y-91154761D01*
X126571428Y-91202380D01*
X126285714Y-91202380D01*
X126190476Y-91154761D01*
X126142857Y-91107142D01*
G04 #@! TO.C,D24*
X123785714Y-110202380D02*
X123785714Y-109202380D01*
X124023809Y-109202380D01*
X124166666Y-109250000D01*
X124261904Y-109345238D01*
X124309523Y-109440476D01*
X124357142Y-109630952D01*
X124357142Y-109773809D01*
X124309523Y-109964285D01*
X124261904Y-110059523D01*
X124166666Y-110154761D01*
X124023809Y-110202380D01*
X123785714Y-110202380D01*
X124738095Y-109297619D02*
X124785714Y-109250000D01*
X124880952Y-109202380D01*
X125119047Y-109202380D01*
X125214285Y-109250000D01*
X125261904Y-109297619D01*
X125309523Y-109392857D01*
X125309523Y-109488095D01*
X125261904Y-109630952D01*
X124690476Y-110202380D01*
X125309523Y-110202380D01*
X126166666Y-109535714D02*
X126166666Y-110202380D01*
X125928571Y-109154761D02*
X125690476Y-109869047D01*
X126309523Y-109869047D01*
G04 #@! TO.C,D25*
X123985714Y-129202380D02*
X123985714Y-128202380D01*
X124223809Y-128202380D01*
X124366666Y-128250000D01*
X124461904Y-128345238D01*
X124509523Y-128440476D01*
X124557142Y-128630952D01*
X124557142Y-128773809D01*
X124509523Y-128964285D01*
X124461904Y-129059523D01*
X124366666Y-129154761D01*
X124223809Y-129202380D01*
X123985714Y-129202380D01*
X124938095Y-128297619D02*
X124985714Y-128250000D01*
X125080952Y-128202380D01*
X125319047Y-128202380D01*
X125414285Y-128250000D01*
X125461904Y-128297619D01*
X125509523Y-128392857D01*
X125509523Y-128488095D01*
X125461904Y-128630952D01*
X124890476Y-129202380D01*
X125509523Y-129202380D01*
X126414285Y-128202380D02*
X125938095Y-128202380D01*
X125890476Y-128678571D01*
X125938095Y-128630952D01*
X126033333Y-128583333D01*
X126271428Y-128583333D01*
X126366666Y-128630952D01*
X126414285Y-128678571D01*
X126461904Y-128773809D01*
X126461904Y-129011904D01*
X126414285Y-129107142D01*
X126366666Y-129154761D01*
X126271428Y-129202380D01*
X126033333Y-129202380D01*
X125938095Y-129154761D01*
X125890476Y-129107142D01*
G04 #@! TO.C,D26*
X145085714Y-57652380D02*
X145085714Y-56652380D01*
X145323809Y-56652380D01*
X145466666Y-56700000D01*
X145561904Y-56795238D01*
X145609523Y-56890476D01*
X145657142Y-57080952D01*
X145657142Y-57223809D01*
X145609523Y-57414285D01*
X145561904Y-57509523D01*
X145466666Y-57604761D01*
X145323809Y-57652380D01*
X145085714Y-57652380D01*
X146038095Y-56747619D02*
X146085714Y-56700000D01*
X146180952Y-56652380D01*
X146419047Y-56652380D01*
X146514285Y-56700000D01*
X146561904Y-56747619D01*
X146609523Y-56842857D01*
X146609523Y-56938095D01*
X146561904Y-57080952D01*
X145990476Y-57652380D01*
X146609523Y-57652380D01*
X147466666Y-56652380D02*
X147276190Y-56652380D01*
X147180952Y-56700000D01*
X147133333Y-56747619D01*
X147038095Y-56890476D01*
X146990476Y-57080952D01*
X146990476Y-57461904D01*
X147038095Y-57557142D01*
X147085714Y-57604761D01*
X147180952Y-57652380D01*
X147371428Y-57652380D01*
X147466666Y-57604761D01*
X147514285Y-57557142D01*
X147561904Y-57461904D01*
X147561904Y-57223809D01*
X147514285Y-57128571D01*
X147466666Y-57080952D01*
X147371428Y-57033333D01*
X147180952Y-57033333D01*
X147085714Y-57080952D01*
X147038095Y-57128571D01*
X146990476Y-57223809D01*
G04 #@! TO.C,D27*
X143135714Y-77152380D02*
X143135714Y-76152380D01*
X143373809Y-76152380D01*
X143516666Y-76200000D01*
X143611904Y-76295238D01*
X143659523Y-76390476D01*
X143707142Y-76580952D01*
X143707142Y-76723809D01*
X143659523Y-76914285D01*
X143611904Y-77009523D01*
X143516666Y-77104761D01*
X143373809Y-77152380D01*
X143135714Y-77152380D01*
X144088095Y-76247619D02*
X144135714Y-76200000D01*
X144230952Y-76152380D01*
X144469047Y-76152380D01*
X144564285Y-76200000D01*
X144611904Y-76247619D01*
X144659523Y-76342857D01*
X144659523Y-76438095D01*
X144611904Y-76580952D01*
X144040476Y-77152380D01*
X144659523Y-77152380D01*
X144992857Y-76152380D02*
X145659523Y-76152380D01*
X145230952Y-77152380D01*
G04 #@! TO.C,D28*
X142885714Y-96302380D02*
X142885714Y-95302380D01*
X143123809Y-95302380D01*
X143266666Y-95350000D01*
X143361904Y-95445238D01*
X143409523Y-95540476D01*
X143457142Y-95730952D01*
X143457142Y-95873809D01*
X143409523Y-96064285D01*
X143361904Y-96159523D01*
X143266666Y-96254761D01*
X143123809Y-96302380D01*
X142885714Y-96302380D01*
X143838095Y-95397619D02*
X143885714Y-95350000D01*
X143980952Y-95302380D01*
X144219047Y-95302380D01*
X144314285Y-95350000D01*
X144361904Y-95397619D01*
X144409523Y-95492857D01*
X144409523Y-95588095D01*
X144361904Y-95730952D01*
X143790476Y-96302380D01*
X144409523Y-96302380D01*
X144980952Y-95730952D02*
X144885714Y-95683333D01*
X144838095Y-95635714D01*
X144790476Y-95540476D01*
X144790476Y-95492857D01*
X144838095Y-95397619D01*
X144885714Y-95350000D01*
X144980952Y-95302380D01*
X145171428Y-95302380D01*
X145266666Y-95350000D01*
X145314285Y-95397619D01*
X145361904Y-95492857D01*
X145361904Y-95540476D01*
X145314285Y-95635714D01*
X145266666Y-95683333D01*
X145171428Y-95730952D01*
X144980952Y-95730952D01*
X144885714Y-95778571D01*
X144838095Y-95826190D01*
X144790476Y-95921428D01*
X144790476Y-96111904D01*
X144838095Y-96207142D01*
X144885714Y-96254761D01*
X144980952Y-96302380D01*
X145171428Y-96302380D01*
X145266666Y-96254761D01*
X145314285Y-96207142D01*
X145361904Y-96111904D01*
X145361904Y-95921428D01*
X145314285Y-95826190D01*
X145266666Y-95778571D01*
X145171428Y-95730952D01*
G04 #@! TO.C,D29*
X143235714Y-115452380D02*
X143235714Y-114452380D01*
X143473809Y-114452380D01*
X143616666Y-114500000D01*
X143711904Y-114595238D01*
X143759523Y-114690476D01*
X143807142Y-114880952D01*
X143807142Y-115023809D01*
X143759523Y-115214285D01*
X143711904Y-115309523D01*
X143616666Y-115404761D01*
X143473809Y-115452380D01*
X143235714Y-115452380D01*
X144188095Y-114547619D02*
X144235714Y-114500000D01*
X144330952Y-114452380D01*
X144569047Y-114452380D01*
X144664285Y-114500000D01*
X144711904Y-114547619D01*
X144759523Y-114642857D01*
X144759523Y-114738095D01*
X144711904Y-114880952D01*
X144140476Y-115452380D01*
X144759523Y-115452380D01*
X145235714Y-115452380D02*
X145426190Y-115452380D01*
X145521428Y-115404761D01*
X145569047Y-115357142D01*
X145664285Y-115214285D01*
X145711904Y-115023809D01*
X145711904Y-114642857D01*
X145664285Y-114547619D01*
X145616666Y-114500000D01*
X145521428Y-114452380D01*
X145330952Y-114452380D01*
X145235714Y-114500000D01*
X145188095Y-114547619D01*
X145140476Y-114642857D01*
X145140476Y-114880952D01*
X145188095Y-114976190D01*
X145235714Y-115023809D01*
X145330952Y-115071428D01*
X145521428Y-115071428D01*
X145616666Y-115023809D01*
X145664285Y-114976190D01*
X145711904Y-114880952D01*
G04 #@! TO.C,D30*
X142435714Y-134052380D02*
X142435714Y-133052380D01*
X142673809Y-133052380D01*
X142816666Y-133100000D01*
X142911904Y-133195238D01*
X142959523Y-133290476D01*
X143007142Y-133480952D01*
X143007142Y-133623809D01*
X142959523Y-133814285D01*
X142911904Y-133909523D01*
X142816666Y-134004761D01*
X142673809Y-134052380D01*
X142435714Y-134052380D01*
X143340476Y-133052380D02*
X143959523Y-133052380D01*
X143626190Y-133433333D01*
X143769047Y-133433333D01*
X143864285Y-133480952D01*
X143911904Y-133528571D01*
X143959523Y-133623809D01*
X143959523Y-133861904D01*
X143911904Y-133957142D01*
X143864285Y-134004761D01*
X143769047Y-134052380D01*
X143483333Y-134052380D01*
X143388095Y-134004761D01*
X143340476Y-133957142D01*
X144578571Y-133052380D02*
X144673809Y-133052380D01*
X144769047Y-133100000D01*
X144816666Y-133147619D01*
X144864285Y-133242857D01*
X144911904Y-133433333D01*
X144911904Y-133671428D01*
X144864285Y-133861904D01*
X144816666Y-133957142D01*
X144769047Y-134004761D01*
X144673809Y-134052380D01*
X144578571Y-134052380D01*
X144483333Y-134004761D01*
X144435714Y-133957142D01*
X144388095Y-133861904D01*
X144340476Y-133671428D01*
X144340476Y-133433333D01*
X144388095Y-133242857D01*
X144435714Y-133147619D01*
X144483333Y-133100000D01*
X144578571Y-133052380D01*
G04 #@! TO.C,J1*
X141066666Y-52292380D02*
X141066666Y-53006666D01*
X141019047Y-53149523D01*
X140923809Y-53244761D01*
X140780952Y-53292380D01*
X140685714Y-53292380D01*
X142066666Y-53292380D02*
X141495238Y-53292380D01*
X141780952Y-53292380D02*
X141780952Y-52292380D01*
X141685714Y-52435238D01*
X141590476Y-52530476D01*
X141495238Y-52578095D01*
G04 #@! TO.C,J2*
X151166666Y-56582380D02*
X151166666Y-57296666D01*
X151119047Y-57439523D01*
X151023809Y-57534761D01*
X150880952Y-57582380D01*
X150785714Y-57582380D01*
X151595238Y-56677619D02*
X151642857Y-56630000D01*
X151738095Y-56582380D01*
X151976190Y-56582380D01*
X152071428Y-56630000D01*
X152119047Y-56677619D01*
X152166666Y-56772857D01*
X152166666Y-56868095D01*
X152119047Y-57010952D01*
X151547619Y-57582380D01*
X152166666Y-57582380D01*
G04 #@! TO.C,R1*
X136602380Y-54866666D02*
X136126190Y-55200000D01*
X136602380Y-55438095D02*
X135602380Y-55438095D01*
X135602380Y-55057142D01*
X135650000Y-54961904D01*
X135697619Y-54914285D01*
X135792857Y-54866666D01*
X135935714Y-54866666D01*
X136030952Y-54914285D01*
X136078571Y-54961904D01*
X136126190Y-55057142D01*
X136126190Y-55438095D01*
X136602380Y-53914285D02*
X136602380Y-54485714D01*
X136602380Y-54200000D02*
X135602380Y-54200000D01*
X135745238Y-54295238D01*
X135840476Y-54390476D01*
X135888095Y-54485714D01*
G04 #@! TO.C,R2*
X139002380Y-54866666D02*
X138526190Y-55200000D01*
X139002380Y-55438095D02*
X138002380Y-55438095D01*
X138002380Y-55057142D01*
X138050000Y-54961904D01*
X138097619Y-54914285D01*
X138192857Y-54866666D01*
X138335714Y-54866666D01*
X138430952Y-54914285D01*
X138478571Y-54961904D01*
X138526190Y-55057142D01*
X138526190Y-55438095D01*
X138097619Y-54485714D02*
X138050000Y-54438095D01*
X138002380Y-54342857D01*
X138002380Y-54104761D01*
X138050000Y-54009523D01*
X138097619Y-53961904D01*
X138192857Y-53914285D01*
X138288095Y-53914285D01*
X138430952Y-53961904D01*
X139002380Y-54533333D01*
X139002380Y-53914285D01*
G04 #@! TO.C,R3*
X96433333Y-151402380D02*
X96100000Y-150926190D01*
X95861904Y-151402380D02*
X95861904Y-150402380D01*
X96242857Y-150402380D01*
X96338095Y-150450000D01*
X96385714Y-150497619D01*
X96433333Y-150592857D01*
X96433333Y-150735714D01*
X96385714Y-150830952D01*
X96338095Y-150878571D01*
X96242857Y-150926190D01*
X95861904Y-150926190D01*
X96766666Y-150402380D02*
X97385714Y-150402380D01*
X97052380Y-150783333D01*
X97195238Y-150783333D01*
X97290476Y-150830952D01*
X97338095Y-150878571D01*
X97385714Y-150973809D01*
X97385714Y-151211904D01*
X97338095Y-151307142D01*
X97290476Y-151354761D01*
X97195238Y-151402380D01*
X96909523Y-151402380D01*
X96814285Y-151354761D01*
X96766666Y-151307142D01*
G04 #@! TO.C,SW1*
X52766666Y-57204761D02*
X52909523Y-57252380D01*
X53147619Y-57252380D01*
X53242857Y-57204761D01*
X53290476Y-57157142D01*
X53338095Y-57061904D01*
X53338095Y-56966666D01*
X53290476Y-56871428D01*
X53242857Y-56823809D01*
X53147619Y-56776190D01*
X52957142Y-56728571D01*
X52861904Y-56680952D01*
X52814285Y-56633333D01*
X52766666Y-56538095D01*
X52766666Y-56442857D01*
X52814285Y-56347619D01*
X52861904Y-56300000D01*
X52957142Y-56252380D01*
X53195238Y-56252380D01*
X53338095Y-56300000D01*
X53671428Y-56252380D02*
X53909523Y-57252380D01*
X54100000Y-56538095D01*
X54290476Y-57252380D01*
X54528571Y-56252380D01*
X55433333Y-57252380D02*
X54861904Y-57252380D01*
X55147619Y-57252380D02*
X55147619Y-56252380D01*
X55052380Y-56395238D01*
X54957142Y-56490476D01*
X54861904Y-56538095D01*
G04 #@! TO.C,SW2*
X52766666Y-76204761D02*
X52909523Y-76252380D01*
X53147619Y-76252380D01*
X53242857Y-76204761D01*
X53290476Y-76157142D01*
X53338095Y-76061904D01*
X53338095Y-75966666D01*
X53290476Y-75871428D01*
X53242857Y-75823809D01*
X53147619Y-75776190D01*
X52957142Y-75728571D01*
X52861904Y-75680952D01*
X52814285Y-75633333D01*
X52766666Y-75538095D01*
X52766666Y-75442857D01*
X52814285Y-75347619D01*
X52861904Y-75300000D01*
X52957142Y-75252380D01*
X53195238Y-75252380D01*
X53338095Y-75300000D01*
X53671428Y-75252380D02*
X53909523Y-76252380D01*
X54100000Y-75538095D01*
X54290476Y-76252380D01*
X54528571Y-75252380D01*
X54861904Y-75347619D02*
X54909523Y-75300000D01*
X55004761Y-75252380D01*
X55242857Y-75252380D01*
X55338095Y-75300000D01*
X55385714Y-75347619D01*
X55433333Y-75442857D01*
X55433333Y-75538095D01*
X55385714Y-75680952D01*
X54814285Y-76252380D01*
X55433333Y-76252380D01*
G04 #@! TO.C,SW3*
X52766666Y-95204761D02*
X52909523Y-95252380D01*
X53147619Y-95252380D01*
X53242857Y-95204761D01*
X53290476Y-95157142D01*
X53338095Y-95061904D01*
X53338095Y-94966666D01*
X53290476Y-94871428D01*
X53242857Y-94823809D01*
X53147619Y-94776190D01*
X52957142Y-94728571D01*
X52861904Y-94680952D01*
X52814285Y-94633333D01*
X52766666Y-94538095D01*
X52766666Y-94442857D01*
X52814285Y-94347619D01*
X52861904Y-94300000D01*
X52957142Y-94252380D01*
X53195238Y-94252380D01*
X53338095Y-94300000D01*
X53671428Y-94252380D02*
X53909523Y-95252380D01*
X54100000Y-94538095D01*
X54290476Y-95252380D01*
X54528571Y-94252380D01*
X54814285Y-94252380D02*
X55433333Y-94252380D01*
X55100000Y-94633333D01*
X55242857Y-94633333D01*
X55338095Y-94680952D01*
X55385714Y-94728571D01*
X55433333Y-94823809D01*
X55433333Y-95061904D01*
X55385714Y-95157142D01*
X55338095Y-95204761D01*
X55242857Y-95252380D01*
X54957142Y-95252380D01*
X54861904Y-95204761D01*
X54814285Y-95157142D01*
G04 #@! TO.C,SW4*
X52766666Y-114204761D02*
X52909523Y-114252380D01*
X53147619Y-114252380D01*
X53242857Y-114204761D01*
X53290476Y-114157142D01*
X53338095Y-114061904D01*
X53338095Y-113966666D01*
X53290476Y-113871428D01*
X53242857Y-113823809D01*
X53147619Y-113776190D01*
X52957142Y-113728571D01*
X52861904Y-113680952D01*
X52814285Y-113633333D01*
X52766666Y-113538095D01*
X52766666Y-113442857D01*
X52814285Y-113347619D01*
X52861904Y-113300000D01*
X52957142Y-113252380D01*
X53195238Y-113252380D01*
X53338095Y-113300000D01*
X53671428Y-113252380D02*
X53909523Y-114252380D01*
X54100000Y-113538095D01*
X54290476Y-114252380D01*
X54528571Y-113252380D01*
X55338095Y-113585714D02*
X55338095Y-114252380D01*
X55100000Y-113204761D02*
X54861904Y-113919047D01*
X55480952Y-113919047D01*
G04 #@! TO.C,SW5*
X52766666Y-133204761D02*
X52909523Y-133252380D01*
X53147619Y-133252380D01*
X53242857Y-133204761D01*
X53290476Y-133157142D01*
X53338095Y-133061904D01*
X53338095Y-132966666D01*
X53290476Y-132871428D01*
X53242857Y-132823809D01*
X53147619Y-132776190D01*
X52957142Y-132728571D01*
X52861904Y-132680952D01*
X52814285Y-132633333D01*
X52766666Y-132538095D01*
X52766666Y-132442857D01*
X52814285Y-132347619D01*
X52861904Y-132300000D01*
X52957142Y-132252380D01*
X53195238Y-132252380D01*
X53338095Y-132300000D01*
X53671428Y-132252380D02*
X53909523Y-133252380D01*
X54100000Y-132538095D01*
X54290476Y-133252380D01*
X54528571Y-132252380D01*
X55385714Y-132252380D02*
X54909523Y-132252380D01*
X54861904Y-132728571D01*
X54909523Y-132680952D01*
X55004761Y-132633333D01*
X55242857Y-132633333D01*
X55338095Y-132680952D01*
X55385714Y-132728571D01*
X55433333Y-132823809D01*
X55433333Y-133061904D01*
X55385714Y-133157142D01*
X55338095Y-133204761D01*
X55242857Y-133252380D01*
X55004761Y-133252380D01*
X54909523Y-133204761D01*
X54861904Y-133157142D01*
G04 #@! TO.C,SW6*
X71766666Y-57204761D02*
X71909523Y-57252380D01*
X72147619Y-57252380D01*
X72242857Y-57204761D01*
X72290476Y-57157142D01*
X72338095Y-57061904D01*
X72338095Y-56966666D01*
X72290476Y-56871428D01*
X72242857Y-56823809D01*
X72147619Y-56776190D01*
X71957142Y-56728571D01*
X71861904Y-56680952D01*
X71814285Y-56633333D01*
X71766666Y-56538095D01*
X71766666Y-56442857D01*
X71814285Y-56347619D01*
X71861904Y-56300000D01*
X71957142Y-56252380D01*
X72195238Y-56252380D01*
X72338095Y-56300000D01*
X72671428Y-56252380D02*
X72909523Y-57252380D01*
X73100000Y-56538095D01*
X73290476Y-57252380D01*
X73528571Y-56252380D01*
X74338095Y-56252380D02*
X74147619Y-56252380D01*
X74052380Y-56300000D01*
X74004761Y-56347619D01*
X73909523Y-56490476D01*
X73861904Y-56680952D01*
X73861904Y-57061904D01*
X73909523Y-57157142D01*
X73957142Y-57204761D01*
X74052380Y-57252380D01*
X74242857Y-57252380D01*
X74338095Y-57204761D01*
X74385714Y-57157142D01*
X74433333Y-57061904D01*
X74433333Y-56823809D01*
X74385714Y-56728571D01*
X74338095Y-56680952D01*
X74242857Y-56633333D01*
X74052380Y-56633333D01*
X73957142Y-56680952D01*
X73909523Y-56728571D01*
X73861904Y-56823809D01*
G04 #@! TO.C,SW7*
X71766666Y-76204761D02*
X71909523Y-76252380D01*
X72147619Y-76252380D01*
X72242857Y-76204761D01*
X72290476Y-76157142D01*
X72338095Y-76061904D01*
X72338095Y-75966666D01*
X72290476Y-75871428D01*
X72242857Y-75823809D01*
X72147619Y-75776190D01*
X71957142Y-75728571D01*
X71861904Y-75680952D01*
X71814285Y-75633333D01*
X71766666Y-75538095D01*
X71766666Y-75442857D01*
X71814285Y-75347619D01*
X71861904Y-75300000D01*
X71957142Y-75252380D01*
X72195238Y-75252380D01*
X72338095Y-75300000D01*
X72671428Y-75252380D02*
X72909523Y-76252380D01*
X73100000Y-75538095D01*
X73290476Y-76252380D01*
X73528571Y-75252380D01*
X73814285Y-75252380D02*
X74480952Y-75252380D01*
X74052380Y-76252380D01*
G04 #@! TO.C,SW8*
X71766666Y-95204761D02*
X71909523Y-95252380D01*
X72147619Y-95252380D01*
X72242857Y-95204761D01*
X72290476Y-95157142D01*
X72338095Y-95061904D01*
X72338095Y-94966666D01*
X72290476Y-94871428D01*
X72242857Y-94823809D01*
X72147619Y-94776190D01*
X71957142Y-94728571D01*
X71861904Y-94680952D01*
X71814285Y-94633333D01*
X71766666Y-94538095D01*
X71766666Y-94442857D01*
X71814285Y-94347619D01*
X71861904Y-94300000D01*
X71957142Y-94252380D01*
X72195238Y-94252380D01*
X72338095Y-94300000D01*
X72671428Y-94252380D02*
X72909523Y-95252380D01*
X73100000Y-94538095D01*
X73290476Y-95252380D01*
X73528571Y-94252380D01*
X74052380Y-94680952D02*
X73957142Y-94633333D01*
X73909523Y-94585714D01*
X73861904Y-94490476D01*
X73861904Y-94442857D01*
X73909523Y-94347619D01*
X73957142Y-94300000D01*
X74052380Y-94252380D01*
X74242857Y-94252380D01*
X74338095Y-94300000D01*
X74385714Y-94347619D01*
X74433333Y-94442857D01*
X74433333Y-94490476D01*
X74385714Y-94585714D01*
X74338095Y-94633333D01*
X74242857Y-94680952D01*
X74052380Y-94680952D01*
X73957142Y-94728571D01*
X73909523Y-94776190D01*
X73861904Y-94871428D01*
X73861904Y-95061904D01*
X73909523Y-95157142D01*
X73957142Y-95204761D01*
X74052380Y-95252380D01*
X74242857Y-95252380D01*
X74338095Y-95204761D01*
X74385714Y-95157142D01*
X74433333Y-95061904D01*
X74433333Y-94871428D01*
X74385714Y-94776190D01*
X74338095Y-94728571D01*
X74242857Y-94680952D01*
G04 #@! TO.C,SW9*
X71766666Y-114204761D02*
X71909523Y-114252380D01*
X72147619Y-114252380D01*
X72242857Y-114204761D01*
X72290476Y-114157142D01*
X72338095Y-114061904D01*
X72338095Y-113966666D01*
X72290476Y-113871428D01*
X72242857Y-113823809D01*
X72147619Y-113776190D01*
X71957142Y-113728571D01*
X71861904Y-113680952D01*
X71814285Y-113633333D01*
X71766666Y-113538095D01*
X71766666Y-113442857D01*
X71814285Y-113347619D01*
X71861904Y-113300000D01*
X71957142Y-113252380D01*
X72195238Y-113252380D01*
X72338095Y-113300000D01*
X72671428Y-113252380D02*
X72909523Y-114252380D01*
X73100000Y-113538095D01*
X73290476Y-114252380D01*
X73528571Y-113252380D01*
X73957142Y-114252380D02*
X74147619Y-114252380D01*
X74242857Y-114204761D01*
X74290476Y-114157142D01*
X74385714Y-114014285D01*
X74433333Y-113823809D01*
X74433333Y-113442857D01*
X74385714Y-113347619D01*
X74338095Y-113300000D01*
X74242857Y-113252380D01*
X74052380Y-113252380D01*
X73957142Y-113300000D01*
X73909523Y-113347619D01*
X73861904Y-113442857D01*
X73861904Y-113680952D01*
X73909523Y-113776190D01*
X73957142Y-113823809D01*
X74052380Y-113871428D01*
X74242857Y-113871428D01*
X74338095Y-113823809D01*
X74385714Y-113776190D01*
X74433333Y-113680952D01*
G04 #@! TO.C,SW10*
X71290476Y-133204761D02*
X71433333Y-133252380D01*
X71671428Y-133252380D01*
X71766666Y-133204761D01*
X71814285Y-133157142D01*
X71861904Y-133061904D01*
X71861904Y-132966666D01*
X71814285Y-132871428D01*
X71766666Y-132823809D01*
X71671428Y-132776190D01*
X71480952Y-132728571D01*
X71385714Y-132680952D01*
X71338095Y-132633333D01*
X71290476Y-132538095D01*
X71290476Y-132442857D01*
X71338095Y-132347619D01*
X71385714Y-132300000D01*
X71480952Y-132252380D01*
X71719047Y-132252380D01*
X71861904Y-132300000D01*
X72195238Y-132252380D02*
X72433333Y-133252380D01*
X72623809Y-132538095D01*
X72814285Y-133252380D01*
X73052380Y-132252380D01*
X73957142Y-133252380D02*
X73385714Y-133252380D01*
X73671428Y-133252380D02*
X73671428Y-132252380D01*
X73576190Y-132395238D01*
X73480952Y-132490476D01*
X73385714Y-132538095D01*
X74576190Y-132252380D02*
X74671428Y-132252380D01*
X74766666Y-132300000D01*
X74814285Y-132347619D01*
X74861904Y-132442857D01*
X74909523Y-132633333D01*
X74909523Y-132871428D01*
X74861904Y-133061904D01*
X74814285Y-133157142D01*
X74766666Y-133204761D01*
X74671428Y-133252380D01*
X74576190Y-133252380D01*
X74480952Y-133204761D01*
X74433333Y-133157142D01*
X74385714Y-133061904D01*
X74338095Y-132871428D01*
X74338095Y-132633333D01*
X74385714Y-132442857D01*
X74433333Y-132347619D01*
X74480952Y-132300000D01*
X74576190Y-132252380D01*
G04 #@! TO.C,SW11*
X90590476Y-52204761D02*
X90733333Y-52252380D01*
X90971428Y-52252380D01*
X91066666Y-52204761D01*
X91114285Y-52157142D01*
X91161904Y-52061904D01*
X91161904Y-51966666D01*
X91114285Y-51871428D01*
X91066666Y-51823809D01*
X90971428Y-51776190D01*
X90780952Y-51728571D01*
X90685714Y-51680952D01*
X90638095Y-51633333D01*
X90590476Y-51538095D01*
X90590476Y-51442857D01*
X90638095Y-51347619D01*
X90685714Y-51300000D01*
X90780952Y-51252380D01*
X91019047Y-51252380D01*
X91161904Y-51300000D01*
X91495238Y-51252380D02*
X91733333Y-52252380D01*
X91923809Y-51538095D01*
X92114285Y-52252380D01*
X92352380Y-51252380D01*
X93257142Y-52252380D02*
X92685714Y-52252380D01*
X92971428Y-52252380D02*
X92971428Y-51252380D01*
X92876190Y-51395238D01*
X92780952Y-51490476D01*
X92685714Y-51538095D01*
X94209523Y-52252380D02*
X93638095Y-52252380D01*
X93923809Y-52252380D02*
X93923809Y-51252380D01*
X93828571Y-51395238D01*
X93733333Y-51490476D01*
X93638095Y-51538095D01*
G04 #@! TO.C,SW12*
X90590476Y-71204761D02*
X90733333Y-71252380D01*
X90971428Y-71252380D01*
X91066666Y-71204761D01*
X91114285Y-71157142D01*
X91161904Y-71061904D01*
X91161904Y-70966666D01*
X91114285Y-70871428D01*
X91066666Y-70823809D01*
X90971428Y-70776190D01*
X90780952Y-70728571D01*
X90685714Y-70680952D01*
X90638095Y-70633333D01*
X90590476Y-70538095D01*
X90590476Y-70442857D01*
X90638095Y-70347619D01*
X90685714Y-70300000D01*
X90780952Y-70252380D01*
X91019047Y-70252380D01*
X91161904Y-70300000D01*
X91495238Y-70252380D02*
X91733333Y-71252380D01*
X91923809Y-70538095D01*
X92114285Y-71252380D01*
X92352380Y-70252380D01*
X93257142Y-71252380D02*
X92685714Y-71252380D01*
X92971428Y-71252380D02*
X92971428Y-70252380D01*
X92876190Y-70395238D01*
X92780952Y-70490476D01*
X92685714Y-70538095D01*
X93638095Y-70347619D02*
X93685714Y-70300000D01*
X93780952Y-70252380D01*
X94019047Y-70252380D01*
X94114285Y-70300000D01*
X94161904Y-70347619D01*
X94209523Y-70442857D01*
X94209523Y-70538095D01*
X94161904Y-70680952D01*
X93590476Y-71252380D01*
X94209523Y-71252380D01*
G04 #@! TO.C,SW13*
X90590476Y-90204761D02*
X90733333Y-90252380D01*
X90971428Y-90252380D01*
X91066666Y-90204761D01*
X91114285Y-90157142D01*
X91161904Y-90061904D01*
X91161904Y-89966666D01*
X91114285Y-89871428D01*
X91066666Y-89823809D01*
X90971428Y-89776190D01*
X90780952Y-89728571D01*
X90685714Y-89680952D01*
X90638095Y-89633333D01*
X90590476Y-89538095D01*
X90590476Y-89442857D01*
X90638095Y-89347619D01*
X90685714Y-89300000D01*
X90780952Y-89252380D01*
X91019047Y-89252380D01*
X91161904Y-89300000D01*
X91495238Y-89252380D02*
X91733333Y-90252380D01*
X91923809Y-89538095D01*
X92114285Y-90252380D01*
X92352380Y-89252380D01*
X93257142Y-90252380D02*
X92685714Y-90252380D01*
X92971428Y-90252380D02*
X92971428Y-89252380D01*
X92876190Y-89395238D01*
X92780952Y-89490476D01*
X92685714Y-89538095D01*
X93590476Y-89252380D02*
X94209523Y-89252380D01*
X93876190Y-89633333D01*
X94019047Y-89633333D01*
X94114285Y-89680952D01*
X94161904Y-89728571D01*
X94209523Y-89823809D01*
X94209523Y-90061904D01*
X94161904Y-90157142D01*
X94114285Y-90204761D01*
X94019047Y-90252380D01*
X93733333Y-90252380D01*
X93638095Y-90204761D01*
X93590476Y-90157142D01*
G04 #@! TO.C,SW14*
X90590476Y-109204761D02*
X90733333Y-109252380D01*
X90971428Y-109252380D01*
X91066666Y-109204761D01*
X91114285Y-109157142D01*
X91161904Y-109061904D01*
X91161904Y-108966666D01*
X91114285Y-108871428D01*
X91066666Y-108823809D01*
X90971428Y-108776190D01*
X90780952Y-108728571D01*
X90685714Y-108680952D01*
X90638095Y-108633333D01*
X90590476Y-108538095D01*
X90590476Y-108442857D01*
X90638095Y-108347619D01*
X90685714Y-108300000D01*
X90780952Y-108252380D01*
X91019047Y-108252380D01*
X91161904Y-108300000D01*
X91495238Y-108252380D02*
X91733333Y-109252380D01*
X91923809Y-108538095D01*
X92114285Y-109252380D01*
X92352380Y-108252380D01*
X93257142Y-109252380D02*
X92685714Y-109252380D01*
X92971428Y-109252380D02*
X92971428Y-108252380D01*
X92876190Y-108395238D01*
X92780952Y-108490476D01*
X92685714Y-108538095D01*
X94114285Y-108585714D02*
X94114285Y-109252380D01*
X93876190Y-108204761D02*
X93638095Y-108919047D01*
X94257142Y-108919047D01*
G04 #@! TO.C,SW15*
X90590476Y-128204761D02*
X90733333Y-128252380D01*
X90971428Y-128252380D01*
X91066666Y-128204761D01*
X91114285Y-128157142D01*
X91161904Y-128061904D01*
X91161904Y-127966666D01*
X91114285Y-127871428D01*
X91066666Y-127823809D01*
X90971428Y-127776190D01*
X90780952Y-127728571D01*
X90685714Y-127680952D01*
X90638095Y-127633333D01*
X90590476Y-127538095D01*
X90590476Y-127442857D01*
X90638095Y-127347619D01*
X90685714Y-127300000D01*
X90780952Y-127252380D01*
X91019047Y-127252380D01*
X91161904Y-127300000D01*
X91495238Y-127252380D02*
X91733333Y-128252380D01*
X91923809Y-127538095D01*
X92114285Y-128252380D01*
X92352380Y-127252380D01*
X93257142Y-128252380D02*
X92685714Y-128252380D01*
X92971428Y-128252380D02*
X92971428Y-127252380D01*
X92876190Y-127395238D01*
X92780952Y-127490476D01*
X92685714Y-127538095D01*
X94161904Y-127252380D02*
X93685714Y-127252380D01*
X93638095Y-127728571D01*
X93685714Y-127680952D01*
X93780952Y-127633333D01*
X94019047Y-127633333D01*
X94114285Y-127680952D01*
X94161904Y-127728571D01*
X94209523Y-127823809D01*
X94209523Y-128061904D01*
X94161904Y-128157142D01*
X94114285Y-128204761D01*
X94019047Y-128252380D01*
X93780952Y-128252380D01*
X93685714Y-128204761D01*
X93638095Y-128157142D01*
G04 #@! TO.C,SW16*
X109590476Y-47204761D02*
X109733333Y-47252380D01*
X109971428Y-47252380D01*
X110066666Y-47204761D01*
X110114285Y-47157142D01*
X110161904Y-47061904D01*
X110161904Y-46966666D01*
X110114285Y-46871428D01*
X110066666Y-46823809D01*
X109971428Y-46776190D01*
X109780952Y-46728571D01*
X109685714Y-46680952D01*
X109638095Y-46633333D01*
X109590476Y-46538095D01*
X109590476Y-46442857D01*
X109638095Y-46347619D01*
X109685714Y-46300000D01*
X109780952Y-46252380D01*
X110019047Y-46252380D01*
X110161904Y-46300000D01*
X110495238Y-46252380D02*
X110733333Y-47252380D01*
X110923809Y-46538095D01*
X111114285Y-47252380D01*
X111352380Y-46252380D01*
X112257142Y-47252380D02*
X111685714Y-47252380D01*
X111971428Y-47252380D02*
X111971428Y-46252380D01*
X111876190Y-46395238D01*
X111780952Y-46490476D01*
X111685714Y-46538095D01*
X113114285Y-46252380D02*
X112923809Y-46252380D01*
X112828571Y-46300000D01*
X112780952Y-46347619D01*
X112685714Y-46490476D01*
X112638095Y-46680952D01*
X112638095Y-47061904D01*
X112685714Y-47157142D01*
X112733333Y-47204761D01*
X112828571Y-47252380D01*
X113019047Y-47252380D01*
X113114285Y-47204761D01*
X113161904Y-47157142D01*
X113209523Y-47061904D01*
X113209523Y-46823809D01*
X113161904Y-46728571D01*
X113114285Y-46680952D01*
X113019047Y-46633333D01*
X112828571Y-46633333D01*
X112733333Y-46680952D01*
X112685714Y-46728571D01*
X112638095Y-46823809D01*
G04 #@! TO.C,SW17*
X109690476Y-66204761D02*
X109833333Y-66252380D01*
X110071428Y-66252380D01*
X110166666Y-66204761D01*
X110214285Y-66157142D01*
X110261904Y-66061904D01*
X110261904Y-65966666D01*
X110214285Y-65871428D01*
X110166666Y-65823809D01*
X110071428Y-65776190D01*
X109880952Y-65728571D01*
X109785714Y-65680952D01*
X109738095Y-65633333D01*
X109690476Y-65538095D01*
X109690476Y-65442857D01*
X109738095Y-65347619D01*
X109785714Y-65300000D01*
X109880952Y-65252380D01*
X110119047Y-65252380D01*
X110261904Y-65300000D01*
X110595238Y-65252380D02*
X110833333Y-66252380D01*
X111023809Y-65538095D01*
X111214285Y-66252380D01*
X111452380Y-65252380D01*
X112357142Y-66252380D02*
X111785714Y-66252380D01*
X112071428Y-66252380D02*
X112071428Y-65252380D01*
X111976190Y-65395238D01*
X111880952Y-65490476D01*
X111785714Y-65538095D01*
X112690476Y-65252380D02*
X113357142Y-65252380D01*
X112928571Y-66252380D01*
G04 #@! TO.C,SW18*
X109590476Y-85204761D02*
X109733333Y-85252380D01*
X109971428Y-85252380D01*
X110066666Y-85204761D01*
X110114285Y-85157142D01*
X110161904Y-85061904D01*
X110161904Y-84966666D01*
X110114285Y-84871428D01*
X110066666Y-84823809D01*
X109971428Y-84776190D01*
X109780952Y-84728571D01*
X109685714Y-84680952D01*
X109638095Y-84633333D01*
X109590476Y-84538095D01*
X109590476Y-84442857D01*
X109638095Y-84347619D01*
X109685714Y-84300000D01*
X109780952Y-84252380D01*
X110019047Y-84252380D01*
X110161904Y-84300000D01*
X110495238Y-84252380D02*
X110733333Y-85252380D01*
X110923809Y-84538095D01*
X111114285Y-85252380D01*
X111352380Y-84252380D01*
X112257142Y-85252380D02*
X111685714Y-85252380D01*
X111971428Y-85252380D02*
X111971428Y-84252380D01*
X111876190Y-84395238D01*
X111780952Y-84490476D01*
X111685714Y-84538095D01*
X112828571Y-84680952D02*
X112733333Y-84633333D01*
X112685714Y-84585714D01*
X112638095Y-84490476D01*
X112638095Y-84442857D01*
X112685714Y-84347619D01*
X112733333Y-84300000D01*
X112828571Y-84252380D01*
X113019047Y-84252380D01*
X113114285Y-84300000D01*
X113161904Y-84347619D01*
X113209523Y-84442857D01*
X113209523Y-84490476D01*
X113161904Y-84585714D01*
X113114285Y-84633333D01*
X113019047Y-84680952D01*
X112828571Y-84680952D01*
X112733333Y-84728571D01*
X112685714Y-84776190D01*
X112638095Y-84871428D01*
X112638095Y-85061904D01*
X112685714Y-85157142D01*
X112733333Y-85204761D01*
X112828571Y-85252380D01*
X113019047Y-85252380D01*
X113114285Y-85204761D01*
X113161904Y-85157142D01*
X113209523Y-85061904D01*
X113209523Y-84871428D01*
X113161904Y-84776190D01*
X113114285Y-84728571D01*
X113019047Y-84680952D01*
G04 #@! TO.C,SW19*
X109590476Y-104204761D02*
X109733333Y-104252380D01*
X109971428Y-104252380D01*
X110066666Y-104204761D01*
X110114285Y-104157142D01*
X110161904Y-104061904D01*
X110161904Y-103966666D01*
X110114285Y-103871428D01*
X110066666Y-103823809D01*
X109971428Y-103776190D01*
X109780952Y-103728571D01*
X109685714Y-103680952D01*
X109638095Y-103633333D01*
X109590476Y-103538095D01*
X109590476Y-103442857D01*
X109638095Y-103347619D01*
X109685714Y-103300000D01*
X109780952Y-103252380D01*
X110019047Y-103252380D01*
X110161904Y-103300000D01*
X110495238Y-103252380D02*
X110733333Y-104252380D01*
X110923809Y-103538095D01*
X111114285Y-104252380D01*
X111352380Y-103252380D01*
X112257142Y-104252380D02*
X111685714Y-104252380D01*
X111971428Y-104252380D02*
X111971428Y-103252380D01*
X111876190Y-103395238D01*
X111780952Y-103490476D01*
X111685714Y-103538095D01*
X112733333Y-104252380D02*
X112923809Y-104252380D01*
X113019047Y-104204761D01*
X113066666Y-104157142D01*
X113161904Y-104014285D01*
X113209523Y-103823809D01*
X113209523Y-103442857D01*
X113161904Y-103347619D01*
X113114285Y-103300000D01*
X113019047Y-103252380D01*
X112828571Y-103252380D01*
X112733333Y-103300000D01*
X112685714Y-103347619D01*
X112638095Y-103442857D01*
X112638095Y-103680952D01*
X112685714Y-103776190D01*
X112733333Y-103823809D01*
X112828571Y-103871428D01*
X113019047Y-103871428D01*
X113114285Y-103823809D01*
X113161904Y-103776190D01*
X113209523Y-103680952D01*
G04 #@! TO.C,SW20*
X109590476Y-123204761D02*
X109733333Y-123252380D01*
X109971428Y-123252380D01*
X110066666Y-123204761D01*
X110114285Y-123157142D01*
X110161904Y-123061904D01*
X110161904Y-122966666D01*
X110114285Y-122871428D01*
X110066666Y-122823809D01*
X109971428Y-122776190D01*
X109780952Y-122728571D01*
X109685714Y-122680952D01*
X109638095Y-122633333D01*
X109590476Y-122538095D01*
X109590476Y-122442857D01*
X109638095Y-122347619D01*
X109685714Y-122300000D01*
X109780952Y-122252380D01*
X110019047Y-122252380D01*
X110161904Y-122300000D01*
X110495238Y-122252380D02*
X110733333Y-123252380D01*
X110923809Y-122538095D01*
X111114285Y-123252380D01*
X111352380Y-122252380D01*
X111685714Y-122347619D02*
X111733333Y-122300000D01*
X111828571Y-122252380D01*
X112066666Y-122252380D01*
X112161904Y-122300000D01*
X112209523Y-122347619D01*
X112257142Y-122442857D01*
X112257142Y-122538095D01*
X112209523Y-122680952D01*
X111638095Y-123252380D01*
X112257142Y-123252380D01*
X112876190Y-122252380D02*
X112971428Y-122252380D01*
X113066666Y-122300000D01*
X113114285Y-122347619D01*
X113161904Y-122442857D01*
X113209523Y-122633333D01*
X113209523Y-122871428D01*
X113161904Y-123061904D01*
X113114285Y-123157142D01*
X113066666Y-123204761D01*
X112971428Y-123252380D01*
X112876190Y-123252380D01*
X112780952Y-123204761D01*
X112733333Y-123157142D01*
X112685714Y-123061904D01*
X112638095Y-122871428D01*
X112638095Y-122633333D01*
X112685714Y-122442857D01*
X112733333Y-122347619D01*
X112780952Y-122300000D01*
X112876190Y-122252380D01*
G04 #@! TO.C,SW21*
X128590476Y-52204761D02*
X128733333Y-52252380D01*
X128971428Y-52252380D01*
X129066666Y-52204761D01*
X129114285Y-52157142D01*
X129161904Y-52061904D01*
X129161904Y-51966666D01*
X129114285Y-51871428D01*
X129066666Y-51823809D01*
X128971428Y-51776190D01*
X128780952Y-51728571D01*
X128685714Y-51680952D01*
X128638095Y-51633333D01*
X128590476Y-51538095D01*
X128590476Y-51442857D01*
X128638095Y-51347619D01*
X128685714Y-51300000D01*
X128780952Y-51252380D01*
X129019047Y-51252380D01*
X129161904Y-51300000D01*
X129495238Y-51252380D02*
X129733333Y-52252380D01*
X129923809Y-51538095D01*
X130114285Y-52252380D01*
X130352380Y-51252380D01*
X130685714Y-51347619D02*
X130733333Y-51300000D01*
X130828571Y-51252380D01*
X131066666Y-51252380D01*
X131161904Y-51300000D01*
X131209523Y-51347619D01*
X131257142Y-51442857D01*
X131257142Y-51538095D01*
X131209523Y-51680952D01*
X130638095Y-52252380D01*
X131257142Y-52252380D01*
X132209523Y-52252380D02*
X131638095Y-52252380D01*
X131923809Y-52252380D02*
X131923809Y-51252380D01*
X131828571Y-51395238D01*
X131733333Y-51490476D01*
X131638095Y-51538095D01*
G04 #@! TO.C,SW22*
X128590476Y-71204761D02*
X128733333Y-71252380D01*
X128971428Y-71252380D01*
X129066666Y-71204761D01*
X129114285Y-71157142D01*
X129161904Y-71061904D01*
X129161904Y-70966666D01*
X129114285Y-70871428D01*
X129066666Y-70823809D01*
X128971428Y-70776190D01*
X128780952Y-70728571D01*
X128685714Y-70680952D01*
X128638095Y-70633333D01*
X128590476Y-70538095D01*
X128590476Y-70442857D01*
X128638095Y-70347619D01*
X128685714Y-70300000D01*
X128780952Y-70252380D01*
X129019047Y-70252380D01*
X129161904Y-70300000D01*
X129495238Y-70252380D02*
X129733333Y-71252380D01*
X129923809Y-70538095D01*
X130114285Y-71252380D01*
X130352380Y-70252380D01*
X130685714Y-70347619D02*
X130733333Y-70300000D01*
X130828571Y-70252380D01*
X131066666Y-70252380D01*
X131161904Y-70300000D01*
X131209523Y-70347619D01*
X131257142Y-70442857D01*
X131257142Y-70538095D01*
X131209523Y-70680952D01*
X130638095Y-71252380D01*
X131257142Y-71252380D01*
X131638095Y-70347619D02*
X131685714Y-70300000D01*
X131780952Y-70252380D01*
X132019047Y-70252380D01*
X132114285Y-70300000D01*
X132161904Y-70347619D01*
X132209523Y-70442857D01*
X132209523Y-70538095D01*
X132161904Y-70680952D01*
X131590476Y-71252380D01*
X132209523Y-71252380D01*
G04 #@! TO.C,SW23*
X128590476Y-90204761D02*
X128733333Y-90252380D01*
X128971428Y-90252380D01*
X129066666Y-90204761D01*
X129114285Y-90157142D01*
X129161904Y-90061904D01*
X129161904Y-89966666D01*
X129114285Y-89871428D01*
X129066666Y-89823809D01*
X128971428Y-89776190D01*
X128780952Y-89728571D01*
X128685714Y-89680952D01*
X128638095Y-89633333D01*
X128590476Y-89538095D01*
X128590476Y-89442857D01*
X128638095Y-89347619D01*
X128685714Y-89300000D01*
X128780952Y-89252380D01*
X129019047Y-89252380D01*
X129161904Y-89300000D01*
X129495238Y-89252380D02*
X129733333Y-90252380D01*
X129923809Y-89538095D01*
X130114285Y-90252380D01*
X130352380Y-89252380D01*
X130685714Y-89347619D02*
X130733333Y-89300000D01*
X130828571Y-89252380D01*
X131066666Y-89252380D01*
X131161904Y-89300000D01*
X131209523Y-89347619D01*
X131257142Y-89442857D01*
X131257142Y-89538095D01*
X131209523Y-89680952D01*
X130638095Y-90252380D01*
X131257142Y-90252380D01*
X131590476Y-89252380D02*
X132209523Y-89252380D01*
X131876190Y-89633333D01*
X132019047Y-89633333D01*
X132114285Y-89680952D01*
X132161904Y-89728571D01*
X132209523Y-89823809D01*
X132209523Y-90061904D01*
X132161904Y-90157142D01*
X132114285Y-90204761D01*
X132019047Y-90252380D01*
X131733333Y-90252380D01*
X131638095Y-90204761D01*
X131590476Y-90157142D01*
G04 #@! TO.C,SW24*
X128590476Y-109204761D02*
X128733333Y-109252380D01*
X128971428Y-109252380D01*
X129066666Y-109204761D01*
X129114285Y-109157142D01*
X129161904Y-109061904D01*
X129161904Y-108966666D01*
X129114285Y-108871428D01*
X129066666Y-108823809D01*
X128971428Y-108776190D01*
X128780952Y-108728571D01*
X128685714Y-108680952D01*
X128638095Y-108633333D01*
X128590476Y-108538095D01*
X128590476Y-108442857D01*
X128638095Y-108347619D01*
X128685714Y-108300000D01*
X128780952Y-108252380D01*
X129019047Y-108252380D01*
X129161904Y-108300000D01*
X129495238Y-108252380D02*
X129733333Y-109252380D01*
X129923809Y-108538095D01*
X130114285Y-109252380D01*
X130352380Y-108252380D01*
X130685714Y-108347619D02*
X130733333Y-108300000D01*
X130828571Y-108252380D01*
X131066666Y-108252380D01*
X131161904Y-108300000D01*
X131209523Y-108347619D01*
X131257142Y-108442857D01*
X131257142Y-108538095D01*
X131209523Y-108680952D01*
X130638095Y-109252380D01*
X131257142Y-109252380D01*
X132114285Y-108585714D02*
X132114285Y-109252380D01*
X131876190Y-108204761D02*
X131638095Y-108919047D01*
X132257142Y-108919047D01*
G04 #@! TO.C,SW25*
X128590476Y-128204761D02*
X128733333Y-128252380D01*
X128971428Y-128252380D01*
X129066666Y-128204761D01*
X129114285Y-128157142D01*
X129161904Y-128061904D01*
X129161904Y-127966666D01*
X129114285Y-127871428D01*
X129066666Y-127823809D01*
X128971428Y-127776190D01*
X128780952Y-127728571D01*
X128685714Y-127680952D01*
X128638095Y-127633333D01*
X128590476Y-127538095D01*
X128590476Y-127442857D01*
X128638095Y-127347619D01*
X128685714Y-127300000D01*
X128780952Y-127252380D01*
X129019047Y-127252380D01*
X129161904Y-127300000D01*
X129495238Y-127252380D02*
X129733333Y-128252380D01*
X129923809Y-127538095D01*
X130114285Y-128252380D01*
X130352380Y-127252380D01*
X130685714Y-127347619D02*
X130733333Y-127300000D01*
X130828571Y-127252380D01*
X131066666Y-127252380D01*
X131161904Y-127300000D01*
X131209523Y-127347619D01*
X131257142Y-127442857D01*
X131257142Y-127538095D01*
X131209523Y-127680952D01*
X130638095Y-128252380D01*
X131257142Y-128252380D01*
X132161904Y-127252380D02*
X131685714Y-127252380D01*
X131638095Y-127728571D01*
X131685714Y-127680952D01*
X131780952Y-127633333D01*
X132019047Y-127633333D01*
X132114285Y-127680952D01*
X132161904Y-127728571D01*
X132209523Y-127823809D01*
X132209523Y-128061904D01*
X132161904Y-128157142D01*
X132114285Y-128204761D01*
X132019047Y-128252380D01*
X131780952Y-128252380D01*
X131685714Y-128204761D01*
X131638095Y-128157142D01*
G04 #@! TO.C,SW27*
X147590476Y-76204761D02*
X147733333Y-76252380D01*
X147971428Y-76252380D01*
X148066666Y-76204761D01*
X148114285Y-76157142D01*
X148161904Y-76061904D01*
X148161904Y-75966666D01*
X148114285Y-75871428D01*
X148066666Y-75823809D01*
X147971428Y-75776190D01*
X147780952Y-75728571D01*
X147685714Y-75680952D01*
X147638095Y-75633333D01*
X147590476Y-75538095D01*
X147590476Y-75442857D01*
X147638095Y-75347619D01*
X147685714Y-75300000D01*
X147780952Y-75252380D01*
X148019047Y-75252380D01*
X148161904Y-75300000D01*
X148495238Y-75252380D02*
X148733333Y-76252380D01*
X148923809Y-75538095D01*
X149114285Y-76252380D01*
X149352380Y-75252380D01*
X149685714Y-75347619D02*
X149733333Y-75300000D01*
X149828571Y-75252380D01*
X150066666Y-75252380D01*
X150161904Y-75300000D01*
X150209523Y-75347619D01*
X150257142Y-75442857D01*
X150257142Y-75538095D01*
X150209523Y-75680952D01*
X149638095Y-76252380D01*
X150257142Y-76252380D01*
X150590476Y-75252380D02*
X151257142Y-75252380D01*
X150828571Y-76252380D01*
G04 #@! TO.C,SW28*
X147590476Y-95204761D02*
X147733333Y-95252380D01*
X147971428Y-95252380D01*
X148066666Y-95204761D01*
X148114285Y-95157142D01*
X148161904Y-95061904D01*
X148161904Y-94966666D01*
X148114285Y-94871428D01*
X148066666Y-94823809D01*
X147971428Y-94776190D01*
X147780952Y-94728571D01*
X147685714Y-94680952D01*
X147638095Y-94633333D01*
X147590476Y-94538095D01*
X147590476Y-94442857D01*
X147638095Y-94347619D01*
X147685714Y-94300000D01*
X147780952Y-94252380D01*
X148019047Y-94252380D01*
X148161904Y-94300000D01*
X148495238Y-94252380D02*
X148733333Y-95252380D01*
X148923809Y-94538095D01*
X149114285Y-95252380D01*
X149352380Y-94252380D01*
X149685714Y-94347619D02*
X149733333Y-94300000D01*
X149828571Y-94252380D01*
X150066666Y-94252380D01*
X150161904Y-94300000D01*
X150209523Y-94347619D01*
X150257142Y-94442857D01*
X150257142Y-94538095D01*
X150209523Y-94680952D01*
X149638095Y-95252380D01*
X150257142Y-95252380D01*
X150828571Y-94680952D02*
X150733333Y-94633333D01*
X150685714Y-94585714D01*
X150638095Y-94490476D01*
X150638095Y-94442857D01*
X150685714Y-94347619D01*
X150733333Y-94300000D01*
X150828571Y-94252380D01*
X151019047Y-94252380D01*
X151114285Y-94300000D01*
X151161904Y-94347619D01*
X151209523Y-94442857D01*
X151209523Y-94490476D01*
X151161904Y-94585714D01*
X151114285Y-94633333D01*
X151019047Y-94680952D01*
X150828571Y-94680952D01*
X150733333Y-94728571D01*
X150685714Y-94776190D01*
X150638095Y-94871428D01*
X150638095Y-95061904D01*
X150685714Y-95157142D01*
X150733333Y-95204761D01*
X150828571Y-95252380D01*
X151019047Y-95252380D01*
X151114285Y-95204761D01*
X151161904Y-95157142D01*
X151209523Y-95061904D01*
X151209523Y-94871428D01*
X151161904Y-94776190D01*
X151114285Y-94728571D01*
X151019047Y-94680952D01*
G04 #@! TO.C,SW29*
X147590476Y-114204761D02*
X147733333Y-114252380D01*
X147971428Y-114252380D01*
X148066666Y-114204761D01*
X148114285Y-114157142D01*
X148161904Y-114061904D01*
X148161904Y-113966666D01*
X148114285Y-113871428D01*
X148066666Y-113823809D01*
X147971428Y-113776190D01*
X147780952Y-113728571D01*
X147685714Y-113680952D01*
X147638095Y-113633333D01*
X147590476Y-113538095D01*
X147590476Y-113442857D01*
X147638095Y-113347619D01*
X147685714Y-113300000D01*
X147780952Y-113252380D01*
X148019047Y-113252380D01*
X148161904Y-113300000D01*
X148495238Y-113252380D02*
X148733333Y-114252380D01*
X148923809Y-113538095D01*
X149114285Y-114252380D01*
X149352380Y-113252380D01*
X149685714Y-113347619D02*
X149733333Y-113300000D01*
X149828571Y-113252380D01*
X150066666Y-113252380D01*
X150161904Y-113300000D01*
X150209523Y-113347619D01*
X150257142Y-113442857D01*
X150257142Y-113538095D01*
X150209523Y-113680952D01*
X149638095Y-114252380D01*
X150257142Y-114252380D01*
X150733333Y-114252380D02*
X150923809Y-114252380D01*
X151019047Y-114204761D01*
X151066666Y-114157142D01*
X151161904Y-114014285D01*
X151209523Y-113823809D01*
X151209523Y-113442857D01*
X151161904Y-113347619D01*
X151114285Y-113300000D01*
X151019047Y-113252380D01*
X150828571Y-113252380D01*
X150733333Y-113300000D01*
X150685714Y-113347619D01*
X150638095Y-113442857D01*
X150638095Y-113680952D01*
X150685714Y-113776190D01*
X150733333Y-113823809D01*
X150828571Y-113871428D01*
X151019047Y-113871428D01*
X151114285Y-113823809D01*
X151161904Y-113776190D01*
X151209523Y-113680952D01*
G04 #@! TO.C,SW30*
X147590476Y-133204761D02*
X147733333Y-133252380D01*
X147971428Y-133252380D01*
X148066666Y-133204761D01*
X148114285Y-133157142D01*
X148161904Y-133061904D01*
X148161904Y-132966666D01*
X148114285Y-132871428D01*
X148066666Y-132823809D01*
X147971428Y-132776190D01*
X147780952Y-132728571D01*
X147685714Y-132680952D01*
X147638095Y-132633333D01*
X147590476Y-132538095D01*
X147590476Y-132442857D01*
X147638095Y-132347619D01*
X147685714Y-132300000D01*
X147780952Y-132252380D01*
X148019047Y-132252380D01*
X148161904Y-132300000D01*
X148495238Y-132252380D02*
X148733333Y-133252380D01*
X148923809Y-132538095D01*
X149114285Y-133252380D01*
X149352380Y-132252380D01*
X149638095Y-132252380D02*
X150257142Y-132252380D01*
X149923809Y-132633333D01*
X150066666Y-132633333D01*
X150161904Y-132680952D01*
X150209523Y-132728571D01*
X150257142Y-132823809D01*
X150257142Y-133061904D01*
X150209523Y-133157142D01*
X150161904Y-133204761D01*
X150066666Y-133252380D01*
X149780952Y-133252380D01*
X149685714Y-133204761D01*
X149638095Y-133157142D01*
X150876190Y-132252380D02*
X150971428Y-132252380D01*
X151066666Y-132300000D01*
X151114285Y-132347619D01*
X151161904Y-132442857D01*
X151209523Y-132633333D01*
X151209523Y-132871428D01*
X151161904Y-133061904D01*
X151114285Y-133157142D01*
X151066666Y-133204761D01*
X150971428Y-133252380D01*
X150876190Y-133252380D01*
X150780952Y-133204761D01*
X150733333Y-133157142D01*
X150685714Y-133061904D01*
X150638095Y-132871428D01*
X150638095Y-132633333D01*
X150685714Y-132442857D01*
X150733333Y-132347619D01*
X150780952Y-132300000D01*
X150876190Y-132252380D01*
G04 #@! TO.C,Y1*
X119573809Y-144076190D02*
X119573809Y-144552380D01*
X119240476Y-143552380D02*
X119573809Y-144076190D01*
X119907142Y-143552380D01*
X120764285Y-144552380D02*
X120192857Y-144552380D01*
X120478571Y-144552380D02*
X120478571Y-143552380D01*
X120383333Y-143695238D01*
X120288095Y-143790476D01*
X120192857Y-143838095D01*
G04 #@! TO.C,R4*
X95802380Y-136666666D02*
X95326190Y-137000000D01*
X95802380Y-137238095D02*
X94802380Y-137238095D01*
X94802380Y-136857142D01*
X94850000Y-136761904D01*
X94897619Y-136714285D01*
X94992857Y-136666666D01*
X95135714Y-136666666D01*
X95230952Y-136714285D01*
X95278571Y-136761904D01*
X95326190Y-136857142D01*
X95326190Y-137238095D01*
X95135714Y-135809523D02*
X95802380Y-135809523D01*
X94754761Y-136047619D02*
X95469047Y-136285714D01*
X95469047Y-135666666D01*
G04 #@! TO.C,U1*
X102852380Y-140611904D02*
X103661904Y-140611904D01*
X103757142Y-140564285D01*
X103804761Y-140516666D01*
X103852380Y-140421428D01*
X103852380Y-140230952D01*
X103804761Y-140135714D01*
X103757142Y-140088095D01*
X103661904Y-140040476D01*
X102852380Y-140040476D01*
X103852380Y-139040476D02*
X103852380Y-139611904D01*
X103852380Y-139326190D02*
X102852380Y-139326190D01*
X102995238Y-139421428D01*
X103090476Y-139516666D01*
X103138095Y-139611904D01*
G04 #@! TD*
M02*
