G04 #@! TF.GenerationSoftware,KiCad,Pcbnew,(5.0.1-3-g963ef8bb5)*
G04 #@! TF.CreationDate,2019-02-26T10:41:44-08:00*
G04 #@! TF.ProjectId,atreus-butterfly-62,6174726575732D627574746572666C79,rev?*
G04 #@! TF.SameCoordinates,Original*
G04 #@! TF.FileFunction,Soldermask,Bot*
G04 #@! TF.FilePolarity,Negative*
%FSLAX46Y46*%
G04 Gerber Fmt 4.6, Leading zero omitted, Abs format (unit mm)*
G04 Created by KiCad (PCBNEW (5.0.1-3-g963ef8bb5)) date Tuesday, February 26, 2019 at 10:41:44 AM*
%MOMM*%
%LPD*%
G01*
G04 APERTURE LIST*
%ADD10C,0.100000*%
G04 APERTURE END LIST*
D10*
G36*
X139239451Y-136359127D02*
X139377105Y-136386508D01*
X139549994Y-136458121D01*
X139705590Y-136562087D01*
X139837913Y-136694410D01*
X139941879Y-136850006D01*
X140013492Y-137022895D01*
X140050000Y-137206433D01*
X140050000Y-137393567D01*
X140013492Y-137577105D01*
X139941879Y-137749994D01*
X139837913Y-137905590D01*
X139705590Y-138037913D01*
X139549994Y-138141879D01*
X139377105Y-138213492D01*
X139239452Y-138240873D01*
X139193568Y-138250000D01*
X139006432Y-138250000D01*
X138960548Y-138240873D01*
X138822895Y-138213492D01*
X138650006Y-138141879D01*
X138494410Y-138037913D01*
X138362087Y-137905590D01*
X138258121Y-137749994D01*
X138186508Y-137577105D01*
X138150000Y-137393567D01*
X138150000Y-137206433D01*
X138186508Y-137022895D01*
X138258121Y-136850006D01*
X138362087Y-136694410D01*
X138494410Y-136562087D01*
X138650006Y-136458121D01*
X138822895Y-136386508D01*
X138960549Y-136359127D01*
X139006432Y-136350000D01*
X139193568Y-136350000D01*
X139239451Y-136359127D01*
X139239451Y-136359127D01*
G37*
G36*
X62939451Y-136359127D02*
X63077105Y-136386508D01*
X63249994Y-136458121D01*
X63405590Y-136562087D01*
X63537913Y-136694410D01*
X63641879Y-136850006D01*
X63713492Y-137022895D01*
X63750000Y-137206433D01*
X63750000Y-137393567D01*
X63713492Y-137577105D01*
X63641879Y-137749994D01*
X63537913Y-137905590D01*
X63405590Y-138037913D01*
X63249994Y-138141879D01*
X63077105Y-138213492D01*
X62939452Y-138240873D01*
X62893568Y-138250000D01*
X62706432Y-138250000D01*
X62660548Y-138240873D01*
X62522895Y-138213492D01*
X62350006Y-138141879D01*
X62194410Y-138037913D01*
X62062087Y-137905590D01*
X61958121Y-137749994D01*
X61886508Y-137577105D01*
X61850000Y-137393567D01*
X61850000Y-137206433D01*
X61886508Y-137022895D01*
X61958121Y-136850006D01*
X62062087Y-136694410D01*
X62194410Y-136562087D01*
X62350006Y-136458121D01*
X62522895Y-136386508D01*
X62660549Y-136359127D01*
X62706432Y-136350000D01*
X62893568Y-136350000D01*
X62939451Y-136359127D01*
X62939451Y-136359127D01*
G37*
G36*
X43939451Y-136359127D02*
X44077105Y-136386508D01*
X44249994Y-136458121D01*
X44405590Y-136562087D01*
X44537913Y-136694410D01*
X44641879Y-136850006D01*
X44713492Y-137022895D01*
X44750000Y-137206433D01*
X44750000Y-137393567D01*
X44713492Y-137577105D01*
X44641879Y-137749994D01*
X44537913Y-137905590D01*
X44405590Y-138037913D01*
X44249994Y-138141879D01*
X44077105Y-138213492D01*
X43939452Y-138240873D01*
X43893568Y-138250000D01*
X43706432Y-138250000D01*
X43660548Y-138240873D01*
X43522895Y-138213492D01*
X43350006Y-138141879D01*
X43194410Y-138037913D01*
X43062087Y-137905590D01*
X42958121Y-137749994D01*
X42886508Y-137577105D01*
X42850000Y-137393567D01*
X42850000Y-137206433D01*
X42886508Y-137022895D01*
X42958121Y-136850006D01*
X43062087Y-136694410D01*
X43194410Y-136562087D01*
X43350006Y-136458121D01*
X43522895Y-136386508D01*
X43660549Y-136359127D01*
X43706432Y-136350000D01*
X43893568Y-136350000D01*
X43939451Y-136359127D01*
X43939451Y-136359127D01*
G37*
G36*
X144189451Y-134259127D02*
X144327105Y-134286508D01*
X144499994Y-134358121D01*
X144655590Y-134462087D01*
X144787913Y-134594410D01*
X144891879Y-134750006D01*
X144963492Y-134922895D01*
X145000000Y-135106433D01*
X145000000Y-135293567D01*
X144963492Y-135477105D01*
X144891879Y-135649994D01*
X144787913Y-135805590D01*
X144655590Y-135937913D01*
X144499994Y-136041879D01*
X144327105Y-136113492D01*
X144189451Y-136140873D01*
X144143568Y-136150000D01*
X143956432Y-136150000D01*
X143910549Y-136140873D01*
X143772895Y-136113492D01*
X143600006Y-136041879D01*
X143444410Y-135937913D01*
X143312087Y-135805590D01*
X143208121Y-135649994D01*
X143136508Y-135477105D01*
X143100000Y-135293567D01*
X143100000Y-135106433D01*
X143136508Y-134922895D01*
X143208121Y-134750006D01*
X143312087Y-134594410D01*
X143444410Y-134462087D01*
X143600006Y-134358121D01*
X143772895Y-134286508D01*
X143910549Y-134259127D01*
X143956432Y-134250000D01*
X144143568Y-134250000D01*
X144189451Y-134259127D01*
X144189451Y-134259127D01*
G37*
G36*
X48889451Y-134259127D02*
X49027105Y-134286508D01*
X49199994Y-134358121D01*
X49355590Y-134462087D01*
X49487913Y-134594410D01*
X49591879Y-134750006D01*
X49663492Y-134922895D01*
X49700000Y-135106433D01*
X49700000Y-135293567D01*
X49663492Y-135477105D01*
X49591879Y-135649994D01*
X49487913Y-135805590D01*
X49355590Y-135937913D01*
X49199994Y-136041879D01*
X49027105Y-136113492D01*
X48889451Y-136140873D01*
X48843568Y-136150000D01*
X48656432Y-136150000D01*
X48610549Y-136140873D01*
X48472895Y-136113492D01*
X48300006Y-136041879D01*
X48144410Y-135937913D01*
X48012087Y-135805590D01*
X47908121Y-135649994D01*
X47836508Y-135477105D01*
X47800000Y-135293567D01*
X47800000Y-135106433D01*
X47836508Y-134922895D01*
X47908121Y-134750006D01*
X48012087Y-134594410D01*
X48144410Y-134462087D01*
X48300006Y-134358121D01*
X48472895Y-134286508D01*
X48610549Y-134259127D01*
X48656432Y-134250000D01*
X48843568Y-134250000D01*
X48889451Y-134259127D01*
X48889451Y-134259127D01*
G37*
G36*
X67889451Y-134259127D02*
X68027105Y-134286508D01*
X68199994Y-134358121D01*
X68355590Y-134462087D01*
X68487913Y-134594410D01*
X68591879Y-134750006D01*
X68663492Y-134922895D01*
X68700000Y-135106433D01*
X68700000Y-135293567D01*
X68663492Y-135477105D01*
X68591879Y-135649994D01*
X68487913Y-135805590D01*
X68355590Y-135937913D01*
X68199994Y-136041879D01*
X68027105Y-136113492D01*
X67889451Y-136140873D01*
X67843568Y-136150000D01*
X67656432Y-136150000D01*
X67610549Y-136140873D01*
X67472895Y-136113492D01*
X67300006Y-136041879D01*
X67144410Y-135937913D01*
X67012087Y-135805590D01*
X66908121Y-135649994D01*
X66836508Y-135477105D01*
X66800000Y-135293567D01*
X66800000Y-135106433D01*
X66836508Y-134922895D01*
X66908121Y-134750006D01*
X67012087Y-134594410D01*
X67144410Y-134462087D01*
X67300006Y-134358121D01*
X67472895Y-134286508D01*
X67610549Y-134259127D01*
X67656432Y-134250000D01*
X67843568Y-134250000D01*
X67889451Y-134259127D01*
X67889451Y-134259127D01*
G37*
G36*
X120239452Y-131359127D02*
X120377105Y-131386508D01*
X120549994Y-131458121D01*
X120705590Y-131562087D01*
X120837913Y-131694410D01*
X120941879Y-131850006D01*
X121013492Y-132022895D01*
X121050000Y-132206433D01*
X121050000Y-132393567D01*
X121013492Y-132577105D01*
X120941879Y-132749994D01*
X120837913Y-132905590D01*
X120705590Y-133037913D01*
X120549994Y-133141879D01*
X120377105Y-133213492D01*
X120239451Y-133240873D01*
X120193568Y-133250000D01*
X120006432Y-133250000D01*
X119960549Y-133240873D01*
X119822895Y-133213492D01*
X119650006Y-133141879D01*
X119494410Y-133037913D01*
X119362087Y-132905590D01*
X119258121Y-132749994D01*
X119186508Y-132577105D01*
X119150000Y-132393567D01*
X119150000Y-132206433D01*
X119186508Y-132022895D01*
X119258121Y-131850006D01*
X119362087Y-131694410D01*
X119494410Y-131562087D01*
X119650006Y-131458121D01*
X119822895Y-131386508D01*
X119960548Y-131359127D01*
X120006432Y-131350000D01*
X120193568Y-131350000D01*
X120239452Y-131359127D01*
X120239452Y-131359127D01*
G37*
G36*
X82239452Y-131359127D02*
X82377105Y-131386508D01*
X82549994Y-131458121D01*
X82705590Y-131562087D01*
X82837913Y-131694410D01*
X82941879Y-131850006D01*
X83013492Y-132022895D01*
X83050000Y-132206433D01*
X83050000Y-132393567D01*
X83013492Y-132577105D01*
X82941879Y-132749994D01*
X82837913Y-132905590D01*
X82705590Y-133037913D01*
X82549994Y-133141879D01*
X82377105Y-133213492D01*
X82239451Y-133240873D01*
X82193568Y-133250000D01*
X82006432Y-133250000D01*
X81960549Y-133240873D01*
X81822895Y-133213492D01*
X81650006Y-133141879D01*
X81494410Y-133037913D01*
X81362087Y-132905590D01*
X81258121Y-132749994D01*
X81186508Y-132577105D01*
X81150000Y-132393567D01*
X81150000Y-132206433D01*
X81186508Y-132022895D01*
X81258121Y-131850006D01*
X81362087Y-131694410D01*
X81494410Y-131562087D01*
X81650006Y-131458121D01*
X81822895Y-131386508D01*
X81960548Y-131359127D01*
X82006432Y-131350000D01*
X82193568Y-131350000D01*
X82239452Y-131359127D01*
X82239452Y-131359127D01*
G37*
G36*
X125189451Y-129259127D02*
X125327105Y-129286508D01*
X125499994Y-129358121D01*
X125655590Y-129462087D01*
X125787913Y-129594410D01*
X125891879Y-129750006D01*
X125963492Y-129922895D01*
X126000000Y-130106433D01*
X126000000Y-130293567D01*
X125963492Y-130477105D01*
X125891879Y-130649994D01*
X125787913Y-130805590D01*
X125655590Y-130937913D01*
X125499994Y-131041879D01*
X125327105Y-131113492D01*
X125189451Y-131140873D01*
X125143568Y-131150000D01*
X124956432Y-131150000D01*
X124910549Y-131140873D01*
X124772895Y-131113492D01*
X124600006Y-131041879D01*
X124444410Y-130937913D01*
X124312087Y-130805590D01*
X124208121Y-130649994D01*
X124136508Y-130477105D01*
X124100000Y-130293567D01*
X124100000Y-130106433D01*
X124136508Y-129922895D01*
X124208121Y-129750006D01*
X124312087Y-129594410D01*
X124444410Y-129462087D01*
X124600006Y-129358121D01*
X124772895Y-129286508D01*
X124910549Y-129259127D01*
X124956432Y-129250000D01*
X125143568Y-129250000D01*
X125189451Y-129259127D01*
X125189451Y-129259127D01*
G37*
G36*
X87189451Y-129259127D02*
X87327105Y-129286508D01*
X87499994Y-129358121D01*
X87655590Y-129462087D01*
X87787913Y-129594410D01*
X87891879Y-129750006D01*
X87963492Y-129922895D01*
X88000000Y-130106433D01*
X88000000Y-130293567D01*
X87963492Y-130477105D01*
X87891879Y-130649994D01*
X87787913Y-130805590D01*
X87655590Y-130937913D01*
X87499994Y-131041879D01*
X87327105Y-131113492D01*
X87189451Y-131140873D01*
X87143568Y-131150000D01*
X86956432Y-131150000D01*
X86910549Y-131140873D01*
X86772895Y-131113492D01*
X86600006Y-131041879D01*
X86444410Y-130937913D01*
X86312087Y-130805590D01*
X86208121Y-130649994D01*
X86136508Y-130477105D01*
X86100000Y-130293567D01*
X86100000Y-130106433D01*
X86136508Y-129922895D01*
X86208121Y-129750006D01*
X86312087Y-129594410D01*
X86444410Y-129462087D01*
X86600006Y-129358121D01*
X86772895Y-129286508D01*
X86910549Y-129259127D01*
X86956432Y-129250000D01*
X87143568Y-129250000D01*
X87189451Y-129259127D01*
X87189451Y-129259127D01*
G37*
G36*
X101239451Y-126359127D02*
X101377105Y-126386508D01*
X101549994Y-126458121D01*
X101705590Y-126562087D01*
X101837913Y-126694410D01*
X101941879Y-126850006D01*
X102013492Y-127022895D01*
X102050000Y-127206433D01*
X102050000Y-127393567D01*
X102013492Y-127577105D01*
X101941879Y-127749994D01*
X101837913Y-127905590D01*
X101705590Y-128037913D01*
X101549994Y-128141879D01*
X101377105Y-128213492D01*
X101239452Y-128240873D01*
X101193568Y-128250000D01*
X101006432Y-128250000D01*
X100960548Y-128240873D01*
X100822895Y-128213492D01*
X100650006Y-128141879D01*
X100494410Y-128037913D01*
X100362087Y-127905590D01*
X100258121Y-127749994D01*
X100186508Y-127577105D01*
X100150000Y-127393567D01*
X100150000Y-127206433D01*
X100186508Y-127022895D01*
X100258121Y-126850006D01*
X100362087Y-126694410D01*
X100494410Y-126562087D01*
X100650006Y-126458121D01*
X100822895Y-126386508D01*
X100960549Y-126359127D01*
X101006432Y-126350000D01*
X101193568Y-126350000D01*
X101239451Y-126359127D01*
X101239451Y-126359127D01*
G37*
G36*
X106189451Y-124259127D02*
X106327105Y-124286508D01*
X106499994Y-124358121D01*
X106655590Y-124462087D01*
X106787913Y-124594410D01*
X106891879Y-124750006D01*
X106963492Y-124922895D01*
X107000000Y-125106433D01*
X107000000Y-125293567D01*
X106963492Y-125477105D01*
X106891879Y-125649994D01*
X106787913Y-125805590D01*
X106655590Y-125937913D01*
X106499994Y-126041879D01*
X106327105Y-126113492D01*
X106189451Y-126140873D01*
X106143568Y-126150000D01*
X105956432Y-126150000D01*
X105910549Y-126140873D01*
X105772895Y-126113492D01*
X105600006Y-126041879D01*
X105444410Y-125937913D01*
X105312087Y-125805590D01*
X105208121Y-125649994D01*
X105136508Y-125477105D01*
X105100000Y-125293567D01*
X105100000Y-125106433D01*
X105136508Y-124922895D01*
X105208121Y-124750006D01*
X105312087Y-124594410D01*
X105444410Y-124462087D01*
X105600006Y-124358121D01*
X105772895Y-124286508D01*
X105910549Y-124259127D01*
X105956432Y-124250000D01*
X106143568Y-124250000D01*
X106189451Y-124259127D01*
X106189451Y-124259127D01*
G37*
G36*
X62939452Y-117359127D02*
X63077105Y-117386508D01*
X63249994Y-117458121D01*
X63405590Y-117562087D01*
X63537913Y-117694410D01*
X63641879Y-117850006D01*
X63713492Y-118022895D01*
X63750000Y-118206433D01*
X63750000Y-118393567D01*
X63713492Y-118577105D01*
X63641879Y-118749994D01*
X63537913Y-118905590D01*
X63405590Y-119037913D01*
X63249994Y-119141879D01*
X63077105Y-119213492D01*
X62939452Y-119240873D01*
X62893568Y-119250000D01*
X62706432Y-119250000D01*
X62660548Y-119240873D01*
X62522895Y-119213492D01*
X62350006Y-119141879D01*
X62194410Y-119037913D01*
X62062087Y-118905590D01*
X61958121Y-118749994D01*
X61886508Y-118577105D01*
X61850000Y-118393567D01*
X61850000Y-118206433D01*
X61886508Y-118022895D01*
X61958121Y-117850006D01*
X62062087Y-117694410D01*
X62194410Y-117562087D01*
X62350006Y-117458121D01*
X62522895Y-117386508D01*
X62660548Y-117359127D01*
X62706432Y-117350000D01*
X62893568Y-117350000D01*
X62939452Y-117359127D01*
X62939452Y-117359127D01*
G37*
G36*
X139239452Y-117359127D02*
X139377105Y-117386508D01*
X139549994Y-117458121D01*
X139705590Y-117562087D01*
X139837913Y-117694410D01*
X139941879Y-117850006D01*
X140013492Y-118022895D01*
X140050000Y-118206433D01*
X140050000Y-118393567D01*
X140013492Y-118577105D01*
X139941879Y-118749994D01*
X139837913Y-118905590D01*
X139705590Y-119037913D01*
X139549994Y-119141879D01*
X139377105Y-119213492D01*
X139239452Y-119240873D01*
X139193568Y-119250000D01*
X139006432Y-119250000D01*
X138960548Y-119240873D01*
X138822895Y-119213492D01*
X138650006Y-119141879D01*
X138494410Y-119037913D01*
X138362087Y-118905590D01*
X138258121Y-118749994D01*
X138186508Y-118577105D01*
X138150000Y-118393567D01*
X138150000Y-118206433D01*
X138186508Y-118022895D01*
X138258121Y-117850006D01*
X138362087Y-117694410D01*
X138494410Y-117562087D01*
X138650006Y-117458121D01*
X138822895Y-117386508D01*
X138960548Y-117359127D01*
X139006432Y-117350000D01*
X139193568Y-117350000D01*
X139239452Y-117359127D01*
X139239452Y-117359127D01*
G37*
G36*
X43939452Y-117359127D02*
X44077105Y-117386508D01*
X44249994Y-117458121D01*
X44405590Y-117562087D01*
X44537913Y-117694410D01*
X44641879Y-117850006D01*
X44713492Y-118022895D01*
X44750000Y-118206433D01*
X44750000Y-118393567D01*
X44713492Y-118577105D01*
X44641879Y-118749994D01*
X44537913Y-118905590D01*
X44405590Y-119037913D01*
X44249994Y-119141879D01*
X44077105Y-119213492D01*
X43939452Y-119240873D01*
X43893568Y-119250000D01*
X43706432Y-119250000D01*
X43660548Y-119240873D01*
X43522895Y-119213492D01*
X43350006Y-119141879D01*
X43194410Y-119037913D01*
X43062087Y-118905590D01*
X42958121Y-118749994D01*
X42886508Y-118577105D01*
X42850000Y-118393567D01*
X42850000Y-118206433D01*
X42886508Y-118022895D01*
X42958121Y-117850006D01*
X43062087Y-117694410D01*
X43194410Y-117562087D01*
X43350006Y-117458121D01*
X43522895Y-117386508D01*
X43660548Y-117359127D01*
X43706432Y-117350000D01*
X43893568Y-117350000D01*
X43939452Y-117359127D01*
X43939452Y-117359127D01*
G37*
G36*
X48889452Y-115259127D02*
X49027105Y-115286508D01*
X49199994Y-115358121D01*
X49355590Y-115462087D01*
X49487913Y-115594410D01*
X49591879Y-115750006D01*
X49663492Y-115922895D01*
X49700000Y-116106433D01*
X49700000Y-116293567D01*
X49663492Y-116477105D01*
X49591879Y-116649994D01*
X49487913Y-116805590D01*
X49355590Y-116937913D01*
X49199994Y-117041879D01*
X49027105Y-117113492D01*
X48889451Y-117140873D01*
X48843568Y-117150000D01*
X48656432Y-117150000D01*
X48610549Y-117140873D01*
X48472895Y-117113492D01*
X48300006Y-117041879D01*
X48144410Y-116937913D01*
X48012087Y-116805590D01*
X47908121Y-116649994D01*
X47836508Y-116477105D01*
X47800000Y-116293567D01*
X47800000Y-116106433D01*
X47836508Y-115922895D01*
X47908121Y-115750006D01*
X48012087Y-115594410D01*
X48144410Y-115462087D01*
X48300006Y-115358121D01*
X48472895Y-115286508D01*
X48610548Y-115259127D01*
X48656432Y-115250000D01*
X48843568Y-115250000D01*
X48889452Y-115259127D01*
X48889452Y-115259127D01*
G37*
G36*
X67889452Y-115259127D02*
X68027105Y-115286508D01*
X68199994Y-115358121D01*
X68355590Y-115462087D01*
X68487913Y-115594410D01*
X68591879Y-115750006D01*
X68663492Y-115922895D01*
X68700000Y-116106433D01*
X68700000Y-116293567D01*
X68663492Y-116477105D01*
X68591879Y-116649994D01*
X68487913Y-116805590D01*
X68355590Y-116937913D01*
X68199994Y-117041879D01*
X68027105Y-117113492D01*
X67889451Y-117140873D01*
X67843568Y-117150000D01*
X67656432Y-117150000D01*
X67610549Y-117140873D01*
X67472895Y-117113492D01*
X67300006Y-117041879D01*
X67144410Y-116937913D01*
X67012087Y-116805590D01*
X66908121Y-116649994D01*
X66836508Y-116477105D01*
X66800000Y-116293567D01*
X66800000Y-116106433D01*
X66836508Y-115922895D01*
X66908121Y-115750006D01*
X67012087Y-115594410D01*
X67144410Y-115462087D01*
X67300006Y-115358121D01*
X67472895Y-115286508D01*
X67610548Y-115259127D01*
X67656432Y-115250000D01*
X67843568Y-115250000D01*
X67889452Y-115259127D01*
X67889452Y-115259127D01*
G37*
G36*
X144189452Y-115259127D02*
X144327105Y-115286508D01*
X144499994Y-115358121D01*
X144655590Y-115462087D01*
X144787913Y-115594410D01*
X144891879Y-115750006D01*
X144963492Y-115922895D01*
X145000000Y-116106433D01*
X145000000Y-116293567D01*
X144963492Y-116477105D01*
X144891879Y-116649994D01*
X144787913Y-116805590D01*
X144655590Y-116937913D01*
X144499994Y-117041879D01*
X144327105Y-117113492D01*
X144189451Y-117140873D01*
X144143568Y-117150000D01*
X143956432Y-117150000D01*
X143910549Y-117140873D01*
X143772895Y-117113492D01*
X143600006Y-117041879D01*
X143444410Y-116937913D01*
X143312087Y-116805590D01*
X143208121Y-116649994D01*
X143136508Y-116477105D01*
X143100000Y-116293567D01*
X143100000Y-116106433D01*
X143136508Y-115922895D01*
X143208121Y-115750006D01*
X143312087Y-115594410D01*
X143444410Y-115462087D01*
X143600006Y-115358121D01*
X143772895Y-115286508D01*
X143910548Y-115259127D01*
X143956432Y-115250000D01*
X144143568Y-115250000D01*
X144189452Y-115259127D01*
X144189452Y-115259127D01*
G37*
G36*
X82239451Y-112359127D02*
X82377105Y-112386508D01*
X82549994Y-112458121D01*
X82705590Y-112562087D01*
X82837913Y-112694410D01*
X82941879Y-112850006D01*
X83013492Y-113022895D01*
X83050000Y-113206433D01*
X83050000Y-113393567D01*
X83013492Y-113577105D01*
X82941879Y-113749994D01*
X82837913Y-113905590D01*
X82705590Y-114037913D01*
X82549994Y-114141879D01*
X82377105Y-114213492D01*
X82239452Y-114240873D01*
X82193568Y-114250000D01*
X82006432Y-114250000D01*
X81960548Y-114240873D01*
X81822895Y-114213492D01*
X81650006Y-114141879D01*
X81494410Y-114037913D01*
X81362087Y-113905590D01*
X81258121Y-113749994D01*
X81186508Y-113577105D01*
X81150000Y-113393567D01*
X81150000Y-113206433D01*
X81186508Y-113022895D01*
X81258121Y-112850006D01*
X81362087Y-112694410D01*
X81494410Y-112562087D01*
X81650006Y-112458121D01*
X81822895Y-112386508D01*
X81960549Y-112359127D01*
X82006432Y-112350000D01*
X82193568Y-112350000D01*
X82239451Y-112359127D01*
X82239451Y-112359127D01*
G37*
G36*
X120239451Y-112359127D02*
X120377105Y-112386508D01*
X120549994Y-112458121D01*
X120705590Y-112562087D01*
X120837913Y-112694410D01*
X120941879Y-112850006D01*
X121013492Y-113022895D01*
X121050000Y-113206433D01*
X121050000Y-113393567D01*
X121013492Y-113577105D01*
X120941879Y-113749994D01*
X120837913Y-113905590D01*
X120705590Y-114037913D01*
X120549994Y-114141879D01*
X120377105Y-114213492D01*
X120239452Y-114240873D01*
X120193568Y-114250000D01*
X120006432Y-114250000D01*
X119960548Y-114240873D01*
X119822895Y-114213492D01*
X119650006Y-114141879D01*
X119494410Y-114037913D01*
X119362087Y-113905590D01*
X119258121Y-113749994D01*
X119186508Y-113577105D01*
X119150000Y-113393567D01*
X119150000Y-113206433D01*
X119186508Y-113022895D01*
X119258121Y-112850006D01*
X119362087Y-112694410D01*
X119494410Y-112562087D01*
X119650006Y-112458121D01*
X119822895Y-112386508D01*
X119960549Y-112359127D01*
X120006432Y-112350000D01*
X120193568Y-112350000D01*
X120239451Y-112359127D01*
X120239451Y-112359127D01*
G37*
G36*
X87189452Y-110259127D02*
X87327105Y-110286508D01*
X87499994Y-110358121D01*
X87655590Y-110462087D01*
X87787913Y-110594410D01*
X87891879Y-110750006D01*
X87963492Y-110922895D01*
X88000000Y-111106433D01*
X88000000Y-111293567D01*
X87963492Y-111477105D01*
X87891879Y-111649994D01*
X87787913Y-111805590D01*
X87655590Y-111937913D01*
X87499994Y-112041879D01*
X87327105Y-112113492D01*
X87189452Y-112140873D01*
X87143568Y-112150000D01*
X86956432Y-112150000D01*
X86910548Y-112140873D01*
X86772895Y-112113492D01*
X86600006Y-112041879D01*
X86444410Y-111937913D01*
X86312087Y-111805590D01*
X86208121Y-111649994D01*
X86136508Y-111477105D01*
X86100000Y-111293567D01*
X86100000Y-111106433D01*
X86136508Y-110922895D01*
X86208121Y-110750006D01*
X86312087Y-110594410D01*
X86444410Y-110462087D01*
X86600006Y-110358121D01*
X86772895Y-110286508D01*
X86910548Y-110259127D01*
X86956432Y-110250000D01*
X87143568Y-110250000D01*
X87189452Y-110259127D01*
X87189452Y-110259127D01*
G37*
G36*
X125189452Y-110259127D02*
X125327105Y-110286508D01*
X125499994Y-110358121D01*
X125655590Y-110462087D01*
X125787913Y-110594410D01*
X125891879Y-110750006D01*
X125963492Y-110922895D01*
X126000000Y-111106433D01*
X126000000Y-111293567D01*
X125963492Y-111477105D01*
X125891879Y-111649994D01*
X125787913Y-111805590D01*
X125655590Y-111937913D01*
X125499994Y-112041879D01*
X125327105Y-112113492D01*
X125189452Y-112140873D01*
X125143568Y-112150000D01*
X124956432Y-112150000D01*
X124910548Y-112140873D01*
X124772895Y-112113492D01*
X124600006Y-112041879D01*
X124444410Y-111937913D01*
X124312087Y-111805590D01*
X124208121Y-111649994D01*
X124136508Y-111477105D01*
X124100000Y-111293567D01*
X124100000Y-111106433D01*
X124136508Y-110922895D01*
X124208121Y-110750006D01*
X124312087Y-110594410D01*
X124444410Y-110462087D01*
X124600006Y-110358121D01*
X124772895Y-110286508D01*
X124910548Y-110259127D01*
X124956432Y-110250000D01*
X125143568Y-110250000D01*
X125189452Y-110259127D01*
X125189452Y-110259127D01*
G37*
G36*
X101239452Y-107359127D02*
X101377105Y-107386508D01*
X101549994Y-107458121D01*
X101705590Y-107562087D01*
X101837913Y-107694410D01*
X101941879Y-107850006D01*
X102013492Y-108022895D01*
X102050000Y-108206433D01*
X102050000Y-108393567D01*
X102013492Y-108577105D01*
X101941879Y-108749994D01*
X101837913Y-108905590D01*
X101705590Y-109037913D01*
X101549994Y-109141879D01*
X101377105Y-109213492D01*
X101239452Y-109240873D01*
X101193568Y-109250000D01*
X101006432Y-109250000D01*
X100960548Y-109240873D01*
X100822895Y-109213492D01*
X100650006Y-109141879D01*
X100494410Y-109037913D01*
X100362087Y-108905590D01*
X100258121Y-108749994D01*
X100186508Y-108577105D01*
X100150000Y-108393567D01*
X100150000Y-108206433D01*
X100186508Y-108022895D01*
X100258121Y-107850006D01*
X100362087Y-107694410D01*
X100494410Y-107562087D01*
X100650006Y-107458121D01*
X100822895Y-107386508D01*
X100960548Y-107359127D01*
X101006432Y-107350000D01*
X101193568Y-107350000D01*
X101239452Y-107359127D01*
X101239452Y-107359127D01*
G37*
G36*
X106189451Y-105259127D02*
X106327105Y-105286508D01*
X106499994Y-105358121D01*
X106655590Y-105462087D01*
X106787913Y-105594410D01*
X106891879Y-105750006D01*
X106963492Y-105922895D01*
X107000000Y-106106433D01*
X107000000Y-106293567D01*
X106963492Y-106477105D01*
X106891879Y-106649994D01*
X106787913Y-106805590D01*
X106655590Y-106937913D01*
X106499994Y-107041879D01*
X106327105Y-107113492D01*
X106189451Y-107140873D01*
X106143568Y-107150000D01*
X105956432Y-107150000D01*
X105910549Y-107140873D01*
X105772895Y-107113492D01*
X105600006Y-107041879D01*
X105444410Y-106937913D01*
X105312087Y-106805590D01*
X105208121Y-106649994D01*
X105136508Y-106477105D01*
X105100000Y-106293567D01*
X105100000Y-106106433D01*
X105136508Y-105922895D01*
X105208121Y-105750006D01*
X105312087Y-105594410D01*
X105444410Y-105462087D01*
X105600006Y-105358121D01*
X105772895Y-105286508D01*
X105910549Y-105259127D01*
X105956432Y-105250000D01*
X106143568Y-105250000D01*
X106189451Y-105259127D01*
X106189451Y-105259127D01*
G37*
G36*
X139239452Y-98359127D02*
X139377105Y-98386508D01*
X139549994Y-98458121D01*
X139705590Y-98562087D01*
X139837913Y-98694410D01*
X139941879Y-98850006D01*
X140013492Y-99022895D01*
X140050000Y-99206433D01*
X140050000Y-99393567D01*
X140013492Y-99577105D01*
X139941879Y-99749994D01*
X139837913Y-99905590D01*
X139705590Y-100037913D01*
X139549994Y-100141879D01*
X139377105Y-100213492D01*
X139239452Y-100240873D01*
X139193568Y-100250000D01*
X139006432Y-100250000D01*
X138960549Y-100240873D01*
X138822895Y-100213492D01*
X138650006Y-100141879D01*
X138494410Y-100037913D01*
X138362087Y-99905590D01*
X138258121Y-99749994D01*
X138186508Y-99577105D01*
X138150000Y-99393567D01*
X138150000Y-99206433D01*
X138186508Y-99022895D01*
X138258121Y-98850006D01*
X138362087Y-98694410D01*
X138494410Y-98562087D01*
X138650006Y-98458121D01*
X138822895Y-98386508D01*
X138960548Y-98359127D01*
X139006432Y-98350000D01*
X139193568Y-98350000D01*
X139239452Y-98359127D01*
X139239452Y-98359127D01*
G37*
G36*
X62939452Y-98359127D02*
X63077105Y-98386508D01*
X63249994Y-98458121D01*
X63405590Y-98562087D01*
X63537913Y-98694410D01*
X63641879Y-98850006D01*
X63713492Y-99022895D01*
X63750000Y-99206433D01*
X63750000Y-99393567D01*
X63713492Y-99577105D01*
X63641879Y-99749994D01*
X63537913Y-99905590D01*
X63405590Y-100037913D01*
X63249994Y-100141879D01*
X63077105Y-100213492D01*
X62939452Y-100240873D01*
X62893568Y-100250000D01*
X62706432Y-100250000D01*
X62660549Y-100240873D01*
X62522895Y-100213492D01*
X62350006Y-100141879D01*
X62194410Y-100037913D01*
X62062087Y-99905590D01*
X61958121Y-99749994D01*
X61886508Y-99577105D01*
X61850000Y-99393567D01*
X61850000Y-99206433D01*
X61886508Y-99022895D01*
X61958121Y-98850006D01*
X62062087Y-98694410D01*
X62194410Y-98562087D01*
X62350006Y-98458121D01*
X62522895Y-98386508D01*
X62660548Y-98359127D01*
X62706432Y-98350000D01*
X62893568Y-98350000D01*
X62939452Y-98359127D01*
X62939452Y-98359127D01*
G37*
G36*
X43939452Y-98359127D02*
X44077105Y-98386508D01*
X44249994Y-98458121D01*
X44405590Y-98562087D01*
X44537913Y-98694410D01*
X44641879Y-98850006D01*
X44713492Y-99022895D01*
X44750000Y-99206433D01*
X44750000Y-99393567D01*
X44713492Y-99577105D01*
X44641879Y-99749994D01*
X44537913Y-99905590D01*
X44405590Y-100037913D01*
X44249994Y-100141879D01*
X44077105Y-100213492D01*
X43939452Y-100240873D01*
X43893568Y-100250000D01*
X43706432Y-100250000D01*
X43660549Y-100240873D01*
X43522895Y-100213492D01*
X43350006Y-100141879D01*
X43194410Y-100037913D01*
X43062087Y-99905590D01*
X42958121Y-99749994D01*
X42886508Y-99577105D01*
X42850000Y-99393567D01*
X42850000Y-99206433D01*
X42886508Y-99022895D01*
X42958121Y-98850006D01*
X43062087Y-98694410D01*
X43194410Y-98562087D01*
X43350006Y-98458121D01*
X43522895Y-98386508D01*
X43660548Y-98359127D01*
X43706432Y-98350000D01*
X43893568Y-98350000D01*
X43939452Y-98359127D01*
X43939452Y-98359127D01*
G37*
G36*
X67889451Y-96259127D02*
X68027105Y-96286508D01*
X68199994Y-96358121D01*
X68355590Y-96462087D01*
X68487913Y-96594410D01*
X68591879Y-96750006D01*
X68663492Y-96922895D01*
X68700000Y-97106433D01*
X68700000Y-97293567D01*
X68663492Y-97477105D01*
X68591879Y-97649994D01*
X68487913Y-97805590D01*
X68355590Y-97937913D01*
X68199994Y-98041879D01*
X68027105Y-98113492D01*
X67889451Y-98140873D01*
X67843568Y-98150000D01*
X67656432Y-98150000D01*
X67610549Y-98140873D01*
X67472895Y-98113492D01*
X67300006Y-98041879D01*
X67144410Y-97937913D01*
X67012087Y-97805590D01*
X66908121Y-97649994D01*
X66836508Y-97477105D01*
X66800000Y-97293567D01*
X66800000Y-97106433D01*
X66836508Y-96922895D01*
X66908121Y-96750006D01*
X67012087Y-96594410D01*
X67144410Y-96462087D01*
X67300006Y-96358121D01*
X67472895Y-96286508D01*
X67610549Y-96259127D01*
X67656432Y-96250000D01*
X67843568Y-96250000D01*
X67889451Y-96259127D01*
X67889451Y-96259127D01*
G37*
G36*
X144189451Y-96259127D02*
X144327105Y-96286508D01*
X144499994Y-96358121D01*
X144655590Y-96462087D01*
X144787913Y-96594410D01*
X144891879Y-96750006D01*
X144963492Y-96922895D01*
X145000000Y-97106433D01*
X145000000Y-97293567D01*
X144963492Y-97477105D01*
X144891879Y-97649994D01*
X144787913Y-97805590D01*
X144655590Y-97937913D01*
X144499994Y-98041879D01*
X144327105Y-98113492D01*
X144189451Y-98140873D01*
X144143568Y-98150000D01*
X143956432Y-98150000D01*
X143910549Y-98140873D01*
X143772895Y-98113492D01*
X143600006Y-98041879D01*
X143444410Y-97937913D01*
X143312087Y-97805590D01*
X143208121Y-97649994D01*
X143136508Y-97477105D01*
X143100000Y-97293567D01*
X143100000Y-97106433D01*
X143136508Y-96922895D01*
X143208121Y-96750006D01*
X143312087Y-96594410D01*
X143444410Y-96462087D01*
X143600006Y-96358121D01*
X143772895Y-96286508D01*
X143910549Y-96259127D01*
X143956432Y-96250000D01*
X144143568Y-96250000D01*
X144189451Y-96259127D01*
X144189451Y-96259127D01*
G37*
G36*
X48889451Y-96259127D02*
X49027105Y-96286508D01*
X49199994Y-96358121D01*
X49355590Y-96462087D01*
X49487913Y-96594410D01*
X49591879Y-96750006D01*
X49663492Y-96922895D01*
X49700000Y-97106433D01*
X49700000Y-97293567D01*
X49663492Y-97477105D01*
X49591879Y-97649994D01*
X49487913Y-97805590D01*
X49355590Y-97937913D01*
X49199994Y-98041879D01*
X49027105Y-98113492D01*
X48889451Y-98140873D01*
X48843568Y-98150000D01*
X48656432Y-98150000D01*
X48610549Y-98140873D01*
X48472895Y-98113492D01*
X48300006Y-98041879D01*
X48144410Y-97937913D01*
X48012087Y-97805590D01*
X47908121Y-97649994D01*
X47836508Y-97477105D01*
X47800000Y-97293567D01*
X47800000Y-97106433D01*
X47836508Y-96922895D01*
X47908121Y-96750006D01*
X48012087Y-96594410D01*
X48144410Y-96462087D01*
X48300006Y-96358121D01*
X48472895Y-96286508D01*
X48610549Y-96259127D01*
X48656432Y-96250000D01*
X48843568Y-96250000D01*
X48889451Y-96259127D01*
X48889451Y-96259127D01*
G37*
G36*
X82239451Y-93359127D02*
X82377105Y-93386508D01*
X82549994Y-93458121D01*
X82705590Y-93562087D01*
X82837913Y-93694410D01*
X82941879Y-93850006D01*
X83013492Y-94022895D01*
X83050000Y-94206433D01*
X83050000Y-94393567D01*
X83013492Y-94577105D01*
X82941879Y-94749994D01*
X82837913Y-94905590D01*
X82705590Y-95037913D01*
X82549994Y-95141879D01*
X82377105Y-95213492D01*
X82239452Y-95240873D01*
X82193568Y-95250000D01*
X82006432Y-95250000D01*
X81960549Y-95240873D01*
X81822895Y-95213492D01*
X81650006Y-95141879D01*
X81494410Y-95037913D01*
X81362087Y-94905590D01*
X81258121Y-94749994D01*
X81186508Y-94577105D01*
X81150000Y-94393567D01*
X81150000Y-94206433D01*
X81186508Y-94022895D01*
X81258121Y-93850006D01*
X81362087Y-93694410D01*
X81494410Y-93562087D01*
X81650006Y-93458121D01*
X81822895Y-93386508D01*
X81960549Y-93359127D01*
X82006432Y-93350000D01*
X82193568Y-93350000D01*
X82239451Y-93359127D01*
X82239451Y-93359127D01*
G37*
G36*
X120239451Y-93359127D02*
X120377105Y-93386508D01*
X120549994Y-93458121D01*
X120705590Y-93562087D01*
X120837913Y-93694410D01*
X120941879Y-93850006D01*
X121013492Y-94022895D01*
X121050000Y-94206433D01*
X121050000Y-94393567D01*
X121013492Y-94577105D01*
X120941879Y-94749994D01*
X120837913Y-94905590D01*
X120705590Y-95037913D01*
X120549994Y-95141879D01*
X120377105Y-95213492D01*
X120239452Y-95240873D01*
X120193568Y-95250000D01*
X120006432Y-95250000D01*
X119960549Y-95240873D01*
X119822895Y-95213492D01*
X119650006Y-95141879D01*
X119494410Y-95037913D01*
X119362087Y-94905590D01*
X119258121Y-94749994D01*
X119186508Y-94577105D01*
X119150000Y-94393567D01*
X119150000Y-94206433D01*
X119186508Y-94022895D01*
X119258121Y-93850006D01*
X119362087Y-93694410D01*
X119494410Y-93562087D01*
X119650006Y-93458121D01*
X119822895Y-93386508D01*
X119960549Y-93359127D01*
X120006432Y-93350000D01*
X120193568Y-93350000D01*
X120239451Y-93359127D01*
X120239451Y-93359127D01*
G37*
G36*
X87189451Y-91259127D02*
X87327105Y-91286508D01*
X87499994Y-91358121D01*
X87655590Y-91462087D01*
X87787913Y-91594410D01*
X87891879Y-91750006D01*
X87963492Y-91922895D01*
X88000000Y-92106433D01*
X88000000Y-92293567D01*
X87963492Y-92477105D01*
X87891879Y-92649994D01*
X87787913Y-92805590D01*
X87655590Y-92937913D01*
X87499994Y-93041879D01*
X87327105Y-93113492D01*
X87189451Y-93140873D01*
X87143568Y-93150000D01*
X86956432Y-93150000D01*
X86910549Y-93140873D01*
X86772895Y-93113492D01*
X86600006Y-93041879D01*
X86444410Y-92937913D01*
X86312087Y-92805590D01*
X86208121Y-92649994D01*
X86136508Y-92477105D01*
X86100000Y-92293567D01*
X86100000Y-92106433D01*
X86136508Y-91922895D01*
X86208121Y-91750006D01*
X86312087Y-91594410D01*
X86444410Y-91462087D01*
X86600006Y-91358121D01*
X86772895Y-91286508D01*
X86910548Y-91259127D01*
X86956432Y-91250000D01*
X87143568Y-91250000D01*
X87189451Y-91259127D01*
X87189451Y-91259127D01*
G37*
G36*
X125189451Y-91259127D02*
X125327105Y-91286508D01*
X125499994Y-91358121D01*
X125655590Y-91462087D01*
X125787913Y-91594410D01*
X125891879Y-91750006D01*
X125963492Y-91922895D01*
X126000000Y-92106433D01*
X126000000Y-92293567D01*
X125963492Y-92477105D01*
X125891879Y-92649994D01*
X125787913Y-92805590D01*
X125655590Y-92937913D01*
X125499994Y-93041879D01*
X125327105Y-93113492D01*
X125189451Y-93140873D01*
X125143568Y-93150000D01*
X124956432Y-93150000D01*
X124910549Y-93140873D01*
X124772895Y-93113492D01*
X124600006Y-93041879D01*
X124444410Y-92937913D01*
X124312087Y-92805590D01*
X124208121Y-92649994D01*
X124136508Y-92477105D01*
X124100000Y-92293567D01*
X124100000Y-92106433D01*
X124136508Y-91922895D01*
X124208121Y-91750006D01*
X124312087Y-91594410D01*
X124444410Y-91462087D01*
X124600006Y-91358121D01*
X124772895Y-91286508D01*
X124910548Y-91259127D01*
X124956432Y-91250000D01*
X125143568Y-91250000D01*
X125189451Y-91259127D01*
X125189451Y-91259127D01*
G37*
G36*
X101239451Y-88359127D02*
X101377105Y-88386508D01*
X101549994Y-88458121D01*
X101705590Y-88562087D01*
X101837913Y-88694410D01*
X101941879Y-88850006D01*
X102013492Y-89022895D01*
X102050000Y-89206433D01*
X102050000Y-89393567D01*
X102013492Y-89577105D01*
X101941879Y-89749994D01*
X101837913Y-89905590D01*
X101705590Y-90037913D01*
X101549994Y-90141879D01*
X101377105Y-90213492D01*
X101239451Y-90240873D01*
X101193568Y-90250000D01*
X101006432Y-90250000D01*
X100960549Y-90240873D01*
X100822895Y-90213492D01*
X100650006Y-90141879D01*
X100494410Y-90037913D01*
X100362087Y-89905590D01*
X100258121Y-89749994D01*
X100186508Y-89577105D01*
X100150000Y-89393567D01*
X100150000Y-89206433D01*
X100186508Y-89022895D01*
X100258121Y-88850006D01*
X100362087Y-88694410D01*
X100494410Y-88562087D01*
X100650006Y-88458121D01*
X100822895Y-88386508D01*
X100960549Y-88359127D01*
X101006432Y-88350000D01*
X101193568Y-88350000D01*
X101239451Y-88359127D01*
X101239451Y-88359127D01*
G37*
G36*
X106189451Y-86259127D02*
X106327105Y-86286508D01*
X106499994Y-86358121D01*
X106655590Y-86462087D01*
X106787913Y-86594410D01*
X106891879Y-86750006D01*
X106963492Y-86922895D01*
X107000000Y-87106433D01*
X107000000Y-87293567D01*
X106963492Y-87477105D01*
X106891879Y-87649994D01*
X106787913Y-87805590D01*
X106655590Y-87937913D01*
X106499994Y-88041879D01*
X106327105Y-88113492D01*
X106189451Y-88140873D01*
X106143568Y-88150000D01*
X105956432Y-88150000D01*
X105910549Y-88140873D01*
X105772895Y-88113492D01*
X105600006Y-88041879D01*
X105444410Y-87937913D01*
X105312087Y-87805590D01*
X105208121Y-87649994D01*
X105136508Y-87477105D01*
X105100000Y-87293567D01*
X105100000Y-87106433D01*
X105136508Y-86922895D01*
X105208121Y-86750006D01*
X105312087Y-86594410D01*
X105444410Y-86462087D01*
X105600006Y-86358121D01*
X105772895Y-86286508D01*
X105910549Y-86259127D01*
X105956432Y-86250000D01*
X106143568Y-86250000D01*
X106189451Y-86259127D01*
X106189451Y-86259127D01*
G37*
G36*
X139239452Y-79359127D02*
X139377105Y-79386508D01*
X139549994Y-79458121D01*
X139705590Y-79562087D01*
X139837913Y-79694410D01*
X139941879Y-79850006D01*
X140013492Y-80022895D01*
X140050000Y-80206433D01*
X140050000Y-80393567D01*
X140013492Y-80577105D01*
X139941879Y-80749994D01*
X139837913Y-80905590D01*
X139705590Y-81037913D01*
X139549994Y-81141879D01*
X139377105Y-81213492D01*
X139239452Y-81240873D01*
X139193568Y-81250000D01*
X139006432Y-81250000D01*
X138960548Y-81240873D01*
X138822895Y-81213492D01*
X138650006Y-81141879D01*
X138494410Y-81037913D01*
X138362087Y-80905590D01*
X138258121Y-80749994D01*
X138186508Y-80577105D01*
X138150000Y-80393567D01*
X138150000Y-80206433D01*
X138186508Y-80022895D01*
X138258121Y-79850006D01*
X138362087Y-79694410D01*
X138494410Y-79562087D01*
X138650006Y-79458121D01*
X138822895Y-79386508D01*
X138960549Y-79359127D01*
X139006432Y-79350000D01*
X139193568Y-79350000D01*
X139239452Y-79359127D01*
X139239452Y-79359127D01*
G37*
G36*
X62939452Y-79359127D02*
X63077105Y-79386508D01*
X63249994Y-79458121D01*
X63405590Y-79562087D01*
X63537913Y-79694410D01*
X63641879Y-79850006D01*
X63713492Y-80022895D01*
X63750000Y-80206433D01*
X63750000Y-80393567D01*
X63713492Y-80577105D01*
X63641879Y-80749994D01*
X63537913Y-80905590D01*
X63405590Y-81037913D01*
X63249994Y-81141879D01*
X63077105Y-81213492D01*
X62939452Y-81240873D01*
X62893568Y-81250000D01*
X62706432Y-81250000D01*
X62660548Y-81240873D01*
X62522895Y-81213492D01*
X62350006Y-81141879D01*
X62194410Y-81037913D01*
X62062087Y-80905590D01*
X61958121Y-80749994D01*
X61886508Y-80577105D01*
X61850000Y-80393567D01*
X61850000Y-80206433D01*
X61886508Y-80022895D01*
X61958121Y-79850006D01*
X62062087Y-79694410D01*
X62194410Y-79562087D01*
X62350006Y-79458121D01*
X62522895Y-79386508D01*
X62660548Y-79359127D01*
X62706432Y-79350000D01*
X62893568Y-79350000D01*
X62939452Y-79359127D01*
X62939452Y-79359127D01*
G37*
G36*
X43939452Y-79359127D02*
X44077105Y-79386508D01*
X44249994Y-79458121D01*
X44405590Y-79562087D01*
X44537913Y-79694410D01*
X44641879Y-79850006D01*
X44713492Y-80022895D01*
X44750000Y-80206433D01*
X44750000Y-80393567D01*
X44713492Y-80577105D01*
X44641879Y-80749994D01*
X44537913Y-80905590D01*
X44405590Y-81037913D01*
X44249994Y-81141879D01*
X44077105Y-81213492D01*
X43939452Y-81240873D01*
X43893568Y-81250000D01*
X43706432Y-81250000D01*
X43660548Y-81240873D01*
X43522895Y-81213492D01*
X43350006Y-81141879D01*
X43194410Y-81037913D01*
X43062087Y-80905590D01*
X42958121Y-80749994D01*
X42886508Y-80577105D01*
X42850000Y-80393567D01*
X42850000Y-80206433D01*
X42886508Y-80022895D01*
X42958121Y-79850006D01*
X43062087Y-79694410D01*
X43194410Y-79562087D01*
X43350006Y-79458121D01*
X43522895Y-79386508D01*
X43660548Y-79359127D01*
X43706432Y-79350000D01*
X43893568Y-79350000D01*
X43939452Y-79359127D01*
X43939452Y-79359127D01*
G37*
G36*
X144189452Y-77259127D02*
X144327105Y-77286508D01*
X144499994Y-77358121D01*
X144655590Y-77462087D01*
X144787913Y-77594410D01*
X144891879Y-77750006D01*
X144963492Y-77922895D01*
X145000000Y-78106433D01*
X145000000Y-78293567D01*
X144963492Y-78477105D01*
X144891879Y-78649994D01*
X144787913Y-78805590D01*
X144655590Y-78937913D01*
X144499994Y-79041879D01*
X144327105Y-79113492D01*
X144189452Y-79140873D01*
X144143568Y-79150000D01*
X143956432Y-79150000D01*
X143910548Y-79140873D01*
X143772895Y-79113492D01*
X143600006Y-79041879D01*
X143444410Y-78937913D01*
X143312087Y-78805590D01*
X143208121Y-78649994D01*
X143136508Y-78477105D01*
X143100000Y-78293567D01*
X143100000Y-78106433D01*
X143136508Y-77922895D01*
X143208121Y-77750006D01*
X143312087Y-77594410D01*
X143444410Y-77462087D01*
X143600006Y-77358121D01*
X143772895Y-77286508D01*
X143910548Y-77259127D01*
X143956432Y-77250000D01*
X144143568Y-77250000D01*
X144189452Y-77259127D01*
X144189452Y-77259127D01*
G37*
G36*
X67889452Y-77259127D02*
X68027105Y-77286508D01*
X68199994Y-77358121D01*
X68355590Y-77462087D01*
X68487913Y-77594410D01*
X68591879Y-77750006D01*
X68663492Y-77922895D01*
X68700000Y-78106433D01*
X68700000Y-78293567D01*
X68663492Y-78477105D01*
X68591879Y-78649994D01*
X68487913Y-78805590D01*
X68355590Y-78937913D01*
X68199994Y-79041879D01*
X68027105Y-79113492D01*
X67889452Y-79140873D01*
X67843568Y-79150000D01*
X67656432Y-79150000D01*
X67610548Y-79140873D01*
X67472895Y-79113492D01*
X67300006Y-79041879D01*
X67144410Y-78937913D01*
X67012087Y-78805590D01*
X66908121Y-78649994D01*
X66836508Y-78477105D01*
X66800000Y-78293567D01*
X66800000Y-78106433D01*
X66836508Y-77922895D01*
X66908121Y-77750006D01*
X67012087Y-77594410D01*
X67144410Y-77462087D01*
X67300006Y-77358121D01*
X67472895Y-77286508D01*
X67610548Y-77259127D01*
X67656432Y-77250000D01*
X67843568Y-77250000D01*
X67889452Y-77259127D01*
X67889452Y-77259127D01*
G37*
G36*
X48889452Y-77259127D02*
X49027105Y-77286508D01*
X49199994Y-77358121D01*
X49355590Y-77462087D01*
X49487913Y-77594410D01*
X49591879Y-77750006D01*
X49663492Y-77922895D01*
X49700000Y-78106433D01*
X49700000Y-78293567D01*
X49663492Y-78477105D01*
X49591879Y-78649994D01*
X49487913Y-78805590D01*
X49355590Y-78937913D01*
X49199994Y-79041879D01*
X49027105Y-79113492D01*
X48889452Y-79140873D01*
X48843568Y-79150000D01*
X48656432Y-79150000D01*
X48610548Y-79140873D01*
X48472895Y-79113492D01*
X48300006Y-79041879D01*
X48144410Y-78937913D01*
X48012087Y-78805590D01*
X47908121Y-78649994D01*
X47836508Y-78477105D01*
X47800000Y-78293567D01*
X47800000Y-78106433D01*
X47836508Y-77922895D01*
X47908121Y-77750006D01*
X48012087Y-77594410D01*
X48144410Y-77462087D01*
X48300006Y-77358121D01*
X48472895Y-77286508D01*
X48610548Y-77259127D01*
X48656432Y-77250000D01*
X48843568Y-77250000D01*
X48889452Y-77259127D01*
X48889452Y-77259127D01*
G37*
G36*
X120239452Y-74359127D02*
X120377105Y-74386508D01*
X120549994Y-74458121D01*
X120705590Y-74562087D01*
X120837913Y-74694410D01*
X120941879Y-74850006D01*
X121013492Y-75022895D01*
X121050000Y-75206433D01*
X121050000Y-75393567D01*
X121013492Y-75577105D01*
X120941879Y-75749994D01*
X120837913Y-75905590D01*
X120705590Y-76037913D01*
X120549994Y-76141879D01*
X120377105Y-76213492D01*
X120239451Y-76240873D01*
X120193568Y-76250000D01*
X120006432Y-76250000D01*
X119960549Y-76240873D01*
X119822895Y-76213492D01*
X119650006Y-76141879D01*
X119494410Y-76037913D01*
X119362087Y-75905590D01*
X119258121Y-75749994D01*
X119186508Y-75577105D01*
X119150000Y-75393567D01*
X119150000Y-75206433D01*
X119186508Y-75022895D01*
X119258121Y-74850006D01*
X119362087Y-74694410D01*
X119494410Y-74562087D01*
X119650006Y-74458121D01*
X119822895Y-74386508D01*
X119960548Y-74359127D01*
X120006432Y-74350000D01*
X120193568Y-74350000D01*
X120239452Y-74359127D01*
X120239452Y-74359127D01*
G37*
G36*
X82239452Y-74359127D02*
X82377105Y-74386508D01*
X82549994Y-74458121D01*
X82705590Y-74562087D01*
X82837913Y-74694410D01*
X82941879Y-74850006D01*
X83013492Y-75022895D01*
X83050000Y-75206433D01*
X83050000Y-75393567D01*
X83013492Y-75577105D01*
X82941879Y-75749994D01*
X82837913Y-75905590D01*
X82705590Y-76037913D01*
X82549994Y-76141879D01*
X82377105Y-76213492D01*
X82239451Y-76240873D01*
X82193568Y-76250000D01*
X82006432Y-76250000D01*
X81960549Y-76240873D01*
X81822895Y-76213492D01*
X81650006Y-76141879D01*
X81494410Y-76037913D01*
X81362087Y-75905590D01*
X81258121Y-75749994D01*
X81186508Y-75577105D01*
X81150000Y-75393567D01*
X81150000Y-75206433D01*
X81186508Y-75022895D01*
X81258121Y-74850006D01*
X81362087Y-74694410D01*
X81494410Y-74562087D01*
X81650006Y-74458121D01*
X81822895Y-74386508D01*
X81960548Y-74359127D01*
X82006432Y-74350000D01*
X82193568Y-74350000D01*
X82239452Y-74359127D01*
X82239452Y-74359127D01*
G37*
G36*
X125189452Y-72259127D02*
X125327105Y-72286508D01*
X125499994Y-72358121D01*
X125655590Y-72462087D01*
X125787913Y-72594410D01*
X125891879Y-72750006D01*
X125963492Y-72922895D01*
X126000000Y-73106433D01*
X126000000Y-73293567D01*
X125963492Y-73477105D01*
X125891879Y-73649994D01*
X125787913Y-73805590D01*
X125655590Y-73937913D01*
X125499994Y-74041879D01*
X125327105Y-74113492D01*
X125189452Y-74140873D01*
X125143568Y-74150000D01*
X124956432Y-74150000D01*
X124910548Y-74140873D01*
X124772895Y-74113492D01*
X124600006Y-74041879D01*
X124444410Y-73937913D01*
X124312087Y-73805590D01*
X124208121Y-73649994D01*
X124136508Y-73477105D01*
X124100000Y-73293567D01*
X124100000Y-73106433D01*
X124136508Y-72922895D01*
X124208121Y-72750006D01*
X124312087Y-72594410D01*
X124444410Y-72462087D01*
X124600006Y-72358121D01*
X124772895Y-72286508D01*
X124910548Y-72259127D01*
X124956432Y-72250000D01*
X125143568Y-72250000D01*
X125189452Y-72259127D01*
X125189452Y-72259127D01*
G37*
G36*
X87189452Y-72259127D02*
X87327105Y-72286508D01*
X87499994Y-72358121D01*
X87655590Y-72462087D01*
X87787913Y-72594410D01*
X87891879Y-72750006D01*
X87963492Y-72922895D01*
X88000000Y-73106433D01*
X88000000Y-73293567D01*
X87963492Y-73477105D01*
X87891879Y-73649994D01*
X87787913Y-73805590D01*
X87655590Y-73937913D01*
X87499994Y-74041879D01*
X87327105Y-74113492D01*
X87189452Y-74140873D01*
X87143568Y-74150000D01*
X86956432Y-74150000D01*
X86910548Y-74140873D01*
X86772895Y-74113492D01*
X86600006Y-74041879D01*
X86444410Y-73937913D01*
X86312087Y-73805590D01*
X86208121Y-73649994D01*
X86136508Y-73477105D01*
X86100000Y-73293567D01*
X86100000Y-73106433D01*
X86136508Y-72922895D01*
X86208121Y-72750006D01*
X86312087Y-72594410D01*
X86444410Y-72462087D01*
X86600006Y-72358121D01*
X86772895Y-72286508D01*
X86910548Y-72259127D01*
X86956432Y-72250000D01*
X87143568Y-72250000D01*
X87189452Y-72259127D01*
X87189452Y-72259127D01*
G37*
G36*
X101339452Y-69359127D02*
X101477105Y-69386508D01*
X101649994Y-69458121D01*
X101805590Y-69562087D01*
X101937913Y-69694410D01*
X102041879Y-69850006D01*
X102113492Y-70022895D01*
X102150000Y-70206433D01*
X102150000Y-70393567D01*
X102113492Y-70577105D01*
X102041879Y-70749994D01*
X101937913Y-70905590D01*
X101805590Y-71037913D01*
X101649994Y-71141879D01*
X101477105Y-71213492D01*
X101339451Y-71240873D01*
X101293568Y-71250000D01*
X101106432Y-71250000D01*
X101060549Y-71240873D01*
X100922895Y-71213492D01*
X100750006Y-71141879D01*
X100594410Y-71037913D01*
X100462087Y-70905590D01*
X100358121Y-70749994D01*
X100286508Y-70577105D01*
X100250000Y-70393567D01*
X100250000Y-70206433D01*
X100286508Y-70022895D01*
X100358121Y-69850006D01*
X100462087Y-69694410D01*
X100594410Y-69562087D01*
X100750006Y-69458121D01*
X100922895Y-69386508D01*
X101060548Y-69359127D01*
X101106432Y-69350000D01*
X101293568Y-69350000D01*
X101339452Y-69359127D01*
X101339452Y-69359127D01*
G37*
G36*
X106289452Y-67259127D02*
X106427105Y-67286508D01*
X106599994Y-67358121D01*
X106755590Y-67462087D01*
X106887913Y-67594410D01*
X106991879Y-67750006D01*
X107063492Y-67922895D01*
X107100000Y-68106433D01*
X107100000Y-68293567D01*
X107063492Y-68477105D01*
X106991879Y-68649994D01*
X106887913Y-68805590D01*
X106755590Y-68937913D01*
X106599994Y-69041879D01*
X106427105Y-69113492D01*
X106289452Y-69140873D01*
X106243568Y-69150000D01*
X106056432Y-69150000D01*
X106010548Y-69140873D01*
X105872895Y-69113492D01*
X105700006Y-69041879D01*
X105544410Y-68937913D01*
X105412087Y-68805590D01*
X105308121Y-68649994D01*
X105236508Y-68477105D01*
X105200000Y-68293567D01*
X105200000Y-68106433D01*
X105236508Y-67922895D01*
X105308121Y-67750006D01*
X105412087Y-67594410D01*
X105544410Y-67462087D01*
X105700006Y-67358121D01*
X105872895Y-67286508D01*
X106010548Y-67259127D01*
X106056432Y-67250000D01*
X106243568Y-67250000D01*
X106289452Y-67259127D01*
X106289452Y-67259127D01*
G37*
G36*
X43939451Y-60359127D02*
X44077105Y-60386508D01*
X44249994Y-60458121D01*
X44405590Y-60562087D01*
X44537913Y-60694410D01*
X44641879Y-60850006D01*
X44713492Y-61022895D01*
X44750000Y-61206433D01*
X44750000Y-61393567D01*
X44713492Y-61577105D01*
X44641879Y-61749994D01*
X44537913Y-61905590D01*
X44405590Y-62037913D01*
X44249994Y-62141879D01*
X44077105Y-62213492D01*
X43939452Y-62240873D01*
X43893568Y-62250000D01*
X43706432Y-62250000D01*
X43660548Y-62240873D01*
X43522895Y-62213492D01*
X43350006Y-62141879D01*
X43194410Y-62037913D01*
X43062087Y-61905590D01*
X42958121Y-61749994D01*
X42886508Y-61577105D01*
X42850000Y-61393567D01*
X42850000Y-61206433D01*
X42886508Y-61022895D01*
X42958121Y-60850006D01*
X43062087Y-60694410D01*
X43194410Y-60562087D01*
X43350006Y-60458121D01*
X43522895Y-60386508D01*
X43660549Y-60359127D01*
X43706432Y-60350000D01*
X43893568Y-60350000D01*
X43939451Y-60359127D01*
X43939451Y-60359127D01*
G37*
G36*
X62939451Y-60359127D02*
X63077105Y-60386508D01*
X63249994Y-60458121D01*
X63405590Y-60562087D01*
X63537913Y-60694410D01*
X63641879Y-60850006D01*
X63713492Y-61022895D01*
X63750000Y-61206433D01*
X63750000Y-61393567D01*
X63713492Y-61577105D01*
X63641879Y-61749994D01*
X63537913Y-61905590D01*
X63405590Y-62037913D01*
X63249994Y-62141879D01*
X63077105Y-62213492D01*
X62939452Y-62240873D01*
X62893568Y-62250000D01*
X62706432Y-62250000D01*
X62660548Y-62240873D01*
X62522895Y-62213492D01*
X62350006Y-62141879D01*
X62194410Y-62037913D01*
X62062087Y-61905590D01*
X61958121Y-61749994D01*
X61886508Y-61577105D01*
X61850000Y-61393567D01*
X61850000Y-61206433D01*
X61886508Y-61022895D01*
X61958121Y-60850006D01*
X62062087Y-60694410D01*
X62194410Y-60562087D01*
X62350006Y-60458121D01*
X62522895Y-60386508D01*
X62660549Y-60359127D01*
X62706432Y-60350000D01*
X62893568Y-60350000D01*
X62939451Y-60359127D01*
X62939451Y-60359127D01*
G37*
G36*
X139239451Y-60359127D02*
X139377105Y-60386508D01*
X139549994Y-60458121D01*
X139705590Y-60562087D01*
X139837913Y-60694410D01*
X139941879Y-60850006D01*
X140013492Y-61022895D01*
X140050000Y-61206433D01*
X140050000Y-61393567D01*
X140013492Y-61577105D01*
X139941879Y-61749994D01*
X139837913Y-61905590D01*
X139705590Y-62037913D01*
X139549994Y-62141879D01*
X139377105Y-62213492D01*
X139239452Y-62240873D01*
X139193568Y-62250000D01*
X139006432Y-62250000D01*
X138960548Y-62240873D01*
X138822895Y-62213492D01*
X138650006Y-62141879D01*
X138494410Y-62037913D01*
X138362087Y-61905590D01*
X138258121Y-61749994D01*
X138186508Y-61577105D01*
X138150000Y-61393567D01*
X138150000Y-61206433D01*
X138186508Y-61022895D01*
X138258121Y-60850006D01*
X138362087Y-60694410D01*
X138494410Y-60562087D01*
X138650006Y-60458121D01*
X138822895Y-60386508D01*
X138960549Y-60359127D01*
X139006432Y-60350000D01*
X139193568Y-60350000D01*
X139239451Y-60359127D01*
X139239451Y-60359127D01*
G37*
G36*
X144189451Y-58259127D02*
X144327105Y-58286508D01*
X144499994Y-58358121D01*
X144655590Y-58462087D01*
X144787913Y-58594410D01*
X144891879Y-58750006D01*
X144963492Y-58922895D01*
X145000000Y-59106433D01*
X145000000Y-59293567D01*
X144963492Y-59477105D01*
X144891879Y-59649994D01*
X144787913Y-59805590D01*
X144655590Y-59937913D01*
X144499994Y-60041879D01*
X144327105Y-60113492D01*
X144189451Y-60140873D01*
X144143568Y-60150000D01*
X143956432Y-60150000D01*
X143910549Y-60140873D01*
X143772895Y-60113492D01*
X143600006Y-60041879D01*
X143444410Y-59937913D01*
X143312087Y-59805590D01*
X143208121Y-59649994D01*
X143136508Y-59477105D01*
X143100000Y-59293567D01*
X143100000Y-59106433D01*
X143136508Y-58922895D01*
X143208121Y-58750006D01*
X143312087Y-58594410D01*
X143444410Y-58462087D01*
X143600006Y-58358121D01*
X143772895Y-58286508D01*
X143910549Y-58259127D01*
X143956432Y-58250000D01*
X144143568Y-58250000D01*
X144189451Y-58259127D01*
X144189451Y-58259127D01*
G37*
G36*
X67889451Y-58259127D02*
X68027105Y-58286508D01*
X68199994Y-58358121D01*
X68355590Y-58462087D01*
X68487913Y-58594410D01*
X68591879Y-58750006D01*
X68663492Y-58922895D01*
X68700000Y-59106433D01*
X68700000Y-59293567D01*
X68663492Y-59477105D01*
X68591879Y-59649994D01*
X68487913Y-59805590D01*
X68355590Y-59937913D01*
X68199994Y-60041879D01*
X68027105Y-60113492D01*
X67889451Y-60140873D01*
X67843568Y-60150000D01*
X67656432Y-60150000D01*
X67610549Y-60140873D01*
X67472895Y-60113492D01*
X67300006Y-60041879D01*
X67144410Y-59937913D01*
X67012087Y-59805590D01*
X66908121Y-59649994D01*
X66836508Y-59477105D01*
X66800000Y-59293567D01*
X66800000Y-59106433D01*
X66836508Y-58922895D01*
X66908121Y-58750006D01*
X67012087Y-58594410D01*
X67144410Y-58462087D01*
X67300006Y-58358121D01*
X67472895Y-58286508D01*
X67610549Y-58259127D01*
X67656432Y-58250000D01*
X67843568Y-58250000D01*
X67889451Y-58259127D01*
X67889451Y-58259127D01*
G37*
G36*
X48889451Y-58259127D02*
X49027105Y-58286508D01*
X49199994Y-58358121D01*
X49355590Y-58462087D01*
X49487913Y-58594410D01*
X49591879Y-58750006D01*
X49663492Y-58922895D01*
X49700000Y-59106433D01*
X49700000Y-59293567D01*
X49663492Y-59477105D01*
X49591879Y-59649994D01*
X49487913Y-59805590D01*
X49355590Y-59937913D01*
X49199994Y-60041879D01*
X49027105Y-60113492D01*
X48889451Y-60140873D01*
X48843568Y-60150000D01*
X48656432Y-60150000D01*
X48610549Y-60140873D01*
X48472895Y-60113492D01*
X48300006Y-60041879D01*
X48144410Y-59937913D01*
X48012087Y-59805590D01*
X47908121Y-59649994D01*
X47836508Y-59477105D01*
X47800000Y-59293567D01*
X47800000Y-59106433D01*
X47836508Y-58922895D01*
X47908121Y-58750006D01*
X48012087Y-58594410D01*
X48144410Y-58462087D01*
X48300006Y-58358121D01*
X48472895Y-58286508D01*
X48610549Y-58259127D01*
X48656432Y-58250000D01*
X48843568Y-58250000D01*
X48889451Y-58259127D01*
X48889451Y-58259127D01*
G37*
G36*
X120239452Y-55359127D02*
X120377105Y-55386508D01*
X120549994Y-55458121D01*
X120705590Y-55562087D01*
X120837913Y-55694410D01*
X120941879Y-55850006D01*
X121013492Y-56022895D01*
X121050000Y-56206433D01*
X121050000Y-56393567D01*
X121013492Y-56577105D01*
X120941879Y-56749994D01*
X120837913Y-56905590D01*
X120705590Y-57037913D01*
X120549994Y-57141879D01*
X120377105Y-57213492D01*
X120239452Y-57240873D01*
X120193568Y-57250000D01*
X120006432Y-57250000D01*
X119960548Y-57240873D01*
X119822895Y-57213492D01*
X119650006Y-57141879D01*
X119494410Y-57037913D01*
X119362087Y-56905590D01*
X119258121Y-56749994D01*
X119186508Y-56577105D01*
X119150000Y-56393567D01*
X119150000Y-56206433D01*
X119186508Y-56022895D01*
X119258121Y-55850006D01*
X119362087Y-55694410D01*
X119494410Y-55562087D01*
X119650006Y-55458121D01*
X119822895Y-55386508D01*
X119960548Y-55359127D01*
X120006432Y-55350000D01*
X120193568Y-55350000D01*
X120239452Y-55359127D01*
X120239452Y-55359127D01*
G37*
G36*
X82239452Y-55359127D02*
X82377105Y-55386508D01*
X82549994Y-55458121D01*
X82705590Y-55562087D01*
X82837913Y-55694410D01*
X82941879Y-55850006D01*
X83013492Y-56022895D01*
X83050000Y-56206433D01*
X83050000Y-56393567D01*
X83013492Y-56577105D01*
X82941879Y-56749994D01*
X82837913Y-56905590D01*
X82705590Y-57037913D01*
X82549994Y-57141879D01*
X82377105Y-57213492D01*
X82239452Y-57240873D01*
X82193568Y-57250000D01*
X82006432Y-57250000D01*
X81960548Y-57240873D01*
X81822895Y-57213492D01*
X81650006Y-57141879D01*
X81494410Y-57037913D01*
X81362087Y-56905590D01*
X81258121Y-56749994D01*
X81186508Y-56577105D01*
X81150000Y-56393567D01*
X81150000Y-56206433D01*
X81186508Y-56022895D01*
X81258121Y-55850006D01*
X81362087Y-55694410D01*
X81494410Y-55562087D01*
X81650006Y-55458121D01*
X81822895Y-55386508D01*
X81960548Y-55359127D01*
X82006432Y-55350000D01*
X82193568Y-55350000D01*
X82239452Y-55359127D01*
X82239452Y-55359127D01*
G37*
G36*
X152550000Y-55850000D02*
X150450000Y-55850000D01*
X150450000Y-53750000D01*
X152550000Y-53750000D01*
X152550000Y-55850000D01*
X152550000Y-55850000D01*
G37*
G36*
X87189451Y-53259127D02*
X87327105Y-53286508D01*
X87499994Y-53358121D01*
X87655590Y-53462087D01*
X87787913Y-53594410D01*
X87891879Y-53750006D01*
X87963492Y-53922895D01*
X88000000Y-54106433D01*
X88000000Y-54293567D01*
X87963492Y-54477105D01*
X87891879Y-54649994D01*
X87787913Y-54805590D01*
X87655590Y-54937913D01*
X87499994Y-55041879D01*
X87327105Y-55113492D01*
X87189451Y-55140873D01*
X87143568Y-55150000D01*
X86956432Y-55150000D01*
X86910549Y-55140873D01*
X86772895Y-55113492D01*
X86600006Y-55041879D01*
X86444410Y-54937913D01*
X86312087Y-54805590D01*
X86208121Y-54649994D01*
X86136508Y-54477105D01*
X86100000Y-54293567D01*
X86100000Y-54106433D01*
X86136508Y-53922895D01*
X86208121Y-53750006D01*
X86312087Y-53594410D01*
X86444410Y-53462087D01*
X86600006Y-53358121D01*
X86772895Y-53286508D01*
X86910549Y-53259127D01*
X86956432Y-53250000D01*
X87143568Y-53250000D01*
X87189451Y-53259127D01*
X87189451Y-53259127D01*
G37*
G36*
X125189451Y-53259127D02*
X125327105Y-53286508D01*
X125499994Y-53358121D01*
X125655590Y-53462087D01*
X125787913Y-53594410D01*
X125891879Y-53750006D01*
X125963492Y-53922895D01*
X126000000Y-54106433D01*
X126000000Y-54293567D01*
X125963492Y-54477105D01*
X125891879Y-54649994D01*
X125787913Y-54805590D01*
X125655590Y-54937913D01*
X125499994Y-55041879D01*
X125327105Y-55113492D01*
X125189451Y-55140873D01*
X125143568Y-55150000D01*
X124956432Y-55150000D01*
X124910549Y-55140873D01*
X124772895Y-55113492D01*
X124600006Y-55041879D01*
X124444410Y-54937913D01*
X124312087Y-54805590D01*
X124208121Y-54649994D01*
X124136508Y-54477105D01*
X124100000Y-54293567D01*
X124100000Y-54106433D01*
X124136508Y-53922895D01*
X124208121Y-53750006D01*
X124312087Y-53594410D01*
X124444410Y-53462087D01*
X124600006Y-53358121D01*
X124772895Y-53286508D01*
X124910549Y-53259127D01*
X124956432Y-53250000D01*
X125143568Y-53250000D01*
X125189451Y-53259127D01*
X125189451Y-53259127D01*
G37*
G36*
X151628707Y-51217596D02*
X151705836Y-51225193D01*
X151837787Y-51265220D01*
X151903763Y-51285233D01*
X152086172Y-51382733D01*
X152246054Y-51513946D01*
X152377267Y-51673828D01*
X152474767Y-51856237D01*
X152474767Y-51856238D01*
X152534807Y-52054164D01*
X152555080Y-52260000D01*
X152534807Y-52465836D01*
X152494780Y-52597787D01*
X152474767Y-52663763D01*
X152377267Y-52846172D01*
X152246054Y-53006054D01*
X152086172Y-53137267D01*
X151903763Y-53234767D01*
X151837787Y-53254780D01*
X151705836Y-53294807D01*
X151628707Y-53302403D01*
X151551580Y-53310000D01*
X151448420Y-53310000D01*
X151371293Y-53302403D01*
X151294164Y-53294807D01*
X151162213Y-53254780D01*
X151096237Y-53234767D01*
X150913828Y-53137267D01*
X150753946Y-53006054D01*
X150622733Y-52846172D01*
X150525233Y-52663763D01*
X150505220Y-52597787D01*
X150465193Y-52465836D01*
X150444920Y-52260000D01*
X150465193Y-52054164D01*
X150525233Y-51856238D01*
X150525233Y-51856237D01*
X150622733Y-51673828D01*
X150753946Y-51513946D01*
X150913828Y-51382733D01*
X151096237Y-51285233D01*
X151162213Y-51265220D01*
X151294164Y-51225193D01*
X151371293Y-51217596D01*
X151448420Y-51210000D01*
X151551580Y-51210000D01*
X151628707Y-51217596D01*
X151628707Y-51217596D01*
G37*
G36*
X101239451Y-50359127D02*
X101377105Y-50386508D01*
X101549994Y-50458121D01*
X101705590Y-50562087D01*
X101837913Y-50694410D01*
X101941879Y-50850006D01*
X102013492Y-51022895D01*
X102050000Y-51206433D01*
X102050000Y-51393567D01*
X102013492Y-51577105D01*
X101941879Y-51749994D01*
X101837913Y-51905590D01*
X101705590Y-52037913D01*
X101549994Y-52141879D01*
X101377105Y-52213492D01*
X101239452Y-52240873D01*
X101193568Y-52250000D01*
X101006432Y-52250000D01*
X100960549Y-52240873D01*
X100822895Y-52213492D01*
X100650006Y-52141879D01*
X100494410Y-52037913D01*
X100362087Y-51905590D01*
X100258121Y-51749994D01*
X100186508Y-51577105D01*
X100150000Y-51393567D01*
X100150000Y-51206433D01*
X100186508Y-51022895D01*
X100258121Y-50850006D01*
X100362087Y-50694410D01*
X100494410Y-50562087D01*
X100650006Y-50458121D01*
X100822895Y-50386508D01*
X100960549Y-50359127D01*
X101006432Y-50350000D01*
X101193568Y-50350000D01*
X101239451Y-50359127D01*
X101239451Y-50359127D01*
G37*
G36*
X144182323Y-50284767D02*
X144309561Y-50323364D01*
X144426824Y-50386042D01*
X144529606Y-50470394D01*
X144613958Y-50573176D01*
X144676636Y-50690439D01*
X144715233Y-50817677D01*
X144728266Y-50950000D01*
X144715233Y-51082323D01*
X144676636Y-51209561D01*
X144613958Y-51326824D01*
X144529606Y-51429606D01*
X144426824Y-51513958D01*
X144309561Y-51576636D01*
X144182323Y-51615233D01*
X144083159Y-51625000D01*
X143716841Y-51625000D01*
X143617677Y-51615233D01*
X143490439Y-51576636D01*
X143373176Y-51513958D01*
X143270394Y-51429606D01*
X143186042Y-51326824D01*
X143123364Y-51209561D01*
X143084767Y-51082323D01*
X143071734Y-50950000D01*
X143084767Y-50817677D01*
X143123364Y-50690439D01*
X143186042Y-50573176D01*
X143270394Y-50470394D01*
X143373176Y-50386042D01*
X143490439Y-50323364D01*
X143617677Y-50284767D01*
X143716841Y-50275000D01*
X144083159Y-50275000D01*
X144182323Y-50284767D01*
X144182323Y-50284767D01*
G37*
G36*
X139182323Y-50284767D02*
X139309561Y-50323364D01*
X139426824Y-50386042D01*
X139529606Y-50470394D01*
X139613958Y-50573176D01*
X139676636Y-50690439D01*
X139715233Y-50817677D01*
X139728266Y-50950000D01*
X139715233Y-51082323D01*
X139676636Y-51209561D01*
X139613958Y-51326824D01*
X139529606Y-51429606D01*
X139426824Y-51513958D01*
X139309561Y-51576636D01*
X139182323Y-51615233D01*
X139083159Y-51625000D01*
X138716841Y-51625000D01*
X138617677Y-51615233D01*
X138490439Y-51576636D01*
X138373176Y-51513958D01*
X138270394Y-51429606D01*
X138186042Y-51326824D01*
X138123364Y-51209561D01*
X138084767Y-51082323D01*
X138071734Y-50950000D01*
X138084767Y-50817677D01*
X138123364Y-50690439D01*
X138186042Y-50573176D01*
X138270394Y-50470394D01*
X138373176Y-50386042D01*
X138490439Y-50323364D01*
X138617677Y-50284767D01*
X138716841Y-50275000D01*
X139083159Y-50275000D01*
X139182323Y-50284767D01*
X139182323Y-50284767D01*
G37*
G36*
X151628707Y-48677596D02*
X151705836Y-48685193D01*
X151837787Y-48725220D01*
X151903763Y-48745233D01*
X152086172Y-48842733D01*
X152246054Y-48973946D01*
X152377267Y-49133828D01*
X152474767Y-49316237D01*
X152474767Y-49316238D01*
X152534807Y-49514164D01*
X152555080Y-49720000D01*
X152534807Y-49925836D01*
X152531144Y-49937911D01*
X152474767Y-50123763D01*
X152377267Y-50306172D01*
X152246054Y-50466054D01*
X152086172Y-50597267D01*
X151903763Y-50694767D01*
X151837787Y-50714780D01*
X151705836Y-50754807D01*
X151628707Y-50762403D01*
X151551580Y-50770000D01*
X151448420Y-50770000D01*
X151371293Y-50762403D01*
X151294164Y-50754807D01*
X151162213Y-50714780D01*
X151096237Y-50694767D01*
X150913828Y-50597267D01*
X150753946Y-50466054D01*
X150622733Y-50306172D01*
X150525233Y-50123763D01*
X150468856Y-49937911D01*
X150465193Y-49925836D01*
X150444920Y-49720000D01*
X150465193Y-49514164D01*
X150525233Y-49316238D01*
X150525233Y-49316237D01*
X150622733Y-49133828D01*
X150753946Y-48973946D01*
X150913828Y-48842733D01*
X151096237Y-48745233D01*
X151162213Y-48725220D01*
X151294164Y-48685193D01*
X151371293Y-48677596D01*
X151448420Y-48670000D01*
X151551580Y-48670000D01*
X151628707Y-48677596D01*
X151628707Y-48677596D01*
G37*
G36*
X106189451Y-48259127D02*
X106327105Y-48286508D01*
X106499994Y-48358121D01*
X106655590Y-48462087D01*
X106787913Y-48594410D01*
X106891879Y-48750006D01*
X106963492Y-48922895D01*
X106983279Y-49022370D01*
X107000000Y-49106432D01*
X107000000Y-49293568D01*
X106990873Y-49339452D01*
X106963492Y-49477105D01*
X106891879Y-49649994D01*
X106787913Y-49805590D01*
X106655590Y-49937913D01*
X106499994Y-50041879D01*
X106327105Y-50113492D01*
X106189451Y-50140873D01*
X106143568Y-50150000D01*
X105956432Y-50150000D01*
X105910549Y-50140873D01*
X105772895Y-50113492D01*
X105600006Y-50041879D01*
X105444410Y-49937913D01*
X105312087Y-49805590D01*
X105208121Y-49649994D01*
X105136508Y-49477105D01*
X105109127Y-49339452D01*
X105100000Y-49293568D01*
X105100000Y-49106432D01*
X105116721Y-49022370D01*
X105136508Y-48922895D01*
X105208121Y-48750006D01*
X105312087Y-48594410D01*
X105444410Y-48462087D01*
X105600006Y-48358121D01*
X105772895Y-48286508D01*
X105910549Y-48259127D01*
X105956432Y-48250000D01*
X106143568Y-48250000D01*
X106189451Y-48259127D01*
X106189451Y-48259127D01*
G37*
G36*
X145037224Y-47285128D02*
X145169175Y-47325155D01*
X145290781Y-47390155D01*
X145397370Y-47477630D01*
X145484845Y-47584219D01*
X145549845Y-47705825D01*
X145589872Y-47837776D01*
X145600000Y-47940610D01*
X145600000Y-48559390D01*
X145589872Y-48662224D01*
X145549845Y-48794175D01*
X145484845Y-48915781D01*
X145397369Y-49022370D01*
X145290780Y-49109845D01*
X145169174Y-49174845D01*
X145037223Y-49214872D01*
X144900000Y-49228387D01*
X144762776Y-49214872D01*
X144630825Y-49174845D01*
X144509219Y-49109845D01*
X144402630Y-49022369D01*
X144315155Y-48915780D01*
X144250155Y-48794174D01*
X144210128Y-48662223D01*
X144200000Y-48559389D01*
X144200000Y-47940610D01*
X144210128Y-47837776D01*
X144250155Y-47705825D01*
X144315155Y-47584219D01*
X144402631Y-47477630D01*
X144509220Y-47390155D01*
X144630826Y-47325155D01*
X144762777Y-47285128D01*
X144900000Y-47271613D01*
X145037224Y-47285128D01*
X145037224Y-47285128D01*
G37*
G36*
X138037224Y-47285128D02*
X138169175Y-47325155D01*
X138290781Y-47390155D01*
X138397370Y-47477630D01*
X138484845Y-47584219D01*
X138549845Y-47705825D01*
X138589872Y-47837776D01*
X138600000Y-47940610D01*
X138600000Y-48559390D01*
X138589872Y-48662224D01*
X138549845Y-48794175D01*
X138484845Y-48915781D01*
X138397369Y-49022370D01*
X138290780Y-49109845D01*
X138169174Y-49174845D01*
X138037223Y-49214872D01*
X137900000Y-49228387D01*
X137762776Y-49214872D01*
X137630825Y-49174845D01*
X137509219Y-49109845D01*
X137402630Y-49022369D01*
X137315155Y-48915780D01*
X137250155Y-48794174D01*
X137210128Y-48662223D01*
X137200000Y-48559389D01*
X137200000Y-47940610D01*
X137210128Y-47837776D01*
X137250155Y-47705825D01*
X137315155Y-47584219D01*
X137402631Y-47477630D01*
X137509220Y-47390155D01*
X137630826Y-47325155D01*
X137762777Y-47285128D01*
X137900000Y-47271613D01*
X138037224Y-47285128D01*
X138037224Y-47285128D01*
G37*
G36*
X151628707Y-46137596D02*
X151705836Y-46145193D01*
X151837787Y-46185220D01*
X151903763Y-46205233D01*
X152086172Y-46302733D01*
X152246054Y-46433946D01*
X152377267Y-46593828D01*
X152474767Y-46776237D01*
X152474767Y-46776238D01*
X152534807Y-46974164D01*
X152555080Y-47180000D01*
X152534807Y-47385836D01*
X152506962Y-47477630D01*
X152474767Y-47583763D01*
X152377267Y-47766172D01*
X152246054Y-47926054D01*
X152086172Y-48057267D01*
X151903763Y-48154767D01*
X151837787Y-48174780D01*
X151705836Y-48214807D01*
X151628707Y-48222403D01*
X151551580Y-48230000D01*
X151448420Y-48230000D01*
X151371293Y-48222403D01*
X151294164Y-48214807D01*
X151162213Y-48174780D01*
X151096237Y-48154767D01*
X150913828Y-48057267D01*
X150753946Y-47926054D01*
X150622733Y-47766172D01*
X150525233Y-47583763D01*
X150493038Y-47477630D01*
X150465193Y-47385836D01*
X150444920Y-47180000D01*
X150465193Y-46974164D01*
X150525233Y-46776238D01*
X150525233Y-46776237D01*
X150622733Y-46593828D01*
X150753946Y-46433946D01*
X150913828Y-46302733D01*
X151096237Y-46205233D01*
X151162213Y-46185220D01*
X151294164Y-46145193D01*
X151371293Y-46137597D01*
X151448420Y-46130000D01*
X151551580Y-46130000D01*
X151628707Y-46137596D01*
X151628707Y-46137596D01*
G37*
M02*
