M48
;DRILL file {KiCad 4.0.7} date Wednesday, February 06, 2019 'PMt' 10:43:10 PM
;FORMAT={-:-/ absolute / metric / decimal}
FMAT,2
METRIC,TZ
T1C0.400
T2C0.500
T3C0.550
T4C0.762
T5C1.000
%
G90
G05
M71
T1
X57.65Y-63.9
X72.7Y-67.45
X102.65Y-68.55
X120.65Y-70.7
X131.15Y-72.4
X148.3Y-74.7
X150.65Y-67.7
X150.728Y-66.578
X156.575Y-69.2
X156.679Y-70.946
X157.304Y-71.571
X160.5Y-73.7
X160.5Y-76.4
X161.Y-75.575
X161.725Y-78.221
X163.1Y-79.85
X164.15Y-80.4
X164.2Y-81.35
X164.25Y-82.55
X164.25Y-83.75
X165.925Y-70.678
X167.15Y-68.7
X170.2Y-79.8
T4
X43.8Y-61.3
X43.8Y-80.3
X43.8Y-99.3
X43.8Y-118.3
X43.8Y-137.3
X48.75Y-59.2
X48.75Y-78.2
X48.75Y-97.2
X48.75Y-116.2
X48.75Y-135.2
X62.8Y-61.3
X62.8Y-80.3
X62.8Y-99.3
X62.8Y-118.3
X62.8Y-137.3
X67.75Y-59.2
X67.75Y-78.2
X67.75Y-97.2
X67.75Y-116.2
X67.75Y-135.2
X82.1Y-56.3
X82.1Y-75.3
X82.1Y-94.3
X82.1Y-113.3
X82.1Y-132.3
X87.05Y-54.2
X87.05Y-73.2
X87.05Y-92.2
X87.05Y-111.2
X87.05Y-130.2
X101.1Y-51.3
X101.1Y-89.3
X101.1Y-108.3
X101.1Y-127.3
X101.2Y-70.3
X106.05Y-49.2
X106.05Y-87.2
X106.05Y-106.2
X106.05Y-125.2
X106.15Y-68.2
X120.1Y-56.3
X120.1Y-75.3
X120.1Y-94.3
X120.1Y-113.3
X120.1Y-132.3
X125.05Y-54.2
X125.05Y-73.2
X125.05Y-92.2
X125.05Y-111.2
X125.05Y-130.2
X139.1Y-61.3
X139.1Y-80.3
X139.1Y-99.3
X139.1Y-118.3
X139.1Y-137.3
X144.05Y-59.2
X144.05Y-78.2
X144.05Y-97.2
X144.05Y-116.2
X144.05Y-135.2
X158.1Y-126.3
X158.1Y-145.3
X163.05Y-124.2
X163.05Y-143.2
T5
X170.Y-90.41
X170.Y-92.95
X170.Y-95.49
X170.Y-98.03
T2
X159.656Y-55.03G85X159.544Y-55.67
G05
X166.55Y-56.245G85X166.437Y-56.886
G05
T3
X160.264Y-58.209G85X159.968Y-58.157
G05
X165.188Y-59.077G85X164.892Y-59.025
G05
T0
M30
