G04 #@! TF.FileFunction,Copper,L1,Top,Signal*
%FSLAX46Y46*%
G04 Gerber Fmt 4.6, Leading zero omitted, Abs format (unit mm)*
G04 Created by KiCad (PCBNEW 4.0.7) date Wednesday, February 06, 2019 'PMt' 10:52:11 PM*
%MOMM*%
%LPD*%
G01*
G04 APERTURE LIST*
%ADD10C,0.100000*%
%ADD11R,1.250000X1.000000*%
%ADD12R,0.900000X1.200000*%
%ADD13C,0.950000*%
%ADD14C,1.000000*%
%ADD15R,1.700000X1.700000*%
%ADD16O,1.700000X1.700000*%
%ADD17C,3.400000*%
%ADD18C,1.900000*%
%ADD19C,1.500000*%
%ADD20O,0.300000X1.000000*%
%ADD21O,1.000000X0.300000*%
%ADD22R,2.100000X5.600000*%
%ADD23C,0.600000*%
%ADD24C,0.250000*%
%ADD25C,0.254000*%
G04 APERTURE END LIST*
D10*
D11*
X153650000Y-76900000D03*
X153650000Y-74900000D03*
X153750000Y-70900000D03*
X153750000Y-72900000D03*
X166900000Y-66850000D03*
X166900000Y-64850000D03*
X155050000Y-63350000D03*
X155050000Y-61350000D03*
D12*
X51450000Y-55900000D03*
X48150000Y-55900000D03*
X51250000Y-74900000D03*
X47950000Y-74900000D03*
X51100000Y-93750000D03*
X47800000Y-93750000D03*
X51100000Y-112450000D03*
X47800000Y-112450000D03*
X51250000Y-131450000D03*
X47950000Y-131450000D03*
X70000000Y-55550000D03*
X66700000Y-55550000D03*
X69800000Y-74750000D03*
X66500000Y-74750000D03*
X70050000Y-93850000D03*
X66750000Y-93850000D03*
X70100000Y-112950000D03*
X66800000Y-112950000D03*
X69400000Y-131650000D03*
X66100000Y-131650000D03*
X88850000Y-50750000D03*
X85550000Y-50750000D03*
X88650000Y-69900000D03*
X85350000Y-69900000D03*
X88800000Y-88650000D03*
X85500000Y-88650000D03*
X88650000Y-107550000D03*
X85350000Y-107550000D03*
X88950000Y-126800000D03*
X85650000Y-126800000D03*
X107650000Y-45700000D03*
X104350000Y-45700000D03*
X107950000Y-64700000D03*
X104650000Y-64700000D03*
X108600000Y-83750000D03*
X105300000Y-83750000D03*
X108300000Y-102650000D03*
X105000000Y-102650000D03*
X107950000Y-121500000D03*
X104650000Y-121500000D03*
X127150000Y-50900000D03*
X123850000Y-50900000D03*
X126800000Y-69750000D03*
X123500000Y-69750000D03*
X127150000Y-88750000D03*
X123850000Y-88750000D03*
X126650000Y-107750000D03*
X123350000Y-107750000D03*
X126850000Y-126750000D03*
X123550000Y-126750000D03*
X145750000Y-55700000D03*
X142450000Y-55700000D03*
X146000000Y-74700000D03*
X142700000Y-74700000D03*
X145750000Y-93850000D03*
X142450000Y-93850000D03*
X146100000Y-113000000D03*
X142800000Y-113000000D03*
X145300000Y-131600000D03*
X142000000Y-131600000D03*
X165150000Y-139650000D03*
X161850000Y-139650000D03*
D10*
G36*
X163778478Y-58143017D02*
X164172401Y-58212476D01*
X163937976Y-59541967D01*
X163544053Y-59472508D01*
X163778478Y-58143017D01*
X163778478Y-58143017D01*
G37*
G36*
X163138353Y-58030146D02*
X163532276Y-58099605D01*
X163297851Y-59429096D01*
X162903928Y-59359637D01*
X163138353Y-58030146D01*
X163138353Y-58030146D01*
G37*
G36*
X162498228Y-57917274D02*
X162892151Y-57986733D01*
X162657726Y-59316224D01*
X162263803Y-59246765D01*
X162498228Y-57917274D01*
X162498228Y-57917274D01*
G37*
G36*
X161858103Y-57804403D02*
X162252026Y-57873862D01*
X162017601Y-59203353D01*
X161623678Y-59133894D01*
X161858103Y-57804403D01*
X161858103Y-57804403D01*
G37*
G36*
X161217978Y-57691532D02*
X161611901Y-57760991D01*
X161377476Y-59090482D01*
X160983553Y-59021023D01*
X161217978Y-57691532D01*
X161217978Y-57691532D01*
G37*
D13*
X165187717Y-59076917D02*
X164892275Y-59024823D01*
X160263679Y-58208676D02*
X159968237Y-58156582D01*
D14*
X166541407Y-56294715D02*
X166445901Y-56836359D01*
X159647753Y-55079178D02*
X159552247Y-55620822D01*
D15*
X170000000Y-98030000D03*
D16*
X170000000Y-95490000D03*
X170000000Y-92950000D03*
X170000000Y-90410000D03*
D12*
X160600000Y-65300000D03*
X160600000Y-63100000D03*
X162850000Y-65300000D03*
X162850000Y-63100000D03*
X153800000Y-66550000D03*
X153800000Y-68750000D03*
D17*
X48750000Y-65100000D03*
D18*
X54250000Y-65100000D03*
X43250000Y-65100000D03*
D19*
X48750000Y-59200000D03*
X43800000Y-61300000D03*
D17*
X48750000Y-84100000D03*
D18*
X54250000Y-84100000D03*
X43250000Y-84100000D03*
D19*
X48750000Y-78200000D03*
X43800000Y-80300000D03*
D17*
X48750000Y-103100000D03*
D18*
X54250000Y-103100000D03*
X43250000Y-103100000D03*
D19*
X48750000Y-97200000D03*
X43800000Y-99300000D03*
D17*
X48750000Y-122100000D03*
D18*
X54250000Y-122100000D03*
X43250000Y-122100000D03*
D19*
X48750000Y-116200000D03*
X43800000Y-118300000D03*
D17*
X48750000Y-141100000D03*
D18*
X54250000Y-141100000D03*
X43250000Y-141100000D03*
D19*
X48750000Y-135200000D03*
X43800000Y-137300000D03*
D17*
X67750000Y-65100000D03*
D18*
X73250000Y-65100000D03*
X62250000Y-65100000D03*
D19*
X67750000Y-59200000D03*
X62800000Y-61300000D03*
D17*
X67750000Y-84100000D03*
D18*
X73250000Y-84100000D03*
X62250000Y-84100000D03*
D19*
X67750000Y-78200000D03*
X62800000Y-80300000D03*
D17*
X67750000Y-103100000D03*
D18*
X73250000Y-103100000D03*
X62250000Y-103100000D03*
D19*
X67750000Y-97200000D03*
X62800000Y-99300000D03*
D17*
X67750000Y-122100000D03*
D18*
X73250000Y-122100000D03*
X62250000Y-122100000D03*
D19*
X67750000Y-116200000D03*
X62800000Y-118300000D03*
D17*
X67750000Y-141100000D03*
D18*
X73250000Y-141100000D03*
X62250000Y-141100000D03*
D19*
X67750000Y-135200000D03*
X62800000Y-137300000D03*
D17*
X87050000Y-60100000D03*
D18*
X92550000Y-60100000D03*
X81550000Y-60100000D03*
D19*
X87050000Y-54200000D03*
X82100000Y-56300000D03*
D17*
X87050000Y-79100000D03*
D18*
X92550000Y-79100000D03*
X81550000Y-79100000D03*
D19*
X87050000Y-73200000D03*
X82100000Y-75300000D03*
D17*
X87050000Y-98100000D03*
D18*
X92550000Y-98100000D03*
X81550000Y-98100000D03*
D19*
X87050000Y-92200000D03*
X82100000Y-94300000D03*
D17*
X87050000Y-117100000D03*
D18*
X92550000Y-117100000D03*
X81550000Y-117100000D03*
D19*
X87050000Y-111200000D03*
X82100000Y-113300000D03*
D17*
X87050000Y-136100000D03*
D18*
X92550000Y-136100000D03*
X81550000Y-136100000D03*
D19*
X87050000Y-130200000D03*
X82100000Y-132300000D03*
D17*
X106050000Y-55100000D03*
D18*
X111550000Y-55100000D03*
X100550000Y-55100000D03*
D19*
X106050000Y-49200000D03*
X101100000Y-51300000D03*
D17*
X106150000Y-74100000D03*
D18*
X111650000Y-74100000D03*
X100650000Y-74100000D03*
D19*
X106150000Y-68200000D03*
X101200000Y-70300000D03*
D17*
X106050000Y-93100000D03*
D18*
X111550000Y-93100000D03*
X100550000Y-93100000D03*
D19*
X106050000Y-87200000D03*
X101100000Y-89300000D03*
D17*
X106050000Y-112100000D03*
D18*
X111550000Y-112100000D03*
X100550000Y-112100000D03*
D19*
X106050000Y-106200000D03*
X101100000Y-108300000D03*
D17*
X106050000Y-131100000D03*
D18*
X111550000Y-131100000D03*
X100550000Y-131100000D03*
D19*
X106050000Y-125200000D03*
X101100000Y-127300000D03*
D17*
X125050000Y-60100000D03*
D18*
X130550000Y-60100000D03*
X119550000Y-60100000D03*
D19*
X125050000Y-54200000D03*
X120100000Y-56300000D03*
D17*
X125050000Y-79100000D03*
D18*
X130550000Y-79100000D03*
X119550000Y-79100000D03*
D19*
X125050000Y-73200000D03*
X120100000Y-75300000D03*
D17*
X125050000Y-98100000D03*
D18*
X130550000Y-98100000D03*
X119550000Y-98100000D03*
D19*
X125050000Y-92200000D03*
X120100000Y-94300000D03*
D17*
X125050000Y-117100000D03*
D18*
X130550000Y-117100000D03*
X119550000Y-117100000D03*
D19*
X125050000Y-111200000D03*
X120100000Y-113300000D03*
D17*
X125050000Y-136100000D03*
D18*
X130550000Y-136100000D03*
X119550000Y-136100000D03*
D19*
X125050000Y-130200000D03*
X120100000Y-132300000D03*
D17*
X144050000Y-65100000D03*
D18*
X149550000Y-65100000D03*
X138550000Y-65100000D03*
D19*
X144050000Y-59200000D03*
X139100000Y-61300000D03*
D17*
X144050000Y-84100000D03*
D18*
X149550000Y-84100000D03*
X138550000Y-84100000D03*
D19*
X144050000Y-78200000D03*
X139100000Y-80300000D03*
D17*
X144050000Y-103100000D03*
D18*
X149550000Y-103100000D03*
X138550000Y-103100000D03*
D19*
X144050000Y-97200000D03*
X139100000Y-99300000D03*
D17*
X144050000Y-122100000D03*
D18*
X149550000Y-122100000D03*
X138550000Y-122100000D03*
D19*
X144050000Y-116200000D03*
X139100000Y-118300000D03*
D17*
X144050000Y-141100000D03*
D18*
X149550000Y-141100000D03*
X138550000Y-141100000D03*
D19*
X144050000Y-135200000D03*
X139100000Y-137300000D03*
D17*
X163050000Y-149100000D03*
D18*
X168550000Y-149100000D03*
X157550000Y-149100000D03*
D19*
X163050000Y-143200000D03*
X158100000Y-145300000D03*
D20*
X168900000Y-71700000D03*
X168400000Y-71700000D03*
X167900000Y-71700000D03*
X167400000Y-71700000D03*
X166900000Y-71700000D03*
X166400000Y-71700000D03*
X165900000Y-71700000D03*
X165400000Y-71700000D03*
X164900000Y-71700000D03*
X164400000Y-71700000D03*
X163900000Y-71700000D03*
D21*
X162900000Y-72700000D03*
X162900000Y-73200000D03*
X162900000Y-73700000D03*
X162900000Y-74200000D03*
X162900000Y-74700000D03*
X162900000Y-75200000D03*
X162900000Y-75700000D03*
X162900000Y-76200000D03*
X162900000Y-76700000D03*
X162900000Y-77200000D03*
X162900000Y-77700000D03*
D20*
X163900000Y-78700000D03*
X164400000Y-78700000D03*
X164900000Y-78700000D03*
X165400000Y-78700000D03*
X165900000Y-78700000D03*
X166400000Y-78700000D03*
X166900000Y-78700000D03*
X167400000Y-78700000D03*
X167900000Y-78700000D03*
X168400000Y-78700000D03*
X168900000Y-78700000D03*
D21*
X169900000Y-77700000D03*
X169900000Y-77200000D03*
X169900000Y-76700000D03*
X169900000Y-76200000D03*
X169900000Y-75700000D03*
X169900000Y-75200000D03*
X169900000Y-74700000D03*
X169900000Y-74200000D03*
X169900000Y-73700000D03*
X169900000Y-73200000D03*
X169900000Y-72700000D03*
D22*
X155850000Y-90600000D03*
X155850000Y-82100000D03*
D12*
X164750000Y-120650000D03*
X161450000Y-120650000D03*
X172000000Y-73550000D03*
X172000000Y-75750000D03*
D17*
X163050000Y-130100000D03*
D18*
X168550000Y-130100000D03*
X157550000Y-130100000D03*
D19*
X163050000Y-124200000D03*
X158100000Y-126300000D03*
D23*
X150727566Y-66577566D03*
X57650000Y-63900000D03*
X72700000Y-67450000D03*
X150650000Y-67700000D03*
X156575010Y-69200000D03*
X102650000Y-68550000D03*
X156679454Y-70945556D03*
X120650000Y-70700000D03*
X157304454Y-71570556D03*
X131150000Y-72400000D03*
X148300000Y-74700000D03*
X161000000Y-75574990D03*
X160500000Y-76400000D03*
X160500000Y-73700000D03*
X167150000Y-68700000D03*
X170200000Y-79800000D03*
X163100000Y-79850000D03*
X165925021Y-70678206D03*
X161725033Y-78221460D03*
X164150000Y-80400000D03*
X164200000Y-81350000D03*
X164250000Y-82550000D03*
X164250000Y-83750000D03*
D24*
X159449991Y-85250009D02*
X159449991Y-76199997D01*
X161300001Y-74949989D02*
X161550012Y-75200000D01*
X155850000Y-90600000D02*
X155850000Y-88850000D01*
X161550012Y-75200000D02*
X162900000Y-75200000D01*
X155850000Y-88850000D02*
X159449991Y-85250009D01*
X160699999Y-74949989D02*
X161300001Y-74949989D01*
X159449991Y-76199997D02*
X160699999Y-74949989D01*
X153650000Y-76900000D02*
X153650000Y-89700000D01*
X153650000Y-89700000D02*
X154550000Y-90600000D01*
X154550000Y-90600000D02*
X155850000Y-90600000D01*
X151600000Y-64877802D02*
X151600000Y-64675000D01*
X151600000Y-64675000D02*
X154925000Y-61350000D01*
X154925000Y-61350000D02*
X155050000Y-61350000D01*
X149800000Y-66677802D02*
X151600000Y-64877802D01*
X151950000Y-70300000D02*
X149800000Y-68150000D01*
X149800000Y-68150000D02*
X149800000Y-66677802D01*
X152275000Y-70300000D02*
X151950000Y-70300000D01*
X152875000Y-70900000D02*
X152275000Y-70300000D01*
X153750000Y-70900000D02*
X153625000Y-70900000D01*
X153625000Y-70900000D02*
X152775000Y-71750000D01*
X152775000Y-71750000D02*
X152775000Y-74150000D01*
X153525000Y-74900000D02*
X153650000Y-74900000D01*
X152775000Y-74150000D02*
X153525000Y-74900000D01*
X152875000Y-70900000D02*
X153750000Y-70900000D01*
X171175001Y-91700000D02*
X171175001Y-97954999D01*
X168800000Y-87670998D02*
X168800000Y-90949002D01*
X168800000Y-90949002D02*
X169550998Y-91700000D01*
X169550998Y-91700000D02*
X171175001Y-91700000D01*
X171175001Y-97954999D02*
X171100000Y-98030000D01*
X171100000Y-98030000D02*
X170000000Y-98030000D01*
X165039996Y-59050870D02*
X165039996Y-63114996D01*
X166775000Y-64850000D02*
X166900000Y-64850000D01*
X165039996Y-63114996D02*
X166775000Y-64850000D01*
X160115958Y-58182629D02*
X161089349Y-58182629D01*
X161089349Y-58182629D02*
X161297727Y-58391007D01*
X161297727Y-58391007D02*
X158338734Y-61350000D01*
X158338734Y-61350000D02*
X155050000Y-61350000D01*
X166493654Y-56565537D02*
X160815537Y-56565537D01*
X160815537Y-56565537D02*
X159600000Y-55350000D01*
X165039996Y-59050870D02*
X165039996Y-58019195D01*
X165039996Y-58019195D02*
X166493654Y-56565537D01*
X159600000Y-55350000D02*
X159600000Y-57666671D01*
X159600000Y-57666671D02*
X160115958Y-58182629D01*
X166900000Y-72450000D02*
X166900000Y-71700000D01*
X164900000Y-74450000D02*
X166900000Y-72450000D01*
X167650000Y-73200000D02*
X169900000Y-73200000D01*
X166900000Y-72450000D02*
X167650000Y-73200000D01*
X168900000Y-74450000D02*
X167650000Y-73200000D01*
X168900000Y-87570998D02*
X168800000Y-87670998D01*
X168900000Y-77450000D02*
X168900000Y-78700000D01*
X169900000Y-77200000D02*
X169150000Y-77200000D01*
X169150000Y-77200000D02*
X168900000Y-77450000D01*
X163900000Y-74450000D02*
X164900000Y-74450000D01*
X163650000Y-74200000D02*
X163900000Y-74450000D01*
X163900000Y-74450000D02*
X163900000Y-78700000D01*
X168900000Y-77450000D02*
X168900000Y-74450000D01*
X162900000Y-74200000D02*
X163650000Y-74200000D01*
X155675000Y-74700000D02*
X155675000Y-76725000D01*
X155675000Y-76725000D02*
X155850000Y-76900000D01*
X153875000Y-72900000D02*
X155675000Y-74700000D01*
X153750000Y-72900000D02*
X153875000Y-72900000D01*
X155850000Y-76900000D02*
X155850000Y-82100000D01*
X153625000Y-72900000D02*
X153750000Y-72900000D01*
X160313577Y-74700000D02*
X160513599Y-74499978D01*
X155675000Y-74700000D02*
X160313577Y-74700000D01*
X161486401Y-74499978D02*
X161686423Y-74700000D01*
X161686423Y-74700000D02*
X162900000Y-74700000D01*
X160513599Y-74499978D02*
X161486401Y-74499978D01*
X167025000Y-66850000D02*
X170725010Y-70550010D01*
X166900000Y-66850000D02*
X167025000Y-66850000D01*
X170725010Y-70550010D02*
X170725010Y-73624990D01*
X170725010Y-73624990D02*
X170650000Y-73700000D01*
X170650000Y-73700000D02*
X169900000Y-73700000D01*
X166400000Y-71128231D02*
X166400000Y-71700000D01*
X166550023Y-70978208D02*
X166400000Y-71128231D01*
X155050000Y-63350000D02*
X157122820Y-63350000D01*
X157122820Y-63350000D02*
X162522778Y-68749958D01*
X162522778Y-68749958D02*
X163880956Y-68749958D01*
X164180975Y-69049978D02*
X165221797Y-69049978D01*
X163880956Y-68749958D02*
X164180975Y-69049978D01*
X165221797Y-69049978D02*
X166550023Y-70378204D01*
X166550023Y-70378204D02*
X166550023Y-70978208D01*
X165400000Y-71700000D02*
X165400000Y-70950000D01*
X162336379Y-69199969D02*
X157786399Y-64649989D01*
X163694556Y-69199969D02*
X162336379Y-69199969D01*
X157786399Y-64649989D02*
X152655143Y-64649989D01*
X165300022Y-70805435D02*
X163694556Y-69199969D01*
X165300022Y-70850022D02*
X165300022Y-70805435D01*
X151027565Y-66277567D02*
X150727566Y-66577566D01*
X165400000Y-70950000D02*
X165300022Y-70850022D01*
X152655143Y-64649989D02*
X151027565Y-66277567D01*
X51250000Y-74900000D02*
X51250000Y-70300000D01*
X51250000Y-70300000D02*
X57650000Y-63900000D01*
X51100000Y-112450000D02*
X51100000Y-131300000D01*
X51100000Y-131300000D02*
X51250000Y-131450000D01*
X51100000Y-93750000D02*
X51100000Y-112450000D01*
X51250000Y-74900000D02*
X51250000Y-93600000D01*
X51250000Y-93600000D02*
X51100000Y-93750000D01*
X51450000Y-55900000D02*
X51450000Y-74700000D01*
X51450000Y-74700000D02*
X51250000Y-74900000D01*
X48750000Y-59200000D02*
X48750000Y-56500000D01*
X48750000Y-56500000D02*
X48150000Y-55900000D01*
X47950000Y-74900000D02*
X47950000Y-77400000D01*
X47950000Y-77400000D02*
X48750000Y-78200000D01*
X47800000Y-93750000D02*
X47800000Y-96250000D01*
X47800000Y-96250000D02*
X48750000Y-97200000D01*
X47800000Y-112450000D02*
X47800000Y-115250000D01*
X47800000Y-115250000D02*
X48750000Y-116200000D01*
X47950000Y-131450000D02*
X47950000Y-134400000D01*
X47950000Y-134400000D02*
X48750000Y-135200000D01*
X159750000Y-67700000D02*
X160092176Y-67700000D01*
X153150000Y-65200000D02*
X157250000Y-65200000D01*
X157250000Y-65200000D02*
X159750000Y-67700000D01*
X150650000Y-67700000D02*
X153150000Y-65200000D01*
X69800000Y-74750000D02*
X69800000Y-70350000D01*
X69800000Y-70350000D02*
X72700000Y-67450000D01*
X69800000Y-74750000D02*
X69800000Y-55750000D01*
X69800000Y-55750000D02*
X70000000Y-55550000D01*
X69800000Y-74750000D02*
X69800000Y-93600000D01*
X69800000Y-93600000D02*
X70050000Y-93850000D01*
X70050000Y-93850000D02*
X70050000Y-112900000D01*
X70050000Y-112900000D02*
X70100000Y-112950000D01*
X69400000Y-131650000D02*
X69400000Y-131500000D01*
X69400000Y-131500000D02*
X70100000Y-130800000D01*
X70100000Y-130800000D02*
X70100000Y-112950000D01*
X160092176Y-67700000D02*
X162042156Y-69649980D01*
X162042156Y-69649980D02*
X163508156Y-69649980D01*
X163508156Y-69649980D02*
X164850011Y-70991835D01*
X164850011Y-70991835D02*
X164850011Y-71128246D01*
X164850011Y-71128246D02*
X164900000Y-71178235D01*
X164900000Y-71178235D02*
X164900000Y-71700000D01*
X66700000Y-55550000D02*
X66700000Y-58150000D01*
X66700000Y-58150000D02*
X67750000Y-59200000D01*
X66500000Y-74750000D02*
X66500000Y-76950000D01*
X66500000Y-76950000D02*
X67750000Y-78200000D01*
X66750000Y-93850000D02*
X66750000Y-96200000D01*
X66750000Y-96200000D02*
X67750000Y-97200000D01*
X66800000Y-112950000D02*
X66800000Y-115250000D01*
X66800000Y-115250000D02*
X67750000Y-116200000D01*
X67750000Y-135200000D02*
X67750000Y-132600000D01*
X67750000Y-132600000D02*
X66800000Y-131650000D01*
X66800000Y-131650000D02*
X66100000Y-131650000D01*
X157974999Y-70599989D02*
X156575010Y-69200000D01*
X164400000Y-71700000D02*
X164400000Y-71178235D01*
X163821754Y-70599989D02*
X157974999Y-70599989D01*
X164400000Y-71178235D02*
X163821754Y-70599989D01*
X89550000Y-67900000D02*
X89550000Y-68150000D01*
X89550000Y-51600000D02*
X89550000Y-67900000D01*
X89550000Y-67900000D02*
X102000000Y-67900000D01*
X102000000Y-67900000D02*
X102650000Y-68550000D01*
X88650000Y-107550000D02*
X88650000Y-107700000D01*
X88950000Y-125950000D02*
X88950000Y-126800000D01*
X88650000Y-107700000D02*
X89350000Y-108400000D01*
X89350000Y-108400000D02*
X89350000Y-125550000D01*
X89350000Y-125550000D02*
X88950000Y-125950000D01*
X88800000Y-88650000D02*
X88800000Y-88800000D01*
X88800000Y-88800000D02*
X89500000Y-89500000D01*
X89500000Y-89500000D02*
X89500000Y-105850000D01*
X89500000Y-105850000D02*
X88650000Y-106700000D01*
X88650000Y-106700000D02*
X88650000Y-107550000D01*
X88650000Y-69900000D02*
X88650000Y-70050000D01*
X88650000Y-70050000D02*
X89075001Y-70475001D01*
X88800000Y-87800000D02*
X88800000Y-88650000D01*
X89075001Y-70475001D02*
X89075001Y-87524999D01*
X89075001Y-87524999D02*
X88800000Y-87800000D01*
X88850000Y-50750000D02*
X88850000Y-50900000D01*
X88850000Y-50900000D02*
X89550000Y-51600000D01*
X89550000Y-68150000D02*
X88650000Y-69050000D01*
X88650000Y-69050000D02*
X88650000Y-69900000D01*
X85550000Y-50750000D02*
X85550000Y-52700000D01*
X85550000Y-52700000D02*
X87050000Y-54200000D01*
X85350000Y-69900000D02*
X85350000Y-71500000D01*
X85350000Y-71500000D02*
X87050000Y-73200000D01*
X85500000Y-88650000D02*
X85500000Y-90650000D01*
X85500000Y-90650000D02*
X87050000Y-92200000D01*
X85350000Y-107550000D02*
X85350000Y-109500000D01*
X85350000Y-109500000D02*
X87050000Y-111200000D01*
X85650000Y-126800000D02*
X85650000Y-128800000D01*
X85650000Y-128800000D02*
X87050000Y-130200000D01*
X157604458Y-70945556D02*
X156679454Y-70945556D01*
X163900000Y-71700000D02*
X158358902Y-71700000D01*
X158358902Y-71700000D02*
X157604458Y-70945556D01*
X107950000Y-64700000D02*
X114650000Y-64700000D01*
X114650000Y-64700000D02*
X120650000Y-70700000D01*
X107650000Y-45700000D02*
X107650000Y-45850000D01*
X107650000Y-45850000D02*
X108650000Y-46850000D01*
X108650000Y-46850000D02*
X108650000Y-63850000D01*
X108650000Y-63850000D02*
X107950000Y-64550000D01*
X107950000Y-64550000D02*
X107950000Y-64700000D01*
X107950000Y-64700000D02*
X107950000Y-64850000D01*
X107950000Y-64850000D02*
X108600000Y-65500000D01*
X108600000Y-65500000D02*
X108600000Y-83750000D01*
X108300000Y-102650000D02*
X108300000Y-84050000D01*
X108300000Y-84050000D02*
X108600000Y-83750000D01*
X107950000Y-121500000D02*
X107950000Y-120650000D01*
X107950000Y-120650000D02*
X108300000Y-120300000D01*
X108300000Y-120300000D02*
X108300000Y-102650000D01*
X104350000Y-45700000D02*
X104350000Y-47500000D01*
X104350000Y-47500000D02*
X106050000Y-49200000D01*
X104650000Y-64700000D02*
X104650000Y-66700000D01*
X104650000Y-66700000D02*
X106150000Y-68200000D01*
X105300000Y-83750000D02*
X105300001Y-86450001D01*
X105300001Y-86450001D02*
X106050000Y-87200000D01*
X105000000Y-102650000D02*
X105000000Y-105150000D01*
X105000000Y-105150000D02*
X106050000Y-106200000D01*
X104650000Y-121500000D02*
X104650000Y-123800000D01*
X104650000Y-123800000D02*
X106050000Y-125200000D01*
X158033898Y-72300000D02*
X157304454Y-71570556D01*
X162550000Y-72700000D02*
X162150000Y-72300000D01*
X162900000Y-72700000D02*
X162550000Y-72700000D01*
X162150000Y-72300000D02*
X158033898Y-72300000D01*
X126800000Y-69750000D02*
X128500000Y-69750000D01*
X128500000Y-69750000D02*
X131150000Y-72400000D01*
X126800000Y-69750000D02*
X126800000Y-70600000D01*
X126800000Y-70600000D02*
X127150000Y-70950000D01*
X127150000Y-70950000D02*
X127150000Y-88750000D01*
X127150000Y-50900000D02*
X127150000Y-69400000D01*
X127150000Y-69400000D02*
X126800000Y-69750000D01*
X126650000Y-107750000D02*
X126650000Y-108600000D01*
X126650000Y-108600000D02*
X127075001Y-109025001D01*
X127075001Y-109025001D02*
X127075001Y-125674999D01*
X127075001Y-125674999D02*
X126850000Y-125900000D01*
X126850000Y-125900000D02*
X126850000Y-126750000D01*
X127150000Y-88750000D02*
X127150000Y-107250000D01*
X127150000Y-107250000D02*
X126650000Y-107750000D01*
X123850000Y-50900000D02*
X123850000Y-53000000D01*
X123850000Y-53000000D02*
X125050000Y-54200000D01*
X123500000Y-69750000D02*
X123500000Y-71650000D01*
X123500000Y-71650000D02*
X125050000Y-73200000D01*
X123850000Y-88750000D02*
X123850000Y-91000000D01*
X123850000Y-91000000D02*
X125050000Y-92200000D01*
X123350000Y-107750000D02*
X123350000Y-109500000D01*
X123350000Y-109500000D02*
X125050000Y-111200000D01*
X123550000Y-126750000D02*
X123550000Y-128700000D01*
X123550000Y-128700000D02*
X125050000Y-130200000D01*
X148300000Y-74700000D02*
X146000000Y-74700000D01*
X145750000Y-93850000D02*
X145750000Y-93700000D01*
X145750000Y-93700000D02*
X146075001Y-93374999D01*
X146075001Y-93374999D02*
X146075001Y-75625001D01*
X146000000Y-75550000D02*
X146000000Y-74700000D01*
X146075001Y-75625001D02*
X146000000Y-75550000D01*
X145750000Y-55700000D02*
X145750000Y-55850000D01*
X145750000Y-55850000D02*
X146075001Y-56175001D01*
X146000000Y-73850000D02*
X146000000Y-74700000D01*
X146075001Y-56175001D02*
X146075001Y-73774999D01*
X146075001Y-73774999D02*
X146000000Y-73850000D01*
X146100000Y-113000000D02*
X146100000Y-94200000D01*
X146100000Y-94200000D02*
X145750000Y-93850000D01*
X145300000Y-131600000D02*
X145300000Y-130750000D01*
X145300000Y-130750000D02*
X146100000Y-129950000D01*
X146100000Y-129950000D02*
X146100000Y-113000000D01*
X161125010Y-75700000D02*
X161000000Y-75574990D01*
X162900000Y-75700000D02*
X161125010Y-75700000D01*
X142450000Y-55700000D02*
X142450000Y-57600000D01*
X142450000Y-57600000D02*
X144050000Y-59200000D01*
X142700000Y-74700000D02*
X142700000Y-76850000D01*
X142700000Y-76850000D02*
X144050000Y-78200000D01*
X142450000Y-93850000D02*
X142450000Y-95600000D01*
X142450000Y-95600000D02*
X144050000Y-97200000D01*
X142800000Y-113000000D02*
X142800000Y-114950000D01*
X142800000Y-114950000D02*
X144050000Y-116200000D01*
X144050000Y-135200000D02*
X144050000Y-132950000D01*
X144050000Y-132950000D02*
X142700000Y-131600000D01*
X142700000Y-131600000D02*
X142000000Y-131600000D01*
X164750000Y-119800000D02*
X164750000Y-120650000D01*
X160500000Y-76400000D02*
X160200001Y-76699999D01*
X160200001Y-76699999D02*
X160200001Y-115250001D01*
X160200001Y-115250001D02*
X164750000Y-119800000D01*
X160700000Y-76200000D02*
X160500000Y-76400000D01*
X162900000Y-76200000D02*
X160700000Y-76200000D01*
X165150000Y-139650000D02*
X165150000Y-121050000D01*
X165150000Y-121050000D02*
X164750000Y-120650000D01*
X163050000Y-143200000D02*
X163050000Y-140150000D01*
X162550000Y-139650000D02*
X161850000Y-139650000D01*
X163050000Y-140150000D02*
X162550000Y-139650000D01*
X160500000Y-73700000D02*
X162900000Y-73700000D01*
X155200000Y-71500000D02*
X157400000Y-73700000D01*
X157400000Y-73700000D02*
X162900000Y-73700000D01*
X155200000Y-70300000D02*
X155200000Y-71500000D01*
X153800000Y-68750000D02*
X153800000Y-68900000D01*
X153800000Y-68900000D02*
X155200000Y-70300000D01*
X164400000Y-79221765D02*
X164400000Y-78700000D01*
X169900000Y-71613590D02*
X169900000Y-72700000D01*
X165900000Y-71700000D02*
X165900000Y-70703227D01*
X163858227Y-58842492D02*
X163858227Y-65723990D01*
X170200000Y-79800000D02*
X170200000Y-90210000D01*
X170200000Y-90210000D02*
X170000000Y-90410000D01*
X168400000Y-70950000D02*
X168400000Y-71700000D01*
X168400000Y-70265763D02*
X168400000Y-70950000D01*
X168475010Y-70874990D02*
X169161400Y-70874990D01*
X168400000Y-70950000D02*
X168475010Y-70874990D01*
X167450000Y-69315763D02*
X168400000Y-70265763D01*
X163858227Y-65723990D02*
X167450000Y-69315763D01*
X167449999Y-68999999D02*
X167449999Y-69315762D01*
X167449999Y-69315762D02*
X167450000Y-69315763D01*
X167150000Y-68700000D02*
X167449999Y-68999999D01*
X169161400Y-70874990D02*
X169900000Y-71613590D01*
X170200000Y-78000000D02*
X169900000Y-77700000D01*
X170200000Y-79800000D02*
X170200000Y-78000000D01*
X163100000Y-79850000D02*
X163771765Y-79850000D01*
X163771765Y-79850000D02*
X164400000Y-79221765D01*
X165900000Y-70703227D02*
X165925021Y-70678206D01*
X163218102Y-58729621D02*
X163218102Y-62731898D01*
X163218102Y-62731898D02*
X162850000Y-63100000D01*
X162577977Y-58616749D02*
X162577977Y-61822023D01*
X162577977Y-61822023D02*
X161300000Y-63100000D01*
X161300000Y-63100000D02*
X160600000Y-63100000D01*
X160650012Y-86140012D02*
X170000000Y-95490000D01*
X161338585Y-76700000D02*
X160650012Y-77388573D01*
X160650012Y-77388573D02*
X160650012Y-86140012D01*
X162900000Y-76700000D02*
X161338585Y-76700000D01*
X161100023Y-77574973D02*
X161100023Y-78625027D01*
X162074990Y-85024990D02*
X170000000Y-92950000D01*
X161474996Y-77200000D02*
X161100023Y-77574973D01*
X161100023Y-78625027D02*
X162074990Y-79599994D01*
X162900000Y-77200000D02*
X161474996Y-77200000D01*
X162074990Y-79599994D02*
X162074990Y-85024990D01*
X163250000Y-67250000D02*
X164599967Y-68599967D01*
X160600000Y-65300000D02*
X160600000Y-66150000D01*
X160600000Y-66150000D02*
X161700000Y-67250000D01*
X161700000Y-67250000D02*
X163250000Y-67250000D01*
X167400000Y-70540767D02*
X167400000Y-71700000D01*
X164599967Y-68599967D02*
X165459200Y-68599967D01*
X165459200Y-68599967D02*
X167400000Y-70540767D01*
X167900000Y-70402174D02*
X167900000Y-71700000D01*
X163550000Y-66150000D02*
X163647826Y-66150000D01*
X162850000Y-65300000D02*
X162850000Y-65450000D01*
X162850000Y-65450000D02*
X163550000Y-66150000D01*
X163647826Y-66150000D02*
X167900000Y-70402174D01*
X160925002Y-73200000D02*
X162150000Y-73200000D01*
X157924999Y-73074999D02*
X160800001Y-73074999D01*
X155950000Y-68850000D02*
X155950000Y-71100000D01*
X153800000Y-66700000D02*
X155950000Y-68850000D01*
X162150000Y-73200000D02*
X162900000Y-73200000D01*
X153800000Y-66550000D02*
X153800000Y-66700000D01*
X155950000Y-71100000D02*
X157924999Y-73074999D01*
X160800001Y-73074999D02*
X160925002Y-73200000D01*
X162900000Y-77700000D02*
X162550000Y-77700000D01*
X162028540Y-78221460D02*
X161725033Y-78221460D01*
X162550000Y-77700000D02*
X162028540Y-78221460D01*
X164900000Y-79650000D02*
X164150000Y-80400000D01*
X164900000Y-78700000D02*
X164900000Y-79650000D01*
X165400000Y-78700000D02*
X165400000Y-80150000D01*
X165400000Y-80150000D02*
X164200000Y-81350000D01*
X165900000Y-78700000D02*
X165900000Y-80900000D01*
X165900000Y-80900000D02*
X164250000Y-82550000D01*
X166400000Y-78700000D02*
X166400000Y-81600000D01*
X166400000Y-81600000D02*
X164250000Y-83750000D01*
X168900000Y-71700000D02*
X168900000Y-71550000D01*
X168900000Y-71550000D02*
X169050000Y-71400000D01*
X161450000Y-120650000D02*
X161450000Y-122600000D01*
X161450000Y-122600000D02*
X163050000Y-124200000D01*
X169900000Y-74200000D02*
X171350000Y-74200000D01*
X171350000Y-74200000D02*
X172000000Y-73550000D01*
X169900000Y-74700000D02*
X171100000Y-74700000D01*
X171100000Y-74700000D02*
X172000000Y-75600000D01*
X172000000Y-75600000D02*
X172000000Y-75750000D01*
D25*
G36*
X172972405Y-55411477D02*
X172673687Y-111570530D01*
X160612001Y-111336890D01*
X160612001Y-98315750D01*
X168515000Y-98315750D01*
X168515000Y-99006310D01*
X168611673Y-99239699D01*
X168790302Y-99418327D01*
X169023691Y-99515000D01*
X169714250Y-99515000D01*
X169873000Y-99356250D01*
X169873000Y-98157000D01*
X170127000Y-98157000D01*
X170127000Y-99356250D01*
X170285750Y-99515000D01*
X170976309Y-99515000D01*
X171209698Y-99418327D01*
X171388327Y-99239699D01*
X171485000Y-99006310D01*
X171485000Y-98315750D01*
X171326250Y-98157000D01*
X170127000Y-98157000D01*
X169873000Y-98157000D01*
X168673750Y-98157000D01*
X168515000Y-98315750D01*
X160612001Y-98315750D01*
X160612001Y-86684657D01*
X168949288Y-95021944D01*
X168927274Y-95054889D01*
X168840725Y-95490000D01*
X168927274Y-95925111D01*
X169173745Y-96293980D01*
X169542614Y-96540451D01*
X169565483Y-96545000D01*
X169023691Y-96545000D01*
X168790302Y-96641673D01*
X168611673Y-96820301D01*
X168515000Y-97053690D01*
X168515000Y-97744250D01*
X168673750Y-97903000D01*
X169873000Y-97903000D01*
X169873000Y-97883000D01*
X170127000Y-97883000D01*
X170127000Y-97903000D01*
X171326250Y-97903000D01*
X171485000Y-97744250D01*
X171485000Y-97053690D01*
X171388327Y-96820301D01*
X171209698Y-96641673D01*
X170976309Y-96545000D01*
X170434517Y-96545000D01*
X170457386Y-96540451D01*
X170826255Y-96293980D01*
X171072726Y-95925111D01*
X171159275Y-95490000D01*
X171072726Y-95054889D01*
X170826255Y-94686020D01*
X170457386Y-94439549D01*
X170022275Y-94353000D01*
X169977725Y-94353000D01*
X169542614Y-94439549D01*
X169536374Y-94443718D01*
X161062012Y-85969356D01*
X161062012Y-79169672D01*
X161662990Y-79770650D01*
X161662990Y-85024990D01*
X161694352Y-85182656D01*
X161739356Y-85250009D01*
X161783662Y-85316318D01*
X168949288Y-92481944D01*
X168927274Y-92514889D01*
X168840725Y-92950000D01*
X168927274Y-93385111D01*
X169173745Y-93753980D01*
X169542614Y-94000451D01*
X169977725Y-94087000D01*
X170022275Y-94087000D01*
X170457386Y-94000451D01*
X170826255Y-93753980D01*
X171072726Y-93385111D01*
X171159275Y-92950000D01*
X171072726Y-92514889D01*
X170826255Y-92146020D01*
X170457386Y-91899549D01*
X170022275Y-91813000D01*
X169977725Y-91813000D01*
X169542614Y-91899549D01*
X169536374Y-91903718D01*
X162486990Y-84854334D01*
X162486990Y-79966249D01*
X162512898Y-79966249D01*
X162602075Y-80182074D01*
X162767057Y-80347344D01*
X162982726Y-80436898D01*
X163216249Y-80437102D01*
X163432074Y-80347925D01*
X163518149Y-80262000D01*
X163571708Y-80262000D01*
X163563102Y-80282726D01*
X163562898Y-80516249D01*
X163652075Y-80732074D01*
X163817057Y-80897344D01*
X163820956Y-80898963D01*
X163702656Y-81017057D01*
X163613102Y-81232726D01*
X163612898Y-81466249D01*
X163702075Y-81682074D01*
X163867057Y-81847344D01*
X164082726Y-81936898D01*
X164280273Y-81937071D01*
X164254341Y-81963003D01*
X164133751Y-81962898D01*
X163917926Y-82052075D01*
X163752656Y-82217057D01*
X163663102Y-82432726D01*
X163662898Y-82666249D01*
X163752075Y-82882074D01*
X163917057Y-83047344D01*
X164132726Y-83136898D01*
X164280317Y-83137027D01*
X164254341Y-83163003D01*
X164133751Y-83162898D01*
X163917926Y-83252075D01*
X163752656Y-83417057D01*
X163663102Y-83632726D01*
X163662898Y-83866249D01*
X163752075Y-84082074D01*
X163917057Y-84247344D01*
X164132726Y-84336898D01*
X164366249Y-84337102D01*
X164582074Y-84247925D01*
X164747344Y-84082943D01*
X164836898Y-83867274D01*
X164837004Y-83745652D01*
X166691328Y-81891328D01*
X166720717Y-81847344D01*
X166780638Y-81757666D01*
X166812000Y-81600000D01*
X166812000Y-79484914D01*
X166900000Y-79502418D01*
X167067233Y-79469153D01*
X167150000Y-79413850D01*
X167232767Y-79469153D01*
X167400000Y-79502418D01*
X167567233Y-79469153D01*
X167650000Y-79413850D01*
X167732767Y-79469153D01*
X167900000Y-79502418D01*
X168067233Y-79469153D01*
X168150000Y-79413850D01*
X168220936Y-79461248D01*
X168223355Y-79467739D01*
X168434723Y-79694881D01*
X168703684Y-79810056D01*
X168825000Y-79671743D01*
X168825000Y-79125746D01*
X168837000Y-79065418D01*
X168837000Y-78827000D01*
X168975000Y-78827000D01*
X168975000Y-79671743D01*
X169096316Y-79810056D01*
X169365277Y-79694881D01*
X169576645Y-79467739D01*
X169685000Y-79177000D01*
X169685000Y-78827000D01*
X168975000Y-78827000D01*
X168837000Y-78827000D01*
X168837000Y-78553000D01*
X168975000Y-78553000D01*
X168975000Y-78573000D01*
X169685000Y-78573000D01*
X169685000Y-78223000D01*
X169652949Y-78137000D01*
X169754344Y-78137000D01*
X169788000Y-78170656D01*
X169788000Y-79381862D01*
X169702656Y-79467057D01*
X169613102Y-79682726D01*
X169612898Y-79916249D01*
X169702075Y-80132074D01*
X169788000Y-80218149D01*
X169788000Y-89310739D01*
X169542614Y-89359549D01*
X169173745Y-89606020D01*
X168927274Y-89974889D01*
X168840725Y-90410000D01*
X168927274Y-90845111D01*
X169173745Y-91213980D01*
X169542614Y-91460451D01*
X169977725Y-91547000D01*
X170022275Y-91547000D01*
X170457386Y-91460451D01*
X170826255Y-91213980D01*
X171072726Y-90845111D01*
X171159275Y-90410000D01*
X171072726Y-89974889D01*
X170826255Y-89606020D01*
X170612000Y-89462859D01*
X170612000Y-80218138D01*
X170697344Y-80132943D01*
X170786898Y-79917274D01*
X170787102Y-79683751D01*
X170697925Y-79467926D01*
X170612000Y-79381851D01*
X170612000Y-78000000D01*
X170604760Y-77963604D01*
X170661248Y-77879064D01*
X170667739Y-77876645D01*
X170894881Y-77665277D01*
X171010056Y-77396316D01*
X170871743Y-77275000D01*
X170325746Y-77275000D01*
X170265418Y-77263000D01*
X169534582Y-77263000D01*
X169474254Y-77275000D01*
X168928257Y-77275000D01*
X168789944Y-77396316D01*
X168862178Y-77565000D01*
X168772998Y-77565000D01*
X168772998Y-77668969D01*
X168703684Y-77589944D01*
X168434723Y-77705119D01*
X168223355Y-77932261D01*
X168220936Y-77938752D01*
X168150000Y-77986150D01*
X168067233Y-77930847D01*
X167900000Y-77897582D01*
X167732767Y-77930847D01*
X167650000Y-77986150D01*
X167567233Y-77930847D01*
X167400000Y-77897582D01*
X167232767Y-77930847D01*
X167150000Y-77986150D01*
X167067233Y-77930847D01*
X166900000Y-77897582D01*
X166732767Y-77930847D01*
X166650000Y-77986150D01*
X166567233Y-77930847D01*
X166400000Y-77897582D01*
X166232767Y-77930847D01*
X166150000Y-77986150D01*
X166067233Y-77930847D01*
X165900000Y-77897582D01*
X165732767Y-77930847D01*
X165650000Y-77986150D01*
X165567233Y-77930847D01*
X165400000Y-77897582D01*
X165232767Y-77930847D01*
X165150000Y-77986150D01*
X165067233Y-77930847D01*
X164900000Y-77897582D01*
X164732767Y-77930847D01*
X164650000Y-77986150D01*
X164579064Y-77938752D01*
X164576645Y-77932261D01*
X164365277Y-77705119D01*
X164096316Y-77589944D01*
X163975000Y-77728257D01*
X163975000Y-78274254D01*
X163963000Y-78334582D01*
X163963000Y-78847000D01*
X163825000Y-78847000D01*
X163825000Y-78827000D01*
X163115000Y-78827000D01*
X163115000Y-79177000D01*
X163147066Y-79263041D01*
X162983751Y-79262898D01*
X162767926Y-79352075D01*
X162602656Y-79517057D01*
X162513102Y-79732726D01*
X162512898Y-79966249D01*
X162486990Y-79966249D01*
X162486990Y-79599994D01*
X162455629Y-79442329D01*
X162366318Y-79308666D01*
X161858924Y-78801272D01*
X162057107Y-78719385D01*
X162171710Y-78604981D01*
X162186206Y-78602098D01*
X162319868Y-78512788D01*
X162695656Y-78137000D01*
X163147051Y-78137000D01*
X163115000Y-78223000D01*
X163115000Y-78573000D01*
X163825000Y-78573000D01*
X163825000Y-77728257D01*
X163703684Y-77589944D01*
X163682344Y-77599082D01*
X163669153Y-77532767D01*
X163613850Y-77450000D01*
X163669153Y-77367233D01*
X163702418Y-77200000D01*
X163669153Y-77032767D01*
X163613850Y-76950000D01*
X163669153Y-76867233D01*
X163702418Y-76700000D01*
X163669153Y-76532767D01*
X163613850Y-76450000D01*
X163669153Y-76367233D01*
X163702418Y-76200000D01*
X163669153Y-76032767D01*
X163613850Y-75950000D01*
X163669153Y-75867233D01*
X163702418Y-75700000D01*
X163669153Y-75532767D01*
X163613850Y-75450000D01*
X163669153Y-75367233D01*
X163702418Y-75200000D01*
X163669153Y-75032767D01*
X163613850Y-74950000D01*
X163661248Y-74879064D01*
X163667739Y-74876645D01*
X163894881Y-74665277D01*
X164010056Y-74396316D01*
X163871743Y-74275000D01*
X163325746Y-74275000D01*
X163265418Y-74263000D01*
X162534582Y-74263000D01*
X162474254Y-74275000D01*
X161928257Y-74275000D01*
X161913436Y-74288000D01*
X161857079Y-74288000D01*
X161777729Y-74208650D01*
X161760808Y-74197344D01*
X161644067Y-74119340D01*
X161607167Y-74112000D01*
X161913436Y-74112000D01*
X161928257Y-74125000D01*
X162474254Y-74125000D01*
X162534582Y-74137000D01*
X163265418Y-74137000D01*
X163325746Y-74125000D01*
X163871743Y-74125000D01*
X164010056Y-74003684D01*
X163894881Y-73734723D01*
X163667739Y-73523355D01*
X163661248Y-73520936D01*
X163613850Y-73450000D01*
X163669153Y-73367233D01*
X163702418Y-73200000D01*
X163669153Y-73032767D01*
X163613850Y-72950000D01*
X163669153Y-72867233D01*
X163702418Y-72700000D01*
X163669153Y-72532767D01*
X163574424Y-72390994D01*
X163432651Y-72296265D01*
X163265418Y-72263000D01*
X162695656Y-72263000D01*
X162544656Y-72112000D01*
X163472266Y-72112000D01*
X163496265Y-72232651D01*
X163590994Y-72374424D01*
X163732767Y-72469153D01*
X163900000Y-72502418D01*
X164067233Y-72469153D01*
X164150000Y-72413850D01*
X164232767Y-72469153D01*
X164400000Y-72502418D01*
X164567233Y-72469153D01*
X164650000Y-72413850D01*
X164732767Y-72469153D01*
X164900000Y-72502418D01*
X165067233Y-72469153D01*
X165150000Y-72413850D01*
X165232767Y-72469153D01*
X165400000Y-72502418D01*
X165567233Y-72469153D01*
X165650000Y-72413850D01*
X165732767Y-72469153D01*
X165900000Y-72502418D01*
X166067233Y-72469153D01*
X166150000Y-72413850D01*
X166220936Y-72461248D01*
X166223355Y-72467739D01*
X166434723Y-72694881D01*
X166703684Y-72810056D01*
X166825000Y-72671743D01*
X166825000Y-72125746D01*
X166837000Y-72065418D01*
X166837000Y-71553000D01*
X166963000Y-71553000D01*
X166963000Y-72065418D01*
X166975000Y-72125746D01*
X166975000Y-72671743D01*
X167096316Y-72810056D01*
X167365277Y-72694881D01*
X167576645Y-72467739D01*
X167579064Y-72461248D01*
X167650000Y-72413850D01*
X167732767Y-72469153D01*
X167900000Y-72502418D01*
X168067233Y-72469153D01*
X168150000Y-72413850D01*
X168232767Y-72469153D01*
X168400000Y-72502418D01*
X168567233Y-72469153D01*
X168650000Y-72413850D01*
X168732767Y-72469153D01*
X168900000Y-72502418D01*
X169067233Y-72469153D01*
X169209006Y-72374424D01*
X169303735Y-72232651D01*
X169337000Y-72065418D01*
X169337000Y-71695656D01*
X169341328Y-71691328D01*
X169362859Y-71659105D01*
X169488000Y-71784246D01*
X169488000Y-72272266D01*
X169367349Y-72296265D01*
X169225576Y-72390994D01*
X169138752Y-72520936D01*
X169132261Y-72523355D01*
X168905119Y-72734723D01*
X168789944Y-73003684D01*
X168928257Y-73125000D01*
X169474254Y-73125000D01*
X169534582Y-73137000D01*
X170047000Y-73137000D01*
X170047000Y-73263000D01*
X169534582Y-73263000D01*
X169474254Y-73275000D01*
X168928257Y-73275000D01*
X168789944Y-73396316D01*
X168905119Y-73665277D01*
X169132261Y-73876645D01*
X169138752Y-73879064D01*
X169186150Y-73950000D01*
X169130847Y-74032767D01*
X169097582Y-74200000D01*
X169130847Y-74367233D01*
X169186150Y-74450000D01*
X169130847Y-74532767D01*
X169097582Y-74700000D01*
X169130847Y-74867233D01*
X169186150Y-74950000D01*
X169130847Y-75032767D01*
X169097582Y-75200000D01*
X169130847Y-75367233D01*
X169186150Y-75450000D01*
X169130847Y-75532767D01*
X169097582Y-75700000D01*
X169130847Y-75867233D01*
X169186150Y-75950000D01*
X169130847Y-76032767D01*
X169097582Y-76200000D01*
X169130847Y-76367233D01*
X169186150Y-76450000D01*
X169138752Y-76520936D01*
X169132261Y-76523355D01*
X168905119Y-76734723D01*
X168789944Y-77003684D01*
X168928257Y-77125000D01*
X169474254Y-77125000D01*
X169534582Y-77137000D01*
X170265418Y-77137000D01*
X170325746Y-77125000D01*
X170871743Y-77125000D01*
X171010056Y-77003684D01*
X170894881Y-76734723D01*
X170667739Y-76523355D01*
X170661248Y-76520936D01*
X170613850Y-76450000D01*
X170669153Y-76367233D01*
X170702418Y-76200000D01*
X170669153Y-76032767D01*
X170613850Y-75950000D01*
X170669153Y-75867233D01*
X170702418Y-75700000D01*
X170669153Y-75532767D01*
X170613850Y-75450000D01*
X170669153Y-75367233D01*
X170702418Y-75200000D01*
X170684914Y-75112000D01*
X170929344Y-75112000D01*
X171257378Y-75440034D01*
X171257378Y-76350000D01*
X171277390Y-76456356D01*
X171340246Y-76554037D01*
X171436154Y-76619568D01*
X171550000Y-76642622D01*
X172450000Y-76642622D01*
X172556356Y-76622610D01*
X172654037Y-76559754D01*
X172719568Y-76463846D01*
X172742622Y-76350000D01*
X172742622Y-75150000D01*
X172722610Y-75043644D01*
X172659754Y-74945963D01*
X172563846Y-74880432D01*
X172450000Y-74857378D01*
X171840034Y-74857378D01*
X171541013Y-74558357D01*
X171641328Y-74491328D01*
X171690034Y-74442622D01*
X172450000Y-74442622D01*
X172556356Y-74422610D01*
X172654037Y-74359754D01*
X172719568Y-74263846D01*
X172742622Y-74150000D01*
X172742622Y-72950000D01*
X172722610Y-72843644D01*
X172659754Y-72745963D01*
X172563846Y-72680432D01*
X172450000Y-72657378D01*
X171550000Y-72657378D01*
X171443644Y-72677390D01*
X171345963Y-72740246D01*
X171280432Y-72836154D01*
X171257378Y-72950000D01*
X171257378Y-73709966D01*
X171179344Y-73788000D01*
X171102077Y-73788000D01*
X171105648Y-73782656D01*
X171137010Y-73624990D01*
X171137010Y-70550010D01*
X171105648Y-70392344D01*
X171016338Y-70258682D01*
X167817622Y-67059966D01*
X167817622Y-66350000D01*
X167797610Y-66243644D01*
X167734754Y-66145963D01*
X167638846Y-66080432D01*
X167525000Y-66057378D01*
X166275000Y-66057378D01*
X166168644Y-66077390D01*
X166070963Y-66140246D01*
X166005432Y-66236154D01*
X165982378Y-66350000D01*
X165982378Y-67265485D01*
X164270227Y-65553334D01*
X164270227Y-65135750D01*
X165640000Y-65135750D01*
X165640000Y-65476309D01*
X165736673Y-65709698D01*
X165915301Y-65888327D01*
X166148690Y-65985000D01*
X166614250Y-65985000D01*
X166773000Y-65826250D01*
X166773000Y-64977000D01*
X167027000Y-64977000D01*
X167027000Y-65826250D01*
X167185750Y-65985000D01*
X167651310Y-65985000D01*
X167884699Y-65888327D01*
X168063327Y-65709698D01*
X168160000Y-65476309D01*
X168160000Y-65135750D01*
X168001250Y-64977000D01*
X167027000Y-64977000D01*
X166773000Y-64977000D01*
X165798750Y-64977000D01*
X165640000Y-65135750D01*
X164270227Y-65135750D01*
X164270227Y-64223691D01*
X165640000Y-64223691D01*
X165640000Y-64564250D01*
X165798750Y-64723000D01*
X166773000Y-64723000D01*
X166773000Y-63873750D01*
X167027000Y-63873750D01*
X167027000Y-64723000D01*
X168001250Y-64723000D01*
X168160000Y-64564250D01*
X168160000Y-64223691D01*
X168063327Y-63990302D01*
X167884699Y-63811673D01*
X167651310Y-63715000D01*
X167185750Y-63715000D01*
X167027000Y-63873750D01*
X166773000Y-63873750D01*
X166614250Y-63715000D01*
X166148690Y-63715000D01*
X165915301Y-63811673D01*
X165736673Y-63990302D01*
X165640000Y-64223691D01*
X164270227Y-64223691D01*
X164270227Y-59926357D01*
X164552213Y-60083078D01*
X164674604Y-60011015D01*
X164999656Y-60011015D01*
X165145326Y-60187660D01*
X165573615Y-60119332D01*
X165943155Y-59892306D01*
X166189004Y-59556005D01*
X166094076Y-59365692D01*
X165143013Y-59197994D01*
X164999656Y-60011015D01*
X164674604Y-60011015D01*
X164749515Y-59966908D01*
X164892872Y-59153887D01*
X164873176Y-59150414D01*
X164908893Y-58947853D01*
X165187120Y-58947853D01*
X166138182Y-59115551D01*
X166292477Y-58969182D01*
X166176476Y-58569077D01*
X165906870Y-58229352D01*
X165527779Y-58018662D01*
X165330477Y-58134832D01*
X165187120Y-58947853D01*
X164908893Y-58947853D01*
X164917283Y-58900273D01*
X164936979Y-58903746D01*
X165080336Y-58090725D01*
X164934666Y-57914080D01*
X164506377Y-57982408D01*
X164408715Y-58042407D01*
X164331328Y-57966773D01*
X164223214Y-57924300D01*
X163829291Y-57854841D01*
X163721076Y-57856080D01*
X163701734Y-57864195D01*
X163691203Y-57853902D01*
X163583089Y-57811429D01*
X163189166Y-57741970D01*
X163080951Y-57743209D01*
X163061610Y-57751324D01*
X163051078Y-57741030D01*
X162942964Y-57698557D01*
X162549041Y-57629098D01*
X162440826Y-57630337D01*
X162421484Y-57638452D01*
X162410953Y-57628159D01*
X162302839Y-57585686D01*
X162220225Y-57571119D01*
X162204511Y-57500238D01*
X162059615Y-57293304D01*
X161846559Y-57157572D01*
X161780025Y-57145840D01*
X161596120Y-57274612D01*
X161418261Y-58283301D01*
X161464547Y-58291463D01*
X161420440Y-58541604D01*
X161374154Y-58533442D01*
X161196295Y-59542132D01*
X161325066Y-59726036D01*
X161391601Y-59737768D01*
X161638231Y-59683092D01*
X161845164Y-59538195D01*
X161884174Y-59476962D01*
X161966788Y-59491529D01*
X162075003Y-59490290D01*
X162094345Y-59482175D01*
X162104876Y-59492468D01*
X162165977Y-59516472D01*
X162165977Y-61651367D01*
X161338619Y-62478725D01*
X161322610Y-62393644D01*
X161259754Y-62295963D01*
X161163846Y-62230432D01*
X161050000Y-62207378D01*
X160150000Y-62207378D01*
X160043644Y-62227390D01*
X159945963Y-62290246D01*
X159880432Y-62386154D01*
X159857378Y-62500000D01*
X159857378Y-63700000D01*
X159877390Y-63806356D01*
X159940246Y-63904037D01*
X160036154Y-63969568D01*
X160150000Y-63992622D01*
X161050000Y-63992622D01*
X161156356Y-63972610D01*
X161254037Y-63909754D01*
X161319568Y-63813846D01*
X161342622Y-63700000D01*
X161342622Y-63503522D01*
X161457666Y-63480638D01*
X161591328Y-63391328D01*
X162107378Y-62875278D01*
X162107378Y-63700000D01*
X162127390Y-63806356D01*
X162190246Y-63904037D01*
X162286154Y-63969568D01*
X162400000Y-63992622D01*
X163300000Y-63992622D01*
X163406356Y-63972610D01*
X163446227Y-63946954D01*
X163446227Y-64452557D01*
X163413846Y-64430432D01*
X163300000Y-64407378D01*
X162400000Y-64407378D01*
X162293644Y-64427390D01*
X162195963Y-64490246D01*
X162130432Y-64586154D01*
X162107378Y-64700000D01*
X162107378Y-65900000D01*
X162127390Y-66006356D01*
X162190246Y-66104037D01*
X162286154Y-66169568D01*
X162400000Y-66192622D01*
X163009966Y-66192622D01*
X163258672Y-66441328D01*
X163392334Y-66530638D01*
X163459086Y-66543916D01*
X165103137Y-68187967D01*
X164770623Y-68187967D01*
X163541328Y-66958672D01*
X163540628Y-66958204D01*
X163407666Y-66869362D01*
X163250000Y-66838000D01*
X161870656Y-66838000D01*
X161186116Y-66153460D01*
X161254037Y-66109754D01*
X161319568Y-66013846D01*
X161342622Y-65900000D01*
X161342622Y-64700000D01*
X161322610Y-64593644D01*
X161259754Y-64495963D01*
X161163846Y-64430432D01*
X161050000Y-64407378D01*
X160150000Y-64407378D01*
X160043644Y-64427390D01*
X159945963Y-64490246D01*
X159880432Y-64586154D01*
X159857378Y-64700000D01*
X159857378Y-65501902D01*
X157414148Y-63058672D01*
X157361099Y-63023226D01*
X157280486Y-62969362D01*
X157122820Y-62938000D01*
X155967622Y-62938000D01*
X155967622Y-62850000D01*
X155947610Y-62743644D01*
X155884754Y-62645963D01*
X155788846Y-62580432D01*
X155675000Y-62557378D01*
X154425000Y-62557378D01*
X154318644Y-62577390D01*
X154220963Y-62640246D01*
X154155432Y-62736154D01*
X154132378Y-62850000D01*
X154132378Y-63850000D01*
X154152390Y-63956356D01*
X154215246Y-64054037D01*
X154311154Y-64119568D01*
X154425000Y-64142622D01*
X155675000Y-64142622D01*
X155781356Y-64122610D01*
X155879037Y-64059754D01*
X155944568Y-63963846D01*
X155967622Y-63850000D01*
X155967622Y-63762000D01*
X156952164Y-63762000D01*
X157428153Y-64237989D01*
X152655143Y-64237989D01*
X152497477Y-64269351D01*
X152363815Y-64358661D01*
X151227180Y-65495296D01*
X151138720Y-61635750D01*
X153790000Y-61635750D01*
X153790000Y-61976309D01*
X153886673Y-62209698D01*
X154065301Y-62388327D01*
X154298690Y-62485000D01*
X154764250Y-62485000D01*
X154923000Y-62326250D01*
X154923000Y-61477000D01*
X155177000Y-61477000D01*
X155177000Y-62326250D01*
X155335750Y-62485000D01*
X155801310Y-62485000D01*
X156034699Y-62388327D01*
X156213327Y-62209698D01*
X156310000Y-61976309D01*
X156310000Y-61635750D01*
X156151250Y-61477000D01*
X155177000Y-61477000D01*
X154923000Y-61477000D01*
X153948750Y-61477000D01*
X153790000Y-61635750D01*
X151138720Y-61635750D01*
X151117816Y-60723691D01*
X153790000Y-60723691D01*
X153790000Y-61064250D01*
X153948750Y-61223000D01*
X154923000Y-61223000D01*
X154923000Y-60373750D01*
X155177000Y-60373750D01*
X155177000Y-61223000D01*
X156151250Y-61223000D01*
X156310000Y-61064250D01*
X156310000Y-60723691D01*
X156213327Y-60490302D01*
X156034699Y-60311673D01*
X155801310Y-60215000D01*
X155335750Y-60215000D01*
X155177000Y-60373750D01*
X154923000Y-60373750D01*
X154764250Y-60215000D01*
X154298690Y-60215000D01*
X154065301Y-60311673D01*
X153886673Y-60490302D01*
X153790000Y-60723691D01*
X151117816Y-60723691D01*
X151094214Y-59693901D01*
X161142819Y-59693901D01*
X161325067Y-59726037D01*
X161325066Y-59726036D01*
X161142819Y-59693901D01*
X151094214Y-59693901D01*
X151061447Y-58264317D01*
X158863477Y-58264317D01*
X158979478Y-58664422D01*
X159249084Y-59004147D01*
X159628175Y-59214837D01*
X159750566Y-59142774D01*
X160075618Y-59142774D01*
X160221288Y-59319419D01*
X160397605Y-59291290D01*
X160535839Y-59488710D01*
X160748895Y-59624442D01*
X160815429Y-59636174D01*
X160999334Y-59507402D01*
X161105362Y-58906090D01*
X161264966Y-58687764D01*
X161175489Y-58508379D01*
X161177193Y-58498713D01*
X161170038Y-58497451D01*
X160218975Y-58329753D01*
X160075618Y-59142774D01*
X159750566Y-59142774D01*
X159825477Y-59098667D01*
X159968834Y-58285646D01*
X159017772Y-58117948D01*
X158863477Y-58264317D01*
X151061447Y-58264317D01*
X151057214Y-58079612D01*
X160263082Y-58079612D01*
X160653804Y-58148507D01*
X161221300Y-58248572D01*
X161223005Y-58238905D01*
X161368439Y-58100941D01*
X161293132Y-57841194D01*
X161399159Y-57239882D01*
X161270388Y-57055978D01*
X161270383Y-57055977D01*
X161270387Y-57055977D01*
X161270388Y-57055978D01*
X161452635Y-57088113D01*
X161270387Y-57055977D01*
X161270383Y-57055977D01*
X161203853Y-57044246D01*
X160957223Y-57098922D01*
X160759804Y-57237157D01*
X160603741Y-57150421D01*
X160406439Y-57266591D01*
X160263082Y-58079612D01*
X151057214Y-58079612D01*
X151047997Y-57677494D01*
X158966950Y-57677494D01*
X159061878Y-57867807D01*
X160012941Y-58035505D01*
X160156298Y-57222484D01*
X160010628Y-57045839D01*
X159582339Y-57114167D01*
X159212799Y-57341193D01*
X158966950Y-57677494D01*
X151047997Y-57677494D01*
X151027067Y-56764339D01*
X165306091Y-56764339D01*
X165365293Y-57206007D01*
X165589008Y-57591400D01*
X165958621Y-57861436D01*
X166061544Y-57811661D01*
X166402888Y-57811661D01*
X166553197Y-57966276D01*
X166869466Y-57874681D01*
X169412760Y-57874681D01*
X169623473Y-58384646D01*
X170013302Y-58775156D01*
X170522898Y-58986759D01*
X171074681Y-58987240D01*
X171584646Y-58776527D01*
X171975156Y-58386698D01*
X172186759Y-57877102D01*
X172187240Y-57325319D01*
X171976527Y-56815354D01*
X171586698Y-56424844D01*
X171077102Y-56213241D01*
X170525319Y-56212760D01*
X170015354Y-56423473D01*
X169624844Y-56813302D01*
X169413241Y-57322898D01*
X169412760Y-57874681D01*
X166869466Y-57874681D01*
X166992877Y-57838940D01*
X167334913Y-57553304D01*
X167541604Y-57158520D01*
X167589357Y-56887698D01*
X166596671Y-56712661D01*
X166402888Y-57811661D01*
X166061544Y-57811661D01*
X166152747Y-57767554D01*
X166346530Y-56668554D01*
X165353844Y-56493517D01*
X165306091Y-56764339D01*
X151027067Y-56764339D01*
X150996361Y-55424681D01*
X153462760Y-55424681D01*
X153673473Y-55934646D01*
X154063302Y-56325156D01*
X154572898Y-56536759D01*
X155124681Y-56537240D01*
X155634646Y-56326527D01*
X156025156Y-55936698D01*
X156186224Y-55548802D01*
X158412437Y-55548802D01*
X158471639Y-55990470D01*
X158695354Y-56375863D01*
X159064967Y-56645899D01*
X159167890Y-56596124D01*
X159509234Y-56596124D01*
X159659543Y-56750739D01*
X160099223Y-56623403D01*
X160291873Y-56462520D01*
X166640778Y-56462520D01*
X167633464Y-56637557D01*
X167681217Y-56366735D01*
X167622015Y-55925067D01*
X167398300Y-55539674D01*
X167028687Y-55269638D01*
X166834561Y-55363520D01*
X166640778Y-56462520D01*
X160291873Y-56462520D01*
X160441259Y-56337767D01*
X160490677Y-56243376D01*
X165397951Y-56243376D01*
X166390637Y-56418413D01*
X166584420Y-55319413D01*
X166434111Y-55164798D01*
X165994431Y-55292134D01*
X165652395Y-55577770D01*
X165445704Y-55972554D01*
X165397951Y-56243376D01*
X160490677Y-56243376D01*
X160647950Y-55942983D01*
X160695703Y-55672161D01*
X159703017Y-55497124D01*
X159509234Y-56596124D01*
X159167890Y-56596124D01*
X159259093Y-56552017D01*
X159452876Y-55453017D01*
X158460190Y-55277980D01*
X158412437Y-55548802D01*
X156186224Y-55548802D01*
X156236759Y-55427102D01*
X156236915Y-55246983D01*
X159747124Y-55246983D01*
X160739810Y-55422020D01*
X160787563Y-55151198D01*
X160728361Y-54709530D01*
X160504646Y-54324137D01*
X160135033Y-54054101D01*
X159940907Y-54147983D01*
X159747124Y-55246983D01*
X156236915Y-55246983D01*
X156237107Y-55027839D01*
X158504297Y-55027839D01*
X159496983Y-55202876D01*
X159690766Y-54103876D01*
X159540457Y-53949261D01*
X159100777Y-54076597D01*
X158758741Y-54362233D01*
X158552050Y-54757017D01*
X158504297Y-55027839D01*
X156237107Y-55027839D01*
X156237240Y-54875319D01*
X156026527Y-54365354D01*
X155636698Y-53974844D01*
X155127102Y-53763241D01*
X154575319Y-53762760D01*
X154065354Y-53973473D01*
X153674844Y-54363302D01*
X153463241Y-54872898D01*
X153462760Y-55424681D01*
X150996361Y-55424681D01*
X150930358Y-52545022D01*
X172972405Y-55411477D01*
X172972405Y-55411477D01*
G37*
X172972405Y-55411477D02*
X172673687Y-111570530D01*
X160612001Y-111336890D01*
X160612001Y-98315750D01*
X168515000Y-98315750D01*
X168515000Y-99006310D01*
X168611673Y-99239699D01*
X168790302Y-99418327D01*
X169023691Y-99515000D01*
X169714250Y-99515000D01*
X169873000Y-99356250D01*
X169873000Y-98157000D01*
X170127000Y-98157000D01*
X170127000Y-99356250D01*
X170285750Y-99515000D01*
X170976309Y-99515000D01*
X171209698Y-99418327D01*
X171388327Y-99239699D01*
X171485000Y-99006310D01*
X171485000Y-98315750D01*
X171326250Y-98157000D01*
X170127000Y-98157000D01*
X169873000Y-98157000D01*
X168673750Y-98157000D01*
X168515000Y-98315750D01*
X160612001Y-98315750D01*
X160612001Y-86684657D01*
X168949288Y-95021944D01*
X168927274Y-95054889D01*
X168840725Y-95490000D01*
X168927274Y-95925111D01*
X169173745Y-96293980D01*
X169542614Y-96540451D01*
X169565483Y-96545000D01*
X169023691Y-96545000D01*
X168790302Y-96641673D01*
X168611673Y-96820301D01*
X168515000Y-97053690D01*
X168515000Y-97744250D01*
X168673750Y-97903000D01*
X169873000Y-97903000D01*
X169873000Y-97883000D01*
X170127000Y-97883000D01*
X170127000Y-97903000D01*
X171326250Y-97903000D01*
X171485000Y-97744250D01*
X171485000Y-97053690D01*
X171388327Y-96820301D01*
X171209698Y-96641673D01*
X170976309Y-96545000D01*
X170434517Y-96545000D01*
X170457386Y-96540451D01*
X170826255Y-96293980D01*
X171072726Y-95925111D01*
X171159275Y-95490000D01*
X171072726Y-95054889D01*
X170826255Y-94686020D01*
X170457386Y-94439549D01*
X170022275Y-94353000D01*
X169977725Y-94353000D01*
X169542614Y-94439549D01*
X169536374Y-94443718D01*
X161062012Y-85969356D01*
X161062012Y-79169672D01*
X161662990Y-79770650D01*
X161662990Y-85024990D01*
X161694352Y-85182656D01*
X161739356Y-85250009D01*
X161783662Y-85316318D01*
X168949288Y-92481944D01*
X168927274Y-92514889D01*
X168840725Y-92950000D01*
X168927274Y-93385111D01*
X169173745Y-93753980D01*
X169542614Y-94000451D01*
X169977725Y-94087000D01*
X170022275Y-94087000D01*
X170457386Y-94000451D01*
X170826255Y-93753980D01*
X171072726Y-93385111D01*
X171159275Y-92950000D01*
X171072726Y-92514889D01*
X170826255Y-92146020D01*
X170457386Y-91899549D01*
X170022275Y-91813000D01*
X169977725Y-91813000D01*
X169542614Y-91899549D01*
X169536374Y-91903718D01*
X162486990Y-84854334D01*
X162486990Y-79966249D01*
X162512898Y-79966249D01*
X162602075Y-80182074D01*
X162767057Y-80347344D01*
X162982726Y-80436898D01*
X163216249Y-80437102D01*
X163432074Y-80347925D01*
X163518149Y-80262000D01*
X163571708Y-80262000D01*
X163563102Y-80282726D01*
X163562898Y-80516249D01*
X163652075Y-80732074D01*
X163817057Y-80897344D01*
X163820956Y-80898963D01*
X163702656Y-81017057D01*
X163613102Y-81232726D01*
X163612898Y-81466249D01*
X163702075Y-81682074D01*
X163867057Y-81847344D01*
X164082726Y-81936898D01*
X164280273Y-81937071D01*
X164254341Y-81963003D01*
X164133751Y-81962898D01*
X163917926Y-82052075D01*
X163752656Y-82217057D01*
X163663102Y-82432726D01*
X163662898Y-82666249D01*
X163752075Y-82882074D01*
X163917057Y-83047344D01*
X164132726Y-83136898D01*
X164280317Y-83137027D01*
X164254341Y-83163003D01*
X164133751Y-83162898D01*
X163917926Y-83252075D01*
X163752656Y-83417057D01*
X163663102Y-83632726D01*
X163662898Y-83866249D01*
X163752075Y-84082074D01*
X163917057Y-84247344D01*
X164132726Y-84336898D01*
X164366249Y-84337102D01*
X164582074Y-84247925D01*
X164747344Y-84082943D01*
X164836898Y-83867274D01*
X164837004Y-83745652D01*
X166691328Y-81891328D01*
X166720717Y-81847344D01*
X166780638Y-81757666D01*
X166812000Y-81600000D01*
X166812000Y-79484914D01*
X166900000Y-79502418D01*
X167067233Y-79469153D01*
X167150000Y-79413850D01*
X167232767Y-79469153D01*
X167400000Y-79502418D01*
X167567233Y-79469153D01*
X167650000Y-79413850D01*
X167732767Y-79469153D01*
X167900000Y-79502418D01*
X168067233Y-79469153D01*
X168150000Y-79413850D01*
X168220936Y-79461248D01*
X168223355Y-79467739D01*
X168434723Y-79694881D01*
X168703684Y-79810056D01*
X168825000Y-79671743D01*
X168825000Y-79125746D01*
X168837000Y-79065418D01*
X168837000Y-78827000D01*
X168975000Y-78827000D01*
X168975000Y-79671743D01*
X169096316Y-79810056D01*
X169365277Y-79694881D01*
X169576645Y-79467739D01*
X169685000Y-79177000D01*
X169685000Y-78827000D01*
X168975000Y-78827000D01*
X168837000Y-78827000D01*
X168837000Y-78553000D01*
X168975000Y-78553000D01*
X168975000Y-78573000D01*
X169685000Y-78573000D01*
X169685000Y-78223000D01*
X169652949Y-78137000D01*
X169754344Y-78137000D01*
X169788000Y-78170656D01*
X169788000Y-79381862D01*
X169702656Y-79467057D01*
X169613102Y-79682726D01*
X169612898Y-79916249D01*
X169702075Y-80132074D01*
X169788000Y-80218149D01*
X169788000Y-89310739D01*
X169542614Y-89359549D01*
X169173745Y-89606020D01*
X168927274Y-89974889D01*
X168840725Y-90410000D01*
X168927274Y-90845111D01*
X169173745Y-91213980D01*
X169542614Y-91460451D01*
X169977725Y-91547000D01*
X170022275Y-91547000D01*
X170457386Y-91460451D01*
X170826255Y-91213980D01*
X171072726Y-90845111D01*
X171159275Y-90410000D01*
X171072726Y-89974889D01*
X170826255Y-89606020D01*
X170612000Y-89462859D01*
X170612000Y-80218138D01*
X170697344Y-80132943D01*
X170786898Y-79917274D01*
X170787102Y-79683751D01*
X170697925Y-79467926D01*
X170612000Y-79381851D01*
X170612000Y-78000000D01*
X170604760Y-77963604D01*
X170661248Y-77879064D01*
X170667739Y-77876645D01*
X170894881Y-77665277D01*
X171010056Y-77396316D01*
X170871743Y-77275000D01*
X170325746Y-77275000D01*
X170265418Y-77263000D01*
X169534582Y-77263000D01*
X169474254Y-77275000D01*
X168928257Y-77275000D01*
X168789944Y-77396316D01*
X168862178Y-77565000D01*
X168772998Y-77565000D01*
X168772998Y-77668969D01*
X168703684Y-77589944D01*
X168434723Y-77705119D01*
X168223355Y-77932261D01*
X168220936Y-77938752D01*
X168150000Y-77986150D01*
X168067233Y-77930847D01*
X167900000Y-77897582D01*
X167732767Y-77930847D01*
X167650000Y-77986150D01*
X167567233Y-77930847D01*
X167400000Y-77897582D01*
X167232767Y-77930847D01*
X167150000Y-77986150D01*
X167067233Y-77930847D01*
X166900000Y-77897582D01*
X166732767Y-77930847D01*
X166650000Y-77986150D01*
X166567233Y-77930847D01*
X166400000Y-77897582D01*
X166232767Y-77930847D01*
X166150000Y-77986150D01*
X166067233Y-77930847D01*
X165900000Y-77897582D01*
X165732767Y-77930847D01*
X165650000Y-77986150D01*
X165567233Y-77930847D01*
X165400000Y-77897582D01*
X165232767Y-77930847D01*
X165150000Y-77986150D01*
X165067233Y-77930847D01*
X164900000Y-77897582D01*
X164732767Y-77930847D01*
X164650000Y-77986150D01*
X164579064Y-77938752D01*
X164576645Y-77932261D01*
X164365277Y-77705119D01*
X164096316Y-77589944D01*
X163975000Y-77728257D01*
X163975000Y-78274254D01*
X163963000Y-78334582D01*
X163963000Y-78847000D01*
X163825000Y-78847000D01*
X163825000Y-78827000D01*
X163115000Y-78827000D01*
X163115000Y-79177000D01*
X163147066Y-79263041D01*
X162983751Y-79262898D01*
X162767926Y-79352075D01*
X162602656Y-79517057D01*
X162513102Y-79732726D01*
X162512898Y-79966249D01*
X162486990Y-79966249D01*
X162486990Y-79599994D01*
X162455629Y-79442329D01*
X162366318Y-79308666D01*
X161858924Y-78801272D01*
X162057107Y-78719385D01*
X162171710Y-78604981D01*
X162186206Y-78602098D01*
X162319868Y-78512788D01*
X162695656Y-78137000D01*
X163147051Y-78137000D01*
X163115000Y-78223000D01*
X163115000Y-78573000D01*
X163825000Y-78573000D01*
X163825000Y-77728257D01*
X163703684Y-77589944D01*
X163682344Y-77599082D01*
X163669153Y-77532767D01*
X163613850Y-77450000D01*
X163669153Y-77367233D01*
X163702418Y-77200000D01*
X163669153Y-77032767D01*
X163613850Y-76950000D01*
X163669153Y-76867233D01*
X163702418Y-76700000D01*
X163669153Y-76532767D01*
X163613850Y-76450000D01*
X163669153Y-76367233D01*
X163702418Y-76200000D01*
X163669153Y-76032767D01*
X163613850Y-75950000D01*
X163669153Y-75867233D01*
X163702418Y-75700000D01*
X163669153Y-75532767D01*
X163613850Y-75450000D01*
X163669153Y-75367233D01*
X163702418Y-75200000D01*
X163669153Y-75032767D01*
X163613850Y-74950000D01*
X163661248Y-74879064D01*
X163667739Y-74876645D01*
X163894881Y-74665277D01*
X164010056Y-74396316D01*
X163871743Y-74275000D01*
X163325746Y-74275000D01*
X163265418Y-74263000D01*
X162534582Y-74263000D01*
X162474254Y-74275000D01*
X161928257Y-74275000D01*
X161913436Y-74288000D01*
X161857079Y-74288000D01*
X161777729Y-74208650D01*
X161760808Y-74197344D01*
X161644067Y-74119340D01*
X161607167Y-74112000D01*
X161913436Y-74112000D01*
X161928257Y-74125000D01*
X162474254Y-74125000D01*
X162534582Y-74137000D01*
X163265418Y-74137000D01*
X163325746Y-74125000D01*
X163871743Y-74125000D01*
X164010056Y-74003684D01*
X163894881Y-73734723D01*
X163667739Y-73523355D01*
X163661248Y-73520936D01*
X163613850Y-73450000D01*
X163669153Y-73367233D01*
X163702418Y-73200000D01*
X163669153Y-73032767D01*
X163613850Y-72950000D01*
X163669153Y-72867233D01*
X163702418Y-72700000D01*
X163669153Y-72532767D01*
X163574424Y-72390994D01*
X163432651Y-72296265D01*
X163265418Y-72263000D01*
X162695656Y-72263000D01*
X162544656Y-72112000D01*
X163472266Y-72112000D01*
X163496265Y-72232651D01*
X163590994Y-72374424D01*
X163732767Y-72469153D01*
X163900000Y-72502418D01*
X164067233Y-72469153D01*
X164150000Y-72413850D01*
X164232767Y-72469153D01*
X164400000Y-72502418D01*
X164567233Y-72469153D01*
X164650000Y-72413850D01*
X164732767Y-72469153D01*
X164900000Y-72502418D01*
X165067233Y-72469153D01*
X165150000Y-72413850D01*
X165232767Y-72469153D01*
X165400000Y-72502418D01*
X165567233Y-72469153D01*
X165650000Y-72413850D01*
X165732767Y-72469153D01*
X165900000Y-72502418D01*
X166067233Y-72469153D01*
X166150000Y-72413850D01*
X166220936Y-72461248D01*
X166223355Y-72467739D01*
X166434723Y-72694881D01*
X166703684Y-72810056D01*
X166825000Y-72671743D01*
X166825000Y-72125746D01*
X166837000Y-72065418D01*
X166837000Y-71553000D01*
X166963000Y-71553000D01*
X166963000Y-72065418D01*
X166975000Y-72125746D01*
X166975000Y-72671743D01*
X167096316Y-72810056D01*
X167365277Y-72694881D01*
X167576645Y-72467739D01*
X167579064Y-72461248D01*
X167650000Y-72413850D01*
X167732767Y-72469153D01*
X167900000Y-72502418D01*
X168067233Y-72469153D01*
X168150000Y-72413850D01*
X168232767Y-72469153D01*
X168400000Y-72502418D01*
X168567233Y-72469153D01*
X168650000Y-72413850D01*
X168732767Y-72469153D01*
X168900000Y-72502418D01*
X169067233Y-72469153D01*
X169209006Y-72374424D01*
X169303735Y-72232651D01*
X169337000Y-72065418D01*
X169337000Y-71695656D01*
X169341328Y-71691328D01*
X169362859Y-71659105D01*
X169488000Y-71784246D01*
X169488000Y-72272266D01*
X169367349Y-72296265D01*
X169225576Y-72390994D01*
X169138752Y-72520936D01*
X169132261Y-72523355D01*
X168905119Y-72734723D01*
X168789944Y-73003684D01*
X168928257Y-73125000D01*
X169474254Y-73125000D01*
X169534582Y-73137000D01*
X170047000Y-73137000D01*
X170047000Y-73263000D01*
X169534582Y-73263000D01*
X169474254Y-73275000D01*
X168928257Y-73275000D01*
X168789944Y-73396316D01*
X168905119Y-73665277D01*
X169132261Y-73876645D01*
X169138752Y-73879064D01*
X169186150Y-73950000D01*
X169130847Y-74032767D01*
X169097582Y-74200000D01*
X169130847Y-74367233D01*
X169186150Y-74450000D01*
X169130847Y-74532767D01*
X169097582Y-74700000D01*
X169130847Y-74867233D01*
X169186150Y-74950000D01*
X169130847Y-75032767D01*
X169097582Y-75200000D01*
X169130847Y-75367233D01*
X169186150Y-75450000D01*
X169130847Y-75532767D01*
X169097582Y-75700000D01*
X169130847Y-75867233D01*
X169186150Y-75950000D01*
X169130847Y-76032767D01*
X169097582Y-76200000D01*
X169130847Y-76367233D01*
X169186150Y-76450000D01*
X169138752Y-76520936D01*
X169132261Y-76523355D01*
X168905119Y-76734723D01*
X168789944Y-77003684D01*
X168928257Y-77125000D01*
X169474254Y-77125000D01*
X169534582Y-77137000D01*
X170265418Y-77137000D01*
X170325746Y-77125000D01*
X170871743Y-77125000D01*
X171010056Y-77003684D01*
X170894881Y-76734723D01*
X170667739Y-76523355D01*
X170661248Y-76520936D01*
X170613850Y-76450000D01*
X170669153Y-76367233D01*
X170702418Y-76200000D01*
X170669153Y-76032767D01*
X170613850Y-75950000D01*
X170669153Y-75867233D01*
X170702418Y-75700000D01*
X170669153Y-75532767D01*
X170613850Y-75450000D01*
X170669153Y-75367233D01*
X170702418Y-75200000D01*
X170684914Y-75112000D01*
X170929344Y-75112000D01*
X171257378Y-75440034D01*
X171257378Y-76350000D01*
X171277390Y-76456356D01*
X171340246Y-76554037D01*
X171436154Y-76619568D01*
X171550000Y-76642622D01*
X172450000Y-76642622D01*
X172556356Y-76622610D01*
X172654037Y-76559754D01*
X172719568Y-76463846D01*
X172742622Y-76350000D01*
X172742622Y-75150000D01*
X172722610Y-75043644D01*
X172659754Y-74945963D01*
X172563846Y-74880432D01*
X172450000Y-74857378D01*
X171840034Y-74857378D01*
X171541013Y-74558357D01*
X171641328Y-74491328D01*
X171690034Y-74442622D01*
X172450000Y-74442622D01*
X172556356Y-74422610D01*
X172654037Y-74359754D01*
X172719568Y-74263846D01*
X172742622Y-74150000D01*
X172742622Y-72950000D01*
X172722610Y-72843644D01*
X172659754Y-72745963D01*
X172563846Y-72680432D01*
X172450000Y-72657378D01*
X171550000Y-72657378D01*
X171443644Y-72677390D01*
X171345963Y-72740246D01*
X171280432Y-72836154D01*
X171257378Y-72950000D01*
X171257378Y-73709966D01*
X171179344Y-73788000D01*
X171102077Y-73788000D01*
X171105648Y-73782656D01*
X171137010Y-73624990D01*
X171137010Y-70550010D01*
X171105648Y-70392344D01*
X171016338Y-70258682D01*
X167817622Y-67059966D01*
X167817622Y-66350000D01*
X167797610Y-66243644D01*
X167734754Y-66145963D01*
X167638846Y-66080432D01*
X167525000Y-66057378D01*
X166275000Y-66057378D01*
X166168644Y-66077390D01*
X166070963Y-66140246D01*
X166005432Y-66236154D01*
X165982378Y-66350000D01*
X165982378Y-67265485D01*
X164270227Y-65553334D01*
X164270227Y-65135750D01*
X165640000Y-65135750D01*
X165640000Y-65476309D01*
X165736673Y-65709698D01*
X165915301Y-65888327D01*
X166148690Y-65985000D01*
X166614250Y-65985000D01*
X166773000Y-65826250D01*
X166773000Y-64977000D01*
X167027000Y-64977000D01*
X167027000Y-65826250D01*
X167185750Y-65985000D01*
X167651310Y-65985000D01*
X167884699Y-65888327D01*
X168063327Y-65709698D01*
X168160000Y-65476309D01*
X168160000Y-65135750D01*
X168001250Y-64977000D01*
X167027000Y-64977000D01*
X166773000Y-64977000D01*
X165798750Y-64977000D01*
X165640000Y-65135750D01*
X164270227Y-65135750D01*
X164270227Y-64223691D01*
X165640000Y-64223691D01*
X165640000Y-64564250D01*
X165798750Y-64723000D01*
X166773000Y-64723000D01*
X166773000Y-63873750D01*
X167027000Y-63873750D01*
X167027000Y-64723000D01*
X168001250Y-64723000D01*
X168160000Y-64564250D01*
X168160000Y-64223691D01*
X168063327Y-63990302D01*
X167884699Y-63811673D01*
X167651310Y-63715000D01*
X167185750Y-63715000D01*
X167027000Y-63873750D01*
X166773000Y-63873750D01*
X166614250Y-63715000D01*
X166148690Y-63715000D01*
X165915301Y-63811673D01*
X165736673Y-63990302D01*
X165640000Y-64223691D01*
X164270227Y-64223691D01*
X164270227Y-59926357D01*
X164552213Y-60083078D01*
X164674604Y-60011015D01*
X164999656Y-60011015D01*
X165145326Y-60187660D01*
X165573615Y-60119332D01*
X165943155Y-59892306D01*
X166189004Y-59556005D01*
X166094076Y-59365692D01*
X165143013Y-59197994D01*
X164999656Y-60011015D01*
X164674604Y-60011015D01*
X164749515Y-59966908D01*
X164892872Y-59153887D01*
X164873176Y-59150414D01*
X164908893Y-58947853D01*
X165187120Y-58947853D01*
X166138182Y-59115551D01*
X166292477Y-58969182D01*
X166176476Y-58569077D01*
X165906870Y-58229352D01*
X165527779Y-58018662D01*
X165330477Y-58134832D01*
X165187120Y-58947853D01*
X164908893Y-58947853D01*
X164917283Y-58900273D01*
X164936979Y-58903746D01*
X165080336Y-58090725D01*
X164934666Y-57914080D01*
X164506377Y-57982408D01*
X164408715Y-58042407D01*
X164331328Y-57966773D01*
X164223214Y-57924300D01*
X163829291Y-57854841D01*
X163721076Y-57856080D01*
X163701734Y-57864195D01*
X163691203Y-57853902D01*
X163583089Y-57811429D01*
X163189166Y-57741970D01*
X163080951Y-57743209D01*
X163061610Y-57751324D01*
X163051078Y-57741030D01*
X162942964Y-57698557D01*
X162549041Y-57629098D01*
X162440826Y-57630337D01*
X162421484Y-57638452D01*
X162410953Y-57628159D01*
X162302839Y-57585686D01*
X162220225Y-57571119D01*
X162204511Y-57500238D01*
X162059615Y-57293304D01*
X161846559Y-57157572D01*
X161780025Y-57145840D01*
X161596120Y-57274612D01*
X161418261Y-58283301D01*
X161464547Y-58291463D01*
X161420440Y-58541604D01*
X161374154Y-58533442D01*
X161196295Y-59542132D01*
X161325066Y-59726036D01*
X161391601Y-59737768D01*
X161638231Y-59683092D01*
X161845164Y-59538195D01*
X161884174Y-59476962D01*
X161966788Y-59491529D01*
X162075003Y-59490290D01*
X162094345Y-59482175D01*
X162104876Y-59492468D01*
X162165977Y-59516472D01*
X162165977Y-61651367D01*
X161338619Y-62478725D01*
X161322610Y-62393644D01*
X161259754Y-62295963D01*
X161163846Y-62230432D01*
X161050000Y-62207378D01*
X160150000Y-62207378D01*
X160043644Y-62227390D01*
X159945963Y-62290246D01*
X159880432Y-62386154D01*
X159857378Y-62500000D01*
X159857378Y-63700000D01*
X159877390Y-63806356D01*
X159940246Y-63904037D01*
X160036154Y-63969568D01*
X160150000Y-63992622D01*
X161050000Y-63992622D01*
X161156356Y-63972610D01*
X161254037Y-63909754D01*
X161319568Y-63813846D01*
X161342622Y-63700000D01*
X161342622Y-63503522D01*
X161457666Y-63480638D01*
X161591328Y-63391328D01*
X162107378Y-62875278D01*
X162107378Y-63700000D01*
X162127390Y-63806356D01*
X162190246Y-63904037D01*
X162286154Y-63969568D01*
X162400000Y-63992622D01*
X163300000Y-63992622D01*
X163406356Y-63972610D01*
X163446227Y-63946954D01*
X163446227Y-64452557D01*
X163413846Y-64430432D01*
X163300000Y-64407378D01*
X162400000Y-64407378D01*
X162293644Y-64427390D01*
X162195963Y-64490246D01*
X162130432Y-64586154D01*
X162107378Y-64700000D01*
X162107378Y-65900000D01*
X162127390Y-66006356D01*
X162190246Y-66104037D01*
X162286154Y-66169568D01*
X162400000Y-66192622D01*
X163009966Y-66192622D01*
X163258672Y-66441328D01*
X163392334Y-66530638D01*
X163459086Y-66543916D01*
X165103137Y-68187967D01*
X164770623Y-68187967D01*
X163541328Y-66958672D01*
X163540628Y-66958204D01*
X163407666Y-66869362D01*
X163250000Y-66838000D01*
X161870656Y-66838000D01*
X161186116Y-66153460D01*
X161254037Y-66109754D01*
X161319568Y-66013846D01*
X161342622Y-65900000D01*
X161342622Y-64700000D01*
X161322610Y-64593644D01*
X161259754Y-64495963D01*
X161163846Y-64430432D01*
X161050000Y-64407378D01*
X160150000Y-64407378D01*
X160043644Y-64427390D01*
X159945963Y-64490246D01*
X159880432Y-64586154D01*
X159857378Y-64700000D01*
X159857378Y-65501902D01*
X157414148Y-63058672D01*
X157361099Y-63023226D01*
X157280486Y-62969362D01*
X157122820Y-62938000D01*
X155967622Y-62938000D01*
X155967622Y-62850000D01*
X155947610Y-62743644D01*
X155884754Y-62645963D01*
X155788846Y-62580432D01*
X155675000Y-62557378D01*
X154425000Y-62557378D01*
X154318644Y-62577390D01*
X154220963Y-62640246D01*
X154155432Y-62736154D01*
X154132378Y-62850000D01*
X154132378Y-63850000D01*
X154152390Y-63956356D01*
X154215246Y-64054037D01*
X154311154Y-64119568D01*
X154425000Y-64142622D01*
X155675000Y-64142622D01*
X155781356Y-64122610D01*
X155879037Y-64059754D01*
X155944568Y-63963846D01*
X155967622Y-63850000D01*
X155967622Y-63762000D01*
X156952164Y-63762000D01*
X157428153Y-64237989D01*
X152655143Y-64237989D01*
X152497477Y-64269351D01*
X152363815Y-64358661D01*
X151227180Y-65495296D01*
X151138720Y-61635750D01*
X153790000Y-61635750D01*
X153790000Y-61976309D01*
X153886673Y-62209698D01*
X154065301Y-62388327D01*
X154298690Y-62485000D01*
X154764250Y-62485000D01*
X154923000Y-62326250D01*
X154923000Y-61477000D01*
X155177000Y-61477000D01*
X155177000Y-62326250D01*
X155335750Y-62485000D01*
X155801310Y-62485000D01*
X156034699Y-62388327D01*
X156213327Y-62209698D01*
X156310000Y-61976309D01*
X156310000Y-61635750D01*
X156151250Y-61477000D01*
X155177000Y-61477000D01*
X154923000Y-61477000D01*
X153948750Y-61477000D01*
X153790000Y-61635750D01*
X151138720Y-61635750D01*
X151117816Y-60723691D01*
X153790000Y-60723691D01*
X153790000Y-61064250D01*
X153948750Y-61223000D01*
X154923000Y-61223000D01*
X154923000Y-60373750D01*
X155177000Y-60373750D01*
X155177000Y-61223000D01*
X156151250Y-61223000D01*
X156310000Y-61064250D01*
X156310000Y-60723691D01*
X156213327Y-60490302D01*
X156034699Y-60311673D01*
X155801310Y-60215000D01*
X155335750Y-60215000D01*
X155177000Y-60373750D01*
X154923000Y-60373750D01*
X154764250Y-60215000D01*
X154298690Y-60215000D01*
X154065301Y-60311673D01*
X153886673Y-60490302D01*
X153790000Y-60723691D01*
X151117816Y-60723691D01*
X151094214Y-59693901D01*
X161142819Y-59693901D01*
X161325067Y-59726037D01*
X161325066Y-59726036D01*
X161142819Y-59693901D01*
X151094214Y-59693901D01*
X151061447Y-58264317D01*
X158863477Y-58264317D01*
X158979478Y-58664422D01*
X159249084Y-59004147D01*
X159628175Y-59214837D01*
X159750566Y-59142774D01*
X160075618Y-59142774D01*
X160221288Y-59319419D01*
X160397605Y-59291290D01*
X160535839Y-59488710D01*
X160748895Y-59624442D01*
X160815429Y-59636174D01*
X160999334Y-59507402D01*
X161105362Y-58906090D01*
X161264966Y-58687764D01*
X161175489Y-58508379D01*
X161177193Y-58498713D01*
X161170038Y-58497451D01*
X160218975Y-58329753D01*
X160075618Y-59142774D01*
X159750566Y-59142774D01*
X159825477Y-59098667D01*
X159968834Y-58285646D01*
X159017772Y-58117948D01*
X158863477Y-58264317D01*
X151061447Y-58264317D01*
X151057214Y-58079612D01*
X160263082Y-58079612D01*
X160653804Y-58148507D01*
X161221300Y-58248572D01*
X161223005Y-58238905D01*
X161368439Y-58100941D01*
X161293132Y-57841194D01*
X161399159Y-57239882D01*
X161270388Y-57055978D01*
X161270383Y-57055977D01*
X161270387Y-57055977D01*
X161270388Y-57055978D01*
X161452635Y-57088113D01*
X161270387Y-57055977D01*
X161270383Y-57055977D01*
X161203853Y-57044246D01*
X160957223Y-57098922D01*
X160759804Y-57237157D01*
X160603741Y-57150421D01*
X160406439Y-57266591D01*
X160263082Y-58079612D01*
X151057214Y-58079612D01*
X151047997Y-57677494D01*
X158966950Y-57677494D01*
X159061878Y-57867807D01*
X160012941Y-58035505D01*
X160156298Y-57222484D01*
X160010628Y-57045839D01*
X159582339Y-57114167D01*
X159212799Y-57341193D01*
X158966950Y-57677494D01*
X151047997Y-57677494D01*
X151027067Y-56764339D01*
X165306091Y-56764339D01*
X165365293Y-57206007D01*
X165589008Y-57591400D01*
X165958621Y-57861436D01*
X166061544Y-57811661D01*
X166402888Y-57811661D01*
X166553197Y-57966276D01*
X166869466Y-57874681D01*
X169412760Y-57874681D01*
X169623473Y-58384646D01*
X170013302Y-58775156D01*
X170522898Y-58986759D01*
X171074681Y-58987240D01*
X171584646Y-58776527D01*
X171975156Y-58386698D01*
X172186759Y-57877102D01*
X172187240Y-57325319D01*
X171976527Y-56815354D01*
X171586698Y-56424844D01*
X171077102Y-56213241D01*
X170525319Y-56212760D01*
X170015354Y-56423473D01*
X169624844Y-56813302D01*
X169413241Y-57322898D01*
X169412760Y-57874681D01*
X166869466Y-57874681D01*
X166992877Y-57838940D01*
X167334913Y-57553304D01*
X167541604Y-57158520D01*
X167589357Y-56887698D01*
X166596671Y-56712661D01*
X166402888Y-57811661D01*
X166061544Y-57811661D01*
X166152747Y-57767554D01*
X166346530Y-56668554D01*
X165353844Y-56493517D01*
X165306091Y-56764339D01*
X151027067Y-56764339D01*
X150996361Y-55424681D01*
X153462760Y-55424681D01*
X153673473Y-55934646D01*
X154063302Y-56325156D01*
X154572898Y-56536759D01*
X155124681Y-56537240D01*
X155634646Y-56326527D01*
X156025156Y-55936698D01*
X156186224Y-55548802D01*
X158412437Y-55548802D01*
X158471639Y-55990470D01*
X158695354Y-56375863D01*
X159064967Y-56645899D01*
X159167890Y-56596124D01*
X159509234Y-56596124D01*
X159659543Y-56750739D01*
X160099223Y-56623403D01*
X160291873Y-56462520D01*
X166640778Y-56462520D01*
X167633464Y-56637557D01*
X167681217Y-56366735D01*
X167622015Y-55925067D01*
X167398300Y-55539674D01*
X167028687Y-55269638D01*
X166834561Y-55363520D01*
X166640778Y-56462520D01*
X160291873Y-56462520D01*
X160441259Y-56337767D01*
X160490677Y-56243376D01*
X165397951Y-56243376D01*
X166390637Y-56418413D01*
X166584420Y-55319413D01*
X166434111Y-55164798D01*
X165994431Y-55292134D01*
X165652395Y-55577770D01*
X165445704Y-55972554D01*
X165397951Y-56243376D01*
X160490677Y-56243376D01*
X160647950Y-55942983D01*
X160695703Y-55672161D01*
X159703017Y-55497124D01*
X159509234Y-56596124D01*
X159167890Y-56596124D01*
X159259093Y-56552017D01*
X159452876Y-55453017D01*
X158460190Y-55277980D01*
X158412437Y-55548802D01*
X156186224Y-55548802D01*
X156236759Y-55427102D01*
X156236915Y-55246983D01*
X159747124Y-55246983D01*
X160739810Y-55422020D01*
X160787563Y-55151198D01*
X160728361Y-54709530D01*
X160504646Y-54324137D01*
X160135033Y-54054101D01*
X159940907Y-54147983D01*
X159747124Y-55246983D01*
X156236915Y-55246983D01*
X156237107Y-55027839D01*
X158504297Y-55027839D01*
X159496983Y-55202876D01*
X159690766Y-54103876D01*
X159540457Y-53949261D01*
X159100777Y-54076597D01*
X158758741Y-54362233D01*
X158552050Y-54757017D01*
X158504297Y-55027839D01*
X156237107Y-55027839D01*
X156237240Y-54875319D01*
X156026527Y-54365354D01*
X155636698Y-53974844D01*
X155127102Y-53763241D01*
X154575319Y-53762760D01*
X154065354Y-53973473D01*
X153674844Y-54363302D01*
X153463241Y-54872898D01*
X153462760Y-55424681D01*
X150996361Y-55424681D01*
X150930358Y-52545022D01*
X172972405Y-55411477D01*
G36*
X150526724Y-52573376D02*
X150932017Y-65790459D01*
X150731907Y-65990569D01*
X150611317Y-65990464D01*
X150395492Y-66079641D01*
X150230222Y-66244623D01*
X150140668Y-66460292D01*
X150140464Y-66693815D01*
X150229641Y-66909640D01*
X150394623Y-67074910D01*
X150509871Y-67122765D01*
X150317926Y-67202075D01*
X150152656Y-67367057D01*
X150063102Y-67582726D01*
X150062898Y-67816249D01*
X150152075Y-68032074D01*
X150317057Y-68197344D01*
X150532726Y-68286898D01*
X150766249Y-68287102D01*
X150982074Y-68197925D01*
X151005135Y-68174904D01*
X151121547Y-71971232D01*
X151133062Y-72020312D01*
X151162765Y-72061045D01*
X151205976Y-72087013D01*
X151255885Y-72094123D01*
X151304628Y-72081256D01*
X151344525Y-72050439D01*
X151369290Y-72006528D01*
X151375454Y-71964429D01*
X151357607Y-71185750D01*
X152490000Y-71185750D01*
X152490000Y-71526309D01*
X152586673Y-71759698D01*
X152765301Y-71938327D01*
X152998690Y-72035000D01*
X153464250Y-72035000D01*
X153623000Y-71876250D01*
X153623000Y-71027000D01*
X152648750Y-71027000D01*
X152490000Y-71185750D01*
X151357607Y-71185750D01*
X151336703Y-70273691D01*
X152490000Y-70273691D01*
X152490000Y-70614250D01*
X152648750Y-70773000D01*
X153623000Y-70773000D01*
X153623000Y-69923750D01*
X153464250Y-69765000D01*
X152998690Y-69765000D01*
X152765301Y-69861673D01*
X152586673Y-70040302D01*
X152490000Y-70273691D01*
X151336703Y-70273691D01*
X151276703Y-67655953D01*
X153076351Y-65856305D01*
X153057378Y-65950000D01*
X153057378Y-67150000D01*
X153077390Y-67256356D01*
X153140246Y-67354037D01*
X153236154Y-67419568D01*
X153350000Y-67442622D01*
X153959966Y-67442622D01*
X155538000Y-69020656D01*
X155538000Y-70078522D01*
X155491328Y-70008672D01*
X154542622Y-69059966D01*
X154542622Y-68150000D01*
X154522610Y-68043644D01*
X154459754Y-67945963D01*
X154363846Y-67880432D01*
X154250000Y-67857378D01*
X153350000Y-67857378D01*
X153243644Y-67877390D01*
X153145963Y-67940246D01*
X153080432Y-68036154D01*
X153057378Y-68150000D01*
X153057378Y-69350000D01*
X153077390Y-69456356D01*
X153140246Y-69554037D01*
X153236154Y-69619568D01*
X153350000Y-69642622D01*
X153959966Y-69642622D01*
X154082344Y-69765000D01*
X154035750Y-69765000D01*
X153877000Y-69923750D01*
X153877000Y-70773000D01*
X153897000Y-70773000D01*
X153897000Y-71027000D01*
X153877000Y-71027000D01*
X153877000Y-71876250D01*
X154035750Y-72035000D01*
X154501310Y-72035000D01*
X154734699Y-71938327D01*
X154897867Y-71775158D01*
X154908672Y-71791328D01*
X157108672Y-73991328D01*
X157242335Y-74080639D01*
X157400000Y-74112000D01*
X160081862Y-74112000D01*
X160167057Y-74197344D01*
X160214060Y-74216861D01*
X160142921Y-74288000D01*
X155845656Y-74288000D01*
X154667622Y-73109966D01*
X154667622Y-72400000D01*
X154647610Y-72293644D01*
X154584754Y-72195963D01*
X154488846Y-72130432D01*
X154375000Y-72107378D01*
X153125000Y-72107378D01*
X153018644Y-72127390D01*
X152920963Y-72190246D01*
X152855432Y-72286154D01*
X152832378Y-72400000D01*
X152832378Y-73400000D01*
X152852390Y-73506356D01*
X152915246Y-73604037D01*
X153011154Y-73669568D01*
X153125000Y-73692622D01*
X154084966Y-73692622D01*
X154157344Y-73765000D01*
X153935750Y-73765000D01*
X153777000Y-73923750D01*
X153777000Y-74773000D01*
X154751250Y-74773000D01*
X154910000Y-74614250D01*
X154910000Y-74517656D01*
X155263000Y-74870656D01*
X155263000Y-76725000D01*
X155294362Y-76882666D01*
X155311739Y-76908672D01*
X155383672Y-77016328D01*
X155438000Y-77070656D01*
X155438000Y-79007378D01*
X154800000Y-79007378D01*
X154693644Y-79027390D01*
X154595963Y-79090246D01*
X154530432Y-79186154D01*
X154507378Y-79300000D01*
X154507378Y-84900000D01*
X154527390Y-85006356D01*
X154590246Y-85104037D01*
X154686154Y-85169568D01*
X154800000Y-85192622D01*
X156900000Y-85192622D01*
X157006356Y-85172610D01*
X157104037Y-85109754D01*
X157169568Y-85013846D01*
X157192622Y-84900000D01*
X157192622Y-79300000D01*
X157172610Y-79193644D01*
X157109754Y-79095963D01*
X157013846Y-79030432D01*
X156900000Y-79007378D01*
X156262000Y-79007378D01*
X156262000Y-76900000D01*
X156230638Y-76742334D01*
X156141328Y-76608672D01*
X156087000Y-76554344D01*
X156087000Y-75112000D01*
X159955332Y-75112000D01*
X159158663Y-75908669D01*
X159069353Y-76042331D01*
X159037991Y-76199997D01*
X159037991Y-85079353D01*
X156609966Y-87507378D01*
X154800000Y-87507378D01*
X154693644Y-87527390D01*
X154595963Y-87590246D01*
X154530432Y-87686154D01*
X154507378Y-87800000D01*
X154507378Y-89974722D01*
X154062000Y-89529344D01*
X154062000Y-77692622D01*
X154275000Y-77692622D01*
X154381356Y-77672610D01*
X154479037Y-77609754D01*
X154544568Y-77513846D01*
X154567622Y-77400000D01*
X154567622Y-76400000D01*
X154547610Y-76293644D01*
X154484754Y-76195963D01*
X154388846Y-76130432D01*
X154275000Y-76107378D01*
X153025000Y-76107378D01*
X152918644Y-76127390D01*
X152820963Y-76190246D01*
X152755432Y-76286154D01*
X152732378Y-76400000D01*
X152732378Y-77400000D01*
X152752390Y-77506356D01*
X152815246Y-77604037D01*
X152911154Y-77669568D01*
X153025000Y-77692622D01*
X153238000Y-77692622D01*
X153238000Y-89700000D01*
X153269362Y-89857666D01*
X153310125Y-89918672D01*
X153358672Y-89991328D01*
X154258672Y-90891328D01*
X154392334Y-90980638D01*
X154507378Y-91003522D01*
X154507378Y-93400000D01*
X154527390Y-93506356D01*
X154590246Y-93604037D01*
X154686154Y-93669568D01*
X154800000Y-93692622D01*
X156900000Y-93692622D01*
X157006356Y-93672610D01*
X157104037Y-93609754D01*
X157169568Y-93513846D01*
X157192622Y-93400000D01*
X157192622Y-88090034D01*
X159741319Y-85541337D01*
X159788001Y-85471472D01*
X159788001Y-111320928D01*
X152274178Y-111175382D01*
X152273207Y-111133027D01*
X152262071Y-111083859D01*
X152232684Y-111042897D01*
X152189676Y-111016596D01*
X152152113Y-111009073D01*
X147178352Y-110778806D01*
X147260819Y-103344975D01*
X148312786Y-103344975D01*
X148500711Y-103799789D01*
X148848381Y-104148066D01*
X149302866Y-104336785D01*
X149794975Y-104337214D01*
X150249789Y-104149289D01*
X150598066Y-103801619D01*
X150786785Y-103347134D01*
X150787214Y-102855025D01*
X150599289Y-102400211D01*
X150251619Y-102051934D01*
X149797134Y-101863215D01*
X149305025Y-101862786D01*
X148850211Y-102050711D01*
X148501934Y-102398381D01*
X148313215Y-102852866D01*
X148312786Y-103344975D01*
X147260819Y-103344975D01*
X147471595Y-84344975D01*
X148312786Y-84344975D01*
X148500711Y-84799789D01*
X148848381Y-85148066D01*
X149302866Y-85336785D01*
X149794975Y-85337214D01*
X150249789Y-85149289D01*
X150598066Y-84801619D01*
X150786785Y-84347134D01*
X150787214Y-83855025D01*
X150599289Y-83400211D01*
X150251619Y-83051934D01*
X149797134Y-82863215D01*
X149305025Y-82862786D01*
X148850211Y-83050711D01*
X148501934Y-83398381D01*
X148313215Y-83852866D01*
X148312786Y-84344975D01*
X147471595Y-84344975D01*
X147526992Y-79351409D01*
X147526999Y-79349530D01*
X147511304Y-75112000D01*
X147881862Y-75112000D01*
X147967057Y-75197344D01*
X148182726Y-75286898D01*
X148416249Y-75287102D01*
X148632074Y-75197925D01*
X148644270Y-75185750D01*
X152390000Y-75185750D01*
X152390000Y-75526309D01*
X152486673Y-75759698D01*
X152665301Y-75938327D01*
X152898690Y-76035000D01*
X153364250Y-76035000D01*
X153523000Y-75876250D01*
X153523000Y-75027000D01*
X153777000Y-75027000D01*
X153777000Y-75876250D01*
X153935750Y-76035000D01*
X154401310Y-76035000D01*
X154634699Y-75938327D01*
X154813327Y-75759698D01*
X154910000Y-75526309D01*
X154910000Y-75185750D01*
X154751250Y-75027000D01*
X153777000Y-75027000D01*
X153523000Y-75027000D01*
X152548750Y-75027000D01*
X152390000Y-75185750D01*
X148644270Y-75185750D01*
X148797344Y-75032943D01*
X148886898Y-74817274D01*
X148887102Y-74583751D01*
X148797925Y-74367926D01*
X148703855Y-74273691D01*
X152390000Y-74273691D01*
X152390000Y-74614250D01*
X152548750Y-74773000D01*
X153523000Y-74773000D01*
X153523000Y-73923750D01*
X153364250Y-73765000D01*
X152898690Y-73765000D01*
X152665301Y-73861673D01*
X152486673Y-74040302D01*
X152390000Y-74273691D01*
X148703855Y-74273691D01*
X148632943Y-74202656D01*
X148417274Y-74113102D01*
X148183751Y-74112898D01*
X147967926Y-74202075D01*
X147881851Y-74288000D01*
X147508253Y-74288000D01*
X147475131Y-65344975D01*
X148312786Y-65344975D01*
X148500711Y-65799789D01*
X148848381Y-66148066D01*
X149302866Y-66336785D01*
X149794975Y-66337214D01*
X150249789Y-66149289D01*
X150598066Y-65801619D01*
X150786785Y-65347134D01*
X150787214Y-64855025D01*
X150599289Y-64400211D01*
X150251619Y-64051934D01*
X149797134Y-63863215D01*
X149305025Y-63862786D01*
X148850211Y-64050711D01*
X148501934Y-64398381D01*
X148313215Y-64852866D01*
X148312786Y-65344975D01*
X147475131Y-65344975D01*
X147427485Y-52480862D01*
X150526724Y-52573376D01*
X150526724Y-52573376D01*
G37*
X150526724Y-52573376D02*
X150932017Y-65790459D01*
X150731907Y-65990569D01*
X150611317Y-65990464D01*
X150395492Y-66079641D01*
X150230222Y-66244623D01*
X150140668Y-66460292D01*
X150140464Y-66693815D01*
X150229641Y-66909640D01*
X150394623Y-67074910D01*
X150509871Y-67122765D01*
X150317926Y-67202075D01*
X150152656Y-67367057D01*
X150063102Y-67582726D01*
X150062898Y-67816249D01*
X150152075Y-68032074D01*
X150317057Y-68197344D01*
X150532726Y-68286898D01*
X150766249Y-68287102D01*
X150982074Y-68197925D01*
X151005135Y-68174904D01*
X151121547Y-71971232D01*
X151133062Y-72020312D01*
X151162765Y-72061045D01*
X151205976Y-72087013D01*
X151255885Y-72094123D01*
X151304628Y-72081256D01*
X151344525Y-72050439D01*
X151369290Y-72006528D01*
X151375454Y-71964429D01*
X151357607Y-71185750D01*
X152490000Y-71185750D01*
X152490000Y-71526309D01*
X152586673Y-71759698D01*
X152765301Y-71938327D01*
X152998690Y-72035000D01*
X153464250Y-72035000D01*
X153623000Y-71876250D01*
X153623000Y-71027000D01*
X152648750Y-71027000D01*
X152490000Y-71185750D01*
X151357607Y-71185750D01*
X151336703Y-70273691D01*
X152490000Y-70273691D01*
X152490000Y-70614250D01*
X152648750Y-70773000D01*
X153623000Y-70773000D01*
X153623000Y-69923750D01*
X153464250Y-69765000D01*
X152998690Y-69765000D01*
X152765301Y-69861673D01*
X152586673Y-70040302D01*
X152490000Y-70273691D01*
X151336703Y-70273691D01*
X151276703Y-67655953D01*
X153076351Y-65856305D01*
X153057378Y-65950000D01*
X153057378Y-67150000D01*
X153077390Y-67256356D01*
X153140246Y-67354037D01*
X153236154Y-67419568D01*
X153350000Y-67442622D01*
X153959966Y-67442622D01*
X155538000Y-69020656D01*
X155538000Y-70078522D01*
X155491328Y-70008672D01*
X154542622Y-69059966D01*
X154542622Y-68150000D01*
X154522610Y-68043644D01*
X154459754Y-67945963D01*
X154363846Y-67880432D01*
X154250000Y-67857378D01*
X153350000Y-67857378D01*
X153243644Y-67877390D01*
X153145963Y-67940246D01*
X153080432Y-68036154D01*
X153057378Y-68150000D01*
X153057378Y-69350000D01*
X153077390Y-69456356D01*
X153140246Y-69554037D01*
X153236154Y-69619568D01*
X153350000Y-69642622D01*
X153959966Y-69642622D01*
X154082344Y-69765000D01*
X154035750Y-69765000D01*
X153877000Y-69923750D01*
X153877000Y-70773000D01*
X153897000Y-70773000D01*
X153897000Y-71027000D01*
X153877000Y-71027000D01*
X153877000Y-71876250D01*
X154035750Y-72035000D01*
X154501310Y-72035000D01*
X154734699Y-71938327D01*
X154897867Y-71775158D01*
X154908672Y-71791328D01*
X157108672Y-73991328D01*
X157242335Y-74080639D01*
X157400000Y-74112000D01*
X160081862Y-74112000D01*
X160167057Y-74197344D01*
X160214060Y-74216861D01*
X160142921Y-74288000D01*
X155845656Y-74288000D01*
X154667622Y-73109966D01*
X154667622Y-72400000D01*
X154647610Y-72293644D01*
X154584754Y-72195963D01*
X154488846Y-72130432D01*
X154375000Y-72107378D01*
X153125000Y-72107378D01*
X153018644Y-72127390D01*
X152920963Y-72190246D01*
X152855432Y-72286154D01*
X152832378Y-72400000D01*
X152832378Y-73400000D01*
X152852390Y-73506356D01*
X152915246Y-73604037D01*
X153011154Y-73669568D01*
X153125000Y-73692622D01*
X154084966Y-73692622D01*
X154157344Y-73765000D01*
X153935750Y-73765000D01*
X153777000Y-73923750D01*
X153777000Y-74773000D01*
X154751250Y-74773000D01*
X154910000Y-74614250D01*
X154910000Y-74517656D01*
X155263000Y-74870656D01*
X155263000Y-76725000D01*
X155294362Y-76882666D01*
X155311739Y-76908672D01*
X155383672Y-77016328D01*
X155438000Y-77070656D01*
X155438000Y-79007378D01*
X154800000Y-79007378D01*
X154693644Y-79027390D01*
X154595963Y-79090246D01*
X154530432Y-79186154D01*
X154507378Y-79300000D01*
X154507378Y-84900000D01*
X154527390Y-85006356D01*
X154590246Y-85104037D01*
X154686154Y-85169568D01*
X154800000Y-85192622D01*
X156900000Y-85192622D01*
X157006356Y-85172610D01*
X157104037Y-85109754D01*
X157169568Y-85013846D01*
X157192622Y-84900000D01*
X157192622Y-79300000D01*
X157172610Y-79193644D01*
X157109754Y-79095963D01*
X157013846Y-79030432D01*
X156900000Y-79007378D01*
X156262000Y-79007378D01*
X156262000Y-76900000D01*
X156230638Y-76742334D01*
X156141328Y-76608672D01*
X156087000Y-76554344D01*
X156087000Y-75112000D01*
X159955332Y-75112000D01*
X159158663Y-75908669D01*
X159069353Y-76042331D01*
X159037991Y-76199997D01*
X159037991Y-85079353D01*
X156609966Y-87507378D01*
X154800000Y-87507378D01*
X154693644Y-87527390D01*
X154595963Y-87590246D01*
X154530432Y-87686154D01*
X154507378Y-87800000D01*
X154507378Y-89974722D01*
X154062000Y-89529344D01*
X154062000Y-77692622D01*
X154275000Y-77692622D01*
X154381356Y-77672610D01*
X154479037Y-77609754D01*
X154544568Y-77513846D01*
X154567622Y-77400000D01*
X154567622Y-76400000D01*
X154547610Y-76293644D01*
X154484754Y-76195963D01*
X154388846Y-76130432D01*
X154275000Y-76107378D01*
X153025000Y-76107378D01*
X152918644Y-76127390D01*
X152820963Y-76190246D01*
X152755432Y-76286154D01*
X152732378Y-76400000D01*
X152732378Y-77400000D01*
X152752390Y-77506356D01*
X152815246Y-77604037D01*
X152911154Y-77669568D01*
X153025000Y-77692622D01*
X153238000Y-77692622D01*
X153238000Y-89700000D01*
X153269362Y-89857666D01*
X153310125Y-89918672D01*
X153358672Y-89991328D01*
X154258672Y-90891328D01*
X154392334Y-90980638D01*
X154507378Y-91003522D01*
X154507378Y-93400000D01*
X154527390Y-93506356D01*
X154590246Y-93604037D01*
X154686154Y-93669568D01*
X154800000Y-93692622D01*
X156900000Y-93692622D01*
X157006356Y-93672610D01*
X157104037Y-93609754D01*
X157169568Y-93513846D01*
X157192622Y-93400000D01*
X157192622Y-88090034D01*
X159741319Y-85541337D01*
X159788001Y-85471472D01*
X159788001Y-111320928D01*
X152274178Y-111175382D01*
X152273207Y-111133027D01*
X152262071Y-111083859D01*
X152232684Y-111042897D01*
X152189676Y-111016596D01*
X152152113Y-111009073D01*
X147178352Y-110778806D01*
X147260819Y-103344975D01*
X148312786Y-103344975D01*
X148500711Y-103799789D01*
X148848381Y-104148066D01*
X149302866Y-104336785D01*
X149794975Y-104337214D01*
X150249789Y-104149289D01*
X150598066Y-103801619D01*
X150786785Y-103347134D01*
X150787214Y-102855025D01*
X150599289Y-102400211D01*
X150251619Y-102051934D01*
X149797134Y-101863215D01*
X149305025Y-101862786D01*
X148850211Y-102050711D01*
X148501934Y-102398381D01*
X148313215Y-102852866D01*
X148312786Y-103344975D01*
X147260819Y-103344975D01*
X147471595Y-84344975D01*
X148312786Y-84344975D01*
X148500711Y-84799789D01*
X148848381Y-85148066D01*
X149302866Y-85336785D01*
X149794975Y-85337214D01*
X150249789Y-85149289D01*
X150598066Y-84801619D01*
X150786785Y-84347134D01*
X150787214Y-83855025D01*
X150599289Y-83400211D01*
X150251619Y-83051934D01*
X149797134Y-82863215D01*
X149305025Y-82862786D01*
X148850211Y-83050711D01*
X148501934Y-83398381D01*
X148313215Y-83852866D01*
X148312786Y-84344975D01*
X147471595Y-84344975D01*
X147526992Y-79351409D01*
X147526999Y-79349530D01*
X147511304Y-75112000D01*
X147881862Y-75112000D01*
X147967057Y-75197344D01*
X148182726Y-75286898D01*
X148416249Y-75287102D01*
X148632074Y-75197925D01*
X148644270Y-75185750D01*
X152390000Y-75185750D01*
X152390000Y-75526309D01*
X152486673Y-75759698D01*
X152665301Y-75938327D01*
X152898690Y-76035000D01*
X153364250Y-76035000D01*
X153523000Y-75876250D01*
X153523000Y-75027000D01*
X153777000Y-75027000D01*
X153777000Y-75876250D01*
X153935750Y-76035000D01*
X154401310Y-76035000D01*
X154634699Y-75938327D01*
X154813327Y-75759698D01*
X154910000Y-75526309D01*
X154910000Y-75185750D01*
X154751250Y-75027000D01*
X153777000Y-75027000D01*
X153523000Y-75027000D01*
X152548750Y-75027000D01*
X152390000Y-75185750D01*
X148644270Y-75185750D01*
X148797344Y-75032943D01*
X148886898Y-74817274D01*
X148887102Y-74583751D01*
X148797925Y-74367926D01*
X148703855Y-74273691D01*
X152390000Y-74273691D01*
X152390000Y-74614250D01*
X152548750Y-74773000D01*
X153523000Y-74773000D01*
X153523000Y-73923750D01*
X153364250Y-73765000D01*
X152898690Y-73765000D01*
X152665301Y-73861673D01*
X152486673Y-74040302D01*
X152390000Y-74273691D01*
X148703855Y-74273691D01*
X148632943Y-74202656D01*
X148417274Y-74113102D01*
X148183751Y-74112898D01*
X147967926Y-74202075D01*
X147881851Y-74288000D01*
X147508253Y-74288000D01*
X147475131Y-65344975D01*
X148312786Y-65344975D01*
X148500711Y-65799789D01*
X148848381Y-66148066D01*
X149302866Y-66336785D01*
X149794975Y-66337214D01*
X150249789Y-66149289D01*
X150598066Y-65801619D01*
X150786785Y-65347134D01*
X150787214Y-64855025D01*
X150599289Y-64400211D01*
X150251619Y-64051934D01*
X149797134Y-63863215D01*
X149305025Y-63862786D01*
X148850211Y-64050711D01*
X148501934Y-64398381D01*
X148313215Y-64852866D01*
X148312786Y-65344975D01*
X147475131Y-65344975D01*
X147427485Y-52480862D01*
X150526724Y-52573376D01*
M02*
