G04 #@! TF.FileFunction,Legend,Top*
%FSLAX46Y46*%
G04 Gerber Fmt 4.6, Leading zero omitted, Abs format (unit mm)*
G04 Created by KiCad (PCBNEW 4.0.7) date Wednesday, February 06, 2019 'PMt' 10:52:11 PM*
%MOMM*%
%LPD*%
G01*
G04 APERTURE LIST*
%ADD10C,0.100000*%
%ADD11C,0.120000*%
%ADD12C,0.150000*%
G04 APERTURE END LIST*
D10*
D11*
X152800000Y-75400000D02*
X152800000Y-76400000D01*
X154500000Y-76400000D02*
X154500000Y-75400000D01*
X154600000Y-72400000D02*
X154600000Y-71400000D01*
X152900000Y-71400000D02*
X152900000Y-72400000D01*
X166050000Y-65350000D02*
X166050000Y-66350000D01*
X167750000Y-66350000D02*
X167750000Y-65350000D01*
X154200000Y-61850000D02*
X154200000Y-62850000D01*
X155900000Y-62850000D02*
X155900000Y-61850000D01*
X52050000Y-56900000D02*
X52050000Y-54900000D01*
X52050000Y-54900000D02*
X48150000Y-54900000D01*
X52050000Y-56900000D02*
X48150000Y-56900000D01*
X51850000Y-75900000D02*
X51850000Y-73900000D01*
X51850000Y-73900000D02*
X47950000Y-73900000D01*
X51850000Y-75900000D02*
X47950000Y-75900000D01*
X51700000Y-94750000D02*
X51700000Y-92750000D01*
X51700000Y-92750000D02*
X47800000Y-92750000D01*
X51700000Y-94750000D02*
X47800000Y-94750000D01*
X51700000Y-113450000D02*
X51700000Y-111450000D01*
X51700000Y-111450000D02*
X47800000Y-111450000D01*
X51700000Y-113450000D02*
X47800000Y-113450000D01*
X51850000Y-132450000D02*
X51850000Y-130450000D01*
X51850000Y-130450000D02*
X47950000Y-130450000D01*
X51850000Y-132450000D02*
X47950000Y-132450000D01*
X70600000Y-56550000D02*
X70600000Y-54550000D01*
X70600000Y-54550000D02*
X66700000Y-54550000D01*
X70600000Y-56550000D02*
X66700000Y-56550000D01*
X70400000Y-75750000D02*
X70400000Y-73750000D01*
X70400000Y-73750000D02*
X66500000Y-73750000D01*
X70400000Y-75750000D02*
X66500000Y-75750000D01*
X70650000Y-94850000D02*
X70650000Y-92850000D01*
X70650000Y-92850000D02*
X66750000Y-92850000D01*
X70650000Y-94850000D02*
X66750000Y-94850000D01*
X70700000Y-113950000D02*
X70700000Y-111950000D01*
X70700000Y-111950000D02*
X66800000Y-111950000D01*
X70700000Y-113950000D02*
X66800000Y-113950000D01*
X70000000Y-132650000D02*
X70000000Y-130650000D01*
X70000000Y-130650000D02*
X66100000Y-130650000D01*
X70000000Y-132650000D02*
X66100000Y-132650000D01*
X89450000Y-51750000D02*
X89450000Y-49750000D01*
X89450000Y-49750000D02*
X85550000Y-49750000D01*
X89450000Y-51750000D02*
X85550000Y-51750000D01*
X89250000Y-70900000D02*
X89250000Y-68900000D01*
X89250000Y-68900000D02*
X85350000Y-68900000D01*
X89250000Y-70900000D02*
X85350000Y-70900000D01*
X89400000Y-89650000D02*
X89400000Y-87650000D01*
X89400000Y-87650000D02*
X85500000Y-87650000D01*
X89400000Y-89650000D02*
X85500000Y-89650000D01*
X89250000Y-108550000D02*
X89250000Y-106550000D01*
X89250000Y-106550000D02*
X85350000Y-106550000D01*
X89250000Y-108550000D02*
X85350000Y-108550000D01*
X89550000Y-127800000D02*
X89550000Y-125800000D01*
X89550000Y-125800000D02*
X85650000Y-125800000D01*
X89550000Y-127800000D02*
X85650000Y-127800000D01*
X108250000Y-46700000D02*
X108250000Y-44700000D01*
X108250000Y-44700000D02*
X104350000Y-44700000D01*
X108250000Y-46700000D02*
X104350000Y-46700000D01*
X108550000Y-65700000D02*
X108550000Y-63700000D01*
X108550000Y-63700000D02*
X104650000Y-63700000D01*
X108550000Y-65700000D02*
X104650000Y-65700000D01*
X109200000Y-84750000D02*
X109200000Y-82750000D01*
X109200000Y-82750000D02*
X105300000Y-82750000D01*
X109200000Y-84750000D02*
X105300000Y-84750000D01*
X108900000Y-103650000D02*
X108900000Y-101650000D01*
X108900000Y-101650000D02*
X105000000Y-101650000D01*
X108900000Y-103650000D02*
X105000000Y-103650000D01*
X108550000Y-122500000D02*
X108550000Y-120500000D01*
X108550000Y-120500000D02*
X104650000Y-120500000D01*
X108550000Y-122500000D02*
X104650000Y-122500000D01*
X127750000Y-51900000D02*
X127750000Y-49900000D01*
X127750000Y-49900000D02*
X123850000Y-49900000D01*
X127750000Y-51900000D02*
X123850000Y-51900000D01*
X127400000Y-70750000D02*
X127400000Y-68750000D01*
X127400000Y-68750000D02*
X123500000Y-68750000D01*
X127400000Y-70750000D02*
X123500000Y-70750000D01*
X127750000Y-89750000D02*
X127750000Y-87750000D01*
X127750000Y-87750000D02*
X123850000Y-87750000D01*
X127750000Y-89750000D02*
X123850000Y-89750000D01*
X127250000Y-108750000D02*
X127250000Y-106750000D01*
X127250000Y-106750000D02*
X123350000Y-106750000D01*
X127250000Y-108750000D02*
X123350000Y-108750000D01*
X127450000Y-127750000D02*
X127450000Y-125750000D01*
X127450000Y-125750000D02*
X123550000Y-125750000D01*
X127450000Y-127750000D02*
X123550000Y-127750000D01*
X146350000Y-56700000D02*
X146350000Y-54700000D01*
X146350000Y-54700000D02*
X142450000Y-54700000D01*
X146350000Y-56700000D02*
X142450000Y-56700000D01*
X146600000Y-75700000D02*
X146600000Y-73700000D01*
X146600000Y-73700000D02*
X142700000Y-73700000D01*
X146600000Y-75700000D02*
X142700000Y-75700000D01*
X146350000Y-94850000D02*
X146350000Y-92850000D01*
X146350000Y-92850000D02*
X142450000Y-92850000D01*
X146350000Y-94850000D02*
X142450000Y-94850000D01*
X146700000Y-114000000D02*
X146700000Y-112000000D01*
X146700000Y-112000000D02*
X142800000Y-112000000D01*
X146700000Y-114000000D02*
X142800000Y-114000000D01*
X145900000Y-132600000D02*
X145900000Y-130600000D01*
X145900000Y-130600000D02*
X142000000Y-130600000D01*
X145900000Y-132600000D02*
X142000000Y-132600000D01*
X165750000Y-140650000D02*
X165750000Y-138650000D01*
X165750000Y-138650000D02*
X161850000Y-138650000D01*
X165750000Y-140650000D02*
X161850000Y-140650000D01*
X167796118Y-54073853D02*
X159228290Y-52563114D01*
X166683033Y-60386471D02*
X158115206Y-58875732D01*
X158115206Y-58875732D02*
X159228290Y-52563114D01*
X159014703Y-53774428D02*
X167582531Y-55285167D01*
X167796118Y-54073853D02*
X166683033Y-60386471D01*
X171330000Y-89080000D02*
X168670000Y-89080000D01*
X171330000Y-96760000D02*
X171330000Y-89080000D01*
X168670000Y-96760000D02*
X168670000Y-89080000D01*
X171330000Y-96760000D02*
X168670000Y-96760000D01*
X171330000Y-98030000D02*
X171330000Y-99360000D01*
X171330000Y-99360000D02*
X170000000Y-99360000D01*
X161280000Y-63700000D02*
X161280000Y-64700000D01*
X159920000Y-64700000D02*
X159920000Y-63700000D01*
X163530000Y-63700000D02*
X163530000Y-64700000D01*
X162170000Y-64700000D02*
X162170000Y-63700000D01*
X153120000Y-68150000D02*
X153120000Y-67150000D01*
X154480000Y-67150000D02*
X154480000Y-68150000D01*
D12*
X49763015Y-69900000D02*
G75*
G03X49763015Y-69900000I-1063015J0D01*
G01*
X41250000Y-72600000D02*
X41250000Y-57600000D01*
X56250000Y-72600000D02*
X41250000Y-72600000D01*
X56250000Y-57600000D02*
X56250000Y-72600000D01*
X41250000Y-57600000D02*
X56250000Y-57600000D01*
X49763015Y-88900000D02*
G75*
G03X49763015Y-88900000I-1063015J0D01*
G01*
X41250000Y-91600000D02*
X41250000Y-76600000D01*
X56250000Y-91600000D02*
X41250000Y-91600000D01*
X56250000Y-76600000D02*
X56250000Y-91600000D01*
X41250000Y-76600000D02*
X56250000Y-76600000D01*
X49763015Y-107900000D02*
G75*
G03X49763015Y-107900000I-1063015J0D01*
G01*
X41250000Y-110600000D02*
X41250000Y-95600000D01*
X56250000Y-110600000D02*
X41250000Y-110600000D01*
X56250000Y-95600000D02*
X56250000Y-110600000D01*
X41250000Y-95600000D02*
X56250000Y-95600000D01*
X49763015Y-126900000D02*
G75*
G03X49763015Y-126900000I-1063015J0D01*
G01*
X41250000Y-129600000D02*
X41250000Y-114600000D01*
X56250000Y-129600000D02*
X41250000Y-129600000D01*
X56250000Y-114600000D02*
X56250000Y-129600000D01*
X41250000Y-114600000D02*
X56250000Y-114600000D01*
X49763015Y-145900000D02*
G75*
G03X49763015Y-145900000I-1063015J0D01*
G01*
X41250000Y-148600000D02*
X41250000Y-133600000D01*
X56250000Y-148600000D02*
X41250000Y-148600000D01*
X56250000Y-133600000D02*
X56250000Y-148600000D01*
X41250000Y-133600000D02*
X56250000Y-133600000D01*
X68763015Y-69900000D02*
G75*
G03X68763015Y-69900000I-1063015J0D01*
G01*
X60250000Y-72600000D02*
X60250000Y-57600000D01*
X75250000Y-72600000D02*
X60250000Y-72600000D01*
X75250000Y-57600000D02*
X75250000Y-72600000D01*
X60250000Y-57600000D02*
X75250000Y-57600000D01*
X68763015Y-88900000D02*
G75*
G03X68763015Y-88900000I-1063015J0D01*
G01*
X60250000Y-91600000D02*
X60250000Y-76600000D01*
X75250000Y-91600000D02*
X60250000Y-91600000D01*
X75250000Y-76600000D02*
X75250000Y-91600000D01*
X60250000Y-76600000D02*
X75250000Y-76600000D01*
X68763015Y-107900000D02*
G75*
G03X68763015Y-107900000I-1063015J0D01*
G01*
X60250000Y-110600000D02*
X60250000Y-95600000D01*
X75250000Y-110600000D02*
X60250000Y-110600000D01*
X75250000Y-95600000D02*
X75250000Y-110600000D01*
X60250000Y-95600000D02*
X75250000Y-95600000D01*
X68763015Y-126900000D02*
G75*
G03X68763015Y-126900000I-1063015J0D01*
G01*
X60250000Y-129600000D02*
X60250000Y-114600000D01*
X75250000Y-129600000D02*
X60250000Y-129600000D01*
X75250000Y-114600000D02*
X75250000Y-129600000D01*
X60250000Y-114600000D02*
X75250000Y-114600000D01*
X68763015Y-145900000D02*
G75*
G03X68763015Y-145900000I-1063015J0D01*
G01*
X60250000Y-148600000D02*
X60250000Y-133600000D01*
X75250000Y-148600000D02*
X60250000Y-148600000D01*
X75250000Y-133600000D02*
X75250000Y-148600000D01*
X60250000Y-133600000D02*
X75250000Y-133600000D01*
X88063015Y-64900000D02*
G75*
G03X88063015Y-64900000I-1063015J0D01*
G01*
X79550000Y-67600000D02*
X79550000Y-52600000D01*
X94550000Y-67600000D02*
X79550000Y-67600000D01*
X94550000Y-52600000D02*
X94550000Y-67600000D01*
X79550000Y-52600000D02*
X94550000Y-52600000D01*
X88063015Y-83900000D02*
G75*
G03X88063015Y-83900000I-1063015J0D01*
G01*
X79550000Y-86600000D02*
X79550000Y-71600000D01*
X94550000Y-86600000D02*
X79550000Y-86600000D01*
X94550000Y-71600000D02*
X94550000Y-86600000D01*
X79550000Y-71600000D02*
X94550000Y-71600000D01*
X88063015Y-102900000D02*
G75*
G03X88063015Y-102900000I-1063015J0D01*
G01*
X79550000Y-105600000D02*
X79550000Y-90600000D01*
X94550000Y-105600000D02*
X79550000Y-105600000D01*
X94550000Y-90600000D02*
X94550000Y-105600000D01*
X79550000Y-90600000D02*
X94550000Y-90600000D01*
X88063015Y-121900000D02*
G75*
G03X88063015Y-121900000I-1063015J0D01*
G01*
X79550000Y-124600000D02*
X79550000Y-109600000D01*
X94550000Y-124600000D02*
X79550000Y-124600000D01*
X94550000Y-109600000D02*
X94550000Y-124600000D01*
X79550000Y-109600000D02*
X94550000Y-109600000D01*
X88063015Y-140900000D02*
G75*
G03X88063015Y-140900000I-1063015J0D01*
G01*
X79550000Y-143600000D02*
X79550000Y-128600000D01*
X94550000Y-143600000D02*
X79550000Y-143600000D01*
X94550000Y-128600000D02*
X94550000Y-143600000D01*
X79550000Y-128600000D02*
X94550000Y-128600000D01*
X107063015Y-59900000D02*
G75*
G03X107063015Y-59900000I-1063015J0D01*
G01*
X98550000Y-62600000D02*
X98550000Y-47600000D01*
X113550000Y-62600000D02*
X98550000Y-62600000D01*
X113550000Y-47600000D02*
X113550000Y-62600000D01*
X98550000Y-47600000D02*
X113550000Y-47600000D01*
X107163015Y-78900000D02*
G75*
G03X107163015Y-78900000I-1063015J0D01*
G01*
X98650000Y-81600000D02*
X98650000Y-66600000D01*
X113650000Y-81600000D02*
X98650000Y-81600000D01*
X113650000Y-66600000D02*
X113650000Y-81600000D01*
X98650000Y-66600000D02*
X113650000Y-66600000D01*
X107063015Y-97900000D02*
G75*
G03X107063015Y-97900000I-1063015J0D01*
G01*
X98550000Y-100600000D02*
X98550000Y-85600000D01*
X113550000Y-100600000D02*
X98550000Y-100600000D01*
X113550000Y-85600000D02*
X113550000Y-100600000D01*
X98550000Y-85600000D02*
X113550000Y-85600000D01*
X107063015Y-116900000D02*
G75*
G03X107063015Y-116900000I-1063015J0D01*
G01*
X98550000Y-119600000D02*
X98550000Y-104600000D01*
X113550000Y-119600000D02*
X98550000Y-119600000D01*
X113550000Y-104600000D02*
X113550000Y-119600000D01*
X98550000Y-104600000D02*
X113550000Y-104600000D01*
X107063015Y-135900000D02*
G75*
G03X107063015Y-135900000I-1063015J0D01*
G01*
X98550000Y-138600000D02*
X98550000Y-123600000D01*
X113550000Y-138600000D02*
X98550000Y-138600000D01*
X113550000Y-123600000D02*
X113550000Y-138600000D01*
X98550000Y-123600000D02*
X113550000Y-123600000D01*
X126063015Y-64900000D02*
G75*
G03X126063015Y-64900000I-1063015J0D01*
G01*
X117550000Y-67600000D02*
X117550000Y-52600000D01*
X132550000Y-67600000D02*
X117550000Y-67600000D01*
X132550000Y-52600000D02*
X132550000Y-67600000D01*
X117550000Y-52600000D02*
X132550000Y-52600000D01*
X126063015Y-83900000D02*
G75*
G03X126063015Y-83900000I-1063015J0D01*
G01*
X117550000Y-86600000D02*
X117550000Y-71600000D01*
X132550000Y-86600000D02*
X117550000Y-86600000D01*
X132550000Y-71600000D02*
X132550000Y-86600000D01*
X117550000Y-71600000D02*
X132550000Y-71600000D01*
X126063015Y-102900000D02*
G75*
G03X126063015Y-102900000I-1063015J0D01*
G01*
X117550000Y-105600000D02*
X117550000Y-90600000D01*
X132550000Y-105600000D02*
X117550000Y-105600000D01*
X132550000Y-90600000D02*
X132550000Y-105600000D01*
X117550000Y-90600000D02*
X132550000Y-90600000D01*
X126063015Y-121900000D02*
G75*
G03X126063015Y-121900000I-1063015J0D01*
G01*
X117550000Y-124600000D02*
X117550000Y-109600000D01*
X132550000Y-124600000D02*
X117550000Y-124600000D01*
X132550000Y-109600000D02*
X132550000Y-124600000D01*
X117550000Y-109600000D02*
X132550000Y-109600000D01*
X126063015Y-140900000D02*
G75*
G03X126063015Y-140900000I-1063015J0D01*
G01*
X117550000Y-143600000D02*
X117550000Y-128600000D01*
X132550000Y-143600000D02*
X117550000Y-143600000D01*
X132550000Y-128600000D02*
X132550000Y-143600000D01*
X117550000Y-128600000D02*
X132550000Y-128600000D01*
X145063015Y-69900000D02*
G75*
G03X145063015Y-69900000I-1063015J0D01*
G01*
X136550000Y-72600000D02*
X136550000Y-57600000D01*
X151550000Y-72600000D02*
X136550000Y-72600000D01*
X151550000Y-57600000D02*
X151550000Y-72600000D01*
X136550000Y-57600000D02*
X151550000Y-57600000D01*
X145063015Y-88900000D02*
G75*
G03X145063015Y-88900000I-1063015J0D01*
G01*
X136550000Y-91600000D02*
X136550000Y-76600000D01*
X151550000Y-91600000D02*
X136550000Y-91600000D01*
X151550000Y-76600000D02*
X151550000Y-91600000D01*
X136550000Y-76600000D02*
X151550000Y-76600000D01*
X145063015Y-107900000D02*
G75*
G03X145063015Y-107900000I-1063015J0D01*
G01*
X136550000Y-110600000D02*
X136550000Y-95600000D01*
X151550000Y-110600000D02*
X136550000Y-110600000D01*
X151550000Y-95600000D02*
X151550000Y-110600000D01*
X136550000Y-95600000D02*
X151550000Y-95600000D01*
X145063015Y-126900000D02*
G75*
G03X145063015Y-126900000I-1063015J0D01*
G01*
X136550000Y-129600000D02*
X136550000Y-114600000D01*
X151550000Y-129600000D02*
X136550000Y-129600000D01*
X151550000Y-114600000D02*
X151550000Y-129600000D01*
X136550000Y-114600000D02*
X151550000Y-114600000D01*
X145063015Y-145900000D02*
G75*
G03X145063015Y-145900000I-1063015J0D01*
G01*
X136550000Y-148600000D02*
X136550000Y-133600000D01*
X151550000Y-148600000D02*
X136550000Y-148600000D01*
X151550000Y-133600000D02*
X151550000Y-148600000D01*
X136550000Y-133600000D02*
X151550000Y-133600000D01*
X164063015Y-153900000D02*
G75*
G03X164063015Y-153900000I-1063015J0D01*
G01*
X155550000Y-156600000D02*
X155550000Y-141600000D01*
X170550000Y-156600000D02*
X155550000Y-156600000D01*
X170550000Y-141600000D02*
X170550000Y-156600000D01*
X155550000Y-141600000D02*
X170550000Y-141600000D01*
X169400000Y-71700000D02*
X169900000Y-72200000D01*
X169900000Y-78200000D02*
X169900000Y-78700000D01*
X169900000Y-78700000D02*
X169400000Y-78700000D01*
X162900000Y-72200000D02*
X162900000Y-71700000D01*
X162900000Y-71700000D02*
X163400000Y-71700000D01*
X162900000Y-78200000D02*
X162900000Y-78700000D01*
X162900000Y-78700000D02*
X163400000Y-78700000D01*
X158400000Y-93250000D02*
X153400000Y-93250000D01*
X158350000Y-79650000D02*
X158400000Y-93250000D01*
X153350000Y-79650000D02*
X158350000Y-79650000D01*
X153350000Y-93150000D02*
X153350000Y-79650000D01*
D11*
X165350000Y-121650000D02*
X165350000Y-119650000D01*
X165350000Y-119650000D02*
X161450000Y-119650000D01*
X165350000Y-121650000D02*
X161450000Y-121650000D01*
X171320000Y-75150000D02*
X171320000Y-74150000D01*
X172680000Y-74150000D02*
X172680000Y-75150000D01*
D12*
X164063015Y-134900000D02*
G75*
G03X164063015Y-134900000I-1063015J0D01*
G01*
X155550000Y-137600000D02*
X155550000Y-122600000D01*
X170550000Y-137600000D02*
X155550000Y-137600000D01*
X170550000Y-122600000D02*
X170550000Y-137600000D01*
X155550000Y-122600000D02*
X170550000Y-122600000D01*
X152507143Y-76066666D02*
X152554762Y-76114285D01*
X152602381Y-76257142D01*
X152602381Y-76352380D01*
X152554762Y-76495238D01*
X152459524Y-76590476D01*
X152364286Y-76638095D01*
X152173810Y-76685714D01*
X152030952Y-76685714D01*
X151840476Y-76638095D01*
X151745238Y-76590476D01*
X151650000Y-76495238D01*
X151602381Y-76352380D01*
X151602381Y-76257142D01*
X151650000Y-76114285D01*
X151697619Y-76066666D01*
X152602381Y-75114285D02*
X152602381Y-75685714D01*
X152602381Y-75400000D02*
X151602381Y-75400000D01*
X151745238Y-75495238D01*
X151840476Y-75590476D01*
X151888095Y-75685714D01*
X155607143Y-72066666D02*
X155654762Y-72114285D01*
X155702381Y-72257142D01*
X155702381Y-72352380D01*
X155654762Y-72495238D01*
X155559524Y-72590476D01*
X155464286Y-72638095D01*
X155273810Y-72685714D01*
X155130952Y-72685714D01*
X154940476Y-72638095D01*
X154845238Y-72590476D01*
X154750000Y-72495238D01*
X154702381Y-72352380D01*
X154702381Y-72257142D01*
X154750000Y-72114285D01*
X154797619Y-72066666D01*
X154797619Y-71685714D02*
X154750000Y-71638095D01*
X154702381Y-71542857D01*
X154702381Y-71304761D01*
X154750000Y-71209523D01*
X154797619Y-71161904D01*
X154892857Y-71114285D01*
X154988095Y-71114285D01*
X155130952Y-71161904D01*
X155702381Y-71733333D01*
X155702381Y-71114285D01*
X165757143Y-66016666D02*
X165804762Y-66064285D01*
X165852381Y-66207142D01*
X165852381Y-66302380D01*
X165804762Y-66445238D01*
X165709524Y-66540476D01*
X165614286Y-66588095D01*
X165423810Y-66635714D01*
X165280952Y-66635714D01*
X165090476Y-66588095D01*
X164995238Y-66540476D01*
X164900000Y-66445238D01*
X164852381Y-66302380D01*
X164852381Y-66207142D01*
X164900000Y-66064285D01*
X164947619Y-66016666D01*
X164852381Y-65683333D02*
X164852381Y-65064285D01*
X165233333Y-65397619D01*
X165233333Y-65254761D01*
X165280952Y-65159523D01*
X165328571Y-65111904D01*
X165423810Y-65064285D01*
X165661905Y-65064285D01*
X165757143Y-65111904D01*
X165804762Y-65159523D01*
X165852381Y-65254761D01*
X165852381Y-65540476D01*
X165804762Y-65635714D01*
X165757143Y-65683333D01*
X153907143Y-62516666D02*
X153954762Y-62564285D01*
X154002381Y-62707142D01*
X154002381Y-62802380D01*
X153954762Y-62945238D01*
X153859524Y-63040476D01*
X153764286Y-63088095D01*
X153573810Y-63135714D01*
X153430952Y-63135714D01*
X153240476Y-63088095D01*
X153145238Y-63040476D01*
X153050000Y-62945238D01*
X153002381Y-62802380D01*
X153002381Y-62707142D01*
X153050000Y-62564285D01*
X153097619Y-62516666D01*
X153335714Y-61659523D02*
X154002381Y-61659523D01*
X152954762Y-61897619D02*
X153669048Y-62135714D01*
X153669048Y-61516666D01*
X49061905Y-58352381D02*
X49061905Y-57352381D01*
X49300000Y-57352381D01*
X49442858Y-57400000D01*
X49538096Y-57495238D01*
X49585715Y-57590476D01*
X49633334Y-57780952D01*
X49633334Y-57923810D01*
X49585715Y-58114286D01*
X49538096Y-58209524D01*
X49442858Y-58304762D01*
X49300000Y-58352381D01*
X49061905Y-58352381D01*
X50585715Y-58352381D02*
X50014286Y-58352381D01*
X50300000Y-58352381D02*
X50300000Y-57352381D01*
X50204762Y-57495238D01*
X50109524Y-57590476D01*
X50014286Y-57638095D01*
X48861905Y-77352381D02*
X48861905Y-76352381D01*
X49100000Y-76352381D01*
X49242858Y-76400000D01*
X49338096Y-76495238D01*
X49385715Y-76590476D01*
X49433334Y-76780952D01*
X49433334Y-76923810D01*
X49385715Y-77114286D01*
X49338096Y-77209524D01*
X49242858Y-77304762D01*
X49100000Y-77352381D01*
X48861905Y-77352381D01*
X49814286Y-76447619D02*
X49861905Y-76400000D01*
X49957143Y-76352381D01*
X50195239Y-76352381D01*
X50290477Y-76400000D01*
X50338096Y-76447619D01*
X50385715Y-76542857D01*
X50385715Y-76638095D01*
X50338096Y-76780952D01*
X49766667Y-77352381D01*
X50385715Y-77352381D01*
X48711905Y-96202381D02*
X48711905Y-95202381D01*
X48950000Y-95202381D01*
X49092858Y-95250000D01*
X49188096Y-95345238D01*
X49235715Y-95440476D01*
X49283334Y-95630952D01*
X49283334Y-95773810D01*
X49235715Y-95964286D01*
X49188096Y-96059524D01*
X49092858Y-96154762D01*
X48950000Y-96202381D01*
X48711905Y-96202381D01*
X49616667Y-95202381D02*
X50235715Y-95202381D01*
X49902381Y-95583333D01*
X50045239Y-95583333D01*
X50140477Y-95630952D01*
X50188096Y-95678571D01*
X50235715Y-95773810D01*
X50235715Y-96011905D01*
X50188096Y-96107143D01*
X50140477Y-96154762D01*
X50045239Y-96202381D01*
X49759524Y-96202381D01*
X49664286Y-96154762D01*
X49616667Y-96107143D01*
X48711905Y-114902381D02*
X48711905Y-113902381D01*
X48950000Y-113902381D01*
X49092858Y-113950000D01*
X49188096Y-114045238D01*
X49235715Y-114140476D01*
X49283334Y-114330952D01*
X49283334Y-114473810D01*
X49235715Y-114664286D01*
X49188096Y-114759524D01*
X49092858Y-114854762D01*
X48950000Y-114902381D01*
X48711905Y-114902381D01*
X50140477Y-114235714D02*
X50140477Y-114902381D01*
X49902381Y-113854762D02*
X49664286Y-114569048D01*
X50283334Y-114569048D01*
X48861905Y-133902381D02*
X48861905Y-132902381D01*
X49100000Y-132902381D01*
X49242858Y-132950000D01*
X49338096Y-133045238D01*
X49385715Y-133140476D01*
X49433334Y-133330952D01*
X49433334Y-133473810D01*
X49385715Y-133664286D01*
X49338096Y-133759524D01*
X49242858Y-133854762D01*
X49100000Y-133902381D01*
X48861905Y-133902381D01*
X50338096Y-132902381D02*
X49861905Y-132902381D01*
X49814286Y-133378571D01*
X49861905Y-133330952D01*
X49957143Y-133283333D01*
X50195239Y-133283333D01*
X50290477Y-133330952D01*
X50338096Y-133378571D01*
X50385715Y-133473810D01*
X50385715Y-133711905D01*
X50338096Y-133807143D01*
X50290477Y-133854762D01*
X50195239Y-133902381D01*
X49957143Y-133902381D01*
X49861905Y-133854762D01*
X49814286Y-133807143D01*
X67611905Y-58002381D02*
X67611905Y-57002381D01*
X67850000Y-57002381D01*
X67992858Y-57050000D01*
X68088096Y-57145238D01*
X68135715Y-57240476D01*
X68183334Y-57430952D01*
X68183334Y-57573810D01*
X68135715Y-57764286D01*
X68088096Y-57859524D01*
X67992858Y-57954762D01*
X67850000Y-58002381D01*
X67611905Y-58002381D01*
X69040477Y-57002381D02*
X68850000Y-57002381D01*
X68754762Y-57050000D01*
X68707143Y-57097619D01*
X68611905Y-57240476D01*
X68564286Y-57430952D01*
X68564286Y-57811905D01*
X68611905Y-57907143D01*
X68659524Y-57954762D01*
X68754762Y-58002381D01*
X68945239Y-58002381D01*
X69040477Y-57954762D01*
X69088096Y-57907143D01*
X69135715Y-57811905D01*
X69135715Y-57573810D01*
X69088096Y-57478571D01*
X69040477Y-57430952D01*
X68945239Y-57383333D01*
X68754762Y-57383333D01*
X68659524Y-57430952D01*
X68611905Y-57478571D01*
X68564286Y-57573810D01*
X67411905Y-77202381D02*
X67411905Y-76202381D01*
X67650000Y-76202381D01*
X67792858Y-76250000D01*
X67888096Y-76345238D01*
X67935715Y-76440476D01*
X67983334Y-76630952D01*
X67983334Y-76773810D01*
X67935715Y-76964286D01*
X67888096Y-77059524D01*
X67792858Y-77154762D01*
X67650000Y-77202381D01*
X67411905Y-77202381D01*
X68316667Y-76202381D02*
X68983334Y-76202381D01*
X68554762Y-77202381D01*
X67661905Y-96302381D02*
X67661905Y-95302381D01*
X67900000Y-95302381D01*
X68042858Y-95350000D01*
X68138096Y-95445238D01*
X68185715Y-95540476D01*
X68233334Y-95730952D01*
X68233334Y-95873810D01*
X68185715Y-96064286D01*
X68138096Y-96159524D01*
X68042858Y-96254762D01*
X67900000Y-96302381D01*
X67661905Y-96302381D01*
X68804762Y-95730952D02*
X68709524Y-95683333D01*
X68661905Y-95635714D01*
X68614286Y-95540476D01*
X68614286Y-95492857D01*
X68661905Y-95397619D01*
X68709524Y-95350000D01*
X68804762Y-95302381D01*
X68995239Y-95302381D01*
X69090477Y-95350000D01*
X69138096Y-95397619D01*
X69185715Y-95492857D01*
X69185715Y-95540476D01*
X69138096Y-95635714D01*
X69090477Y-95683333D01*
X68995239Y-95730952D01*
X68804762Y-95730952D01*
X68709524Y-95778571D01*
X68661905Y-95826190D01*
X68614286Y-95921429D01*
X68614286Y-96111905D01*
X68661905Y-96207143D01*
X68709524Y-96254762D01*
X68804762Y-96302381D01*
X68995239Y-96302381D01*
X69090477Y-96254762D01*
X69138096Y-96207143D01*
X69185715Y-96111905D01*
X69185715Y-95921429D01*
X69138096Y-95826190D01*
X69090477Y-95778571D01*
X68995239Y-95730952D01*
X67711905Y-115402381D02*
X67711905Y-114402381D01*
X67950000Y-114402381D01*
X68092858Y-114450000D01*
X68188096Y-114545238D01*
X68235715Y-114640476D01*
X68283334Y-114830952D01*
X68283334Y-114973810D01*
X68235715Y-115164286D01*
X68188096Y-115259524D01*
X68092858Y-115354762D01*
X67950000Y-115402381D01*
X67711905Y-115402381D01*
X68759524Y-115402381D02*
X68950000Y-115402381D01*
X69045239Y-115354762D01*
X69092858Y-115307143D01*
X69188096Y-115164286D01*
X69235715Y-114973810D01*
X69235715Y-114592857D01*
X69188096Y-114497619D01*
X69140477Y-114450000D01*
X69045239Y-114402381D01*
X68854762Y-114402381D01*
X68759524Y-114450000D01*
X68711905Y-114497619D01*
X68664286Y-114592857D01*
X68664286Y-114830952D01*
X68711905Y-114926190D01*
X68759524Y-114973810D01*
X68854762Y-115021429D01*
X69045239Y-115021429D01*
X69140477Y-114973810D01*
X69188096Y-114926190D01*
X69235715Y-114830952D01*
X66535714Y-134102381D02*
X66535714Y-133102381D01*
X66773809Y-133102381D01*
X66916667Y-133150000D01*
X67011905Y-133245238D01*
X67059524Y-133340476D01*
X67107143Y-133530952D01*
X67107143Y-133673810D01*
X67059524Y-133864286D01*
X67011905Y-133959524D01*
X66916667Y-134054762D01*
X66773809Y-134102381D01*
X66535714Y-134102381D01*
X68059524Y-134102381D02*
X67488095Y-134102381D01*
X67773809Y-134102381D02*
X67773809Y-133102381D01*
X67678571Y-133245238D01*
X67583333Y-133340476D01*
X67488095Y-133388095D01*
X68678571Y-133102381D02*
X68773810Y-133102381D01*
X68869048Y-133150000D01*
X68916667Y-133197619D01*
X68964286Y-133292857D01*
X69011905Y-133483333D01*
X69011905Y-133721429D01*
X68964286Y-133911905D01*
X68916667Y-134007143D01*
X68869048Y-134054762D01*
X68773810Y-134102381D01*
X68678571Y-134102381D01*
X68583333Y-134054762D01*
X68535714Y-134007143D01*
X68488095Y-133911905D01*
X68440476Y-133721429D01*
X68440476Y-133483333D01*
X68488095Y-133292857D01*
X68535714Y-133197619D01*
X68583333Y-133150000D01*
X68678571Y-133102381D01*
X85985714Y-53202381D02*
X85985714Y-52202381D01*
X86223809Y-52202381D01*
X86366667Y-52250000D01*
X86461905Y-52345238D01*
X86509524Y-52440476D01*
X86557143Y-52630952D01*
X86557143Y-52773810D01*
X86509524Y-52964286D01*
X86461905Y-53059524D01*
X86366667Y-53154762D01*
X86223809Y-53202381D01*
X85985714Y-53202381D01*
X87509524Y-53202381D02*
X86938095Y-53202381D01*
X87223809Y-53202381D02*
X87223809Y-52202381D01*
X87128571Y-52345238D01*
X87033333Y-52440476D01*
X86938095Y-52488095D01*
X88461905Y-53202381D02*
X87890476Y-53202381D01*
X88176190Y-53202381D02*
X88176190Y-52202381D01*
X88080952Y-52345238D01*
X87985714Y-52440476D01*
X87890476Y-52488095D01*
X85785714Y-72352381D02*
X85785714Y-71352381D01*
X86023809Y-71352381D01*
X86166667Y-71400000D01*
X86261905Y-71495238D01*
X86309524Y-71590476D01*
X86357143Y-71780952D01*
X86357143Y-71923810D01*
X86309524Y-72114286D01*
X86261905Y-72209524D01*
X86166667Y-72304762D01*
X86023809Y-72352381D01*
X85785714Y-72352381D01*
X87309524Y-72352381D02*
X86738095Y-72352381D01*
X87023809Y-72352381D02*
X87023809Y-71352381D01*
X86928571Y-71495238D01*
X86833333Y-71590476D01*
X86738095Y-71638095D01*
X87690476Y-71447619D02*
X87738095Y-71400000D01*
X87833333Y-71352381D01*
X88071429Y-71352381D01*
X88166667Y-71400000D01*
X88214286Y-71447619D01*
X88261905Y-71542857D01*
X88261905Y-71638095D01*
X88214286Y-71780952D01*
X87642857Y-72352381D01*
X88261905Y-72352381D01*
X85935714Y-91102381D02*
X85935714Y-90102381D01*
X86173809Y-90102381D01*
X86316667Y-90150000D01*
X86411905Y-90245238D01*
X86459524Y-90340476D01*
X86507143Y-90530952D01*
X86507143Y-90673810D01*
X86459524Y-90864286D01*
X86411905Y-90959524D01*
X86316667Y-91054762D01*
X86173809Y-91102381D01*
X85935714Y-91102381D01*
X87459524Y-91102381D02*
X86888095Y-91102381D01*
X87173809Y-91102381D02*
X87173809Y-90102381D01*
X87078571Y-90245238D01*
X86983333Y-90340476D01*
X86888095Y-90388095D01*
X87792857Y-90102381D02*
X88411905Y-90102381D01*
X88078571Y-90483333D01*
X88221429Y-90483333D01*
X88316667Y-90530952D01*
X88364286Y-90578571D01*
X88411905Y-90673810D01*
X88411905Y-90911905D01*
X88364286Y-91007143D01*
X88316667Y-91054762D01*
X88221429Y-91102381D01*
X87935714Y-91102381D01*
X87840476Y-91054762D01*
X87792857Y-91007143D01*
X85785714Y-110002381D02*
X85785714Y-109002381D01*
X86023809Y-109002381D01*
X86166667Y-109050000D01*
X86261905Y-109145238D01*
X86309524Y-109240476D01*
X86357143Y-109430952D01*
X86357143Y-109573810D01*
X86309524Y-109764286D01*
X86261905Y-109859524D01*
X86166667Y-109954762D01*
X86023809Y-110002381D01*
X85785714Y-110002381D01*
X87309524Y-110002381D02*
X86738095Y-110002381D01*
X87023809Y-110002381D02*
X87023809Y-109002381D01*
X86928571Y-109145238D01*
X86833333Y-109240476D01*
X86738095Y-109288095D01*
X88166667Y-109335714D02*
X88166667Y-110002381D01*
X87928571Y-108954762D02*
X87690476Y-109669048D01*
X88309524Y-109669048D01*
X86085714Y-129252381D02*
X86085714Y-128252381D01*
X86323809Y-128252381D01*
X86466667Y-128300000D01*
X86561905Y-128395238D01*
X86609524Y-128490476D01*
X86657143Y-128680952D01*
X86657143Y-128823810D01*
X86609524Y-129014286D01*
X86561905Y-129109524D01*
X86466667Y-129204762D01*
X86323809Y-129252381D01*
X86085714Y-129252381D01*
X87609524Y-129252381D02*
X87038095Y-129252381D01*
X87323809Y-129252381D02*
X87323809Y-128252381D01*
X87228571Y-128395238D01*
X87133333Y-128490476D01*
X87038095Y-128538095D01*
X88514286Y-128252381D02*
X88038095Y-128252381D01*
X87990476Y-128728571D01*
X88038095Y-128680952D01*
X88133333Y-128633333D01*
X88371429Y-128633333D01*
X88466667Y-128680952D01*
X88514286Y-128728571D01*
X88561905Y-128823810D01*
X88561905Y-129061905D01*
X88514286Y-129157143D01*
X88466667Y-129204762D01*
X88371429Y-129252381D01*
X88133333Y-129252381D01*
X88038095Y-129204762D01*
X87990476Y-129157143D01*
X104785714Y-48152381D02*
X104785714Y-47152381D01*
X105023809Y-47152381D01*
X105166667Y-47200000D01*
X105261905Y-47295238D01*
X105309524Y-47390476D01*
X105357143Y-47580952D01*
X105357143Y-47723810D01*
X105309524Y-47914286D01*
X105261905Y-48009524D01*
X105166667Y-48104762D01*
X105023809Y-48152381D01*
X104785714Y-48152381D01*
X106309524Y-48152381D02*
X105738095Y-48152381D01*
X106023809Y-48152381D02*
X106023809Y-47152381D01*
X105928571Y-47295238D01*
X105833333Y-47390476D01*
X105738095Y-47438095D01*
X107166667Y-47152381D02*
X106976190Y-47152381D01*
X106880952Y-47200000D01*
X106833333Y-47247619D01*
X106738095Y-47390476D01*
X106690476Y-47580952D01*
X106690476Y-47961905D01*
X106738095Y-48057143D01*
X106785714Y-48104762D01*
X106880952Y-48152381D01*
X107071429Y-48152381D01*
X107166667Y-48104762D01*
X107214286Y-48057143D01*
X107261905Y-47961905D01*
X107261905Y-47723810D01*
X107214286Y-47628571D01*
X107166667Y-47580952D01*
X107071429Y-47533333D01*
X106880952Y-47533333D01*
X106785714Y-47580952D01*
X106738095Y-47628571D01*
X106690476Y-47723810D01*
X105085714Y-67152381D02*
X105085714Y-66152381D01*
X105323809Y-66152381D01*
X105466667Y-66200000D01*
X105561905Y-66295238D01*
X105609524Y-66390476D01*
X105657143Y-66580952D01*
X105657143Y-66723810D01*
X105609524Y-66914286D01*
X105561905Y-67009524D01*
X105466667Y-67104762D01*
X105323809Y-67152381D01*
X105085714Y-67152381D01*
X106609524Y-67152381D02*
X106038095Y-67152381D01*
X106323809Y-67152381D02*
X106323809Y-66152381D01*
X106228571Y-66295238D01*
X106133333Y-66390476D01*
X106038095Y-66438095D01*
X106942857Y-66152381D02*
X107609524Y-66152381D01*
X107180952Y-67152381D01*
X105735714Y-86202381D02*
X105735714Y-85202381D01*
X105973809Y-85202381D01*
X106116667Y-85250000D01*
X106211905Y-85345238D01*
X106259524Y-85440476D01*
X106307143Y-85630952D01*
X106307143Y-85773810D01*
X106259524Y-85964286D01*
X106211905Y-86059524D01*
X106116667Y-86154762D01*
X105973809Y-86202381D01*
X105735714Y-86202381D01*
X107259524Y-86202381D02*
X106688095Y-86202381D01*
X106973809Y-86202381D02*
X106973809Y-85202381D01*
X106878571Y-85345238D01*
X106783333Y-85440476D01*
X106688095Y-85488095D01*
X107830952Y-85630952D02*
X107735714Y-85583333D01*
X107688095Y-85535714D01*
X107640476Y-85440476D01*
X107640476Y-85392857D01*
X107688095Y-85297619D01*
X107735714Y-85250000D01*
X107830952Y-85202381D01*
X108021429Y-85202381D01*
X108116667Y-85250000D01*
X108164286Y-85297619D01*
X108211905Y-85392857D01*
X108211905Y-85440476D01*
X108164286Y-85535714D01*
X108116667Y-85583333D01*
X108021429Y-85630952D01*
X107830952Y-85630952D01*
X107735714Y-85678571D01*
X107688095Y-85726190D01*
X107640476Y-85821429D01*
X107640476Y-86011905D01*
X107688095Y-86107143D01*
X107735714Y-86154762D01*
X107830952Y-86202381D01*
X108021429Y-86202381D01*
X108116667Y-86154762D01*
X108164286Y-86107143D01*
X108211905Y-86011905D01*
X108211905Y-85821429D01*
X108164286Y-85726190D01*
X108116667Y-85678571D01*
X108021429Y-85630952D01*
X105435714Y-105102381D02*
X105435714Y-104102381D01*
X105673809Y-104102381D01*
X105816667Y-104150000D01*
X105911905Y-104245238D01*
X105959524Y-104340476D01*
X106007143Y-104530952D01*
X106007143Y-104673810D01*
X105959524Y-104864286D01*
X105911905Y-104959524D01*
X105816667Y-105054762D01*
X105673809Y-105102381D01*
X105435714Y-105102381D01*
X106959524Y-105102381D02*
X106388095Y-105102381D01*
X106673809Y-105102381D02*
X106673809Y-104102381D01*
X106578571Y-104245238D01*
X106483333Y-104340476D01*
X106388095Y-104388095D01*
X107435714Y-105102381D02*
X107626190Y-105102381D01*
X107721429Y-105054762D01*
X107769048Y-105007143D01*
X107864286Y-104864286D01*
X107911905Y-104673810D01*
X107911905Y-104292857D01*
X107864286Y-104197619D01*
X107816667Y-104150000D01*
X107721429Y-104102381D01*
X107530952Y-104102381D01*
X107435714Y-104150000D01*
X107388095Y-104197619D01*
X107340476Y-104292857D01*
X107340476Y-104530952D01*
X107388095Y-104626190D01*
X107435714Y-104673810D01*
X107530952Y-104721429D01*
X107721429Y-104721429D01*
X107816667Y-104673810D01*
X107864286Y-104626190D01*
X107911905Y-104530952D01*
X105085714Y-123952381D02*
X105085714Y-122952381D01*
X105323809Y-122952381D01*
X105466667Y-123000000D01*
X105561905Y-123095238D01*
X105609524Y-123190476D01*
X105657143Y-123380952D01*
X105657143Y-123523810D01*
X105609524Y-123714286D01*
X105561905Y-123809524D01*
X105466667Y-123904762D01*
X105323809Y-123952381D01*
X105085714Y-123952381D01*
X106038095Y-123047619D02*
X106085714Y-123000000D01*
X106180952Y-122952381D01*
X106419048Y-122952381D01*
X106514286Y-123000000D01*
X106561905Y-123047619D01*
X106609524Y-123142857D01*
X106609524Y-123238095D01*
X106561905Y-123380952D01*
X105990476Y-123952381D01*
X106609524Y-123952381D01*
X107228571Y-122952381D02*
X107323810Y-122952381D01*
X107419048Y-123000000D01*
X107466667Y-123047619D01*
X107514286Y-123142857D01*
X107561905Y-123333333D01*
X107561905Y-123571429D01*
X107514286Y-123761905D01*
X107466667Y-123857143D01*
X107419048Y-123904762D01*
X107323810Y-123952381D01*
X107228571Y-123952381D01*
X107133333Y-123904762D01*
X107085714Y-123857143D01*
X107038095Y-123761905D01*
X106990476Y-123571429D01*
X106990476Y-123333333D01*
X107038095Y-123142857D01*
X107085714Y-123047619D01*
X107133333Y-123000000D01*
X107228571Y-122952381D01*
X124285714Y-53352381D02*
X124285714Y-52352381D01*
X124523809Y-52352381D01*
X124666667Y-52400000D01*
X124761905Y-52495238D01*
X124809524Y-52590476D01*
X124857143Y-52780952D01*
X124857143Y-52923810D01*
X124809524Y-53114286D01*
X124761905Y-53209524D01*
X124666667Y-53304762D01*
X124523809Y-53352381D01*
X124285714Y-53352381D01*
X125238095Y-52447619D02*
X125285714Y-52400000D01*
X125380952Y-52352381D01*
X125619048Y-52352381D01*
X125714286Y-52400000D01*
X125761905Y-52447619D01*
X125809524Y-52542857D01*
X125809524Y-52638095D01*
X125761905Y-52780952D01*
X125190476Y-53352381D01*
X125809524Y-53352381D01*
X126761905Y-53352381D02*
X126190476Y-53352381D01*
X126476190Y-53352381D02*
X126476190Y-52352381D01*
X126380952Y-52495238D01*
X126285714Y-52590476D01*
X126190476Y-52638095D01*
X123935714Y-72202381D02*
X123935714Y-71202381D01*
X124173809Y-71202381D01*
X124316667Y-71250000D01*
X124411905Y-71345238D01*
X124459524Y-71440476D01*
X124507143Y-71630952D01*
X124507143Y-71773810D01*
X124459524Y-71964286D01*
X124411905Y-72059524D01*
X124316667Y-72154762D01*
X124173809Y-72202381D01*
X123935714Y-72202381D01*
X124888095Y-71297619D02*
X124935714Y-71250000D01*
X125030952Y-71202381D01*
X125269048Y-71202381D01*
X125364286Y-71250000D01*
X125411905Y-71297619D01*
X125459524Y-71392857D01*
X125459524Y-71488095D01*
X125411905Y-71630952D01*
X124840476Y-72202381D01*
X125459524Y-72202381D01*
X125840476Y-71297619D02*
X125888095Y-71250000D01*
X125983333Y-71202381D01*
X126221429Y-71202381D01*
X126316667Y-71250000D01*
X126364286Y-71297619D01*
X126411905Y-71392857D01*
X126411905Y-71488095D01*
X126364286Y-71630952D01*
X125792857Y-72202381D01*
X126411905Y-72202381D01*
X124285714Y-91202381D02*
X124285714Y-90202381D01*
X124523809Y-90202381D01*
X124666667Y-90250000D01*
X124761905Y-90345238D01*
X124809524Y-90440476D01*
X124857143Y-90630952D01*
X124857143Y-90773810D01*
X124809524Y-90964286D01*
X124761905Y-91059524D01*
X124666667Y-91154762D01*
X124523809Y-91202381D01*
X124285714Y-91202381D01*
X125238095Y-90297619D02*
X125285714Y-90250000D01*
X125380952Y-90202381D01*
X125619048Y-90202381D01*
X125714286Y-90250000D01*
X125761905Y-90297619D01*
X125809524Y-90392857D01*
X125809524Y-90488095D01*
X125761905Y-90630952D01*
X125190476Y-91202381D01*
X125809524Y-91202381D01*
X126142857Y-90202381D02*
X126761905Y-90202381D01*
X126428571Y-90583333D01*
X126571429Y-90583333D01*
X126666667Y-90630952D01*
X126714286Y-90678571D01*
X126761905Y-90773810D01*
X126761905Y-91011905D01*
X126714286Y-91107143D01*
X126666667Y-91154762D01*
X126571429Y-91202381D01*
X126285714Y-91202381D01*
X126190476Y-91154762D01*
X126142857Y-91107143D01*
X123785714Y-110202381D02*
X123785714Y-109202381D01*
X124023809Y-109202381D01*
X124166667Y-109250000D01*
X124261905Y-109345238D01*
X124309524Y-109440476D01*
X124357143Y-109630952D01*
X124357143Y-109773810D01*
X124309524Y-109964286D01*
X124261905Y-110059524D01*
X124166667Y-110154762D01*
X124023809Y-110202381D01*
X123785714Y-110202381D01*
X124738095Y-109297619D02*
X124785714Y-109250000D01*
X124880952Y-109202381D01*
X125119048Y-109202381D01*
X125214286Y-109250000D01*
X125261905Y-109297619D01*
X125309524Y-109392857D01*
X125309524Y-109488095D01*
X125261905Y-109630952D01*
X124690476Y-110202381D01*
X125309524Y-110202381D01*
X126166667Y-109535714D02*
X126166667Y-110202381D01*
X125928571Y-109154762D02*
X125690476Y-109869048D01*
X126309524Y-109869048D01*
X123985714Y-129202381D02*
X123985714Y-128202381D01*
X124223809Y-128202381D01*
X124366667Y-128250000D01*
X124461905Y-128345238D01*
X124509524Y-128440476D01*
X124557143Y-128630952D01*
X124557143Y-128773810D01*
X124509524Y-128964286D01*
X124461905Y-129059524D01*
X124366667Y-129154762D01*
X124223809Y-129202381D01*
X123985714Y-129202381D01*
X124938095Y-128297619D02*
X124985714Y-128250000D01*
X125080952Y-128202381D01*
X125319048Y-128202381D01*
X125414286Y-128250000D01*
X125461905Y-128297619D01*
X125509524Y-128392857D01*
X125509524Y-128488095D01*
X125461905Y-128630952D01*
X124890476Y-129202381D01*
X125509524Y-129202381D01*
X126414286Y-128202381D02*
X125938095Y-128202381D01*
X125890476Y-128678571D01*
X125938095Y-128630952D01*
X126033333Y-128583333D01*
X126271429Y-128583333D01*
X126366667Y-128630952D01*
X126414286Y-128678571D01*
X126461905Y-128773810D01*
X126461905Y-129011905D01*
X126414286Y-129107143D01*
X126366667Y-129154762D01*
X126271429Y-129202381D01*
X126033333Y-129202381D01*
X125938095Y-129154762D01*
X125890476Y-129107143D01*
X142885714Y-58152381D02*
X142885714Y-57152381D01*
X143123809Y-57152381D01*
X143266667Y-57200000D01*
X143361905Y-57295238D01*
X143409524Y-57390476D01*
X143457143Y-57580952D01*
X143457143Y-57723810D01*
X143409524Y-57914286D01*
X143361905Y-58009524D01*
X143266667Y-58104762D01*
X143123809Y-58152381D01*
X142885714Y-58152381D01*
X143838095Y-57247619D02*
X143885714Y-57200000D01*
X143980952Y-57152381D01*
X144219048Y-57152381D01*
X144314286Y-57200000D01*
X144361905Y-57247619D01*
X144409524Y-57342857D01*
X144409524Y-57438095D01*
X144361905Y-57580952D01*
X143790476Y-58152381D01*
X144409524Y-58152381D01*
X145266667Y-57152381D02*
X145076190Y-57152381D01*
X144980952Y-57200000D01*
X144933333Y-57247619D01*
X144838095Y-57390476D01*
X144790476Y-57580952D01*
X144790476Y-57961905D01*
X144838095Y-58057143D01*
X144885714Y-58104762D01*
X144980952Y-58152381D01*
X145171429Y-58152381D01*
X145266667Y-58104762D01*
X145314286Y-58057143D01*
X145361905Y-57961905D01*
X145361905Y-57723810D01*
X145314286Y-57628571D01*
X145266667Y-57580952D01*
X145171429Y-57533333D01*
X144980952Y-57533333D01*
X144885714Y-57580952D01*
X144838095Y-57628571D01*
X144790476Y-57723810D01*
X143135714Y-77152381D02*
X143135714Y-76152381D01*
X143373809Y-76152381D01*
X143516667Y-76200000D01*
X143611905Y-76295238D01*
X143659524Y-76390476D01*
X143707143Y-76580952D01*
X143707143Y-76723810D01*
X143659524Y-76914286D01*
X143611905Y-77009524D01*
X143516667Y-77104762D01*
X143373809Y-77152381D01*
X143135714Y-77152381D01*
X144088095Y-76247619D02*
X144135714Y-76200000D01*
X144230952Y-76152381D01*
X144469048Y-76152381D01*
X144564286Y-76200000D01*
X144611905Y-76247619D01*
X144659524Y-76342857D01*
X144659524Y-76438095D01*
X144611905Y-76580952D01*
X144040476Y-77152381D01*
X144659524Y-77152381D01*
X144992857Y-76152381D02*
X145659524Y-76152381D01*
X145230952Y-77152381D01*
X142885714Y-96302381D02*
X142885714Y-95302381D01*
X143123809Y-95302381D01*
X143266667Y-95350000D01*
X143361905Y-95445238D01*
X143409524Y-95540476D01*
X143457143Y-95730952D01*
X143457143Y-95873810D01*
X143409524Y-96064286D01*
X143361905Y-96159524D01*
X143266667Y-96254762D01*
X143123809Y-96302381D01*
X142885714Y-96302381D01*
X143838095Y-95397619D02*
X143885714Y-95350000D01*
X143980952Y-95302381D01*
X144219048Y-95302381D01*
X144314286Y-95350000D01*
X144361905Y-95397619D01*
X144409524Y-95492857D01*
X144409524Y-95588095D01*
X144361905Y-95730952D01*
X143790476Y-96302381D01*
X144409524Y-96302381D01*
X144980952Y-95730952D02*
X144885714Y-95683333D01*
X144838095Y-95635714D01*
X144790476Y-95540476D01*
X144790476Y-95492857D01*
X144838095Y-95397619D01*
X144885714Y-95350000D01*
X144980952Y-95302381D01*
X145171429Y-95302381D01*
X145266667Y-95350000D01*
X145314286Y-95397619D01*
X145361905Y-95492857D01*
X145361905Y-95540476D01*
X145314286Y-95635714D01*
X145266667Y-95683333D01*
X145171429Y-95730952D01*
X144980952Y-95730952D01*
X144885714Y-95778571D01*
X144838095Y-95826190D01*
X144790476Y-95921429D01*
X144790476Y-96111905D01*
X144838095Y-96207143D01*
X144885714Y-96254762D01*
X144980952Y-96302381D01*
X145171429Y-96302381D01*
X145266667Y-96254762D01*
X145314286Y-96207143D01*
X145361905Y-96111905D01*
X145361905Y-95921429D01*
X145314286Y-95826190D01*
X145266667Y-95778571D01*
X145171429Y-95730952D01*
X143235714Y-115452381D02*
X143235714Y-114452381D01*
X143473809Y-114452381D01*
X143616667Y-114500000D01*
X143711905Y-114595238D01*
X143759524Y-114690476D01*
X143807143Y-114880952D01*
X143807143Y-115023810D01*
X143759524Y-115214286D01*
X143711905Y-115309524D01*
X143616667Y-115404762D01*
X143473809Y-115452381D01*
X143235714Y-115452381D01*
X144188095Y-114547619D02*
X144235714Y-114500000D01*
X144330952Y-114452381D01*
X144569048Y-114452381D01*
X144664286Y-114500000D01*
X144711905Y-114547619D01*
X144759524Y-114642857D01*
X144759524Y-114738095D01*
X144711905Y-114880952D01*
X144140476Y-115452381D01*
X144759524Y-115452381D01*
X145235714Y-115452381D02*
X145426190Y-115452381D01*
X145521429Y-115404762D01*
X145569048Y-115357143D01*
X145664286Y-115214286D01*
X145711905Y-115023810D01*
X145711905Y-114642857D01*
X145664286Y-114547619D01*
X145616667Y-114500000D01*
X145521429Y-114452381D01*
X145330952Y-114452381D01*
X145235714Y-114500000D01*
X145188095Y-114547619D01*
X145140476Y-114642857D01*
X145140476Y-114880952D01*
X145188095Y-114976190D01*
X145235714Y-115023810D01*
X145330952Y-115071429D01*
X145521429Y-115071429D01*
X145616667Y-115023810D01*
X145664286Y-114976190D01*
X145711905Y-114880952D01*
X142435714Y-134052381D02*
X142435714Y-133052381D01*
X142673809Y-133052381D01*
X142816667Y-133100000D01*
X142911905Y-133195238D01*
X142959524Y-133290476D01*
X143007143Y-133480952D01*
X143007143Y-133623810D01*
X142959524Y-133814286D01*
X142911905Y-133909524D01*
X142816667Y-134004762D01*
X142673809Y-134052381D01*
X142435714Y-134052381D01*
X143340476Y-133052381D02*
X143959524Y-133052381D01*
X143626190Y-133433333D01*
X143769048Y-133433333D01*
X143864286Y-133480952D01*
X143911905Y-133528571D01*
X143959524Y-133623810D01*
X143959524Y-133861905D01*
X143911905Y-133957143D01*
X143864286Y-134004762D01*
X143769048Y-134052381D01*
X143483333Y-134052381D01*
X143388095Y-134004762D01*
X143340476Y-133957143D01*
X144578571Y-133052381D02*
X144673810Y-133052381D01*
X144769048Y-133100000D01*
X144816667Y-133147619D01*
X144864286Y-133242857D01*
X144911905Y-133433333D01*
X144911905Y-133671429D01*
X144864286Y-133861905D01*
X144816667Y-133957143D01*
X144769048Y-134004762D01*
X144673810Y-134052381D01*
X144578571Y-134052381D01*
X144483333Y-134004762D01*
X144435714Y-133957143D01*
X144388095Y-133861905D01*
X144340476Y-133671429D01*
X144340476Y-133433333D01*
X144388095Y-133242857D01*
X144435714Y-133147619D01*
X144483333Y-133100000D01*
X144578571Y-133052381D01*
X162285714Y-142102381D02*
X162285714Y-141102381D01*
X162523809Y-141102381D01*
X162666667Y-141150000D01*
X162761905Y-141245238D01*
X162809524Y-141340476D01*
X162857143Y-141530952D01*
X162857143Y-141673810D01*
X162809524Y-141864286D01*
X162761905Y-141959524D01*
X162666667Y-142054762D01*
X162523809Y-142102381D01*
X162285714Y-142102381D01*
X163190476Y-141102381D02*
X163809524Y-141102381D01*
X163476190Y-141483333D01*
X163619048Y-141483333D01*
X163714286Y-141530952D01*
X163761905Y-141578571D01*
X163809524Y-141673810D01*
X163809524Y-141911905D01*
X163761905Y-142007143D01*
X163714286Y-142054762D01*
X163619048Y-142102381D01*
X163333333Y-142102381D01*
X163238095Y-142054762D01*
X163190476Y-142007143D01*
X164761905Y-142102381D02*
X164190476Y-142102381D01*
X164476190Y-142102381D02*
X164476190Y-141102381D01*
X164380952Y-141245238D01*
X164285714Y-141340476D01*
X164190476Y-141388095D01*
X162016606Y-59880854D02*
X161892572Y-60584288D01*
X161820868Y-60716706D01*
X161710539Y-60793959D01*
X161561584Y-60816048D01*
X161467792Y-60799510D01*
X162827766Y-61039310D02*
X162265018Y-60940082D01*
X162546391Y-60989696D02*
X162720040Y-60004888D01*
X162601442Y-60129037D01*
X162491113Y-60206290D01*
X162389052Y-60236648D01*
X169666667Y-99812381D02*
X169666667Y-100526667D01*
X169619047Y-100669524D01*
X169523809Y-100764762D01*
X169380952Y-100812381D01*
X169285714Y-100812381D01*
X170095238Y-99907619D02*
X170142857Y-99860000D01*
X170238095Y-99812381D01*
X170476191Y-99812381D01*
X170571429Y-99860000D01*
X170619048Y-99907619D01*
X170666667Y-100002857D01*
X170666667Y-100098095D01*
X170619048Y-100240952D01*
X170047619Y-100812381D01*
X170666667Y-100812381D01*
X159602381Y-64366666D02*
X159126190Y-64700000D01*
X159602381Y-64938095D02*
X158602381Y-64938095D01*
X158602381Y-64557142D01*
X158650000Y-64461904D01*
X158697619Y-64414285D01*
X158792857Y-64366666D01*
X158935714Y-64366666D01*
X159030952Y-64414285D01*
X159078571Y-64461904D01*
X159126190Y-64557142D01*
X159126190Y-64938095D01*
X159602381Y-63414285D02*
X159602381Y-63985714D01*
X159602381Y-63700000D02*
X158602381Y-63700000D01*
X158745238Y-63795238D01*
X158840476Y-63890476D01*
X158888095Y-63985714D01*
X161852381Y-64366666D02*
X161376190Y-64700000D01*
X161852381Y-64938095D02*
X160852381Y-64938095D01*
X160852381Y-64557142D01*
X160900000Y-64461904D01*
X160947619Y-64414285D01*
X161042857Y-64366666D01*
X161185714Y-64366666D01*
X161280952Y-64414285D01*
X161328571Y-64461904D01*
X161376190Y-64557142D01*
X161376190Y-64938095D01*
X160947619Y-63985714D02*
X160900000Y-63938095D01*
X160852381Y-63842857D01*
X160852381Y-63604761D01*
X160900000Y-63509523D01*
X160947619Y-63461904D01*
X161042857Y-63414285D01*
X161138095Y-63414285D01*
X161280952Y-63461904D01*
X161852381Y-64033333D01*
X161852381Y-63414285D01*
X155702381Y-67816666D02*
X155226190Y-68150000D01*
X155702381Y-68388095D02*
X154702381Y-68388095D01*
X154702381Y-68007142D01*
X154750000Y-67911904D01*
X154797619Y-67864285D01*
X154892857Y-67816666D01*
X155035714Y-67816666D01*
X155130952Y-67864285D01*
X155178571Y-67911904D01*
X155226190Y-68007142D01*
X155226190Y-68388095D01*
X154702381Y-67483333D02*
X154702381Y-66864285D01*
X155083333Y-67197619D01*
X155083333Y-67054761D01*
X155130952Y-66959523D01*
X155178571Y-66911904D01*
X155273810Y-66864285D01*
X155511905Y-66864285D01*
X155607143Y-66911904D01*
X155654762Y-66959523D01*
X155702381Y-67054761D01*
X155702381Y-67340476D01*
X155654762Y-67435714D01*
X155607143Y-67483333D01*
X52766667Y-57204762D02*
X52909524Y-57252381D01*
X53147620Y-57252381D01*
X53242858Y-57204762D01*
X53290477Y-57157143D01*
X53338096Y-57061905D01*
X53338096Y-56966667D01*
X53290477Y-56871429D01*
X53242858Y-56823810D01*
X53147620Y-56776190D01*
X52957143Y-56728571D01*
X52861905Y-56680952D01*
X52814286Y-56633333D01*
X52766667Y-56538095D01*
X52766667Y-56442857D01*
X52814286Y-56347619D01*
X52861905Y-56300000D01*
X52957143Y-56252381D01*
X53195239Y-56252381D01*
X53338096Y-56300000D01*
X53671429Y-56252381D02*
X53909524Y-57252381D01*
X54100001Y-56538095D01*
X54290477Y-57252381D01*
X54528572Y-56252381D01*
X55433334Y-57252381D02*
X54861905Y-57252381D01*
X55147619Y-57252381D02*
X55147619Y-56252381D01*
X55052381Y-56395238D01*
X54957143Y-56490476D01*
X54861905Y-56538095D01*
X52766667Y-76204762D02*
X52909524Y-76252381D01*
X53147620Y-76252381D01*
X53242858Y-76204762D01*
X53290477Y-76157143D01*
X53338096Y-76061905D01*
X53338096Y-75966667D01*
X53290477Y-75871429D01*
X53242858Y-75823810D01*
X53147620Y-75776190D01*
X52957143Y-75728571D01*
X52861905Y-75680952D01*
X52814286Y-75633333D01*
X52766667Y-75538095D01*
X52766667Y-75442857D01*
X52814286Y-75347619D01*
X52861905Y-75300000D01*
X52957143Y-75252381D01*
X53195239Y-75252381D01*
X53338096Y-75300000D01*
X53671429Y-75252381D02*
X53909524Y-76252381D01*
X54100001Y-75538095D01*
X54290477Y-76252381D01*
X54528572Y-75252381D01*
X54861905Y-75347619D02*
X54909524Y-75300000D01*
X55004762Y-75252381D01*
X55242858Y-75252381D01*
X55338096Y-75300000D01*
X55385715Y-75347619D01*
X55433334Y-75442857D01*
X55433334Y-75538095D01*
X55385715Y-75680952D01*
X54814286Y-76252381D01*
X55433334Y-76252381D01*
X52766667Y-95204762D02*
X52909524Y-95252381D01*
X53147620Y-95252381D01*
X53242858Y-95204762D01*
X53290477Y-95157143D01*
X53338096Y-95061905D01*
X53338096Y-94966667D01*
X53290477Y-94871429D01*
X53242858Y-94823810D01*
X53147620Y-94776190D01*
X52957143Y-94728571D01*
X52861905Y-94680952D01*
X52814286Y-94633333D01*
X52766667Y-94538095D01*
X52766667Y-94442857D01*
X52814286Y-94347619D01*
X52861905Y-94300000D01*
X52957143Y-94252381D01*
X53195239Y-94252381D01*
X53338096Y-94300000D01*
X53671429Y-94252381D02*
X53909524Y-95252381D01*
X54100001Y-94538095D01*
X54290477Y-95252381D01*
X54528572Y-94252381D01*
X54814286Y-94252381D02*
X55433334Y-94252381D01*
X55100000Y-94633333D01*
X55242858Y-94633333D01*
X55338096Y-94680952D01*
X55385715Y-94728571D01*
X55433334Y-94823810D01*
X55433334Y-95061905D01*
X55385715Y-95157143D01*
X55338096Y-95204762D01*
X55242858Y-95252381D01*
X54957143Y-95252381D01*
X54861905Y-95204762D01*
X54814286Y-95157143D01*
X52766667Y-114204762D02*
X52909524Y-114252381D01*
X53147620Y-114252381D01*
X53242858Y-114204762D01*
X53290477Y-114157143D01*
X53338096Y-114061905D01*
X53338096Y-113966667D01*
X53290477Y-113871429D01*
X53242858Y-113823810D01*
X53147620Y-113776190D01*
X52957143Y-113728571D01*
X52861905Y-113680952D01*
X52814286Y-113633333D01*
X52766667Y-113538095D01*
X52766667Y-113442857D01*
X52814286Y-113347619D01*
X52861905Y-113300000D01*
X52957143Y-113252381D01*
X53195239Y-113252381D01*
X53338096Y-113300000D01*
X53671429Y-113252381D02*
X53909524Y-114252381D01*
X54100001Y-113538095D01*
X54290477Y-114252381D01*
X54528572Y-113252381D01*
X55338096Y-113585714D02*
X55338096Y-114252381D01*
X55100000Y-113204762D02*
X54861905Y-113919048D01*
X55480953Y-113919048D01*
X52766667Y-133204762D02*
X52909524Y-133252381D01*
X53147620Y-133252381D01*
X53242858Y-133204762D01*
X53290477Y-133157143D01*
X53338096Y-133061905D01*
X53338096Y-132966667D01*
X53290477Y-132871429D01*
X53242858Y-132823810D01*
X53147620Y-132776190D01*
X52957143Y-132728571D01*
X52861905Y-132680952D01*
X52814286Y-132633333D01*
X52766667Y-132538095D01*
X52766667Y-132442857D01*
X52814286Y-132347619D01*
X52861905Y-132300000D01*
X52957143Y-132252381D01*
X53195239Y-132252381D01*
X53338096Y-132300000D01*
X53671429Y-132252381D02*
X53909524Y-133252381D01*
X54100001Y-132538095D01*
X54290477Y-133252381D01*
X54528572Y-132252381D01*
X55385715Y-132252381D02*
X54909524Y-132252381D01*
X54861905Y-132728571D01*
X54909524Y-132680952D01*
X55004762Y-132633333D01*
X55242858Y-132633333D01*
X55338096Y-132680952D01*
X55385715Y-132728571D01*
X55433334Y-132823810D01*
X55433334Y-133061905D01*
X55385715Y-133157143D01*
X55338096Y-133204762D01*
X55242858Y-133252381D01*
X55004762Y-133252381D01*
X54909524Y-133204762D01*
X54861905Y-133157143D01*
X71766667Y-57204762D02*
X71909524Y-57252381D01*
X72147620Y-57252381D01*
X72242858Y-57204762D01*
X72290477Y-57157143D01*
X72338096Y-57061905D01*
X72338096Y-56966667D01*
X72290477Y-56871429D01*
X72242858Y-56823810D01*
X72147620Y-56776190D01*
X71957143Y-56728571D01*
X71861905Y-56680952D01*
X71814286Y-56633333D01*
X71766667Y-56538095D01*
X71766667Y-56442857D01*
X71814286Y-56347619D01*
X71861905Y-56300000D01*
X71957143Y-56252381D01*
X72195239Y-56252381D01*
X72338096Y-56300000D01*
X72671429Y-56252381D02*
X72909524Y-57252381D01*
X73100001Y-56538095D01*
X73290477Y-57252381D01*
X73528572Y-56252381D01*
X74338096Y-56252381D02*
X74147619Y-56252381D01*
X74052381Y-56300000D01*
X74004762Y-56347619D01*
X73909524Y-56490476D01*
X73861905Y-56680952D01*
X73861905Y-57061905D01*
X73909524Y-57157143D01*
X73957143Y-57204762D01*
X74052381Y-57252381D01*
X74242858Y-57252381D01*
X74338096Y-57204762D01*
X74385715Y-57157143D01*
X74433334Y-57061905D01*
X74433334Y-56823810D01*
X74385715Y-56728571D01*
X74338096Y-56680952D01*
X74242858Y-56633333D01*
X74052381Y-56633333D01*
X73957143Y-56680952D01*
X73909524Y-56728571D01*
X73861905Y-56823810D01*
X71766667Y-76204762D02*
X71909524Y-76252381D01*
X72147620Y-76252381D01*
X72242858Y-76204762D01*
X72290477Y-76157143D01*
X72338096Y-76061905D01*
X72338096Y-75966667D01*
X72290477Y-75871429D01*
X72242858Y-75823810D01*
X72147620Y-75776190D01*
X71957143Y-75728571D01*
X71861905Y-75680952D01*
X71814286Y-75633333D01*
X71766667Y-75538095D01*
X71766667Y-75442857D01*
X71814286Y-75347619D01*
X71861905Y-75300000D01*
X71957143Y-75252381D01*
X72195239Y-75252381D01*
X72338096Y-75300000D01*
X72671429Y-75252381D02*
X72909524Y-76252381D01*
X73100001Y-75538095D01*
X73290477Y-76252381D01*
X73528572Y-75252381D01*
X73814286Y-75252381D02*
X74480953Y-75252381D01*
X74052381Y-76252381D01*
X71766667Y-95204762D02*
X71909524Y-95252381D01*
X72147620Y-95252381D01*
X72242858Y-95204762D01*
X72290477Y-95157143D01*
X72338096Y-95061905D01*
X72338096Y-94966667D01*
X72290477Y-94871429D01*
X72242858Y-94823810D01*
X72147620Y-94776190D01*
X71957143Y-94728571D01*
X71861905Y-94680952D01*
X71814286Y-94633333D01*
X71766667Y-94538095D01*
X71766667Y-94442857D01*
X71814286Y-94347619D01*
X71861905Y-94300000D01*
X71957143Y-94252381D01*
X72195239Y-94252381D01*
X72338096Y-94300000D01*
X72671429Y-94252381D02*
X72909524Y-95252381D01*
X73100001Y-94538095D01*
X73290477Y-95252381D01*
X73528572Y-94252381D01*
X74052381Y-94680952D02*
X73957143Y-94633333D01*
X73909524Y-94585714D01*
X73861905Y-94490476D01*
X73861905Y-94442857D01*
X73909524Y-94347619D01*
X73957143Y-94300000D01*
X74052381Y-94252381D01*
X74242858Y-94252381D01*
X74338096Y-94300000D01*
X74385715Y-94347619D01*
X74433334Y-94442857D01*
X74433334Y-94490476D01*
X74385715Y-94585714D01*
X74338096Y-94633333D01*
X74242858Y-94680952D01*
X74052381Y-94680952D01*
X73957143Y-94728571D01*
X73909524Y-94776190D01*
X73861905Y-94871429D01*
X73861905Y-95061905D01*
X73909524Y-95157143D01*
X73957143Y-95204762D01*
X74052381Y-95252381D01*
X74242858Y-95252381D01*
X74338096Y-95204762D01*
X74385715Y-95157143D01*
X74433334Y-95061905D01*
X74433334Y-94871429D01*
X74385715Y-94776190D01*
X74338096Y-94728571D01*
X74242858Y-94680952D01*
X71766667Y-114204762D02*
X71909524Y-114252381D01*
X72147620Y-114252381D01*
X72242858Y-114204762D01*
X72290477Y-114157143D01*
X72338096Y-114061905D01*
X72338096Y-113966667D01*
X72290477Y-113871429D01*
X72242858Y-113823810D01*
X72147620Y-113776190D01*
X71957143Y-113728571D01*
X71861905Y-113680952D01*
X71814286Y-113633333D01*
X71766667Y-113538095D01*
X71766667Y-113442857D01*
X71814286Y-113347619D01*
X71861905Y-113300000D01*
X71957143Y-113252381D01*
X72195239Y-113252381D01*
X72338096Y-113300000D01*
X72671429Y-113252381D02*
X72909524Y-114252381D01*
X73100001Y-113538095D01*
X73290477Y-114252381D01*
X73528572Y-113252381D01*
X73957143Y-114252381D02*
X74147619Y-114252381D01*
X74242858Y-114204762D01*
X74290477Y-114157143D01*
X74385715Y-114014286D01*
X74433334Y-113823810D01*
X74433334Y-113442857D01*
X74385715Y-113347619D01*
X74338096Y-113300000D01*
X74242858Y-113252381D01*
X74052381Y-113252381D01*
X73957143Y-113300000D01*
X73909524Y-113347619D01*
X73861905Y-113442857D01*
X73861905Y-113680952D01*
X73909524Y-113776190D01*
X73957143Y-113823810D01*
X74052381Y-113871429D01*
X74242858Y-113871429D01*
X74338096Y-113823810D01*
X74385715Y-113776190D01*
X74433334Y-113680952D01*
X71290476Y-133204762D02*
X71433333Y-133252381D01*
X71671429Y-133252381D01*
X71766667Y-133204762D01*
X71814286Y-133157143D01*
X71861905Y-133061905D01*
X71861905Y-132966667D01*
X71814286Y-132871429D01*
X71766667Y-132823810D01*
X71671429Y-132776190D01*
X71480952Y-132728571D01*
X71385714Y-132680952D01*
X71338095Y-132633333D01*
X71290476Y-132538095D01*
X71290476Y-132442857D01*
X71338095Y-132347619D01*
X71385714Y-132300000D01*
X71480952Y-132252381D01*
X71719048Y-132252381D01*
X71861905Y-132300000D01*
X72195238Y-132252381D02*
X72433333Y-133252381D01*
X72623810Y-132538095D01*
X72814286Y-133252381D01*
X73052381Y-132252381D01*
X73957143Y-133252381D02*
X73385714Y-133252381D01*
X73671428Y-133252381D02*
X73671428Y-132252381D01*
X73576190Y-132395238D01*
X73480952Y-132490476D01*
X73385714Y-132538095D01*
X74576190Y-132252381D02*
X74671429Y-132252381D01*
X74766667Y-132300000D01*
X74814286Y-132347619D01*
X74861905Y-132442857D01*
X74909524Y-132633333D01*
X74909524Y-132871429D01*
X74861905Y-133061905D01*
X74814286Y-133157143D01*
X74766667Y-133204762D01*
X74671429Y-133252381D01*
X74576190Y-133252381D01*
X74480952Y-133204762D01*
X74433333Y-133157143D01*
X74385714Y-133061905D01*
X74338095Y-132871429D01*
X74338095Y-132633333D01*
X74385714Y-132442857D01*
X74433333Y-132347619D01*
X74480952Y-132300000D01*
X74576190Y-132252381D01*
X90590476Y-52204762D02*
X90733333Y-52252381D01*
X90971429Y-52252381D01*
X91066667Y-52204762D01*
X91114286Y-52157143D01*
X91161905Y-52061905D01*
X91161905Y-51966667D01*
X91114286Y-51871429D01*
X91066667Y-51823810D01*
X90971429Y-51776190D01*
X90780952Y-51728571D01*
X90685714Y-51680952D01*
X90638095Y-51633333D01*
X90590476Y-51538095D01*
X90590476Y-51442857D01*
X90638095Y-51347619D01*
X90685714Y-51300000D01*
X90780952Y-51252381D01*
X91019048Y-51252381D01*
X91161905Y-51300000D01*
X91495238Y-51252381D02*
X91733333Y-52252381D01*
X91923810Y-51538095D01*
X92114286Y-52252381D01*
X92352381Y-51252381D01*
X93257143Y-52252381D02*
X92685714Y-52252381D01*
X92971428Y-52252381D02*
X92971428Y-51252381D01*
X92876190Y-51395238D01*
X92780952Y-51490476D01*
X92685714Y-51538095D01*
X94209524Y-52252381D02*
X93638095Y-52252381D01*
X93923809Y-52252381D02*
X93923809Y-51252381D01*
X93828571Y-51395238D01*
X93733333Y-51490476D01*
X93638095Y-51538095D01*
X90590476Y-71204762D02*
X90733333Y-71252381D01*
X90971429Y-71252381D01*
X91066667Y-71204762D01*
X91114286Y-71157143D01*
X91161905Y-71061905D01*
X91161905Y-70966667D01*
X91114286Y-70871429D01*
X91066667Y-70823810D01*
X90971429Y-70776190D01*
X90780952Y-70728571D01*
X90685714Y-70680952D01*
X90638095Y-70633333D01*
X90590476Y-70538095D01*
X90590476Y-70442857D01*
X90638095Y-70347619D01*
X90685714Y-70300000D01*
X90780952Y-70252381D01*
X91019048Y-70252381D01*
X91161905Y-70300000D01*
X91495238Y-70252381D02*
X91733333Y-71252381D01*
X91923810Y-70538095D01*
X92114286Y-71252381D01*
X92352381Y-70252381D01*
X93257143Y-71252381D02*
X92685714Y-71252381D01*
X92971428Y-71252381D02*
X92971428Y-70252381D01*
X92876190Y-70395238D01*
X92780952Y-70490476D01*
X92685714Y-70538095D01*
X93638095Y-70347619D02*
X93685714Y-70300000D01*
X93780952Y-70252381D01*
X94019048Y-70252381D01*
X94114286Y-70300000D01*
X94161905Y-70347619D01*
X94209524Y-70442857D01*
X94209524Y-70538095D01*
X94161905Y-70680952D01*
X93590476Y-71252381D01*
X94209524Y-71252381D01*
X90590476Y-90204762D02*
X90733333Y-90252381D01*
X90971429Y-90252381D01*
X91066667Y-90204762D01*
X91114286Y-90157143D01*
X91161905Y-90061905D01*
X91161905Y-89966667D01*
X91114286Y-89871429D01*
X91066667Y-89823810D01*
X90971429Y-89776190D01*
X90780952Y-89728571D01*
X90685714Y-89680952D01*
X90638095Y-89633333D01*
X90590476Y-89538095D01*
X90590476Y-89442857D01*
X90638095Y-89347619D01*
X90685714Y-89300000D01*
X90780952Y-89252381D01*
X91019048Y-89252381D01*
X91161905Y-89300000D01*
X91495238Y-89252381D02*
X91733333Y-90252381D01*
X91923810Y-89538095D01*
X92114286Y-90252381D01*
X92352381Y-89252381D01*
X93257143Y-90252381D02*
X92685714Y-90252381D01*
X92971428Y-90252381D02*
X92971428Y-89252381D01*
X92876190Y-89395238D01*
X92780952Y-89490476D01*
X92685714Y-89538095D01*
X93590476Y-89252381D02*
X94209524Y-89252381D01*
X93876190Y-89633333D01*
X94019048Y-89633333D01*
X94114286Y-89680952D01*
X94161905Y-89728571D01*
X94209524Y-89823810D01*
X94209524Y-90061905D01*
X94161905Y-90157143D01*
X94114286Y-90204762D01*
X94019048Y-90252381D01*
X93733333Y-90252381D01*
X93638095Y-90204762D01*
X93590476Y-90157143D01*
X90590476Y-109204762D02*
X90733333Y-109252381D01*
X90971429Y-109252381D01*
X91066667Y-109204762D01*
X91114286Y-109157143D01*
X91161905Y-109061905D01*
X91161905Y-108966667D01*
X91114286Y-108871429D01*
X91066667Y-108823810D01*
X90971429Y-108776190D01*
X90780952Y-108728571D01*
X90685714Y-108680952D01*
X90638095Y-108633333D01*
X90590476Y-108538095D01*
X90590476Y-108442857D01*
X90638095Y-108347619D01*
X90685714Y-108300000D01*
X90780952Y-108252381D01*
X91019048Y-108252381D01*
X91161905Y-108300000D01*
X91495238Y-108252381D02*
X91733333Y-109252381D01*
X91923810Y-108538095D01*
X92114286Y-109252381D01*
X92352381Y-108252381D01*
X93257143Y-109252381D02*
X92685714Y-109252381D01*
X92971428Y-109252381D02*
X92971428Y-108252381D01*
X92876190Y-108395238D01*
X92780952Y-108490476D01*
X92685714Y-108538095D01*
X94114286Y-108585714D02*
X94114286Y-109252381D01*
X93876190Y-108204762D02*
X93638095Y-108919048D01*
X94257143Y-108919048D01*
X90590476Y-128204762D02*
X90733333Y-128252381D01*
X90971429Y-128252381D01*
X91066667Y-128204762D01*
X91114286Y-128157143D01*
X91161905Y-128061905D01*
X91161905Y-127966667D01*
X91114286Y-127871429D01*
X91066667Y-127823810D01*
X90971429Y-127776190D01*
X90780952Y-127728571D01*
X90685714Y-127680952D01*
X90638095Y-127633333D01*
X90590476Y-127538095D01*
X90590476Y-127442857D01*
X90638095Y-127347619D01*
X90685714Y-127300000D01*
X90780952Y-127252381D01*
X91019048Y-127252381D01*
X91161905Y-127300000D01*
X91495238Y-127252381D02*
X91733333Y-128252381D01*
X91923810Y-127538095D01*
X92114286Y-128252381D01*
X92352381Y-127252381D01*
X93257143Y-128252381D02*
X92685714Y-128252381D01*
X92971428Y-128252381D02*
X92971428Y-127252381D01*
X92876190Y-127395238D01*
X92780952Y-127490476D01*
X92685714Y-127538095D01*
X94161905Y-127252381D02*
X93685714Y-127252381D01*
X93638095Y-127728571D01*
X93685714Y-127680952D01*
X93780952Y-127633333D01*
X94019048Y-127633333D01*
X94114286Y-127680952D01*
X94161905Y-127728571D01*
X94209524Y-127823810D01*
X94209524Y-128061905D01*
X94161905Y-128157143D01*
X94114286Y-128204762D01*
X94019048Y-128252381D01*
X93780952Y-128252381D01*
X93685714Y-128204762D01*
X93638095Y-128157143D01*
X109590476Y-47204762D02*
X109733333Y-47252381D01*
X109971429Y-47252381D01*
X110066667Y-47204762D01*
X110114286Y-47157143D01*
X110161905Y-47061905D01*
X110161905Y-46966667D01*
X110114286Y-46871429D01*
X110066667Y-46823810D01*
X109971429Y-46776190D01*
X109780952Y-46728571D01*
X109685714Y-46680952D01*
X109638095Y-46633333D01*
X109590476Y-46538095D01*
X109590476Y-46442857D01*
X109638095Y-46347619D01*
X109685714Y-46300000D01*
X109780952Y-46252381D01*
X110019048Y-46252381D01*
X110161905Y-46300000D01*
X110495238Y-46252381D02*
X110733333Y-47252381D01*
X110923810Y-46538095D01*
X111114286Y-47252381D01*
X111352381Y-46252381D01*
X112257143Y-47252381D02*
X111685714Y-47252381D01*
X111971428Y-47252381D02*
X111971428Y-46252381D01*
X111876190Y-46395238D01*
X111780952Y-46490476D01*
X111685714Y-46538095D01*
X113114286Y-46252381D02*
X112923809Y-46252381D01*
X112828571Y-46300000D01*
X112780952Y-46347619D01*
X112685714Y-46490476D01*
X112638095Y-46680952D01*
X112638095Y-47061905D01*
X112685714Y-47157143D01*
X112733333Y-47204762D01*
X112828571Y-47252381D01*
X113019048Y-47252381D01*
X113114286Y-47204762D01*
X113161905Y-47157143D01*
X113209524Y-47061905D01*
X113209524Y-46823810D01*
X113161905Y-46728571D01*
X113114286Y-46680952D01*
X113019048Y-46633333D01*
X112828571Y-46633333D01*
X112733333Y-46680952D01*
X112685714Y-46728571D01*
X112638095Y-46823810D01*
X109690476Y-66204762D02*
X109833333Y-66252381D01*
X110071429Y-66252381D01*
X110166667Y-66204762D01*
X110214286Y-66157143D01*
X110261905Y-66061905D01*
X110261905Y-65966667D01*
X110214286Y-65871429D01*
X110166667Y-65823810D01*
X110071429Y-65776190D01*
X109880952Y-65728571D01*
X109785714Y-65680952D01*
X109738095Y-65633333D01*
X109690476Y-65538095D01*
X109690476Y-65442857D01*
X109738095Y-65347619D01*
X109785714Y-65300000D01*
X109880952Y-65252381D01*
X110119048Y-65252381D01*
X110261905Y-65300000D01*
X110595238Y-65252381D02*
X110833333Y-66252381D01*
X111023810Y-65538095D01*
X111214286Y-66252381D01*
X111452381Y-65252381D01*
X112357143Y-66252381D02*
X111785714Y-66252381D01*
X112071428Y-66252381D02*
X112071428Y-65252381D01*
X111976190Y-65395238D01*
X111880952Y-65490476D01*
X111785714Y-65538095D01*
X112690476Y-65252381D02*
X113357143Y-65252381D01*
X112928571Y-66252381D01*
X109590476Y-85204762D02*
X109733333Y-85252381D01*
X109971429Y-85252381D01*
X110066667Y-85204762D01*
X110114286Y-85157143D01*
X110161905Y-85061905D01*
X110161905Y-84966667D01*
X110114286Y-84871429D01*
X110066667Y-84823810D01*
X109971429Y-84776190D01*
X109780952Y-84728571D01*
X109685714Y-84680952D01*
X109638095Y-84633333D01*
X109590476Y-84538095D01*
X109590476Y-84442857D01*
X109638095Y-84347619D01*
X109685714Y-84300000D01*
X109780952Y-84252381D01*
X110019048Y-84252381D01*
X110161905Y-84300000D01*
X110495238Y-84252381D02*
X110733333Y-85252381D01*
X110923810Y-84538095D01*
X111114286Y-85252381D01*
X111352381Y-84252381D01*
X112257143Y-85252381D02*
X111685714Y-85252381D01*
X111971428Y-85252381D02*
X111971428Y-84252381D01*
X111876190Y-84395238D01*
X111780952Y-84490476D01*
X111685714Y-84538095D01*
X112828571Y-84680952D02*
X112733333Y-84633333D01*
X112685714Y-84585714D01*
X112638095Y-84490476D01*
X112638095Y-84442857D01*
X112685714Y-84347619D01*
X112733333Y-84300000D01*
X112828571Y-84252381D01*
X113019048Y-84252381D01*
X113114286Y-84300000D01*
X113161905Y-84347619D01*
X113209524Y-84442857D01*
X113209524Y-84490476D01*
X113161905Y-84585714D01*
X113114286Y-84633333D01*
X113019048Y-84680952D01*
X112828571Y-84680952D01*
X112733333Y-84728571D01*
X112685714Y-84776190D01*
X112638095Y-84871429D01*
X112638095Y-85061905D01*
X112685714Y-85157143D01*
X112733333Y-85204762D01*
X112828571Y-85252381D01*
X113019048Y-85252381D01*
X113114286Y-85204762D01*
X113161905Y-85157143D01*
X113209524Y-85061905D01*
X113209524Y-84871429D01*
X113161905Y-84776190D01*
X113114286Y-84728571D01*
X113019048Y-84680952D01*
X109590476Y-104204762D02*
X109733333Y-104252381D01*
X109971429Y-104252381D01*
X110066667Y-104204762D01*
X110114286Y-104157143D01*
X110161905Y-104061905D01*
X110161905Y-103966667D01*
X110114286Y-103871429D01*
X110066667Y-103823810D01*
X109971429Y-103776190D01*
X109780952Y-103728571D01*
X109685714Y-103680952D01*
X109638095Y-103633333D01*
X109590476Y-103538095D01*
X109590476Y-103442857D01*
X109638095Y-103347619D01*
X109685714Y-103300000D01*
X109780952Y-103252381D01*
X110019048Y-103252381D01*
X110161905Y-103300000D01*
X110495238Y-103252381D02*
X110733333Y-104252381D01*
X110923810Y-103538095D01*
X111114286Y-104252381D01*
X111352381Y-103252381D01*
X112257143Y-104252381D02*
X111685714Y-104252381D01*
X111971428Y-104252381D02*
X111971428Y-103252381D01*
X111876190Y-103395238D01*
X111780952Y-103490476D01*
X111685714Y-103538095D01*
X112733333Y-104252381D02*
X112923809Y-104252381D01*
X113019048Y-104204762D01*
X113066667Y-104157143D01*
X113161905Y-104014286D01*
X113209524Y-103823810D01*
X113209524Y-103442857D01*
X113161905Y-103347619D01*
X113114286Y-103300000D01*
X113019048Y-103252381D01*
X112828571Y-103252381D01*
X112733333Y-103300000D01*
X112685714Y-103347619D01*
X112638095Y-103442857D01*
X112638095Y-103680952D01*
X112685714Y-103776190D01*
X112733333Y-103823810D01*
X112828571Y-103871429D01*
X113019048Y-103871429D01*
X113114286Y-103823810D01*
X113161905Y-103776190D01*
X113209524Y-103680952D01*
X109590476Y-123204762D02*
X109733333Y-123252381D01*
X109971429Y-123252381D01*
X110066667Y-123204762D01*
X110114286Y-123157143D01*
X110161905Y-123061905D01*
X110161905Y-122966667D01*
X110114286Y-122871429D01*
X110066667Y-122823810D01*
X109971429Y-122776190D01*
X109780952Y-122728571D01*
X109685714Y-122680952D01*
X109638095Y-122633333D01*
X109590476Y-122538095D01*
X109590476Y-122442857D01*
X109638095Y-122347619D01*
X109685714Y-122300000D01*
X109780952Y-122252381D01*
X110019048Y-122252381D01*
X110161905Y-122300000D01*
X110495238Y-122252381D02*
X110733333Y-123252381D01*
X110923810Y-122538095D01*
X111114286Y-123252381D01*
X111352381Y-122252381D01*
X111685714Y-122347619D02*
X111733333Y-122300000D01*
X111828571Y-122252381D01*
X112066667Y-122252381D01*
X112161905Y-122300000D01*
X112209524Y-122347619D01*
X112257143Y-122442857D01*
X112257143Y-122538095D01*
X112209524Y-122680952D01*
X111638095Y-123252381D01*
X112257143Y-123252381D01*
X112876190Y-122252381D02*
X112971429Y-122252381D01*
X113066667Y-122300000D01*
X113114286Y-122347619D01*
X113161905Y-122442857D01*
X113209524Y-122633333D01*
X113209524Y-122871429D01*
X113161905Y-123061905D01*
X113114286Y-123157143D01*
X113066667Y-123204762D01*
X112971429Y-123252381D01*
X112876190Y-123252381D01*
X112780952Y-123204762D01*
X112733333Y-123157143D01*
X112685714Y-123061905D01*
X112638095Y-122871429D01*
X112638095Y-122633333D01*
X112685714Y-122442857D01*
X112733333Y-122347619D01*
X112780952Y-122300000D01*
X112876190Y-122252381D01*
X128590476Y-52204762D02*
X128733333Y-52252381D01*
X128971429Y-52252381D01*
X129066667Y-52204762D01*
X129114286Y-52157143D01*
X129161905Y-52061905D01*
X129161905Y-51966667D01*
X129114286Y-51871429D01*
X129066667Y-51823810D01*
X128971429Y-51776190D01*
X128780952Y-51728571D01*
X128685714Y-51680952D01*
X128638095Y-51633333D01*
X128590476Y-51538095D01*
X128590476Y-51442857D01*
X128638095Y-51347619D01*
X128685714Y-51300000D01*
X128780952Y-51252381D01*
X129019048Y-51252381D01*
X129161905Y-51300000D01*
X129495238Y-51252381D02*
X129733333Y-52252381D01*
X129923810Y-51538095D01*
X130114286Y-52252381D01*
X130352381Y-51252381D01*
X130685714Y-51347619D02*
X130733333Y-51300000D01*
X130828571Y-51252381D01*
X131066667Y-51252381D01*
X131161905Y-51300000D01*
X131209524Y-51347619D01*
X131257143Y-51442857D01*
X131257143Y-51538095D01*
X131209524Y-51680952D01*
X130638095Y-52252381D01*
X131257143Y-52252381D01*
X132209524Y-52252381D02*
X131638095Y-52252381D01*
X131923809Y-52252381D02*
X131923809Y-51252381D01*
X131828571Y-51395238D01*
X131733333Y-51490476D01*
X131638095Y-51538095D01*
X128590476Y-71204762D02*
X128733333Y-71252381D01*
X128971429Y-71252381D01*
X129066667Y-71204762D01*
X129114286Y-71157143D01*
X129161905Y-71061905D01*
X129161905Y-70966667D01*
X129114286Y-70871429D01*
X129066667Y-70823810D01*
X128971429Y-70776190D01*
X128780952Y-70728571D01*
X128685714Y-70680952D01*
X128638095Y-70633333D01*
X128590476Y-70538095D01*
X128590476Y-70442857D01*
X128638095Y-70347619D01*
X128685714Y-70300000D01*
X128780952Y-70252381D01*
X129019048Y-70252381D01*
X129161905Y-70300000D01*
X129495238Y-70252381D02*
X129733333Y-71252381D01*
X129923810Y-70538095D01*
X130114286Y-71252381D01*
X130352381Y-70252381D01*
X130685714Y-70347619D02*
X130733333Y-70300000D01*
X130828571Y-70252381D01*
X131066667Y-70252381D01*
X131161905Y-70300000D01*
X131209524Y-70347619D01*
X131257143Y-70442857D01*
X131257143Y-70538095D01*
X131209524Y-70680952D01*
X130638095Y-71252381D01*
X131257143Y-71252381D01*
X131638095Y-70347619D02*
X131685714Y-70300000D01*
X131780952Y-70252381D01*
X132019048Y-70252381D01*
X132114286Y-70300000D01*
X132161905Y-70347619D01*
X132209524Y-70442857D01*
X132209524Y-70538095D01*
X132161905Y-70680952D01*
X131590476Y-71252381D01*
X132209524Y-71252381D01*
X128590476Y-90204762D02*
X128733333Y-90252381D01*
X128971429Y-90252381D01*
X129066667Y-90204762D01*
X129114286Y-90157143D01*
X129161905Y-90061905D01*
X129161905Y-89966667D01*
X129114286Y-89871429D01*
X129066667Y-89823810D01*
X128971429Y-89776190D01*
X128780952Y-89728571D01*
X128685714Y-89680952D01*
X128638095Y-89633333D01*
X128590476Y-89538095D01*
X128590476Y-89442857D01*
X128638095Y-89347619D01*
X128685714Y-89300000D01*
X128780952Y-89252381D01*
X129019048Y-89252381D01*
X129161905Y-89300000D01*
X129495238Y-89252381D02*
X129733333Y-90252381D01*
X129923810Y-89538095D01*
X130114286Y-90252381D01*
X130352381Y-89252381D01*
X130685714Y-89347619D02*
X130733333Y-89300000D01*
X130828571Y-89252381D01*
X131066667Y-89252381D01*
X131161905Y-89300000D01*
X131209524Y-89347619D01*
X131257143Y-89442857D01*
X131257143Y-89538095D01*
X131209524Y-89680952D01*
X130638095Y-90252381D01*
X131257143Y-90252381D01*
X131590476Y-89252381D02*
X132209524Y-89252381D01*
X131876190Y-89633333D01*
X132019048Y-89633333D01*
X132114286Y-89680952D01*
X132161905Y-89728571D01*
X132209524Y-89823810D01*
X132209524Y-90061905D01*
X132161905Y-90157143D01*
X132114286Y-90204762D01*
X132019048Y-90252381D01*
X131733333Y-90252381D01*
X131638095Y-90204762D01*
X131590476Y-90157143D01*
X128590476Y-109204762D02*
X128733333Y-109252381D01*
X128971429Y-109252381D01*
X129066667Y-109204762D01*
X129114286Y-109157143D01*
X129161905Y-109061905D01*
X129161905Y-108966667D01*
X129114286Y-108871429D01*
X129066667Y-108823810D01*
X128971429Y-108776190D01*
X128780952Y-108728571D01*
X128685714Y-108680952D01*
X128638095Y-108633333D01*
X128590476Y-108538095D01*
X128590476Y-108442857D01*
X128638095Y-108347619D01*
X128685714Y-108300000D01*
X128780952Y-108252381D01*
X129019048Y-108252381D01*
X129161905Y-108300000D01*
X129495238Y-108252381D02*
X129733333Y-109252381D01*
X129923810Y-108538095D01*
X130114286Y-109252381D01*
X130352381Y-108252381D01*
X130685714Y-108347619D02*
X130733333Y-108300000D01*
X130828571Y-108252381D01*
X131066667Y-108252381D01*
X131161905Y-108300000D01*
X131209524Y-108347619D01*
X131257143Y-108442857D01*
X131257143Y-108538095D01*
X131209524Y-108680952D01*
X130638095Y-109252381D01*
X131257143Y-109252381D01*
X132114286Y-108585714D02*
X132114286Y-109252381D01*
X131876190Y-108204762D02*
X131638095Y-108919048D01*
X132257143Y-108919048D01*
X128590476Y-128204762D02*
X128733333Y-128252381D01*
X128971429Y-128252381D01*
X129066667Y-128204762D01*
X129114286Y-128157143D01*
X129161905Y-128061905D01*
X129161905Y-127966667D01*
X129114286Y-127871429D01*
X129066667Y-127823810D01*
X128971429Y-127776190D01*
X128780952Y-127728571D01*
X128685714Y-127680952D01*
X128638095Y-127633333D01*
X128590476Y-127538095D01*
X128590476Y-127442857D01*
X128638095Y-127347619D01*
X128685714Y-127300000D01*
X128780952Y-127252381D01*
X129019048Y-127252381D01*
X129161905Y-127300000D01*
X129495238Y-127252381D02*
X129733333Y-128252381D01*
X129923810Y-127538095D01*
X130114286Y-128252381D01*
X130352381Y-127252381D01*
X130685714Y-127347619D02*
X130733333Y-127300000D01*
X130828571Y-127252381D01*
X131066667Y-127252381D01*
X131161905Y-127300000D01*
X131209524Y-127347619D01*
X131257143Y-127442857D01*
X131257143Y-127538095D01*
X131209524Y-127680952D01*
X130638095Y-128252381D01*
X131257143Y-128252381D01*
X132161905Y-127252381D02*
X131685714Y-127252381D01*
X131638095Y-127728571D01*
X131685714Y-127680952D01*
X131780952Y-127633333D01*
X132019048Y-127633333D01*
X132114286Y-127680952D01*
X132161905Y-127728571D01*
X132209524Y-127823810D01*
X132209524Y-128061905D01*
X132161905Y-128157143D01*
X132114286Y-128204762D01*
X132019048Y-128252381D01*
X131780952Y-128252381D01*
X131685714Y-128204762D01*
X131638095Y-128157143D01*
X147590476Y-57204762D02*
X147733333Y-57252381D01*
X147971429Y-57252381D01*
X148066667Y-57204762D01*
X148114286Y-57157143D01*
X148161905Y-57061905D01*
X148161905Y-56966667D01*
X148114286Y-56871429D01*
X148066667Y-56823810D01*
X147971429Y-56776190D01*
X147780952Y-56728571D01*
X147685714Y-56680952D01*
X147638095Y-56633333D01*
X147590476Y-56538095D01*
X147590476Y-56442857D01*
X147638095Y-56347619D01*
X147685714Y-56300000D01*
X147780952Y-56252381D01*
X148019048Y-56252381D01*
X148161905Y-56300000D01*
X148495238Y-56252381D02*
X148733333Y-57252381D01*
X148923810Y-56538095D01*
X149114286Y-57252381D01*
X149352381Y-56252381D01*
X149685714Y-56347619D02*
X149733333Y-56300000D01*
X149828571Y-56252381D01*
X150066667Y-56252381D01*
X150161905Y-56300000D01*
X150209524Y-56347619D01*
X150257143Y-56442857D01*
X150257143Y-56538095D01*
X150209524Y-56680952D01*
X149638095Y-57252381D01*
X150257143Y-57252381D01*
X151114286Y-56252381D02*
X150923809Y-56252381D01*
X150828571Y-56300000D01*
X150780952Y-56347619D01*
X150685714Y-56490476D01*
X150638095Y-56680952D01*
X150638095Y-57061905D01*
X150685714Y-57157143D01*
X150733333Y-57204762D01*
X150828571Y-57252381D01*
X151019048Y-57252381D01*
X151114286Y-57204762D01*
X151161905Y-57157143D01*
X151209524Y-57061905D01*
X151209524Y-56823810D01*
X151161905Y-56728571D01*
X151114286Y-56680952D01*
X151019048Y-56633333D01*
X150828571Y-56633333D01*
X150733333Y-56680952D01*
X150685714Y-56728571D01*
X150638095Y-56823810D01*
X147590476Y-76204762D02*
X147733333Y-76252381D01*
X147971429Y-76252381D01*
X148066667Y-76204762D01*
X148114286Y-76157143D01*
X148161905Y-76061905D01*
X148161905Y-75966667D01*
X148114286Y-75871429D01*
X148066667Y-75823810D01*
X147971429Y-75776190D01*
X147780952Y-75728571D01*
X147685714Y-75680952D01*
X147638095Y-75633333D01*
X147590476Y-75538095D01*
X147590476Y-75442857D01*
X147638095Y-75347619D01*
X147685714Y-75300000D01*
X147780952Y-75252381D01*
X148019048Y-75252381D01*
X148161905Y-75300000D01*
X148495238Y-75252381D02*
X148733333Y-76252381D01*
X148923810Y-75538095D01*
X149114286Y-76252381D01*
X149352381Y-75252381D01*
X149685714Y-75347619D02*
X149733333Y-75300000D01*
X149828571Y-75252381D01*
X150066667Y-75252381D01*
X150161905Y-75300000D01*
X150209524Y-75347619D01*
X150257143Y-75442857D01*
X150257143Y-75538095D01*
X150209524Y-75680952D01*
X149638095Y-76252381D01*
X150257143Y-76252381D01*
X150590476Y-75252381D02*
X151257143Y-75252381D01*
X150828571Y-76252381D01*
X147590476Y-95204762D02*
X147733333Y-95252381D01*
X147971429Y-95252381D01*
X148066667Y-95204762D01*
X148114286Y-95157143D01*
X148161905Y-95061905D01*
X148161905Y-94966667D01*
X148114286Y-94871429D01*
X148066667Y-94823810D01*
X147971429Y-94776190D01*
X147780952Y-94728571D01*
X147685714Y-94680952D01*
X147638095Y-94633333D01*
X147590476Y-94538095D01*
X147590476Y-94442857D01*
X147638095Y-94347619D01*
X147685714Y-94300000D01*
X147780952Y-94252381D01*
X148019048Y-94252381D01*
X148161905Y-94300000D01*
X148495238Y-94252381D02*
X148733333Y-95252381D01*
X148923810Y-94538095D01*
X149114286Y-95252381D01*
X149352381Y-94252381D01*
X149685714Y-94347619D02*
X149733333Y-94300000D01*
X149828571Y-94252381D01*
X150066667Y-94252381D01*
X150161905Y-94300000D01*
X150209524Y-94347619D01*
X150257143Y-94442857D01*
X150257143Y-94538095D01*
X150209524Y-94680952D01*
X149638095Y-95252381D01*
X150257143Y-95252381D01*
X150828571Y-94680952D02*
X150733333Y-94633333D01*
X150685714Y-94585714D01*
X150638095Y-94490476D01*
X150638095Y-94442857D01*
X150685714Y-94347619D01*
X150733333Y-94300000D01*
X150828571Y-94252381D01*
X151019048Y-94252381D01*
X151114286Y-94300000D01*
X151161905Y-94347619D01*
X151209524Y-94442857D01*
X151209524Y-94490476D01*
X151161905Y-94585714D01*
X151114286Y-94633333D01*
X151019048Y-94680952D01*
X150828571Y-94680952D01*
X150733333Y-94728571D01*
X150685714Y-94776190D01*
X150638095Y-94871429D01*
X150638095Y-95061905D01*
X150685714Y-95157143D01*
X150733333Y-95204762D01*
X150828571Y-95252381D01*
X151019048Y-95252381D01*
X151114286Y-95204762D01*
X151161905Y-95157143D01*
X151209524Y-95061905D01*
X151209524Y-94871429D01*
X151161905Y-94776190D01*
X151114286Y-94728571D01*
X151019048Y-94680952D01*
X147590476Y-114204762D02*
X147733333Y-114252381D01*
X147971429Y-114252381D01*
X148066667Y-114204762D01*
X148114286Y-114157143D01*
X148161905Y-114061905D01*
X148161905Y-113966667D01*
X148114286Y-113871429D01*
X148066667Y-113823810D01*
X147971429Y-113776190D01*
X147780952Y-113728571D01*
X147685714Y-113680952D01*
X147638095Y-113633333D01*
X147590476Y-113538095D01*
X147590476Y-113442857D01*
X147638095Y-113347619D01*
X147685714Y-113300000D01*
X147780952Y-113252381D01*
X148019048Y-113252381D01*
X148161905Y-113300000D01*
X148495238Y-113252381D02*
X148733333Y-114252381D01*
X148923810Y-113538095D01*
X149114286Y-114252381D01*
X149352381Y-113252381D01*
X149685714Y-113347619D02*
X149733333Y-113300000D01*
X149828571Y-113252381D01*
X150066667Y-113252381D01*
X150161905Y-113300000D01*
X150209524Y-113347619D01*
X150257143Y-113442857D01*
X150257143Y-113538095D01*
X150209524Y-113680952D01*
X149638095Y-114252381D01*
X150257143Y-114252381D01*
X150733333Y-114252381D02*
X150923809Y-114252381D01*
X151019048Y-114204762D01*
X151066667Y-114157143D01*
X151161905Y-114014286D01*
X151209524Y-113823810D01*
X151209524Y-113442857D01*
X151161905Y-113347619D01*
X151114286Y-113300000D01*
X151019048Y-113252381D01*
X150828571Y-113252381D01*
X150733333Y-113300000D01*
X150685714Y-113347619D01*
X150638095Y-113442857D01*
X150638095Y-113680952D01*
X150685714Y-113776190D01*
X150733333Y-113823810D01*
X150828571Y-113871429D01*
X151019048Y-113871429D01*
X151114286Y-113823810D01*
X151161905Y-113776190D01*
X151209524Y-113680952D01*
X147590476Y-133204762D02*
X147733333Y-133252381D01*
X147971429Y-133252381D01*
X148066667Y-133204762D01*
X148114286Y-133157143D01*
X148161905Y-133061905D01*
X148161905Y-132966667D01*
X148114286Y-132871429D01*
X148066667Y-132823810D01*
X147971429Y-132776190D01*
X147780952Y-132728571D01*
X147685714Y-132680952D01*
X147638095Y-132633333D01*
X147590476Y-132538095D01*
X147590476Y-132442857D01*
X147638095Y-132347619D01*
X147685714Y-132300000D01*
X147780952Y-132252381D01*
X148019048Y-132252381D01*
X148161905Y-132300000D01*
X148495238Y-132252381D02*
X148733333Y-133252381D01*
X148923810Y-132538095D01*
X149114286Y-133252381D01*
X149352381Y-132252381D01*
X149638095Y-132252381D02*
X150257143Y-132252381D01*
X149923809Y-132633333D01*
X150066667Y-132633333D01*
X150161905Y-132680952D01*
X150209524Y-132728571D01*
X150257143Y-132823810D01*
X150257143Y-133061905D01*
X150209524Y-133157143D01*
X150161905Y-133204762D01*
X150066667Y-133252381D01*
X149780952Y-133252381D01*
X149685714Y-133204762D01*
X149638095Y-133157143D01*
X150876190Y-132252381D02*
X150971429Y-132252381D01*
X151066667Y-132300000D01*
X151114286Y-132347619D01*
X151161905Y-132442857D01*
X151209524Y-132633333D01*
X151209524Y-132871429D01*
X151161905Y-133061905D01*
X151114286Y-133157143D01*
X151066667Y-133204762D01*
X150971429Y-133252381D01*
X150876190Y-133252381D01*
X150780952Y-133204762D01*
X150733333Y-133157143D01*
X150685714Y-133061905D01*
X150638095Y-132871429D01*
X150638095Y-132633333D01*
X150685714Y-132442857D01*
X150733333Y-132347619D01*
X150780952Y-132300000D01*
X150876190Y-132252381D01*
X166590476Y-141204762D02*
X166733333Y-141252381D01*
X166971429Y-141252381D01*
X167066667Y-141204762D01*
X167114286Y-141157143D01*
X167161905Y-141061905D01*
X167161905Y-140966667D01*
X167114286Y-140871429D01*
X167066667Y-140823810D01*
X166971429Y-140776190D01*
X166780952Y-140728571D01*
X166685714Y-140680952D01*
X166638095Y-140633333D01*
X166590476Y-140538095D01*
X166590476Y-140442857D01*
X166638095Y-140347619D01*
X166685714Y-140300000D01*
X166780952Y-140252381D01*
X167019048Y-140252381D01*
X167161905Y-140300000D01*
X167495238Y-140252381D02*
X167733333Y-141252381D01*
X167923810Y-140538095D01*
X168114286Y-141252381D01*
X168352381Y-140252381D01*
X168638095Y-140252381D02*
X169257143Y-140252381D01*
X168923809Y-140633333D01*
X169066667Y-140633333D01*
X169161905Y-140680952D01*
X169209524Y-140728571D01*
X169257143Y-140823810D01*
X169257143Y-141061905D01*
X169209524Y-141157143D01*
X169161905Y-141204762D01*
X169066667Y-141252381D01*
X168780952Y-141252381D01*
X168685714Y-141204762D01*
X168638095Y-141157143D01*
X170209524Y-141252381D02*
X169638095Y-141252381D01*
X169923809Y-141252381D02*
X169923809Y-140252381D01*
X169828571Y-140395238D01*
X169733333Y-140490476D01*
X169638095Y-140538095D01*
X170942857Y-76114286D02*
X171914286Y-76114286D01*
X172028571Y-76057143D01*
X172085714Y-76000000D01*
X172142857Y-75885714D01*
X172142857Y-75657143D01*
X172085714Y-75542857D01*
X172028571Y-75485714D01*
X171914286Y-75428571D01*
X170942857Y-75428571D01*
X172142857Y-74228571D02*
X172142857Y-74914286D01*
X172142857Y-74571428D02*
X170942857Y-74571428D01*
X171114286Y-74685714D01*
X171228571Y-74800000D01*
X171285714Y-74914286D01*
X159426190Y-82176191D02*
X159902381Y-82176191D01*
X158902381Y-82509524D02*
X159426190Y-82176191D01*
X158902381Y-81842857D01*
X159902381Y-80985714D02*
X159902381Y-81557143D01*
X159902381Y-81271429D02*
X158902381Y-81271429D01*
X159045238Y-81366667D01*
X159140476Y-81461905D01*
X159188095Y-81557143D01*
X161885714Y-123102381D02*
X161885714Y-122102381D01*
X162123809Y-122102381D01*
X162266667Y-122150000D01*
X162361905Y-122245238D01*
X162409524Y-122340476D01*
X162457143Y-122530952D01*
X162457143Y-122673810D01*
X162409524Y-122864286D01*
X162361905Y-122959524D01*
X162266667Y-123054762D01*
X162123809Y-123102381D01*
X161885714Y-123102381D01*
X162790476Y-122102381D02*
X163409524Y-122102381D01*
X163076190Y-122483333D01*
X163219048Y-122483333D01*
X163314286Y-122530952D01*
X163361905Y-122578571D01*
X163409524Y-122673810D01*
X163409524Y-122911905D01*
X163361905Y-123007143D01*
X163314286Y-123054762D01*
X163219048Y-123102381D01*
X162933333Y-123102381D01*
X162838095Y-123054762D01*
X162790476Y-123007143D01*
X163790476Y-122197619D02*
X163838095Y-122150000D01*
X163933333Y-122102381D01*
X164171429Y-122102381D01*
X164266667Y-122150000D01*
X164314286Y-122197619D01*
X164361905Y-122292857D01*
X164361905Y-122388095D01*
X164314286Y-122530952D01*
X163742857Y-123102381D01*
X164361905Y-123102381D01*
X173902381Y-74816666D02*
X173426190Y-75150000D01*
X173902381Y-75388095D02*
X172902381Y-75388095D01*
X172902381Y-75007142D01*
X172950000Y-74911904D01*
X172997619Y-74864285D01*
X173092857Y-74816666D01*
X173235714Y-74816666D01*
X173330952Y-74864285D01*
X173378571Y-74911904D01*
X173426190Y-75007142D01*
X173426190Y-75388095D01*
X173235714Y-73959523D02*
X173902381Y-73959523D01*
X172854762Y-74197619D02*
X173569048Y-74435714D01*
X173569048Y-73816666D01*
X166590476Y-122204762D02*
X166733333Y-122252381D01*
X166971429Y-122252381D01*
X167066667Y-122204762D01*
X167114286Y-122157143D01*
X167161905Y-122061905D01*
X167161905Y-121966667D01*
X167114286Y-121871429D01*
X167066667Y-121823810D01*
X166971429Y-121776190D01*
X166780952Y-121728571D01*
X166685714Y-121680952D01*
X166638095Y-121633333D01*
X166590476Y-121538095D01*
X166590476Y-121442857D01*
X166638095Y-121347619D01*
X166685714Y-121300000D01*
X166780952Y-121252381D01*
X167019048Y-121252381D01*
X167161905Y-121300000D01*
X167495238Y-121252381D02*
X167733333Y-122252381D01*
X167923810Y-121538095D01*
X168114286Y-122252381D01*
X168352381Y-121252381D01*
X168638095Y-121252381D02*
X169257143Y-121252381D01*
X168923809Y-121633333D01*
X169066667Y-121633333D01*
X169161905Y-121680952D01*
X169209524Y-121728571D01*
X169257143Y-121823810D01*
X169257143Y-122061905D01*
X169209524Y-122157143D01*
X169161905Y-122204762D01*
X169066667Y-122252381D01*
X168780952Y-122252381D01*
X168685714Y-122204762D01*
X168638095Y-122157143D01*
X169638095Y-121347619D02*
X169685714Y-121300000D01*
X169780952Y-121252381D01*
X170019048Y-121252381D01*
X170114286Y-121300000D01*
X170161905Y-121347619D01*
X170209524Y-121442857D01*
X170209524Y-121538095D01*
X170161905Y-121680952D01*
X169590476Y-122252381D01*
X170209524Y-122252381D01*
X39816667Y-51852381D02*
X39483333Y-51376190D01*
X39245238Y-51852381D02*
X39245238Y-50852381D01*
X39626191Y-50852381D01*
X39721429Y-50900000D01*
X39769048Y-50947619D01*
X39816667Y-51042857D01*
X39816667Y-51185714D01*
X39769048Y-51280952D01*
X39721429Y-51328571D01*
X39626191Y-51376190D01*
X39245238Y-51376190D01*
X40245238Y-51328571D02*
X40578572Y-51328571D01*
X40721429Y-51852381D02*
X40245238Y-51852381D01*
X40245238Y-50852381D01*
X40721429Y-50852381D01*
X41483334Y-51328571D02*
X41150000Y-51328571D01*
X41150000Y-51852381D02*
X41150000Y-50852381D01*
X41626191Y-50852381D01*
X42150000Y-50852381D02*
X42150000Y-51090476D01*
X41911905Y-50995238D02*
X42150000Y-51090476D01*
X42388096Y-50995238D01*
X42007143Y-51280952D02*
X42150000Y-51090476D01*
X42292858Y-51280952D01*
X42911905Y-50852381D02*
X42911905Y-51090476D01*
X42673810Y-50995238D02*
X42911905Y-51090476D01*
X43150001Y-50995238D01*
X42769048Y-51280952D02*
X42911905Y-51090476D01*
X43054763Y-51280952D01*
X153516667Y-52402381D02*
X153183333Y-51926190D01*
X152945238Y-52402381D02*
X152945238Y-51402381D01*
X153326191Y-51402381D01*
X153421429Y-51450000D01*
X153469048Y-51497619D01*
X153516667Y-51592857D01*
X153516667Y-51735714D01*
X153469048Y-51830952D01*
X153421429Y-51878571D01*
X153326191Y-51926190D01*
X152945238Y-51926190D01*
X153945238Y-51878571D02*
X154278572Y-51878571D01*
X154421429Y-52402381D02*
X153945238Y-52402381D01*
X153945238Y-51402381D01*
X154421429Y-51402381D01*
X155183334Y-51878571D02*
X154850000Y-51878571D01*
X154850000Y-52402381D02*
X154850000Y-51402381D01*
X155326191Y-51402381D01*
X155850000Y-51402381D02*
X155850000Y-51640476D01*
X155611905Y-51545238D02*
X155850000Y-51640476D01*
X156088096Y-51545238D01*
X155707143Y-51830952D02*
X155850000Y-51640476D01*
X155992858Y-51830952D01*
X156611905Y-51402381D02*
X156611905Y-51640476D01*
X156373810Y-51545238D02*
X156611905Y-51640476D01*
X156850001Y-51545238D01*
X156469048Y-51830952D02*
X156611905Y-51640476D01*
X156754763Y-51830952D01*
X169466667Y-54852381D02*
X169133333Y-54376190D01*
X168895238Y-54852381D02*
X168895238Y-53852381D01*
X169276191Y-53852381D01*
X169371429Y-53900000D01*
X169419048Y-53947619D01*
X169466667Y-54042857D01*
X169466667Y-54185714D01*
X169419048Y-54280952D01*
X169371429Y-54328571D01*
X169276191Y-54376190D01*
X168895238Y-54376190D01*
X169895238Y-54328571D02*
X170228572Y-54328571D01*
X170371429Y-54852381D02*
X169895238Y-54852381D01*
X169895238Y-53852381D01*
X170371429Y-53852381D01*
X171133334Y-54328571D02*
X170800000Y-54328571D01*
X170800000Y-54852381D02*
X170800000Y-53852381D01*
X171276191Y-53852381D01*
X171800000Y-53852381D02*
X171800000Y-54090476D01*
X171561905Y-53995238D02*
X171800000Y-54090476D01*
X172038096Y-53995238D01*
X171657143Y-54280952D02*
X171800000Y-54090476D01*
X171942858Y-54280952D01*
X172561905Y-53852381D02*
X172561905Y-54090476D01*
X172323810Y-53995238D02*
X172561905Y-54090476D01*
X172800001Y-53995238D01*
X172419048Y-54280952D02*
X172561905Y-54090476D01*
X172704763Y-54280952D01*
X99516667Y-41352381D02*
X99183333Y-40876190D01*
X98945238Y-41352381D02*
X98945238Y-40352381D01*
X99326191Y-40352381D01*
X99421429Y-40400000D01*
X99469048Y-40447619D01*
X99516667Y-40542857D01*
X99516667Y-40685714D01*
X99469048Y-40780952D01*
X99421429Y-40828571D01*
X99326191Y-40876190D01*
X98945238Y-40876190D01*
X99945238Y-40828571D02*
X100278572Y-40828571D01*
X100421429Y-41352381D02*
X99945238Y-41352381D01*
X99945238Y-40352381D01*
X100421429Y-40352381D01*
X101183334Y-40828571D02*
X100850000Y-40828571D01*
X100850000Y-41352381D02*
X100850000Y-40352381D01*
X101326191Y-40352381D01*
X101850000Y-40352381D02*
X101850000Y-40590476D01*
X101611905Y-40495238D02*
X101850000Y-40590476D01*
X102088096Y-40495238D01*
X101707143Y-40780952D02*
X101850000Y-40590476D01*
X101992858Y-40780952D01*
X102611905Y-40352381D02*
X102611905Y-40590476D01*
X102373810Y-40495238D02*
X102611905Y-40590476D01*
X102850001Y-40495238D01*
X102469048Y-40780952D02*
X102611905Y-40590476D01*
X102754763Y-40780952D01*
X95316667Y-80902381D02*
X94983333Y-80426190D01*
X94745238Y-80902381D02*
X94745238Y-79902381D01*
X95126191Y-79902381D01*
X95221429Y-79950000D01*
X95269048Y-79997619D01*
X95316667Y-80092857D01*
X95316667Y-80235714D01*
X95269048Y-80330952D01*
X95221429Y-80378571D01*
X95126191Y-80426190D01*
X94745238Y-80426190D01*
X95745238Y-80378571D02*
X96078572Y-80378571D01*
X96221429Y-80902381D02*
X95745238Y-80902381D01*
X95745238Y-79902381D01*
X96221429Y-79902381D01*
X96983334Y-80378571D02*
X96650000Y-80378571D01*
X96650000Y-80902381D02*
X96650000Y-79902381D01*
X97126191Y-79902381D01*
X97650000Y-79902381D02*
X97650000Y-80140476D01*
X97411905Y-80045238D02*
X97650000Y-80140476D01*
X97888096Y-80045238D01*
X97507143Y-80330952D02*
X97650000Y-80140476D01*
X97792858Y-80330952D01*
X98411905Y-79902381D02*
X98411905Y-80140476D01*
X98173810Y-80045238D02*
X98411905Y-80140476D01*
X98650001Y-80045238D01*
X98269048Y-80330952D02*
X98411905Y-80140476D01*
X98554763Y-80330952D01*
X39316667Y-148402381D02*
X38983333Y-147926190D01*
X38745238Y-148402381D02*
X38745238Y-147402381D01*
X39126191Y-147402381D01*
X39221429Y-147450000D01*
X39269048Y-147497619D01*
X39316667Y-147592857D01*
X39316667Y-147735714D01*
X39269048Y-147830952D01*
X39221429Y-147878571D01*
X39126191Y-147926190D01*
X38745238Y-147926190D01*
X39745238Y-147878571D02*
X40078572Y-147878571D01*
X40221429Y-148402381D02*
X39745238Y-148402381D01*
X39745238Y-147402381D01*
X40221429Y-147402381D01*
X40983334Y-147878571D02*
X40650000Y-147878571D01*
X40650000Y-148402381D02*
X40650000Y-147402381D01*
X41126191Y-147402381D01*
X41650000Y-147402381D02*
X41650000Y-147640476D01*
X41411905Y-147545238D02*
X41650000Y-147640476D01*
X41888096Y-147545238D01*
X41507143Y-147830952D02*
X41650000Y-147640476D01*
X41792858Y-147830952D01*
X42411905Y-147402381D02*
X42411905Y-147640476D01*
X42173810Y-147545238D02*
X42411905Y-147640476D01*
X42650001Y-147545238D01*
X42269048Y-147830952D02*
X42411905Y-147640476D01*
X42554763Y-147830952D01*
X102666667Y-138602381D02*
X102333333Y-138126190D01*
X102095238Y-138602381D02*
X102095238Y-137602381D01*
X102476191Y-137602381D01*
X102571429Y-137650000D01*
X102619048Y-137697619D01*
X102666667Y-137792857D01*
X102666667Y-137935714D01*
X102619048Y-138030952D01*
X102571429Y-138078571D01*
X102476191Y-138126190D01*
X102095238Y-138126190D01*
X103095238Y-138078571D02*
X103428572Y-138078571D01*
X103571429Y-138602381D02*
X103095238Y-138602381D01*
X103095238Y-137602381D01*
X103571429Y-137602381D01*
X104333334Y-138078571D02*
X104000000Y-138078571D01*
X104000000Y-138602381D02*
X104000000Y-137602381D01*
X104476191Y-137602381D01*
X105000000Y-137602381D02*
X105000000Y-137840476D01*
X104761905Y-137745238D02*
X105000000Y-137840476D01*
X105238096Y-137745238D01*
X104857143Y-138030952D02*
X105000000Y-137840476D01*
X105142858Y-138030952D01*
X105761905Y-137602381D02*
X105761905Y-137840476D01*
X105523810Y-137745238D02*
X105761905Y-137840476D01*
X106000001Y-137745238D01*
X105619048Y-138030952D02*
X105761905Y-137840476D01*
X105904763Y-138030952D01*
X151066667Y-149402381D02*
X150733333Y-148926190D01*
X150495238Y-149402381D02*
X150495238Y-148402381D01*
X150876191Y-148402381D01*
X150971429Y-148450000D01*
X151019048Y-148497619D01*
X151066667Y-148592857D01*
X151066667Y-148735714D01*
X151019048Y-148830952D01*
X150971429Y-148878571D01*
X150876191Y-148926190D01*
X150495238Y-148926190D01*
X151495238Y-148878571D02*
X151828572Y-148878571D01*
X151971429Y-149402381D02*
X151495238Y-149402381D01*
X151495238Y-148402381D01*
X151971429Y-148402381D01*
X152733334Y-148878571D02*
X152400000Y-148878571D01*
X152400000Y-149402381D02*
X152400000Y-148402381D01*
X152876191Y-148402381D01*
X153400000Y-148402381D02*
X153400000Y-148640476D01*
X153161905Y-148545238D02*
X153400000Y-148640476D01*
X153638096Y-148545238D01*
X153257143Y-148830952D02*
X153400000Y-148640476D01*
X153542858Y-148830952D01*
X154161905Y-148402381D02*
X154161905Y-148640476D01*
X153923810Y-148545238D02*
X154161905Y-148640476D01*
X154400001Y-148545238D01*
X154019048Y-148830952D02*
X154161905Y-148640476D01*
X154304763Y-148830952D01*
X168716667Y-115502381D02*
X168383333Y-115026190D01*
X168145238Y-115502381D02*
X168145238Y-114502381D01*
X168526191Y-114502381D01*
X168621429Y-114550000D01*
X168669048Y-114597619D01*
X168716667Y-114692857D01*
X168716667Y-114835714D01*
X168669048Y-114930952D01*
X168621429Y-114978571D01*
X168526191Y-115026190D01*
X168145238Y-115026190D01*
X169145238Y-114978571D02*
X169478572Y-114978571D01*
X169621429Y-115502381D02*
X169145238Y-115502381D01*
X169145238Y-114502381D01*
X169621429Y-114502381D01*
X170383334Y-114978571D02*
X170050000Y-114978571D01*
X170050000Y-115502381D02*
X170050000Y-114502381D01*
X170526191Y-114502381D01*
X171050000Y-114502381D02*
X171050000Y-114740476D01*
X170811905Y-114645238D02*
X171050000Y-114740476D01*
X171288096Y-114645238D01*
X170907143Y-114930952D02*
X171050000Y-114740476D01*
X171192858Y-114930952D01*
X171811905Y-114502381D02*
X171811905Y-114740476D01*
X171573810Y-114645238D02*
X171811905Y-114740476D01*
X172050001Y-114645238D01*
X171669048Y-114930952D02*
X171811905Y-114740476D01*
X171954763Y-114930952D01*
M02*
