M48
;DRILL file {KiCad 4.0.7} date Wednesday, February 06, 2019 'PMt' 10:43:10 PM
;FORMAT={-:-/ absolute / metric / decimal}
FMAT,2
METRIC,TZ
T1C0.762
T2C2.200
%
G90
G05
M71
T1
X43.25Y-65.1
X43.25Y-84.1
X43.25Y-103.1
X43.25Y-122.1
X43.25Y-141.1
X48.75Y-65.1
X48.75Y-84.1
X48.75Y-103.1
X48.75Y-122.1
X48.75Y-141.1
X54.25Y-65.1
X54.25Y-84.1
X54.25Y-103.1
X54.25Y-122.1
X54.25Y-141.1
X62.25Y-65.1
X62.25Y-84.1
X62.25Y-103.1
X62.25Y-122.1
X62.25Y-141.1
X67.75Y-65.1
X67.75Y-84.1
X67.75Y-103.1
X67.75Y-122.1
X67.75Y-141.1
X73.25Y-65.1
X73.25Y-84.1
X73.25Y-103.1
X73.25Y-122.1
X73.25Y-141.1
X81.55Y-60.1
X81.55Y-79.1
X81.55Y-98.1
X81.55Y-117.1
X81.55Y-136.1
X87.05Y-60.1
X87.05Y-79.1
X87.05Y-98.1
X87.05Y-117.1
X87.05Y-136.1
X92.55Y-60.1
X92.55Y-79.1
X92.55Y-98.1
X92.55Y-117.1
X92.55Y-136.1
X100.55Y-55.1
X100.55Y-93.1
X100.55Y-112.1
X100.55Y-131.1
X100.65Y-74.1
X106.05Y-55.1
X106.05Y-93.1
X106.05Y-112.1
X106.05Y-131.1
X106.15Y-74.1
X111.55Y-55.1
X111.55Y-93.1
X111.55Y-112.1
X111.55Y-131.1
X111.65Y-74.1
X119.55Y-60.1
X119.55Y-79.1
X119.55Y-98.1
X119.55Y-117.1
X119.55Y-136.1
X125.05Y-60.1
X125.05Y-79.1
X125.05Y-98.1
X125.05Y-117.1
X125.05Y-136.1
X130.55Y-60.1
X130.55Y-79.1
X130.55Y-98.1
X130.55Y-117.1
X130.55Y-136.1
X138.55Y-65.1
X138.55Y-84.1
X138.55Y-103.1
X138.55Y-122.1
X138.55Y-141.1
X144.05Y-65.1
X144.05Y-84.1
X144.05Y-103.1
X144.05Y-122.1
X144.05Y-141.1
X149.55Y-65.1
X149.55Y-84.1
X149.55Y-103.1
X149.55Y-122.1
X149.55Y-141.1
X157.55Y-130.1
X157.55Y-149.1
X163.05Y-130.1
X163.05Y-149.1
X168.55Y-130.1
X168.55Y-149.1
T2
X40.65Y-151.15
X41.15Y-54.6
X96.65Y-83.65
X100.85Y-44.1
X104.Y-141.35
X152.4Y-152.15
X154.85Y-55.15
X170.05Y-118.25
X170.8Y-57.6
T0
M30
