M48
;DRILL file {KiCad (5.0.1-3-g963ef8bb5)} date Tuesday, February 26, 2019 at 10:46:38 AM
;FORMAT={-:-/ absolute / inch / decimal}
FMAT,2
INCH,TZ
T1C0.0157
T2C0.0197
T3C0.0217
T4C0.0300
T5C0.0394
T6C0.0300
%
G90
G05
M72
T1
X3.7598Y-5.8858
X3.815Y-5.685
X3.8504Y-5.5079
X3.8543Y-5.622
X3.8981Y-5.5866
X3.9392Y-5.4976
X3.9724Y-5.9213
X4.0186Y-5.5228
X4.1299Y-5.8937
X4.1457Y-5.4724
X4.1575Y-5.8701
X4.2969Y-5.7707
X4.3386Y-5.6142
X4.6496Y-5.2874
X4.7441Y-5.2648
X5.6378Y-2.1772
T4
X4.7283Y-3.7126
X4.9232Y-3.6299
X3.2323Y-3.7126
X3.4272Y-3.6299
X4.7283Y-2.9646
X4.9232Y-2.8819
X2.4724Y-5.4055
X2.6673Y-5.3228
X2.4724Y-3.1614
X2.6673Y-3.0787
X1.7244Y-4.6575
X1.9193Y-4.5748
X5.4764Y-2.4134
X5.6713Y-2.3307
X1.7244Y-2.4134
X1.9193Y-2.3307
X4.7283Y-5.2087
X4.9232Y-5.126
X5.4764Y-3.1614
X5.6713Y-3.0787
X5.4764Y-3.9094
X5.6713Y-3.8268
X3.2323Y-5.2087
X3.4272Y-5.126
X3.9803Y-2.0197
X4.1752Y-1.937
X3.9843Y-2.7677
X4.1791Y-2.685
X3.9803Y-3.5157
X4.1752Y-3.4331
X3.9803Y-4.2638
X4.1752Y-4.1811
X3.9803Y-5.0118
X4.1752Y-4.9291
X4.7283Y-2.2165
X4.9232Y-2.1339
X3.2323Y-2.9646
X3.4272Y-2.8819
X2.4724Y-4.6575
X2.6673Y-4.5748
X2.4724Y-2.4134
X2.6673Y-2.3307
X1.7244Y-3.9094
X1.9193Y-3.8268
X5.4764Y-4.6575
X5.6713Y-4.5748
X5.4764Y-5.4055
X5.6713Y-5.3228
X4.7283Y-4.4606
X4.9232Y-4.378
X3.2323Y-4.4606
X3.4272Y-4.378
X3.2323Y-2.2165
X3.4272Y-2.1339
X2.4724Y-3.9094
X2.6673Y-3.8268
X1.7244Y-5.4055
X1.9193Y-5.3228
X1.7244Y-3.1614
X1.9193Y-3.0787
T5
X5.9646Y-1.8575
X5.9646Y-1.9575
X5.9646Y-2.0575
X5.9646Y-2.1575
T6
X1.7028Y-5.5551
X1.9193Y-5.5551
X2.1358Y-5.5551
X1.7028Y-3.311
X1.9193Y-3.311
X2.1358Y-3.311
X4.7067Y-3.8622
X4.9232Y-3.8622
X5.1398Y-3.8622
X3.2106Y-3.8622
X3.4272Y-3.8622
X3.6437Y-3.8622
X4.7067Y-3.1142
X4.9232Y-3.1142
X5.1398Y-3.1142
X2.4508Y-5.5551
X2.6673Y-5.5551
X2.8839Y-5.5551
X2.4508Y-3.311
X2.6673Y-3.311
X2.8839Y-3.311
X1.7028Y-4.8071
X1.9193Y-4.8071
X2.1358Y-4.8071
X5.4547Y-2.563
X5.6713Y-2.563
X5.8878Y-2.563
X1.7028Y-2.563
X1.9193Y-2.563
X2.1358Y-2.563
X4.7067Y-5.3583
X4.9232Y-5.3583
X5.1398Y-5.3583
X5.4547Y-3.311
X5.6713Y-3.311
X5.8878Y-3.311
X5.4547Y-4.0591
X5.6713Y-4.0591
X5.8878Y-4.0591
X3.2106Y-5.3583
X3.4272Y-5.3583
X3.6437Y-5.3583
X3.9587Y-2.1693
X4.1752Y-2.1693
X4.3917Y-2.1693
X3.9626Y-2.9173
X4.1791Y-2.9173
X4.3957Y-2.9173
X3.9587Y-3.6654
X4.1752Y-3.6654
X4.3917Y-3.6654
X3.9587Y-4.4134
X4.1752Y-4.4134
X4.3917Y-4.4134
X3.9587Y-5.1614
X4.1752Y-5.1614
X4.3917Y-5.1614
X4.7067Y-2.3661
X4.9232Y-2.3661
X5.1398Y-2.3661
X3.2106Y-3.1142
X3.4272Y-3.1142
X3.6437Y-3.1142
X2.4508Y-4.8071
X2.6673Y-4.8071
X2.8839Y-4.8071
X2.4508Y-2.563
X2.6673Y-2.563
X2.8839Y-2.563
X1.7028Y-4.0591
X1.9193Y-4.0591
X2.1358Y-4.0591
X5.4547Y-4.8071
X5.6713Y-4.8071
X5.8878Y-4.8071
X5.4547Y-5.5551
X5.6713Y-5.5551
X5.8878Y-5.5551
X4.7067Y-4.6102
X4.9232Y-4.6102
X5.1398Y-4.6102
X3.2106Y-4.6102
X3.4272Y-4.6102
X3.6437Y-4.6102
X3.2106Y-2.3661
X3.4272Y-2.3661
X3.6437Y-2.3661
X2.4508Y-4.0591
X2.6673Y-4.0591
X2.8839Y-4.0591
T2
X5.4291Y-1.8868G85X5.4291Y-1.9124
G05
X5.7047Y-1.8868G85X5.7047Y-1.9124
G05
T3
X5.4744Y-2.0059G85X5.4626Y-2.0059
G05
X5.6713Y-2.0059G85X5.6594Y-2.0059
G05
T0
M30
