G04 #@! TF.FileFunction,Soldermask,Bot*
%FSLAX46Y46*%
G04 Gerber Fmt 4.6, Leading zero omitted, Abs format (unit mm)*
G04 Created by KiCad (PCBNEW 4.0.7) date Wednesday, February 06, 2019 'PMt' 10:52:11 PM*
%MOMM*%
%LPD*%
G01*
G04 APERTURE LIST*
%ADD10C,0.100000*%
%ADD11C,1.350000*%
%ADD12C,1.400000*%
%ADD13R,2.100000X2.100000*%
%ADD14O,2.100000X2.100000*%
%ADD15C,1.900000*%
%ADD16C,2.600000*%
G04 APERTURE END LIST*
D10*
D11*
X165187717Y-59076917D02*
X164892275Y-59024823D01*
X160263679Y-58208676D02*
X159968237Y-58156582D01*
D12*
X166541407Y-56294715D02*
X166445901Y-56836359D01*
X159647753Y-55079178D02*
X159552247Y-55620822D01*
D13*
X170000000Y-98030000D03*
D14*
X170000000Y-95490000D03*
X170000000Y-92950000D03*
X170000000Y-90410000D03*
D15*
X48750000Y-59200000D03*
X43800000Y-61300000D03*
X48750000Y-78200000D03*
X43800000Y-80300000D03*
X48750000Y-97200000D03*
X43800000Y-99300000D03*
X48750000Y-116200000D03*
X43800000Y-118300000D03*
X48750000Y-135200000D03*
X43800000Y-137300000D03*
X67750000Y-59200000D03*
X62800000Y-61300000D03*
X67750000Y-78200000D03*
X62800000Y-80300000D03*
X67750000Y-97200000D03*
X62800000Y-99300000D03*
X67750000Y-116200000D03*
X62800000Y-118300000D03*
X67750000Y-135200000D03*
X62800000Y-137300000D03*
X87050000Y-54200000D03*
X82100000Y-56300000D03*
X87050000Y-73200000D03*
X82100000Y-75300000D03*
X87050000Y-92200000D03*
X82100000Y-94300000D03*
X87050000Y-111200000D03*
X82100000Y-113300000D03*
X87050000Y-130200000D03*
X82100000Y-132300000D03*
X106050000Y-49200000D03*
X101100000Y-51300000D03*
X106150000Y-68200000D03*
X101200000Y-70300000D03*
X106050000Y-87200000D03*
X101100000Y-89300000D03*
X106050000Y-106200000D03*
X101100000Y-108300000D03*
X106050000Y-125200000D03*
X101100000Y-127300000D03*
X125050000Y-54200000D03*
X120100000Y-56300000D03*
X125050000Y-73200000D03*
X120100000Y-75300000D03*
X125050000Y-92200000D03*
X120100000Y-94300000D03*
X125050000Y-111200000D03*
X120100000Y-113300000D03*
X125050000Y-130200000D03*
X120100000Y-132300000D03*
X144050000Y-59200000D03*
X139100000Y-61300000D03*
X144050000Y-78200000D03*
X139100000Y-80300000D03*
X144050000Y-97200000D03*
X139100000Y-99300000D03*
X144050000Y-116200000D03*
X139100000Y-118300000D03*
X144050000Y-135200000D03*
X139100000Y-137300000D03*
X163050000Y-143200000D03*
X158100000Y-145300000D03*
X163050000Y-124200000D03*
X158100000Y-126300000D03*
D16*
X41150000Y-54600000D03*
X154850000Y-55150000D03*
X170800000Y-57600000D03*
X100850000Y-44100000D03*
X96650000Y-83650000D03*
X40650000Y-151150000D03*
X104000000Y-141350000D03*
X152400000Y-152150000D03*
X170050000Y-118250000D03*
M02*
